%
M48
METRIC,000.000
T03C0.35
T02C0.40
T01C0.85
T10C0.50
%
T03
X132191Y030722
X105349Y038091
X111399Y038400
X117599Y037000
X127597Y036469
X129663Y038531
X096599Y053500
X102599Y053500
X108599Y053500
X114599Y053500
X120599Y053500
X121857Y048335
X114499Y047619
X120499Y047619
X096499Y047619
X108499Y047380
X102599Y047380
X108499Y041631
X096499Y041619
X120499Y041619
X114499Y041631
X102599Y041430
X134895Y038544
X134224Y039971
X102499Y035619
X114499Y035631
X108499Y035631
X120499Y035619
X096499Y035619
X134193Y034128
X096599Y029750
X102599Y029750
X108849Y029750
X114599Y030000
X121392Y030293
X134754Y032459
X122254Y032003
X124599Y016900
X129892Y029443
X128598Y030476
X128323Y028964
X095599Y056750
X101599Y056750
X107599Y056750
X113599Y056750
X119599Y056750
X122599Y055500
X137599Y044000
X133599Y048000
X158599Y043750
X129893Y054100
X143484Y048299
X095599Y038750
X101599Y038750
X107599Y038750
X142567Y048593
X128685Y040319
X113599Y038907
X119599Y038907
X158560Y042521
X095599Y050750
X101599Y050750
X113599Y050750
X119599Y050750
X129598Y048000
X133599Y044000
X137433Y040052
X139257Y039000
X095599Y045000
X101599Y045000
X107599Y045000
X113599Y045000
X119599Y045000
X127599Y051000
X129598Y051000
X123734Y047281
X133536Y042153
X129598Y044571
X128578Y042750
X147911Y055799
X151108Y054893
X095599Y032750
X101599Y032750
X107599Y032750
X113599Y032750
X119599Y032750
X141599Y044000
X137699Y047956
X166599Y043000
X133599Y052051
X107599Y050750
X143469Y046036
X139849Y040000
X091285Y032222
X138215Y060444
X098599Y034000
X153463Y030940
X146963Y042447
X136470Y061107
X148104Y049000
X150628Y036000
X173599Y014100
X106599Y031000
X155668Y030811
X146999Y059800
X148937Y046775
X147599Y039051
X153052Y033954
X154935Y033000
X111599Y029000
X157724Y030831
X124599Y012000
X121299Y017212
X156599Y011000
X155793Y032848
X118599Y031000
X159765Y030389
X143599Y029000
X156999Y024700
X125485Y037635
X137714Y028826
X123499Y054644
X123166Y033851
X158599Y011000
X122252Y049153
X124099Y044500
X124199Y033561
X125173Y039561
X125057Y033393
X158899Y027100
X142792Y055500
X126707Y037295
X152799Y046369
X151599Y042807
X145499Y033492
X151836Y035084
X145635Y029036
X139099Y047500
X147599Y029000
X147484Y030099
X152611Y042688
X135006Y053793
X162899Y026823
X142674Y040732
X154488Y048000
X150488Y048000
X155439Y040123
X156655Y039040
X156599Y047000
X140599Y050000
X166099Y026000
X136490Y039109
X139743Y038018
X148599Y029007
X115499Y011595
X114212Y009658
X169099Y026000
X149573Y031099
X131881Y025560
X138042Y036846
X146084Y032864
X143347Y037033
X150599Y029391
X152382Y033411
X144485Y020067
X155298Y059299
X150274Y058394
X150090Y042807
X143590Y034530
X145575Y039007
X119171Y014027
X139599Y024000
X134427Y027680
X131049Y056400
X161599Y053007
X133599Y058888
X131635Y050938
X149367Y057314
X157599Y010000
X166599Y013000
X155694Y010459
X125799Y034000
X129699Y034100
X121769Y012830
X119393Y015123
X138400Y029801
X128805Y038750
X135271Y035269
X133910Y026110
X134016Y030503
X133319Y039159
X131854Y032815
X159142Y054243
X136100Y034382
X136104Y033169
X148306Y053661
X134271Y028893
X131599Y015000
X105599Y018000
X118909Y018110
X140080Y035466
X154974Y037482
X142413Y036410
X129490Y015393
X122372Y017228
X133049Y030686
X128598Y036200
X127599Y015993
X132271Y028538
X129836Y032769
X042592Y030722
X015750Y038091
X021800Y038400
X028000Y037000
X037998Y036469
X040064Y038531
X007000Y053500
X013000Y053500
X019000Y053500
X025000Y053500
X031000Y053500
X032258Y048335
X024900Y047619
X030900Y047619
X006900Y047619
X018900Y047380
X013000Y047380
X018900Y041631
X006900Y041619
X030900Y041619
X024900Y041631
X013000Y041430
X045296Y038544
X044625Y039971
X012900Y035619
X024900Y035631
X018900Y035631
X030900Y035619
X006900Y035619
X044594Y034128
X007000Y029750
X013000Y029750
X019250Y029750
X025000Y030000
X031793Y030293
X045155Y032459
X032655Y032003
X035000Y016900
X040293Y029443
X039000Y030476
X038724Y028964
X006000Y056750
X012000Y056750
X018000Y056750
X024000Y056750
X030000Y056750
X033000Y055500
X048000Y044000
X044000Y048000
X069000Y043750
X040294Y054100
X053885Y048299
X006000Y038750
X012000Y038750
X018000Y038750
X052968Y048593
X039086Y040319
X024000Y038907
X030000Y038907
X068961Y042521
X006000Y050750
X012000Y050750
X024000Y050750
X030000Y050750
X040000Y048000
X044000Y044000
X047834Y040052
X049658Y039000
X006000Y045000
X012000Y045000
X018000Y045000
X024000Y045000
X030000Y045000
X038000Y051000
X040000Y051000
X034135Y047281
X043937Y042153
X040000Y044571
X038979Y042750
X058312Y055799
X061509Y054893
X006000Y032750
X012000Y032750
X018000Y032750
X024000Y032750
X030000Y032750
X052000Y044000
X048100Y047956
X077000Y043000
X044000Y052051
X018000Y050750
X053870Y046036
X050250Y040000
X001686Y032222
X048616Y060444
X009000Y034000
X063864Y030940
X057364Y042447
X046871Y061107
X058505Y049000
X061029Y036000
X084000Y014100
X017000Y031000
X066069Y030811
X057400Y059800
X059338Y046775
X058000Y039051
X063453Y033954
X065336Y033000
X022000Y029000
X068125Y030831
X035000Y012000
X031700Y017212
X067000Y011000
X066194Y032848
X029000Y031000
X070166Y030389
X054000Y029000
X067400Y024700
X035886Y037635
X048115Y028826
X033900Y054644
X033567Y033851
X069000Y011000
X032653Y049153
X034500Y044500
X034600Y033561
X035574Y039561
X035458Y033393
X069300Y027100
X053193Y055500
X037108Y037295
X063200Y046369
X062000Y042807
X055900Y033492
X062237Y035084
X056036Y029036
X049500Y047500
X058000Y029000
X057885Y030099
X063012Y042688
X045407Y053793
X073300Y026823
X053075Y040732
X064888Y048000
X060889Y048000
X065840Y040123
X067056Y039040
X067000Y047000
X051000Y050000
X076500Y026000
X046891Y039109
X050144Y038018
X059000Y029007
X025900Y011595
X024613Y009658
X079500Y026000
X059974Y031099
X042282Y025560
X048443Y036846
X056485Y032864
X053748Y037033
X061000Y029391
X062783Y033411
X054886Y020067
X065699Y059299
X060675Y058394
X060491Y042807
X053991Y034530
X055976Y039007
X029572Y014027
X050000Y024000
X044828Y027680
X041450Y056400
X072000Y053007
X044000Y058888
X042036Y050938
X059768Y057314
X068000Y010000
X077000Y013000
X066095Y010459
X036200Y034000
X040100Y034100
X032170Y012830
X029794Y015123
X048801Y029801
X039206Y038750
X045672Y035269
X044311Y026110
X044417Y030503
X043720Y039159
X042255Y032815
X069543Y054243
X046501Y034382
X046505Y033169
X058707Y053661
X044672Y028893
X042000Y015000
X016000Y018000
X029310Y018110
X050481Y035466
X065375Y037482
X052814Y036410
X039891Y015393
X032773Y017228
X043450Y030686
X039000Y036200
X038000Y015993
X042672Y028538
X040238Y032769
X042592Y088722
X015750Y096091
X021800Y096400
X028000Y095000
X037998Y094469
X040064Y096531
X007000Y111500
X013000Y111500
X019000Y111500
X025000Y111500
X031000Y111500
X032258Y106335
X024900Y105619
X030900Y105619
X006900Y105619
X018900Y105380
X013000Y105380
X018900Y099631
X006900Y099619
X030900Y099619
X024900Y099631
X013000Y099430
X045296Y096544
X044625Y097971
X012900Y093619
X024900Y093631
X018900Y093631
X030900Y093619
X006900Y093619
X044594Y092128
X007000Y087750
X013000Y087750
X019250Y087750
X025000Y088000
X031793Y088293
X045155Y090459
X032655Y090003
X035000Y074900
X040293Y087443
X039000Y088476
X038724Y086964
X006000Y114750
X012000Y114750
X018000Y114750
X024000Y114750
X030000Y114750
X033000Y113500
X048000Y102000
X044000Y106000
X069000Y101750
X040294Y112100
X053885Y106299
X006000Y096750
X012000Y096750
X018000Y096750
X052968Y106593
X039086Y098319
X024000Y096907
X030000Y096907
X068961Y100521
X006000Y108750
X012000Y108750
X024000Y108750
X030000Y108750
X040000Y106000
X044000Y102000
X047834Y098051
X049658Y097000
X006000Y103000
X012000Y103000
X018000Y103000
X024000Y103000
X030000Y103000
X038000Y109000
X040000Y109000
X034135Y105281
X043937Y100152
X040000Y102571
X038979Y100750
X058312Y113799
X061509Y112893
X006000Y090750
X012000Y090750
X018000Y090750
X024000Y090750
X030000Y090750
X052000Y102000
X048100Y105956
X077000Y101000
X044000Y110051
X018000Y108750
X053870Y104036
X050250Y098000
X001686Y090222
X048616Y118444
X009000Y092000
X063864Y088940
X057364Y100447
X046871Y119107
X058505Y107000
X061029Y094000
X084000Y072100
X017000Y089000
X066069Y088811
X057400Y117800
X059338Y104775
X058000Y097051
X063453Y091954
X065336Y091000
X022000Y087000
X068125Y088831
X035000Y070000
X031700Y075212
X067000Y069000
X066194Y090848
X029000Y089000
X070166Y088389
X054000Y087000
X067400Y082700
X035886Y095636
X048115Y086826
X033900Y112644
X033567Y091851
X069000Y069000
X032653Y107152
X034500Y102500
X034600Y091561
X035574Y097561
X035458Y091393
X069300Y085100
X053193Y113500
X037108Y095295
X063200Y104369
X062000Y100807
X055900Y091492
X062237Y093084
X056036Y087036
X049500Y105500
X058000Y087000
X057885Y088099
X063012Y100688
X045407Y111793
X073300Y084823
X053075Y098732
X064888Y106000
X060889Y106000
X065840Y098123
X067056Y097039
X067000Y105000
X051000Y108000
X076500Y084000
X046891Y097109
X050144Y096018
X059000Y087007
X025900Y069595
X024613Y067658
X079500Y084000
X059974Y089099
X042282Y083560
X048443Y094846
X056485Y090864
X053748Y095033
X061000Y087390
X062783Y091411
X054886Y078068
X065699Y117299
X060675Y116394
X060491Y100807
X053991Y092530
X055976Y097008
X029572Y072028
X050000Y082000
X044828Y085680
X041450Y114400
X072000Y111007
X044000Y116888
X042036Y108938
X059768Y115314
X068000Y068000
X077000Y071000
X066095Y068459
X036200Y092000
X040100Y092100
X032170Y070830
X029794Y073123
X048801Y087801
X039206Y096750
X045672Y093269
X044311Y084110
X044417Y088503
X043720Y097158
X042255Y090815
X069543Y112243
X046501Y092382
X046505Y091169
X058707Y111661
X044672Y086893
X042000Y073000
X016000Y076000
X029310Y076110
X050481Y093466
X065375Y095482
X052814Y094410
X039891Y073393
X032773Y075228
X043450Y088686
X039000Y094200
X038000Y073993
X042672Y086538
X040238Y090770
X132191Y088722
X105349Y096091
X111399Y096400
X117599Y095000
X127597Y094469
X129663Y096531
X096599Y111500
X102599Y111500
X108599Y111500
X114599Y111500
X120599Y111500
X121857Y106335
X114499Y105619
X120499Y105619
X096499Y105619
X108499Y105380
X102599Y105380
X108499Y099631
X096499Y099619
X120499Y099619
X114499Y099631
X102599Y099430
X134895Y096544
X134224Y097971
X102499Y093619
X114499Y093631
X108499Y093631
X120499Y093619
X096499Y093619
X134193Y092128
X096599Y087750
X102599Y087750
X108849Y087750
X114599Y088000
X121392Y088293
X134754Y090459
X122254Y090003
X124599Y074900
X129892Y087443
X128598Y088476
X128323Y086964
X095599Y114750
X101599Y114750
X107599Y114750
X113599Y114750
X119599Y114750
X122599Y113500
X137599Y102000
X133599Y106000
X158599Y101750
X129893Y112100
X143484Y106299
X095599Y096750
X101599Y096750
X107599Y096750
X142567Y106593
X128685Y098319
X113599Y096907
X119599Y096907
X158560Y100521
X095599Y108750
X101599Y108750
X113599Y108750
X119599Y108750
X129598Y106000
X133599Y102000
X137433Y098051
X139257Y097000
X095599Y103000
X101599Y103000
X107599Y103000
X113599Y103000
X119599Y103000
X127599Y109000
X129598Y109000
X123734Y105281
X133536Y100152
X129598Y102571
X128578Y100750
X147911Y113799
X151108Y112893
X095599Y090750
X101599Y090750
X107599Y090750
X113599Y090750
X119599Y090750
X141599Y102000
X137699Y105956
X166599Y101000
X133599Y110051
X107599Y108750
X143469Y104036
X139849Y098000
X091285Y090222
X138215Y118444
X098599Y092000
X153463Y088940
X146963Y100447
X136470Y119107
X148104Y107000
X150628Y094000
X173599Y072100
X106599Y089000
X155668Y088811
X146999Y117800
X148937Y104775
X147599Y097051
X153052Y091954
X154935Y091000
X111599Y087000
X157724Y088831
X124599Y070000
X121299Y075212
X156599Y069000
X155793Y090848
X118599Y089000
X159765Y088389
X143599Y087000
X156999Y082700
X125485Y095636
X137714Y086826
X123499Y112644
X123166Y091851
X158599Y069000
X122252Y107152
X124099Y102500
X124199Y091561
X125173Y097561
X125057Y091393
X158899Y085100
X142792Y113500
X126707Y095295
X152799Y104369
X151599Y100807
X145499Y091492
X151836Y093084
X145635Y087036
X139099Y105500
X147599Y087000
X147484Y088099
X152611Y100688
X135006Y111793
X162899Y084823
X142674Y098732
X154488Y106000
X150488Y106000
X155439Y098123
X156655Y097039
X156599Y105000
X140599Y108000
X166099Y084000
X136490Y097109
X139743Y096018
X148599Y087007
X115499Y069595
X114212Y067658
X169099Y084000
X149573Y089099
X131881Y083560
X138042Y094846
X146084Y090864
X143347Y095033
X150599Y087390
X152382Y091411
X144485Y078068
X155298Y117299
X150274Y116394
X150090Y100807
X143590Y092530
X145575Y097008
X119171Y072028
X139599Y082000
X134427Y085680
X131049Y114400
X161599Y111007
X133599Y116888
X131635Y108938
X149367Y115314
X157599Y068000
X166599Y071000
X155694Y068459
X125799Y092000
X129699Y092100
X121769Y070830
X119393Y073123
X138400Y087801
X128805Y096750
X135271Y093269
X133910Y084110
X134016Y088503
X133319Y097158
X131854Y090815
X159142Y112243
X136100Y092382
X136104Y091169
X148306Y111661
X134271Y086893
X131599Y073000
X105599Y076000
X118909Y076110
X140080Y093466
X154974Y095482
X142413Y094410
X129490Y073393
X122372Y075228
X133049Y088686
X128598Y094200
X127599Y073993
X132271Y086538
X129836Y090770
T02
X167599Y060000
X161599Y019000
X151693Y044045
X144332Y032907
X131599Y036000
X132770Y039859
X149820Y047000
X132752Y042830
X153905Y036306
X141408Y030386
X149210Y039800
X153827Y034428
X123041Y032968
X131050Y039399
X141599Y033000
X139063Y029031
X129817Y042977
X148599Y054900
X158199Y058500
X143871Y039339
X167564Y036571
X162599Y055200
X158499Y055500
X164499Y055600
X078000Y060000
X072000Y019000
X062094Y044045
X054733Y032907
X042000Y036000
X043171Y039859
X060221Y047000
X043153Y042830
X064306Y036306
X051809Y030386
X059611Y039800
X064227Y034428
X033442Y032968
X041451Y039399
X052000Y033000
X049464Y029031
X040218Y042977
X059000Y054900
X068600Y058500
X054272Y039339
X077965Y036571
X073000Y055200
X068900Y055500
X074900Y055600
X078000Y118000
X072000Y077000
X062094Y102045
X054733Y090907
X042000Y094000
X043171Y097859
X060221Y105000
X043153Y100830
X064306Y094306
X051809Y088386
X059611Y097800
X064227Y092428
X033442Y090968
X041451Y097399
X052000Y091000
X049464Y087031
X040218Y100977
X059000Y112900
X068600Y116500
X054272Y097339
X077965Y094571
X073000Y113200
X068900Y113500
X074900Y113600
X167599Y118000
X161599Y077000
X151693Y102045
X144332Y090907
X131599Y094000
X132770Y097859
X149820Y105000
X132752Y100830
X153905Y094306
X141408Y088386
X149210Y097800
X153827Y092428
X123041Y090968
X131050Y097399
X141599Y091000
X139063Y087031
X129817Y100977
X148599Y112900
X158199Y116500
X143871Y097339
X167564Y094571
X162599Y113200
X158499Y113500
X164499Y113600
T01
X162475Y047459
X161575Y024459
X163775Y024459
X159075Y024459
X160475Y047459
X072876Y047459
X071976Y024459
X074176Y024459
X069476Y024459
X070876Y047459
X072876Y105459
X071976Y082459
X074176Y082459
X069476Y082459
X070876Y105459
X162475Y105459
X161575Y082459
X163775Y082459
X159075Y082459
X160475Y105459
T10
X017772Y121229
X016772Y121229
X015772Y121229
X014772Y121229
X013772Y121229
X012772Y121229
X011772Y121229
X011572Y124750
X012572Y124750
X013572Y124750
X014572Y124750
X015572Y124750
X016572Y124750
X017572Y124750
X018572Y124750
X067772Y121229
X066772Y121229
X065772Y121229
X064772Y121229
X063772Y121229
X062772Y121229
X061772Y121229
X061572Y124750
X062572Y124750
X063572Y124750
X064572Y124750
X065572Y124750
X066572Y124750
X067572Y124750
X068572Y124750
X108372Y121229
X107372Y121229
X106372Y121229
X105372Y121229
X104372Y121229
X103372Y121229
X102372Y121229
X101572Y124750
X102572Y124750
X103572Y124750
X104572Y124750
X105572Y124750
X106572Y124750
X107572Y124750
X108572Y124750
X158372Y121229
X157372Y121229
X156372Y121229
X155372Y121229
X154372Y121229
X153372Y121229
X152372Y121229
X151572Y124750
X152572Y124750
X153572Y124750
X154572Y124750
X155572Y124750
X156572Y124750
X157572Y124750
X158572Y124750
X085849Y106963
X085849Y107963
X085849Y108963
X085849Y109963
X085849Y110963
X085849Y111963
X085849Y112963
X089349Y112909
X089349Y111909
X089349Y110909
X089349Y109909
X089349Y108909
X089349Y107909
X089349Y106909
X085849Y076963
X085849Y077963
X085849Y078963
X085849Y079963
X085849Y080963
X085849Y081963
X085849Y082963
X089349Y082909
X089349Y081909
X089349Y080909
X089349Y079909
X089349Y078909
X089349Y077909
X089349Y076909
X017772Y063229
X016772Y063229
X015772Y063229
X014772Y063229
X013772Y063229
X012772Y063229
X011772Y063229
X011934Y066750
X012934Y066750
X013934Y066750
X014934Y066750
X015934Y066750
X016934Y066750
X017934Y066750
X067772Y063229
X066772Y063229
X065772Y063229
X064772Y063229
X063772Y063229
X062772Y063229
X061772Y063229
X061934Y066750
X062934Y066750
X063934Y066750
X064934Y066750
X065934Y066750
X066934Y066750
X067934Y066750
X108372Y063229
X107372Y063229
X106372Y063229
X105372Y063229
X104372Y063229
X103372Y063229
X102372Y063229
X101534Y066750
X102534Y066750
X103534Y066750
X104534Y066750
X105534Y066750
X106534Y066750
X107534Y066750
X108534Y066750
X158372Y063229
X157372Y063229
X156372Y063229
X155372Y063229
X154372Y063229
X153372Y063229
X152372Y063229
X151534Y066750
X152534Y066750
X153534Y066750
X154534Y066750
X155534Y066750
X156534Y066750
X157534Y066750
X158534Y066750
X089349Y053909
X089349Y052909
X089349Y051909
X089349Y050909
X089349Y049909
X089349Y048909
X089349Y047909
X085849Y047963
X085849Y048963
X085849Y049963
X085849Y050963
X085849Y051963
X085849Y052963
X085849Y053963
X089349Y023909
X089349Y022909
X089349Y021909
X089349Y020909
X089349Y019909
X089349Y018909
X089349Y017909
X085849Y017963
X085849Y018963
X085849Y019963
X085849Y020963
X085849Y021963
X085849Y022963
X085849Y023963
X011934Y008750
X012934Y008750
X013934Y008750
X014934Y008750
X015934Y008750
X016934Y008750
X017934Y008750
X017813Y005250
X016813Y005250
X015813Y005250
X014813Y005250
X013813Y005250
X012813Y005250
X011813Y005250
X061934Y008750
X062934Y008750
X063934Y008750
X064934Y008750
X065934Y008750
X066934Y008750
X067934Y008750
X067813Y005250
X066813Y005250
X065813Y005250
X064813Y005250
X063813Y005250
X062813Y005250
X061813Y005250
X101534Y008750
X102534Y008750
X103534Y008750
X104534Y008750
X105534Y008750
X106534Y008750
X107534Y008750
X108534Y008750
X107813Y005250
X106813Y005250
X105813Y005250
X104813Y005250
X103813Y005250
X102813Y005250
X101813Y005250
X151534Y008750
X152534Y008750
X153534Y008750
X154534Y008750
X155534Y008750
X156534Y008750
X157534Y008750
X158534Y008750
X157813Y005250
X156813Y005250
X155813Y005250
X154813Y005250
X153813Y005250
X152813Y005250
X151813Y005250
M30