%MOIN*%
%OFA0B0*%
%FSLAX34Y34*%
%IPPOS*%
%LPD*%
%AMOC8*
5,1,8,0,0,$1,22.5*%
%AMOC80*
5,1,8,0,0,$1,22.5*%
%AMOC81*
5,1,8,0,0,$1,22.5*%
%AMOC80*
5,1,8,0,0,$1,22.5*%
%AMOC81*
5,1,8,0,0,$1,22.5*%
%AMOC80*
5,1,8,0,0,$1,22.5*%
%ADD10R,0.064566929133858267X0.064566929133858267*%
%ADD11C,0.0025590551181102366*%
%ADD12R,0.051181102362204731X0.059055118110236227*%
%ADD13R,0.026000000000000002X0.08*%
%ADD14R,0.059055118110236227X0.051181102362204731*%
%ADD15R,0.27559055118110237X0.1*%
%ADD26R,0.064566929133858267X0.064566929133858267*%
%ADD27C,0.0025590551181102366*%
%ADD28R,0.051181102362204731X0.059055118110236227*%
%ADD29R,0.026000000000000002X0.08*%
%ADD30R,0.059055118110236227X0.051181102362204731*%
%ADD31R,0.27559055118110237X0.1*%
%ADD32R,0.064566929133858267X0.064566929133858267*%
%ADD33C,0.0025590551181102366*%
%ADD34R,0.051181102362204731X0.059055118110236227*%
%ADD35R,0.026000000000000002X0.08*%
%ADD36R,0.059055118110236227X0.051181102362204731*%
%ADD37R,0.27559055118110237X0.1*%
%ADD38R,0.064566929133858267X0.064566929133858267*%
%ADD39C,0.0025590551181102366*%
%ADD40R,0.051181102362204731X0.059055118110236227*%
%ADD41R,0.026000000000000002X0.08*%
%ADD42R,0.059055118110236227X0.051181102362204731*%
%ADD43R,0.27559055118110237X0.1*%
G75*
G01*
D10*
X0035275Y0003543D02*
X0051810Y0014173D03*
D11*
X0052341Y0013552D02*
X0052341Y0013258D01*
X0052264Y0013258D01*
X0052264Y0013552D01*
X0052341Y0013552D01*
X0052341Y0013283D02*
X0052264Y0013283D01*
X0052264Y0013307D02*
X0052341Y0013307D01*
X0052341Y0013331D02*
X0052264Y0013331D01*
X0052264Y0013356D02*
X0052341Y0013356D01*
X0052341Y0013380D02*
X0052264Y0013380D01*
X0052264Y0013404D02*
X0052341Y0013404D01*
X0052341Y0013428D02*
X0052264Y0013428D01*
X0052264Y0013453D02*
X0052341Y0013453D01*
X0052341Y0013477D02*
X0052264Y0013477D01*
X0052264Y0013501D02*
X0052341Y0013501D01*
X0052341Y0013526D02*
X0052264Y0013526D01*
X0052264Y0013550D02*
X0052341Y0013550D01*
X0052144Y0013552D02*
X0052144Y0013258D01*
X0052067Y0013258D01*
X0052067Y0013552D01*
X0052144Y0013552D01*
X0052144Y0013283D02*
X0052067Y0013283D01*
X0052067Y0013307D02*
X0052144Y0013307D01*
X0052144Y0013331D02*
X0052067Y0013331D01*
X0052067Y0013356D02*
X0052144Y0013356D01*
X0052144Y0013380D02*
X0052067Y0013380D01*
X0052067Y0013404D02*
X0052144Y0013404D01*
X0052144Y0013428D02*
X0052067Y0013428D01*
X0052067Y0013453D02*
X0052144Y0013453D01*
X0052144Y0013477D02*
X0052067Y0013477D01*
X0052067Y0013501D02*
X0052144Y0013501D01*
X0052144Y0013526D02*
X0052067Y0013526D01*
X0052067Y0013550D02*
X0052144Y0013550D01*
X0051947Y0013552D02*
X0051947Y0013258D01*
X0051871Y0013258D01*
X0051871Y0013552D01*
X0051947Y0013552D01*
X0051947Y0013283D02*
X0051871Y0013283D01*
X0051871Y0013307D02*
X0051947Y0013307D01*
X0051947Y0013331D02*
X0051871Y0013331D01*
X0051871Y0013356D02*
X0051947Y0013356D01*
X0051947Y0013380D02*
X0051871Y0013380D01*
X0051871Y0013404D02*
X0051947Y0013404D01*
X0051947Y0013428D02*
X0051871Y0013428D01*
X0051871Y0013453D02*
X0051947Y0013453D01*
X0051947Y0013477D02*
X0051871Y0013477D01*
X0051871Y0013501D02*
X0051947Y0013501D01*
X0051947Y0013526D02*
X0051871Y0013526D01*
X0051871Y0013550D02*
X0051947Y0013550D01*
X0051750Y0013552D02*
X0051750Y0013258D01*
X0051674Y0013258D01*
X0051674Y0013552D01*
X0051750Y0013552D01*
X0051750Y0013283D02*
X0051674Y0013283D01*
X0051674Y0013307D02*
X0051750Y0013307D01*
X0051750Y0013331D02*
X0051674Y0013331D01*
X0051674Y0013356D02*
X0051750Y0013356D01*
X0051750Y0013380D02*
X0051674Y0013380D01*
X0051674Y0013404D02*
X0051750Y0013404D01*
X0051750Y0013428D02*
X0051674Y0013428D01*
X0051674Y0013453D02*
X0051750Y0013453D01*
X0051750Y0013477D02*
X0051674Y0013477D01*
X0051674Y0013501D02*
X0051750Y0013501D01*
X0051750Y0013526D02*
X0051674Y0013526D01*
X0051674Y0013550D02*
X0051750Y0013550D01*
X0051554Y0013552D02*
X0051554Y0013258D01*
X0051477Y0013258D01*
X0051477Y0013552D01*
X0051554Y0013552D01*
X0051554Y0013283D02*
X0051477Y0013283D01*
X0051477Y0013307D02*
X0051554Y0013307D01*
X0051554Y0013331D02*
X0051477Y0013331D01*
X0051477Y0013356D02*
X0051554Y0013356D01*
X0051554Y0013380D02*
X0051477Y0013380D01*
X0051477Y0013404D02*
X0051554Y0013404D01*
X0051554Y0013428D02*
X0051477Y0013428D01*
X0051477Y0013453D02*
X0051554Y0013453D01*
X0051554Y0013477D02*
X0051477Y0013477D01*
X0051477Y0013501D02*
X0051554Y0013501D01*
X0051554Y0013526D02*
X0051477Y0013526D01*
X0051477Y0013550D02*
X0051554Y0013550D01*
X0051357Y0013552D02*
X0051357Y0013258D01*
X0051280Y0013258D01*
X0051280Y0013552D01*
X0051357Y0013552D01*
X0051357Y0013283D02*
X0051280Y0013283D01*
X0051280Y0013307D02*
X0051357Y0013307D01*
X0051357Y0013331D02*
X0051280Y0013331D01*
X0051280Y0013356D02*
X0051357Y0013356D01*
X0051357Y0013380D02*
X0051280Y0013380D01*
X0051280Y0013404D02*
X0051357Y0013404D01*
X0051357Y0013428D02*
X0051280Y0013428D01*
X0051280Y0013453D02*
X0051357Y0013453D01*
X0051357Y0013477D02*
X0051280Y0013477D01*
X0051280Y0013501D02*
X0051357Y0013501D01*
X0051357Y0013526D02*
X0051280Y0013526D01*
X0051280Y0013550D02*
X0051357Y0013550D01*
X0051357Y0014794D02*
X0051357Y0015087D01*
X0051357Y0014794D02*
X0051280Y0014794D01*
X0051280Y0015087D01*
X0051357Y0015087D01*
X0051357Y0014818D02*
X0051280Y0014818D01*
X0051280Y0014842D02*
X0051357Y0014842D01*
X0051357Y0014867D02*
X0051280Y0014867D01*
X0051280Y0014891D02*
X0051357Y0014891D01*
X0051357Y0014915D02*
X0051280Y0014915D01*
X0051280Y0014940D02*
X0051357Y0014940D01*
X0051357Y0014964D02*
X0051280Y0014964D01*
X0051280Y0014988D02*
X0051357Y0014988D01*
X0051357Y0015012D02*
X0051280Y0015012D01*
X0051280Y0015037D02*
X0051357Y0015037D01*
X0051357Y0015061D02*
X0051280Y0015061D01*
X0051280Y0015085D02*
X0051357Y0015085D01*
X0051554Y0015087D02*
X0051554Y0014794D01*
X0051477Y0014794D01*
X0051477Y0015087D01*
X0051554Y0015087D01*
X0051554Y0014818D02*
X0051477Y0014818D01*
X0051477Y0014842D02*
X0051554Y0014842D01*
X0051554Y0014867D02*
X0051477Y0014867D01*
X0051477Y0014891D02*
X0051554Y0014891D01*
X0051554Y0014915D02*
X0051477Y0014915D01*
X0051477Y0014940D02*
X0051554Y0014940D01*
X0051554Y0014964D02*
X0051477Y0014964D01*
X0051477Y0014988D02*
X0051554Y0014988D01*
X0051554Y0015012D02*
X0051477Y0015012D01*
X0051477Y0015037D02*
X0051554Y0015037D01*
X0051554Y0015061D02*
X0051477Y0015061D01*
X0051477Y0015085D02*
X0051554Y0015085D01*
X0051750Y0015087D02*
X0051750Y0014794D01*
X0051674Y0014794D01*
X0051674Y0015087D01*
X0051750Y0015087D01*
X0051750Y0014818D02*
X0051674Y0014818D01*
X0051674Y0014842D02*
X0051750Y0014842D01*
X0051750Y0014867D02*
X0051674Y0014867D01*
X0051674Y0014891D02*
X0051750Y0014891D01*
X0051750Y0014915D02*
X0051674Y0014915D01*
X0051674Y0014940D02*
X0051750Y0014940D01*
X0051750Y0014964D02*
X0051674Y0014964D01*
X0051674Y0014988D02*
X0051750Y0014988D01*
X0051750Y0015012D02*
X0051674Y0015012D01*
X0051674Y0015037D02*
X0051750Y0015037D01*
X0051750Y0015061D02*
X0051674Y0015061D01*
X0051674Y0015085D02*
X0051750Y0015085D01*
X0051947Y0015087D02*
X0051947Y0014794D01*
X0051871Y0014794D01*
X0051871Y0015087D01*
X0051947Y0015087D01*
X0051947Y0014818D02*
X0051871Y0014818D01*
X0051871Y0014842D02*
X0051947Y0014842D01*
X0051947Y0014867D02*
X0051871Y0014867D01*
X0051871Y0014891D02*
X0051947Y0014891D01*
X0051947Y0014915D02*
X0051871Y0014915D01*
X0051871Y0014940D02*
X0051947Y0014940D01*
X0051947Y0014964D02*
X0051871Y0014964D01*
X0051871Y0014988D02*
X0051947Y0014988D01*
X0051947Y0015012D02*
X0051871Y0015012D01*
X0051871Y0015037D02*
X0051947Y0015037D01*
X0051947Y0015061D02*
X0051871Y0015061D01*
X0051871Y0015085D02*
X0051947Y0015085D01*
X0052144Y0015087D02*
X0052144Y0014794D01*
X0052067Y0014794D01*
X0052067Y0015087D01*
X0052144Y0015087D01*
X0052144Y0014818D02*
X0052067Y0014818D01*
X0052067Y0014842D02*
X0052144Y0014842D01*
X0052144Y0014867D02*
X0052067Y0014867D01*
X0052067Y0014891D02*
X0052144Y0014891D01*
X0052144Y0014915D02*
X0052067Y0014915D01*
X0052067Y0014940D02*
X0052144Y0014940D01*
X0052144Y0014964D02*
X0052067Y0014964D01*
X0052067Y0014988D02*
X0052144Y0014988D01*
X0052144Y0015012D02*
X0052067Y0015012D01*
X0052067Y0015037D02*
X0052144Y0015037D01*
X0052144Y0015061D02*
X0052067Y0015061D01*
X0052067Y0015085D02*
X0052144Y0015085D01*
X0052341Y0015087D02*
X0052341Y0014794D01*
X0052264Y0014794D01*
X0052264Y0015087D01*
X0052341Y0015087D01*
X0052341Y0014818D02*
X0052264Y0014818D01*
X0052264Y0014842D02*
X0052341Y0014842D01*
X0052341Y0014867D02*
X0052264Y0014867D01*
X0052264Y0014891D02*
X0052341Y0014891D01*
X0052341Y0014915D02*
X0052264Y0014915D01*
X0052264Y0014940D02*
X0052341Y0014940D01*
X0052341Y0014964D02*
X0052264Y0014964D01*
X0052264Y0014988D02*
X0052341Y0014988D01*
X0052341Y0015012D02*
X0052264Y0015012D01*
X0052264Y0015037D02*
X0052341Y0015037D01*
X0052341Y0015061D02*
X0052264Y0015061D01*
X0052264Y0015085D02*
X0052341Y0015085D01*
X0052432Y0014703D02*
X0052725Y0014703D01*
X0052725Y0014626D01*
X0052432Y0014626D01*
X0052432Y0014703D01*
X0052432Y0014651D02*
X0052725Y0014651D01*
X0052725Y0014675D02*
X0052432Y0014675D01*
X0052432Y0014699D02*
X0052725Y0014699D01*
X0052725Y0014506D02*
X0052432Y0014506D01*
X0052725Y0014506D02*
X0052725Y0014430D01*
X0052432Y0014430D01*
X0052432Y0014506D01*
X0052432Y0014454D02*
X0052725Y0014454D01*
X0052725Y0014478D02*
X0052432Y0014478D01*
X0052432Y0014502D02*
X0052725Y0014502D01*
X0052725Y0014310D02*
X0052432Y0014310D01*
X0052725Y0014310D02*
X0052725Y0014233D01*
X0052432Y0014233D01*
X0052432Y0014310D01*
X0052432Y0014257D02*
X0052725Y0014257D01*
X0052725Y0014281D02*
X0052432Y0014281D01*
X0052432Y0014306D02*
X0052725Y0014306D01*
X0052725Y0014113D02*
X0052432Y0014113D01*
X0052725Y0014113D02*
X0052725Y0014036D01*
X0052432Y0014036D01*
X0052432Y0014113D01*
X0052432Y0014060D02*
X0052725Y0014060D01*
X0052725Y0014085D02*
X0052432Y0014085D01*
X0052432Y0014109D02*
X0052725Y0014109D01*
X0052725Y0013916D02*
X0052432Y0013916D01*
X0052725Y0013916D02*
X0052725Y0013839D01*
X0052432Y0013839D01*
X0052432Y0013916D01*
X0052432Y0013863D02*
X0052725Y0013863D01*
X0052725Y0013888D02*
X0052432Y0013888D01*
X0052432Y0013912D02*
X0052725Y0013912D01*
X0052725Y0013719D02*
X0052432Y0013719D01*
X0052725Y0013719D02*
X0052725Y0013642D01*
X0052432Y0013642D01*
X0052432Y0013719D01*
X0052432Y0013667D02*
X0052725Y0013667D01*
X0052725Y0013691D02*
X0052432Y0013691D01*
X0052432Y0013715D02*
X0052725Y0013715D01*
X0051189Y0013719D02*
X0050896Y0013719D01*
X0051189Y0013719D02*
X0051189Y0013642D01*
X0050896Y0013642D01*
X0050896Y0013719D01*
X0050896Y0013667D02*
X0051189Y0013667D01*
X0051189Y0013691D02*
X0050896Y0013691D01*
X0050896Y0013715D02*
X0051189Y0013715D01*
X0051189Y0013916D02*
X0050896Y0013916D01*
X0051189Y0013916D02*
X0051189Y0013839D01*
X0050896Y0013839D01*
X0050896Y0013916D01*
X0050896Y0013863D02*
X0051189Y0013863D01*
X0051189Y0013888D02*
X0050896Y0013888D01*
X0050896Y0013912D02*
X0051189Y0013912D01*
X0051189Y0014113D02*
X0050896Y0014113D01*
X0051189Y0014113D02*
X0051189Y0014036D01*
X0050896Y0014036D01*
X0050896Y0014113D01*
X0050896Y0014060D02*
X0051189Y0014060D01*
X0051189Y0014085D02*
X0050896Y0014085D01*
X0050896Y0014109D02*
X0051189Y0014109D01*
X0051189Y0014310D02*
X0050896Y0014310D01*
X0051189Y0014310D02*
X0051189Y0014233D01*
X0050896Y0014233D01*
X0050896Y0014310D01*
X0050896Y0014257D02*
X0051189Y0014257D01*
X0051189Y0014281D02*
X0050896Y0014281D01*
X0050896Y0014306D02*
X0051189Y0014306D01*
X0051189Y0014506D02*
X0050896Y0014506D01*
X0051189Y0014506D02*
X0051189Y0014430D01*
X0050896Y0014430D01*
X0050896Y0014506D01*
X0050896Y0014454D02*
X0051189Y0014454D01*
X0051189Y0014478D02*
X0050896Y0014478D01*
X0050896Y0014502D02*
X0051189Y0014502D01*
X0051189Y0014703D02*
X0050896Y0014703D01*
X0051189Y0014703D02*
X0051189Y0014626D01*
X0050896Y0014626D01*
X0050896Y0014703D01*
X0050896Y0014651D02*
X0051189Y0014651D01*
X0051189Y0014675D02*
X0050896Y0014675D01*
X0050896Y0014699D02*
X0051189Y0014699D01*
D12*
X0049035Y0022342D03*
X0048287Y0022342D03*
X0049035Y0019980D03*
X0048287Y0019980D03*
X0049035Y0018110D03*
X0048287Y0018110D03*
X0049035Y0016141D03*
X0048287Y0016141D03*
X0049035Y0014173D03*
X0048287Y0014173D03*
D13*
X0048092Y0009950D03*
X0048092Y0007530D03*
X0048592Y0009950D03*
X0049092Y0009950D03*
X0048592Y0007530D03*
X0049092Y0007530D03*
X0049592Y0009950D03*
X0049592Y0007530D03*
X0050092Y0009950D03*
X0050092Y0007530D03*
X0050592Y0009950D03*
X0051092Y0009950D03*
X0050592Y0007530D03*
X0051092Y0007530D03*
X0051592Y0009950D03*
X0051592Y0007530D03*
X0036675Y0009871D03*
X0036675Y0007451D03*
X0037175Y0009871D03*
X0037675Y0009871D03*
X0037175Y0007451D03*
X0037675Y0007451D03*
X0038175Y0009871D03*
X0038175Y0007451D03*
X0038675Y0009871D03*
X0038675Y0007451D03*
X0039175Y0009871D03*
X0039675Y0009871D03*
X0039175Y0007451D03*
X0039675Y0007451D03*
X0040175Y0009871D03*
X0040175Y0007451D03*
D12*
X0057696Y0016141D03*
X0056948Y0016141D03*
X0058065Y0013609D03*
X0058813Y0013609D03*
D14*
X0057322Y0007106D03*
X0057322Y0007854D03*
X0060472Y0022342D03*
X0060472Y0023090D03*
D15*
X0063622Y0018673D03*
X0063622Y0009673D03*
D14*
X0064015Y0022342D03*
X0064015Y0023090D03*
X0062834Y0022381D03*
X0062834Y0023129D03*
X0065208Y0022289D03*
X0065208Y0023037D03*
X0041206Y0008284D03*
X0041206Y0009032D03*
X0047244Y0007460D03*
X0047244Y0006712D03*
X0053779Y0014192D03*
X0053779Y0014940D03*
G04 next file*
G04 EAGLE Gerber RS-274X export*
G75*
G01*
G04 Define Apertures*
D26*
X0000000Y0003543D02*
X0016535Y0014173D03*
D27*
X0017065Y0013552D02*
X0017065Y0013258D01*
X0016989Y0013258D01*
X0016989Y0013552D01*
X0017065Y0013552D01*
X0017065Y0013283D02*
X0016989Y0013283D01*
X0016989Y0013307D02*
X0017065Y0013307D01*
X0017065Y0013331D02*
X0016989Y0013331D01*
X0016989Y0013356D02*
X0017065Y0013356D01*
X0017065Y0013380D02*
X0016989Y0013380D01*
X0016989Y0013404D02*
X0017065Y0013404D01*
X0017065Y0013428D02*
X0016989Y0013428D01*
X0016989Y0013453D02*
X0017065Y0013453D01*
X0017065Y0013477D02*
X0016989Y0013477D01*
X0016989Y0013501D02*
X0017065Y0013501D01*
X0017065Y0013526D02*
X0016989Y0013526D01*
X0016989Y0013550D02*
X0017065Y0013550D01*
X0016869Y0013552D02*
X0016869Y0013258D01*
X0016792Y0013258D01*
X0016792Y0013552D01*
X0016869Y0013552D01*
X0016869Y0013283D02*
X0016792Y0013283D01*
X0016792Y0013307D02*
X0016869Y0013307D01*
X0016869Y0013331D02*
X0016792Y0013331D01*
X0016792Y0013356D02*
X0016869Y0013356D01*
X0016869Y0013380D02*
X0016792Y0013380D01*
X0016792Y0013404D02*
X0016869Y0013404D01*
X0016869Y0013428D02*
X0016792Y0013428D01*
X0016792Y0013453D02*
X0016869Y0013453D01*
X0016869Y0013477D02*
X0016792Y0013477D01*
X0016792Y0013501D02*
X0016869Y0013501D01*
X0016869Y0013526D02*
X0016792Y0013526D01*
X0016792Y0013550D02*
X0016869Y0013550D01*
X0016672Y0013552D02*
X0016672Y0013258D01*
X0016595Y0013258D01*
X0016595Y0013552D01*
X0016672Y0013552D01*
X0016672Y0013283D02*
X0016595Y0013283D01*
X0016595Y0013307D02*
X0016672Y0013307D01*
X0016672Y0013331D02*
X0016595Y0013331D01*
X0016595Y0013356D02*
X0016672Y0013356D01*
X0016672Y0013380D02*
X0016595Y0013380D01*
X0016595Y0013404D02*
X0016672Y0013404D01*
X0016672Y0013428D02*
X0016595Y0013428D01*
X0016595Y0013453D02*
X0016672Y0013453D01*
X0016672Y0013477D02*
X0016595Y0013477D01*
X0016595Y0013501D02*
X0016672Y0013501D01*
X0016672Y0013526D02*
X0016595Y0013526D01*
X0016595Y0013550D02*
X0016672Y0013550D01*
X0016475Y0013552D02*
X0016475Y0013258D01*
X0016398Y0013258D01*
X0016398Y0013552D01*
X0016475Y0013552D01*
X0016475Y0013283D02*
X0016398Y0013283D01*
X0016398Y0013307D02*
X0016475Y0013307D01*
X0016475Y0013331D02*
X0016398Y0013331D01*
X0016398Y0013356D02*
X0016475Y0013356D01*
X0016475Y0013380D02*
X0016398Y0013380D01*
X0016398Y0013404D02*
X0016475Y0013404D01*
X0016475Y0013428D02*
X0016398Y0013428D01*
X0016398Y0013453D02*
X0016475Y0013453D01*
X0016475Y0013477D02*
X0016398Y0013477D01*
X0016398Y0013501D02*
X0016475Y0013501D01*
X0016475Y0013526D02*
X0016398Y0013526D01*
X0016398Y0013550D02*
X0016475Y0013550D01*
X0016278Y0013552D02*
X0016278Y0013258D01*
X0016201Y0013258D01*
X0016201Y0013552D01*
X0016278Y0013552D01*
X0016278Y0013283D02*
X0016201Y0013283D01*
X0016201Y0013307D02*
X0016278Y0013307D01*
X0016278Y0013331D02*
X0016201Y0013331D01*
X0016201Y0013356D02*
X0016278Y0013356D01*
X0016278Y0013380D02*
X0016201Y0013380D01*
X0016201Y0013404D02*
X0016278Y0013404D01*
X0016278Y0013428D02*
X0016201Y0013428D01*
X0016201Y0013453D02*
X0016278Y0013453D01*
X0016278Y0013477D02*
X0016201Y0013477D01*
X0016201Y0013501D02*
X0016278Y0013501D01*
X0016278Y0013526D02*
X0016201Y0013526D01*
X0016201Y0013550D02*
X0016278Y0013550D01*
X0016081Y0013552D02*
X0016081Y0013258D01*
X0016004Y0013258D01*
X0016004Y0013552D01*
X0016081Y0013552D01*
X0016081Y0013283D02*
X0016004Y0013283D01*
X0016004Y0013307D02*
X0016081Y0013307D01*
X0016081Y0013331D02*
X0016004Y0013331D01*
X0016004Y0013356D02*
X0016081Y0013356D01*
X0016081Y0013380D02*
X0016004Y0013380D01*
X0016004Y0013404D02*
X0016081Y0013404D01*
X0016081Y0013428D02*
X0016004Y0013428D01*
X0016004Y0013453D02*
X0016081Y0013453D01*
X0016081Y0013477D02*
X0016004Y0013477D01*
X0016004Y0013501D02*
X0016081Y0013501D01*
X0016081Y0013526D02*
X0016004Y0013526D01*
X0016004Y0013550D02*
X0016081Y0013550D01*
X0016081Y0014794D02*
X0016081Y0015087D01*
X0016081Y0014794D02*
X0016004Y0014794D01*
X0016004Y0015087D01*
X0016081Y0015087D01*
X0016081Y0014818D02*
X0016004Y0014818D01*
X0016004Y0014842D02*
X0016081Y0014842D01*
X0016081Y0014867D02*
X0016004Y0014867D01*
X0016004Y0014891D02*
X0016081Y0014891D01*
X0016081Y0014915D02*
X0016004Y0014915D01*
X0016004Y0014940D02*
X0016081Y0014940D01*
X0016081Y0014964D02*
X0016004Y0014964D01*
X0016004Y0014988D02*
X0016081Y0014988D01*
X0016081Y0015012D02*
X0016004Y0015012D01*
X0016004Y0015037D02*
X0016081Y0015037D01*
X0016081Y0015061D02*
X0016004Y0015061D01*
X0016004Y0015085D02*
X0016081Y0015085D01*
X0016278Y0015087D02*
X0016278Y0014794D01*
X0016201Y0014794D01*
X0016201Y0015087D01*
X0016278Y0015087D01*
X0016278Y0014818D02*
X0016201Y0014818D01*
X0016201Y0014842D02*
X0016278Y0014842D01*
X0016278Y0014867D02*
X0016201Y0014867D01*
X0016201Y0014891D02*
X0016278Y0014891D01*
X0016278Y0014915D02*
X0016201Y0014915D01*
X0016201Y0014940D02*
X0016278Y0014940D01*
X0016278Y0014964D02*
X0016201Y0014964D01*
X0016201Y0014988D02*
X0016278Y0014988D01*
X0016278Y0015012D02*
X0016201Y0015012D01*
X0016201Y0015037D02*
X0016278Y0015037D01*
X0016278Y0015061D02*
X0016201Y0015061D01*
X0016201Y0015085D02*
X0016278Y0015085D01*
X0016475Y0015087D02*
X0016475Y0014794D01*
X0016398Y0014794D01*
X0016398Y0015087D01*
X0016475Y0015087D01*
X0016475Y0014818D02*
X0016398Y0014818D01*
X0016398Y0014842D02*
X0016475Y0014842D01*
X0016475Y0014867D02*
X0016398Y0014867D01*
X0016398Y0014891D02*
X0016475Y0014891D01*
X0016475Y0014915D02*
X0016398Y0014915D01*
X0016398Y0014940D02*
X0016475Y0014940D01*
X0016475Y0014964D02*
X0016398Y0014964D01*
X0016398Y0014988D02*
X0016475Y0014988D01*
X0016475Y0015012D02*
X0016398Y0015012D01*
X0016398Y0015037D02*
X0016475Y0015037D01*
X0016475Y0015061D02*
X0016398Y0015061D01*
X0016398Y0015085D02*
X0016475Y0015085D01*
X0016672Y0015087D02*
X0016672Y0014794D01*
X0016595Y0014794D01*
X0016595Y0015087D01*
X0016672Y0015087D01*
X0016672Y0014818D02*
X0016595Y0014818D01*
X0016595Y0014842D02*
X0016672Y0014842D01*
X0016672Y0014867D02*
X0016595Y0014867D01*
X0016595Y0014891D02*
X0016672Y0014891D01*
X0016672Y0014915D02*
X0016595Y0014915D01*
X0016595Y0014940D02*
X0016672Y0014940D01*
X0016672Y0014964D02*
X0016595Y0014964D01*
X0016595Y0014988D02*
X0016672Y0014988D01*
X0016672Y0015012D02*
X0016595Y0015012D01*
X0016595Y0015037D02*
X0016672Y0015037D01*
X0016672Y0015061D02*
X0016595Y0015061D01*
X0016595Y0015085D02*
X0016672Y0015085D01*
X0016869Y0015087D02*
X0016869Y0014794D01*
X0016792Y0014794D01*
X0016792Y0015087D01*
X0016869Y0015087D01*
X0016869Y0014818D02*
X0016792Y0014818D01*
X0016792Y0014842D02*
X0016869Y0014842D01*
X0016869Y0014867D02*
X0016792Y0014867D01*
X0016792Y0014891D02*
X0016869Y0014891D01*
X0016869Y0014915D02*
X0016792Y0014915D01*
X0016792Y0014940D02*
X0016869Y0014940D01*
X0016869Y0014964D02*
X0016792Y0014964D01*
X0016792Y0014988D02*
X0016869Y0014988D01*
X0016869Y0015012D02*
X0016792Y0015012D01*
X0016792Y0015037D02*
X0016869Y0015037D01*
X0016869Y0015061D02*
X0016792Y0015061D01*
X0016792Y0015085D02*
X0016869Y0015085D01*
X0017065Y0015087D02*
X0017065Y0014794D01*
X0016989Y0014794D01*
X0016989Y0015087D01*
X0017065Y0015087D01*
X0017065Y0014818D02*
X0016989Y0014818D01*
X0016989Y0014842D02*
X0017065Y0014842D01*
X0017065Y0014867D02*
X0016989Y0014867D01*
X0016989Y0014891D02*
X0017065Y0014891D01*
X0017065Y0014915D02*
X0016989Y0014915D01*
X0016989Y0014940D02*
X0017065Y0014940D01*
X0017065Y0014964D02*
X0016989Y0014964D01*
X0016989Y0014988D02*
X0017065Y0014988D01*
X0017065Y0015012D02*
X0016989Y0015012D01*
X0016989Y0015037D02*
X0017065Y0015037D01*
X0017065Y0015061D02*
X0016989Y0015061D01*
X0016989Y0015085D02*
X0017065Y0015085D01*
X0017156Y0014703D02*
X0017449Y0014703D01*
X0017449Y0014626D01*
X0017156Y0014626D01*
X0017156Y0014703D01*
X0017156Y0014651D02*
X0017449Y0014651D01*
X0017449Y0014675D02*
X0017156Y0014675D01*
X0017156Y0014699D02*
X0017449Y0014699D01*
X0017449Y0014506D02*
X0017156Y0014506D01*
X0017449Y0014506D02*
X0017449Y0014430D01*
X0017156Y0014430D01*
X0017156Y0014506D01*
X0017156Y0014454D02*
X0017449Y0014454D01*
X0017449Y0014478D02*
X0017156Y0014478D01*
X0017156Y0014502D02*
X0017449Y0014502D01*
X0017449Y0014310D02*
X0017156Y0014310D01*
X0017449Y0014310D02*
X0017449Y0014233D01*
X0017156Y0014233D01*
X0017156Y0014310D01*
X0017156Y0014257D02*
X0017449Y0014257D01*
X0017449Y0014281D02*
X0017156Y0014281D01*
X0017156Y0014306D02*
X0017449Y0014306D01*
X0017449Y0014113D02*
X0017156Y0014113D01*
X0017449Y0014113D02*
X0017449Y0014036D01*
X0017156Y0014036D01*
X0017156Y0014113D01*
X0017156Y0014060D02*
X0017449Y0014060D01*
X0017449Y0014085D02*
X0017156Y0014085D01*
X0017156Y0014109D02*
X0017449Y0014109D01*
X0017449Y0013916D02*
X0017156Y0013916D01*
X0017449Y0013916D02*
X0017449Y0013839D01*
X0017156Y0013839D01*
X0017156Y0013916D01*
X0017156Y0013863D02*
X0017449Y0013863D01*
X0017449Y0013888D02*
X0017156Y0013888D01*
X0017156Y0013912D02*
X0017449Y0013912D01*
X0017449Y0013719D02*
X0017156Y0013719D01*
X0017449Y0013719D02*
X0017449Y0013642D01*
X0017156Y0013642D01*
X0017156Y0013719D01*
X0017156Y0013667D02*
X0017449Y0013667D01*
X0017449Y0013691D02*
X0017156Y0013691D01*
X0017156Y0013715D02*
X0017449Y0013715D01*
X0015914Y0013719D02*
X0015621Y0013719D01*
X0015914Y0013719D02*
X0015914Y0013642D01*
X0015621Y0013642D01*
X0015621Y0013719D01*
X0015621Y0013667D02*
X0015914Y0013667D01*
X0015914Y0013691D02*
X0015621Y0013691D01*
X0015621Y0013715D02*
X0015914Y0013715D01*
X0015914Y0013916D02*
X0015621Y0013916D01*
X0015914Y0013916D02*
X0015914Y0013839D01*
X0015621Y0013839D01*
X0015621Y0013916D01*
X0015621Y0013863D02*
X0015914Y0013863D01*
X0015914Y0013888D02*
X0015621Y0013888D01*
X0015621Y0013912D02*
X0015914Y0013912D01*
X0015914Y0014113D02*
X0015621Y0014113D01*
X0015914Y0014113D02*
X0015914Y0014036D01*
X0015621Y0014036D01*
X0015621Y0014113D01*
X0015621Y0014060D02*
X0015914Y0014060D01*
X0015914Y0014085D02*
X0015621Y0014085D01*
X0015621Y0014109D02*
X0015914Y0014109D01*
X0015914Y0014310D02*
X0015621Y0014310D01*
X0015914Y0014310D02*
X0015914Y0014233D01*
X0015621Y0014233D01*
X0015621Y0014310D01*
X0015621Y0014257D02*
X0015914Y0014257D01*
X0015914Y0014281D02*
X0015621Y0014281D01*
X0015621Y0014306D02*
X0015914Y0014306D01*
X0015914Y0014506D02*
X0015621Y0014506D01*
X0015914Y0014506D02*
X0015914Y0014430D01*
X0015621Y0014430D01*
X0015621Y0014506D01*
X0015621Y0014454D02*
X0015914Y0014454D01*
X0015914Y0014478D02*
X0015621Y0014478D01*
X0015621Y0014502D02*
X0015914Y0014502D01*
X0015914Y0014703D02*
X0015621Y0014703D01*
X0015914Y0014703D02*
X0015914Y0014626D01*
X0015621Y0014626D01*
X0015621Y0014703D01*
X0015621Y0014651D02*
X0015914Y0014651D01*
X0015914Y0014675D02*
X0015621Y0014675D01*
X0015621Y0014699D02*
X0015914Y0014699D01*
D28*
X0013759Y0022342D03*
X0013011Y0022342D03*
X0013759Y0019980D03*
X0013011Y0019980D03*
X0013759Y0018110D03*
X0013011Y0018110D03*
X0013759Y0016141D03*
X0013011Y0016141D03*
X0013759Y0014173D03*
X0013011Y0014173D03*
D29*
X0012816Y0009950D03*
X0012816Y0007530D03*
X0013316Y0009950D03*
X0013816Y0009950D03*
X0013316Y0007530D03*
X0013816Y0007530D03*
X0014316Y0009950D03*
X0014316Y0007530D03*
X0014816Y0009950D03*
X0014816Y0007530D03*
X0015316Y0009950D03*
X0015816Y0009950D03*
X0015316Y0007530D03*
X0015816Y0007530D03*
X0016316Y0009950D03*
X0016316Y0007530D03*
X0001399Y0009871D03*
X0001399Y0007451D03*
X0001899Y0009871D03*
X0002399Y0009871D03*
X0001899Y0007451D03*
X0002399Y0007451D03*
X0002899Y0009871D03*
X0002899Y0007451D03*
X0003399Y0009871D03*
X0003399Y0007451D03*
X0003899Y0009871D03*
X0004399Y0009871D03*
X0003899Y0007451D03*
X0004399Y0007451D03*
X0004899Y0009871D03*
X0004899Y0007451D03*
D28*
X0022421Y0016141D03*
X0021673Y0016141D03*
X0022789Y0013609D03*
X0023537Y0013609D03*
D30*
X0022047Y0007106D03*
X0022047Y0007854D03*
X0025196Y0022342D03*
X0025196Y0023090D03*
D31*
X0028346Y0018673D03*
X0028346Y0009673D03*
D30*
X0028740Y0022342D03*
X0028740Y0023090D03*
X0027559Y0022381D03*
X0027559Y0023129D03*
X0029932Y0022289D03*
X0029932Y0023037D03*
X0005930Y0008284D03*
X0005930Y0009032D03*
X0011968Y0007460D03*
X0011968Y0006712D03*
X0018503Y0014192D03*
X0018503Y0014940D03*
G04 next file*
G04 EAGLE Gerber RS-274X export*
G75*
G01*
G04 Define Apertures*
D32*
X0000000Y0026377D02*
X0016535Y0037007D03*
D33*
X0017065Y0036386D02*
X0017065Y0036093D01*
X0016989Y0036093D01*
X0016989Y0036386D01*
X0017065Y0036386D01*
X0017065Y0036117D02*
X0016989Y0036117D01*
X0016989Y0036142D02*
X0017065Y0036142D01*
X0017065Y0036166D02*
X0016989Y0036166D01*
X0016989Y0036190D02*
X0017065Y0036190D01*
X0017065Y0036214D02*
X0016989Y0036214D01*
X0016989Y0036239D02*
X0017065Y0036239D01*
X0017065Y0036263D02*
X0016989Y0036263D01*
X0016989Y0036287D02*
X0017065Y0036287D01*
X0017065Y0036312D02*
X0016989Y0036312D01*
X0016989Y0036336D02*
X0017065Y0036336D01*
X0017065Y0036360D02*
X0016989Y0036360D01*
X0016989Y0036385D02*
X0017065Y0036385D01*
X0016869Y0036386D02*
X0016869Y0036093D01*
X0016792Y0036093D01*
X0016792Y0036386D01*
X0016869Y0036386D01*
X0016869Y0036117D02*
X0016792Y0036117D01*
X0016792Y0036142D02*
X0016869Y0036142D01*
X0016869Y0036166D02*
X0016792Y0036166D01*
X0016792Y0036190D02*
X0016869Y0036190D01*
X0016869Y0036214D02*
X0016792Y0036214D01*
X0016792Y0036239D02*
X0016869Y0036239D01*
X0016869Y0036263D02*
X0016792Y0036263D01*
X0016792Y0036287D02*
X0016869Y0036287D01*
X0016869Y0036312D02*
X0016792Y0036312D01*
X0016792Y0036336D02*
X0016869Y0036336D01*
X0016869Y0036360D02*
X0016792Y0036360D01*
X0016792Y0036385D02*
X0016869Y0036385D01*
X0016672Y0036386D02*
X0016672Y0036093D01*
X0016595Y0036093D01*
X0016595Y0036386D01*
X0016672Y0036386D01*
X0016672Y0036117D02*
X0016595Y0036117D01*
X0016595Y0036142D02*
X0016672Y0036142D01*
X0016672Y0036166D02*
X0016595Y0036166D01*
X0016595Y0036190D02*
X0016672Y0036190D01*
X0016672Y0036214D02*
X0016595Y0036214D01*
X0016595Y0036239D02*
X0016672Y0036239D01*
X0016672Y0036263D02*
X0016595Y0036263D01*
X0016595Y0036287D02*
X0016672Y0036287D01*
X0016672Y0036312D02*
X0016595Y0036312D01*
X0016595Y0036336D02*
X0016672Y0036336D01*
X0016672Y0036360D02*
X0016595Y0036360D01*
X0016595Y0036385D02*
X0016672Y0036385D01*
X0016475Y0036386D02*
X0016475Y0036093D01*
X0016398Y0036093D01*
X0016398Y0036386D01*
X0016475Y0036386D01*
X0016475Y0036117D02*
X0016398Y0036117D01*
X0016398Y0036142D02*
X0016475Y0036142D01*
X0016475Y0036166D02*
X0016398Y0036166D01*
X0016398Y0036190D02*
X0016475Y0036190D01*
X0016475Y0036214D02*
X0016398Y0036214D01*
X0016398Y0036239D02*
X0016475Y0036239D01*
X0016475Y0036263D02*
X0016398Y0036263D01*
X0016398Y0036287D02*
X0016475Y0036287D01*
X0016475Y0036312D02*
X0016398Y0036312D01*
X0016398Y0036336D02*
X0016475Y0036336D01*
X0016475Y0036360D02*
X0016398Y0036360D01*
X0016398Y0036385D02*
X0016475Y0036385D01*
X0016278Y0036386D02*
X0016278Y0036093D01*
X0016201Y0036093D01*
X0016201Y0036386D01*
X0016278Y0036386D01*
X0016278Y0036117D02*
X0016201Y0036117D01*
X0016201Y0036142D02*
X0016278Y0036142D01*
X0016278Y0036166D02*
X0016201Y0036166D01*
X0016201Y0036190D02*
X0016278Y0036190D01*
X0016278Y0036214D02*
X0016201Y0036214D01*
X0016201Y0036239D02*
X0016278Y0036239D01*
X0016278Y0036263D02*
X0016201Y0036263D01*
X0016201Y0036287D02*
X0016278Y0036287D01*
X0016278Y0036312D02*
X0016201Y0036312D01*
X0016201Y0036336D02*
X0016278Y0036336D01*
X0016278Y0036360D02*
X0016201Y0036360D01*
X0016201Y0036385D02*
X0016278Y0036385D01*
X0016081Y0036386D02*
X0016081Y0036093D01*
X0016004Y0036093D01*
X0016004Y0036386D01*
X0016081Y0036386D01*
X0016081Y0036117D02*
X0016004Y0036117D01*
X0016004Y0036142D02*
X0016081Y0036142D01*
X0016081Y0036166D02*
X0016004Y0036166D01*
X0016004Y0036190D02*
X0016081Y0036190D01*
X0016081Y0036214D02*
X0016004Y0036214D01*
X0016004Y0036239D02*
X0016081Y0036239D01*
X0016081Y0036263D02*
X0016004Y0036263D01*
X0016004Y0036287D02*
X0016081Y0036287D01*
X0016081Y0036312D02*
X0016004Y0036312D01*
X0016004Y0036336D02*
X0016081Y0036336D01*
X0016081Y0036360D02*
X0016004Y0036360D01*
X0016004Y0036385D02*
X0016081Y0036385D01*
X0016081Y0037628D02*
X0016081Y0037922D01*
X0016081Y0037628D02*
X0016004Y0037628D01*
X0016004Y0037922D01*
X0016081Y0037922D01*
X0016081Y0037653D02*
X0016004Y0037653D01*
X0016004Y0037677D02*
X0016081Y0037677D01*
X0016081Y0037701D02*
X0016004Y0037701D01*
X0016004Y0037726D02*
X0016081Y0037726D01*
X0016081Y0037750D02*
X0016004Y0037750D01*
X0016004Y0037774D02*
X0016081Y0037774D01*
X0016081Y0037798D02*
X0016004Y0037798D01*
X0016004Y0037823D02*
X0016081Y0037823D01*
X0016081Y0037847D02*
X0016004Y0037847D01*
X0016004Y0037871D02*
X0016081Y0037871D01*
X0016081Y0037896D02*
X0016004Y0037896D01*
X0016004Y0037920D02*
X0016081Y0037920D01*
X0016278Y0037922D02*
X0016278Y0037628D01*
X0016201Y0037628D01*
X0016201Y0037922D01*
X0016278Y0037922D01*
X0016278Y0037653D02*
X0016201Y0037653D01*
X0016201Y0037677D02*
X0016278Y0037677D01*
X0016278Y0037701D02*
X0016201Y0037701D01*
X0016201Y0037726D02*
X0016278Y0037726D01*
X0016278Y0037750D02*
X0016201Y0037750D01*
X0016201Y0037774D02*
X0016278Y0037774D01*
X0016278Y0037798D02*
X0016201Y0037798D01*
X0016201Y0037823D02*
X0016278Y0037823D01*
X0016278Y0037847D02*
X0016201Y0037847D01*
X0016201Y0037871D02*
X0016278Y0037871D01*
X0016278Y0037896D02*
X0016201Y0037896D01*
X0016201Y0037920D02*
X0016278Y0037920D01*
X0016475Y0037922D02*
X0016475Y0037628D01*
X0016398Y0037628D01*
X0016398Y0037922D01*
X0016475Y0037922D01*
X0016475Y0037653D02*
X0016398Y0037653D01*
X0016398Y0037677D02*
X0016475Y0037677D01*
X0016475Y0037701D02*
X0016398Y0037701D01*
X0016398Y0037726D02*
X0016475Y0037726D01*
X0016475Y0037750D02*
X0016398Y0037750D01*
X0016398Y0037774D02*
X0016475Y0037774D01*
X0016475Y0037798D02*
X0016398Y0037798D01*
X0016398Y0037823D02*
X0016475Y0037823D01*
X0016475Y0037847D02*
X0016398Y0037847D01*
X0016398Y0037871D02*
X0016475Y0037871D01*
X0016475Y0037896D02*
X0016398Y0037896D01*
X0016398Y0037920D02*
X0016475Y0037920D01*
X0016672Y0037922D02*
X0016672Y0037628D01*
X0016595Y0037628D01*
X0016595Y0037922D01*
X0016672Y0037922D01*
X0016672Y0037653D02*
X0016595Y0037653D01*
X0016595Y0037677D02*
X0016672Y0037677D01*
X0016672Y0037701D02*
X0016595Y0037701D01*
X0016595Y0037726D02*
X0016672Y0037726D01*
X0016672Y0037750D02*
X0016595Y0037750D01*
X0016595Y0037774D02*
X0016672Y0037774D01*
X0016672Y0037798D02*
X0016595Y0037798D01*
X0016595Y0037823D02*
X0016672Y0037823D01*
X0016672Y0037847D02*
X0016595Y0037847D01*
X0016595Y0037871D02*
X0016672Y0037871D01*
X0016672Y0037896D02*
X0016595Y0037896D01*
X0016595Y0037920D02*
X0016672Y0037920D01*
X0016869Y0037922D02*
X0016869Y0037628D01*
X0016792Y0037628D01*
X0016792Y0037922D01*
X0016869Y0037922D01*
X0016869Y0037653D02*
X0016792Y0037653D01*
X0016792Y0037677D02*
X0016869Y0037677D01*
X0016869Y0037701D02*
X0016792Y0037701D01*
X0016792Y0037726D02*
X0016869Y0037726D01*
X0016869Y0037750D02*
X0016792Y0037750D01*
X0016792Y0037774D02*
X0016869Y0037774D01*
X0016869Y0037798D02*
X0016792Y0037798D01*
X0016792Y0037823D02*
X0016869Y0037823D01*
X0016869Y0037847D02*
X0016792Y0037847D01*
X0016792Y0037871D02*
X0016869Y0037871D01*
X0016869Y0037896D02*
X0016792Y0037896D01*
X0016792Y0037920D02*
X0016869Y0037920D01*
X0017065Y0037922D02*
X0017065Y0037628D01*
X0016989Y0037628D01*
X0016989Y0037922D01*
X0017065Y0037922D01*
X0017065Y0037653D02*
X0016989Y0037653D01*
X0016989Y0037677D02*
X0017065Y0037677D01*
X0017065Y0037701D02*
X0016989Y0037701D01*
X0016989Y0037726D02*
X0017065Y0037726D01*
X0017065Y0037750D02*
X0016989Y0037750D01*
X0016989Y0037774D02*
X0017065Y0037774D01*
X0017065Y0037798D02*
X0016989Y0037798D01*
X0016989Y0037823D02*
X0017065Y0037823D01*
X0017065Y0037847D02*
X0016989Y0037847D01*
X0016989Y0037871D02*
X0017065Y0037871D01*
X0017065Y0037896D02*
X0016989Y0037896D01*
X0016989Y0037920D02*
X0017065Y0037920D01*
X0017156Y0037538D02*
X0017449Y0037538D01*
X0017449Y0037461D01*
X0017156Y0037461D01*
X0017156Y0037538D01*
X0017156Y0037485D02*
X0017449Y0037485D01*
X0017449Y0037510D02*
X0017156Y0037510D01*
X0017156Y0037534D02*
X0017449Y0037534D01*
X0017449Y0037341D02*
X0017156Y0037341D01*
X0017449Y0037341D02*
X0017449Y0037264D01*
X0017156Y0037264D01*
X0017156Y0037341D01*
X0017156Y0037289D02*
X0017449Y0037289D01*
X0017449Y0037313D02*
X0017156Y0037313D01*
X0017156Y0037337D02*
X0017449Y0037337D01*
X0017449Y0037144D02*
X0017156Y0037144D01*
X0017449Y0037144D02*
X0017449Y0037067D01*
X0017156Y0037067D01*
X0017156Y0037144D01*
X0017156Y0037092D02*
X0017449Y0037092D01*
X0017449Y0037116D02*
X0017156Y0037116D01*
X0017156Y0037140D02*
X0017449Y0037140D01*
X0017449Y0036947D02*
X0017156Y0036947D01*
X0017449Y0036947D02*
X0017449Y0036871D01*
X0017156Y0036871D01*
X0017156Y0036947D01*
X0017156Y0036895D02*
X0017449Y0036895D01*
X0017449Y0036919D02*
X0017156Y0036919D01*
X0017156Y0036943D02*
X0017449Y0036943D01*
X0017449Y0036750D02*
X0017156Y0036750D01*
X0017449Y0036750D02*
X0017449Y0036674D01*
X0017156Y0036674D01*
X0017156Y0036750D01*
X0017156Y0036698D02*
X0017449Y0036698D01*
X0017449Y0036722D02*
X0017156Y0036722D01*
X0017156Y0036747D02*
X0017449Y0036747D01*
X0017449Y0036554D02*
X0017156Y0036554D01*
X0017449Y0036554D02*
X0017449Y0036477D01*
X0017156Y0036477D01*
X0017156Y0036554D01*
X0017156Y0036501D02*
X0017449Y0036501D01*
X0017449Y0036525D02*
X0017156Y0036525D01*
X0017156Y0036550D02*
X0017449Y0036550D01*
X0015914Y0036554D02*
X0015621Y0036554D01*
X0015914Y0036554D02*
X0015914Y0036477D01*
X0015621Y0036477D01*
X0015621Y0036554D01*
X0015621Y0036501D02*
X0015914Y0036501D01*
X0015914Y0036525D02*
X0015621Y0036525D01*
X0015621Y0036550D02*
X0015914Y0036550D01*
X0015914Y0036750D02*
X0015621Y0036750D01*
X0015914Y0036750D02*
X0015914Y0036674D01*
X0015621Y0036674D01*
X0015621Y0036750D01*
X0015621Y0036698D02*
X0015914Y0036698D01*
X0015914Y0036722D02*
X0015621Y0036722D01*
X0015621Y0036747D02*
X0015914Y0036747D01*
X0015914Y0036947D02*
X0015621Y0036947D01*
X0015914Y0036947D02*
X0015914Y0036871D01*
X0015621Y0036871D01*
X0015621Y0036947D01*
X0015621Y0036895D02*
X0015914Y0036895D01*
X0015914Y0036919D02*
X0015621Y0036919D01*
X0015621Y0036943D02*
X0015914Y0036943D01*
X0015914Y0037144D02*
X0015621Y0037144D01*
X0015914Y0037144D02*
X0015914Y0037067D01*
X0015621Y0037067D01*
X0015621Y0037144D01*
X0015621Y0037092D02*
X0015914Y0037092D01*
X0015914Y0037116D02*
X0015621Y0037116D01*
X0015621Y0037140D02*
X0015914Y0037140D01*
X0015914Y0037341D02*
X0015621Y0037341D01*
X0015914Y0037341D02*
X0015914Y0037264D01*
X0015621Y0037264D01*
X0015621Y0037341D01*
X0015621Y0037289D02*
X0015914Y0037289D01*
X0015914Y0037313D02*
X0015621Y0037313D01*
X0015621Y0037337D02*
X0015914Y0037337D01*
X0015914Y0037538D02*
X0015621Y0037538D01*
X0015914Y0037538D02*
X0015914Y0037461D01*
X0015621Y0037461D01*
X0015621Y0037538D01*
X0015621Y0037485D02*
X0015914Y0037485D01*
X0015914Y0037510D02*
X0015621Y0037510D01*
X0015621Y0037534D02*
X0015914Y0037534D01*
D34*
X0013759Y0045177D03*
X0013011Y0045177D03*
X0013759Y0042814D03*
X0013011Y0042814D03*
X0013759Y0040944D03*
X0013011Y0040944D03*
X0013759Y0038976D03*
X0013011Y0038976D03*
X0013759Y0037007D03*
X0013011Y0037007D03*
D35*
X0012816Y0032785D03*
X0012816Y0030365D03*
X0013316Y0032785D03*
X0013816Y0032785D03*
X0013316Y0030365D03*
X0013816Y0030365D03*
X0014316Y0032785D03*
X0014316Y0030365D03*
X0014816Y0032785D03*
X0014816Y0030365D03*
X0015316Y0032785D03*
X0015816Y0032785D03*
X0015316Y0030365D03*
X0015816Y0030365D03*
X0016316Y0032785D03*
X0016316Y0030365D03*
X0001399Y0032706D03*
X0001399Y0030286D03*
X0001899Y0032706D03*
X0002399Y0032706D03*
X0001899Y0030286D03*
X0002399Y0030286D03*
X0002899Y0032706D03*
X0002899Y0030286D03*
X0003399Y0032706D03*
X0003399Y0030286D03*
X0003899Y0032706D03*
X0004399Y0032706D03*
X0003899Y0030286D03*
X0004399Y0030286D03*
X0004899Y0032706D03*
X0004899Y0030286D03*
D34*
X0022421Y0038976D03*
X0021673Y0038976D03*
X0022789Y0036444D03*
X0023537Y0036444D03*
D36*
X0022047Y0029940D03*
X0022047Y0030688D03*
X0025196Y0045177D03*
X0025196Y0045925D03*
D37*
X0028346Y0041507D03*
X0028346Y0032507D03*
D36*
X0028740Y0045177D03*
X0028740Y0045925D03*
X0027559Y0045216D03*
X0027559Y0045964D03*
X0029932Y0045123D03*
X0029932Y0045871D03*
X0005930Y0031119D03*
X0005930Y0031867D03*
X0011968Y0030295D03*
X0011968Y0029547D03*
X0018503Y0037027D03*
X0018503Y0037775D03*
G04 next file*
G04 EAGLE Gerber RS-274X export*
G75*
G01*
G04 Define Apertures*
D38*
X0035275Y0026377D02*
X0051810Y0037007D03*
D39*
X0052341Y0036386D02*
X0052341Y0036093D01*
X0052264Y0036093D01*
X0052264Y0036386D01*
X0052341Y0036386D01*
X0052341Y0036117D02*
X0052264Y0036117D01*
X0052264Y0036142D02*
X0052341Y0036142D01*
X0052341Y0036166D02*
X0052264Y0036166D01*
X0052264Y0036190D02*
X0052341Y0036190D01*
X0052341Y0036214D02*
X0052264Y0036214D01*
X0052264Y0036239D02*
X0052341Y0036239D01*
X0052341Y0036263D02*
X0052264Y0036263D01*
X0052264Y0036287D02*
X0052341Y0036287D01*
X0052341Y0036312D02*
X0052264Y0036312D01*
X0052264Y0036336D02*
X0052341Y0036336D01*
X0052341Y0036360D02*
X0052264Y0036360D01*
X0052264Y0036385D02*
X0052341Y0036385D01*
X0052144Y0036386D02*
X0052144Y0036093D01*
X0052067Y0036093D01*
X0052067Y0036386D01*
X0052144Y0036386D01*
X0052144Y0036117D02*
X0052067Y0036117D01*
X0052067Y0036142D02*
X0052144Y0036142D01*
X0052144Y0036166D02*
X0052067Y0036166D01*
X0052067Y0036190D02*
X0052144Y0036190D01*
X0052144Y0036214D02*
X0052067Y0036214D01*
X0052067Y0036239D02*
X0052144Y0036239D01*
X0052144Y0036263D02*
X0052067Y0036263D01*
X0052067Y0036287D02*
X0052144Y0036287D01*
X0052144Y0036312D02*
X0052067Y0036312D01*
X0052067Y0036336D02*
X0052144Y0036336D01*
X0052144Y0036360D02*
X0052067Y0036360D01*
X0052067Y0036385D02*
X0052144Y0036385D01*
X0051947Y0036386D02*
X0051947Y0036093D01*
X0051871Y0036093D01*
X0051871Y0036386D01*
X0051947Y0036386D01*
X0051947Y0036117D02*
X0051871Y0036117D01*
X0051871Y0036142D02*
X0051947Y0036142D01*
X0051947Y0036166D02*
X0051871Y0036166D01*
X0051871Y0036190D02*
X0051947Y0036190D01*
X0051947Y0036214D02*
X0051871Y0036214D01*
X0051871Y0036239D02*
X0051947Y0036239D01*
X0051947Y0036263D02*
X0051871Y0036263D01*
X0051871Y0036287D02*
X0051947Y0036287D01*
X0051947Y0036312D02*
X0051871Y0036312D01*
X0051871Y0036336D02*
X0051947Y0036336D01*
X0051947Y0036360D02*
X0051871Y0036360D01*
X0051871Y0036385D02*
X0051947Y0036385D01*
X0051750Y0036386D02*
X0051750Y0036093D01*
X0051674Y0036093D01*
X0051674Y0036386D01*
X0051750Y0036386D01*
X0051750Y0036117D02*
X0051674Y0036117D01*
X0051674Y0036142D02*
X0051750Y0036142D01*
X0051750Y0036166D02*
X0051674Y0036166D01*
X0051674Y0036190D02*
X0051750Y0036190D01*
X0051750Y0036214D02*
X0051674Y0036214D01*
X0051674Y0036239D02*
X0051750Y0036239D01*
X0051750Y0036263D02*
X0051674Y0036263D01*
X0051674Y0036287D02*
X0051750Y0036287D01*
X0051750Y0036312D02*
X0051674Y0036312D01*
X0051674Y0036336D02*
X0051750Y0036336D01*
X0051750Y0036360D02*
X0051674Y0036360D01*
X0051674Y0036385D02*
X0051750Y0036385D01*
X0051554Y0036386D02*
X0051554Y0036093D01*
X0051477Y0036093D01*
X0051477Y0036386D01*
X0051554Y0036386D01*
X0051554Y0036117D02*
X0051477Y0036117D01*
X0051477Y0036142D02*
X0051554Y0036142D01*
X0051554Y0036166D02*
X0051477Y0036166D01*
X0051477Y0036190D02*
X0051554Y0036190D01*
X0051554Y0036214D02*
X0051477Y0036214D01*
X0051477Y0036239D02*
X0051554Y0036239D01*
X0051554Y0036263D02*
X0051477Y0036263D01*
X0051477Y0036287D02*
X0051554Y0036287D01*
X0051554Y0036312D02*
X0051477Y0036312D01*
X0051477Y0036336D02*
X0051554Y0036336D01*
X0051554Y0036360D02*
X0051477Y0036360D01*
X0051477Y0036385D02*
X0051554Y0036385D01*
X0051357Y0036386D02*
X0051357Y0036093D01*
X0051280Y0036093D01*
X0051280Y0036386D01*
X0051357Y0036386D01*
X0051357Y0036117D02*
X0051280Y0036117D01*
X0051280Y0036142D02*
X0051357Y0036142D01*
X0051357Y0036166D02*
X0051280Y0036166D01*
X0051280Y0036190D02*
X0051357Y0036190D01*
X0051357Y0036214D02*
X0051280Y0036214D01*
X0051280Y0036239D02*
X0051357Y0036239D01*
X0051357Y0036263D02*
X0051280Y0036263D01*
X0051280Y0036287D02*
X0051357Y0036287D01*
X0051357Y0036312D02*
X0051280Y0036312D01*
X0051280Y0036336D02*
X0051357Y0036336D01*
X0051357Y0036360D02*
X0051280Y0036360D01*
X0051280Y0036385D02*
X0051357Y0036385D01*
X0051357Y0037628D02*
X0051357Y0037922D01*
X0051357Y0037628D02*
X0051280Y0037628D01*
X0051280Y0037922D01*
X0051357Y0037922D01*
X0051357Y0037653D02*
X0051280Y0037653D01*
X0051280Y0037677D02*
X0051357Y0037677D01*
X0051357Y0037701D02*
X0051280Y0037701D01*
X0051280Y0037726D02*
X0051357Y0037726D01*
X0051357Y0037750D02*
X0051280Y0037750D01*
X0051280Y0037774D02*
X0051357Y0037774D01*
X0051357Y0037798D02*
X0051280Y0037798D01*
X0051280Y0037823D02*
X0051357Y0037823D01*
X0051357Y0037847D02*
X0051280Y0037847D01*
X0051280Y0037871D02*
X0051357Y0037871D01*
X0051357Y0037896D02*
X0051280Y0037896D01*
X0051280Y0037920D02*
X0051357Y0037920D01*
X0051554Y0037922D02*
X0051554Y0037628D01*
X0051477Y0037628D01*
X0051477Y0037922D01*
X0051554Y0037922D01*
X0051554Y0037653D02*
X0051477Y0037653D01*
X0051477Y0037677D02*
X0051554Y0037677D01*
X0051554Y0037701D02*
X0051477Y0037701D01*
X0051477Y0037726D02*
X0051554Y0037726D01*
X0051554Y0037750D02*
X0051477Y0037750D01*
X0051477Y0037774D02*
X0051554Y0037774D01*
X0051554Y0037798D02*
X0051477Y0037798D01*
X0051477Y0037823D02*
X0051554Y0037823D01*
X0051554Y0037847D02*
X0051477Y0037847D01*
X0051477Y0037871D02*
X0051554Y0037871D01*
X0051554Y0037896D02*
X0051477Y0037896D01*
X0051477Y0037920D02*
X0051554Y0037920D01*
X0051750Y0037922D02*
X0051750Y0037628D01*
X0051674Y0037628D01*
X0051674Y0037922D01*
X0051750Y0037922D01*
X0051750Y0037653D02*
X0051674Y0037653D01*
X0051674Y0037677D02*
X0051750Y0037677D01*
X0051750Y0037701D02*
X0051674Y0037701D01*
X0051674Y0037726D02*
X0051750Y0037726D01*
X0051750Y0037750D02*
X0051674Y0037750D01*
X0051674Y0037774D02*
X0051750Y0037774D01*
X0051750Y0037798D02*
X0051674Y0037798D01*
X0051674Y0037823D02*
X0051750Y0037823D01*
X0051750Y0037847D02*
X0051674Y0037847D01*
X0051674Y0037871D02*
X0051750Y0037871D01*
X0051750Y0037896D02*
X0051674Y0037896D01*
X0051674Y0037920D02*
X0051750Y0037920D01*
X0051947Y0037922D02*
X0051947Y0037628D01*
X0051871Y0037628D01*
X0051871Y0037922D01*
X0051947Y0037922D01*
X0051947Y0037653D02*
X0051871Y0037653D01*
X0051871Y0037677D02*
X0051947Y0037677D01*
X0051947Y0037701D02*
X0051871Y0037701D01*
X0051871Y0037726D02*
X0051947Y0037726D01*
X0051947Y0037750D02*
X0051871Y0037750D01*
X0051871Y0037774D02*
X0051947Y0037774D01*
X0051947Y0037798D02*
X0051871Y0037798D01*
X0051871Y0037823D02*
X0051947Y0037823D01*
X0051947Y0037847D02*
X0051871Y0037847D01*
X0051871Y0037871D02*
X0051947Y0037871D01*
X0051947Y0037896D02*
X0051871Y0037896D01*
X0051871Y0037920D02*
X0051947Y0037920D01*
X0052144Y0037922D02*
X0052144Y0037628D01*
X0052067Y0037628D01*
X0052067Y0037922D01*
X0052144Y0037922D01*
X0052144Y0037653D02*
X0052067Y0037653D01*
X0052067Y0037677D02*
X0052144Y0037677D01*
X0052144Y0037701D02*
X0052067Y0037701D01*
X0052067Y0037726D02*
X0052144Y0037726D01*
X0052144Y0037750D02*
X0052067Y0037750D01*
X0052067Y0037774D02*
X0052144Y0037774D01*
X0052144Y0037798D02*
X0052067Y0037798D01*
X0052067Y0037823D02*
X0052144Y0037823D01*
X0052144Y0037847D02*
X0052067Y0037847D01*
X0052067Y0037871D02*
X0052144Y0037871D01*
X0052144Y0037896D02*
X0052067Y0037896D01*
X0052067Y0037920D02*
X0052144Y0037920D01*
X0052341Y0037922D02*
X0052341Y0037628D01*
X0052264Y0037628D01*
X0052264Y0037922D01*
X0052341Y0037922D01*
X0052341Y0037653D02*
X0052264Y0037653D01*
X0052264Y0037677D02*
X0052341Y0037677D01*
X0052341Y0037701D02*
X0052264Y0037701D01*
X0052264Y0037726D02*
X0052341Y0037726D01*
X0052341Y0037750D02*
X0052264Y0037750D01*
X0052264Y0037774D02*
X0052341Y0037774D01*
X0052341Y0037798D02*
X0052264Y0037798D01*
X0052264Y0037823D02*
X0052341Y0037823D01*
X0052341Y0037847D02*
X0052264Y0037847D01*
X0052264Y0037871D02*
X0052341Y0037871D01*
X0052341Y0037896D02*
X0052264Y0037896D01*
X0052264Y0037920D02*
X0052341Y0037920D01*
X0052432Y0037538D02*
X0052725Y0037538D01*
X0052725Y0037461D01*
X0052432Y0037461D01*
X0052432Y0037538D01*
X0052432Y0037485D02*
X0052725Y0037485D01*
X0052725Y0037510D02*
X0052432Y0037510D01*
X0052432Y0037534D02*
X0052725Y0037534D01*
X0052725Y0037341D02*
X0052432Y0037341D01*
X0052725Y0037341D02*
X0052725Y0037264D01*
X0052432Y0037264D01*
X0052432Y0037341D01*
X0052432Y0037289D02*
X0052725Y0037289D01*
X0052725Y0037313D02*
X0052432Y0037313D01*
X0052432Y0037337D02*
X0052725Y0037337D01*
X0052725Y0037144D02*
X0052432Y0037144D01*
X0052725Y0037144D02*
X0052725Y0037067D01*
X0052432Y0037067D01*
X0052432Y0037144D01*
X0052432Y0037092D02*
X0052725Y0037092D01*
X0052725Y0037116D02*
X0052432Y0037116D01*
X0052432Y0037140D02*
X0052725Y0037140D01*
X0052725Y0036947D02*
X0052432Y0036947D01*
X0052725Y0036947D02*
X0052725Y0036871D01*
X0052432Y0036871D01*
X0052432Y0036947D01*
X0052432Y0036895D02*
X0052725Y0036895D01*
X0052725Y0036919D02*
X0052432Y0036919D01*
X0052432Y0036943D02*
X0052725Y0036943D01*
X0052725Y0036750D02*
X0052432Y0036750D01*
X0052725Y0036750D02*
X0052725Y0036674D01*
X0052432Y0036674D01*
X0052432Y0036750D01*
X0052432Y0036698D02*
X0052725Y0036698D01*
X0052725Y0036722D02*
X0052432Y0036722D01*
X0052432Y0036747D02*
X0052725Y0036747D01*
X0052725Y0036554D02*
X0052432Y0036554D01*
X0052725Y0036554D02*
X0052725Y0036477D01*
X0052432Y0036477D01*
X0052432Y0036554D01*
X0052432Y0036501D02*
X0052725Y0036501D01*
X0052725Y0036525D02*
X0052432Y0036525D01*
X0052432Y0036550D02*
X0052725Y0036550D01*
X0051189Y0036554D02*
X0050896Y0036554D01*
X0051189Y0036554D02*
X0051189Y0036477D01*
X0050896Y0036477D01*
X0050896Y0036554D01*
X0050896Y0036501D02*
X0051189Y0036501D01*
X0051189Y0036525D02*
X0050896Y0036525D01*
X0050896Y0036550D02*
X0051189Y0036550D01*
X0051189Y0036750D02*
X0050896Y0036750D01*
X0051189Y0036750D02*
X0051189Y0036674D01*
X0050896Y0036674D01*
X0050896Y0036750D01*
X0050896Y0036698D02*
X0051189Y0036698D01*
X0051189Y0036722D02*
X0050896Y0036722D01*
X0050896Y0036747D02*
X0051189Y0036747D01*
X0051189Y0036947D02*
X0050896Y0036947D01*
X0051189Y0036947D02*
X0051189Y0036871D01*
X0050896Y0036871D01*
X0050896Y0036947D01*
X0050896Y0036895D02*
X0051189Y0036895D01*
X0051189Y0036919D02*
X0050896Y0036919D01*
X0050896Y0036943D02*
X0051189Y0036943D01*
X0051189Y0037144D02*
X0050896Y0037144D01*
X0051189Y0037144D02*
X0051189Y0037067D01*
X0050896Y0037067D01*
X0050896Y0037144D01*
X0050896Y0037092D02*
X0051189Y0037092D01*
X0051189Y0037116D02*
X0050896Y0037116D01*
X0050896Y0037140D02*
X0051189Y0037140D01*
X0051189Y0037341D02*
X0050896Y0037341D01*
X0051189Y0037341D02*
X0051189Y0037264D01*
X0050896Y0037264D01*
X0050896Y0037341D01*
X0050896Y0037289D02*
X0051189Y0037289D01*
X0051189Y0037313D02*
X0050896Y0037313D01*
X0050896Y0037337D02*
X0051189Y0037337D01*
X0051189Y0037538D02*
X0050896Y0037538D01*
X0051189Y0037538D02*
X0051189Y0037461D01*
X0050896Y0037461D01*
X0050896Y0037538D01*
X0050896Y0037485D02*
X0051189Y0037485D01*
X0051189Y0037510D02*
X0050896Y0037510D01*
X0050896Y0037534D02*
X0051189Y0037534D01*
D40*
X0049035Y0045177D03*
X0048287Y0045177D03*
X0049035Y0042814D03*
X0048287Y0042814D03*
X0049035Y0040944D03*
X0048287Y0040944D03*
X0049035Y0038976D03*
X0048287Y0038976D03*
X0049035Y0037007D03*
X0048287Y0037007D03*
D41*
X0048092Y0032785D03*
X0048092Y0030365D03*
X0048592Y0032785D03*
X0049092Y0032785D03*
X0048592Y0030365D03*
X0049092Y0030365D03*
X0049592Y0032785D03*
X0049592Y0030365D03*
X0050092Y0032785D03*
X0050092Y0030365D03*
X0050592Y0032785D03*
X0051092Y0032785D03*
X0050592Y0030365D03*
X0051092Y0030365D03*
X0051592Y0032785D03*
X0051592Y0030365D03*
X0036675Y0032706D03*
X0036675Y0030286D03*
X0037175Y0032706D03*
X0037675Y0032706D03*
X0037175Y0030286D03*
X0037675Y0030286D03*
X0038175Y0032706D03*
X0038175Y0030286D03*
X0038675Y0032706D03*
X0038675Y0030286D03*
X0039175Y0032706D03*
X0039675Y0032706D03*
X0039175Y0030286D03*
X0039675Y0030286D03*
X0040175Y0032706D03*
X0040175Y0030286D03*
D40*
X0057696Y0038976D03*
X0056948Y0038976D03*
X0058065Y0036444D03*
X0058813Y0036444D03*
D42*
X0057322Y0029940D03*
X0057322Y0030688D03*
X0060472Y0045177D03*
X0060472Y0045925D03*
D43*
X0063622Y0041507D03*
X0063622Y0032507D03*
D42*
X0064015Y0045177D03*
X0064015Y0045925D03*
X0062834Y0045216D03*
X0062834Y0045964D03*
X0065208Y0045123D03*
X0065208Y0045871D03*
X0041206Y0031119D03*
X0041206Y0031867D03*
X0047244Y0030295D03*
X0047244Y0029547D03*
X0053779Y0037027D03*
X0053779Y0037775D03*
G04 next file*
G04 EAGLE Gerber RS-274X export*
G75*
G01*
G04 Define Apertures*
G04 next file*
G04 EAGLE Gerber RS-274X export*
G75*
G01*
G04 Define Apertures*
M02*