G04 EAGLE Gerber RS-274X export*
G75*
%MOMM*%
%FSLAX34Y34*%
%LPD*%
%INTop Solder Mask*%
%IPPOS*%
%AMOC8*
5,1,8,0,0,1.08239X$1,22.5*%
G01*
G04 Define Apertures*
%ADD10C,1.041400*%
%ADD11C,0.457200*%
%ADD12C,0.326897*%
%ADD13R,1.151600X2.101600*%
%ADD14C,1.376600*%
D10*
X35207Y105207D02*
X35207Y159793D01*
X50370Y159793D01*
X50739Y159789D01*
X51108Y159775D01*
X51477Y159753D01*
X51845Y159721D01*
X52212Y159681D01*
X52578Y159631D01*
X52942Y159573D01*
X53306Y159506D01*
X53667Y159430D01*
X54026Y159346D01*
X54384Y159252D01*
X54738Y159150D01*
X55091Y159039D01*
X55440Y158920D01*
X55787Y158792D01*
X56130Y158656D01*
X56470Y158512D01*
X56806Y158359D01*
X57138Y158199D01*
X57467Y158030D01*
X57791Y157853D01*
X58111Y157668D01*
X58426Y157476D01*
X58736Y157276D01*
X59042Y157068D01*
X59342Y156854D01*
X59637Y156631D01*
X59927Y156402D01*
X60211Y156166D01*
X60489Y155923D01*
X60761Y155673D01*
X61026Y155417D01*
X61286Y155154D01*
X61539Y154885D01*
X61785Y154610D01*
X62025Y154329D01*
X62258Y154043D01*
X62483Y153750D01*
X62702Y153453D01*
X62913Y153150D01*
X63117Y152842D01*
X63313Y152529D01*
X63502Y152212D01*
X63682Y151889D01*
X63855Y151563D01*
X64020Y151233D01*
X64177Y150898D01*
X64325Y150560D01*
X64465Y150219D01*
X64597Y149874D01*
X64721Y149526D01*
X64836Y149175D01*
X64942Y148821D01*
X65040Y148465D01*
X65129Y148107D01*
X65209Y147746D01*
X65281Y147384D01*
X65343Y147020D01*
X65397Y146655D01*
X65442Y146288D01*
X65478Y145921D01*
X65505Y145553D01*
X65523Y145184D01*
X65532Y144815D01*
X65532Y144445D01*
X65523Y144076D01*
X65505Y143707D01*
X65478Y143339D01*
X65442Y142972D01*
X65397Y142605D01*
X65343Y142240D01*
X65281Y141876D01*
X65209Y141514D01*
X65129Y141153D01*
X65040Y140795D01*
X64942Y140439D01*
X64836Y140085D01*
X64721Y139734D01*
X64597Y139386D01*
X64465Y139041D01*
X64325Y138700D01*
X64177Y138362D01*
X64020Y138027D01*
X63855Y137697D01*
X63682Y137371D01*
X63502Y137049D01*
X63313Y136731D01*
X63117Y136418D01*
X62913Y136110D01*
X62702Y135807D01*
X62483Y135510D01*
X62258Y135217D01*
X62025Y134931D01*
X61785Y134650D01*
X61539Y134375D01*
X61286Y134106D01*
X61026Y133843D01*
X60761Y133587D01*
X60489Y133337D01*
X60211Y133094D01*
X59927Y132858D01*
X59637Y132629D01*
X59342Y132406D01*
X59042Y132192D01*
X58736Y131984D01*
X58426Y131784D01*
X58111Y131592D01*
X57791Y131407D01*
X57467Y131230D01*
X57138Y131061D01*
X56806Y130901D01*
X56470Y130748D01*
X56130Y130604D01*
X55787Y130468D01*
X55440Y130340D01*
X55091Y130221D01*
X54738Y130110D01*
X54384Y130008D01*
X54026Y129914D01*
X53667Y129830D01*
X53306Y129754D01*
X52942Y129687D01*
X52578Y129629D01*
X52212Y129579D01*
X51845Y129539D01*
X51477Y129507D01*
X51108Y129485D01*
X50739Y129471D01*
X50370Y129467D01*
X35207Y129467D01*
X92242Y126435D02*
X105888Y126435D01*
X92242Y126435D02*
X91984Y126432D01*
X91725Y126422D01*
X91467Y126407D01*
X91210Y126385D01*
X90953Y126356D01*
X90697Y126322D01*
X90441Y126281D01*
X90187Y126234D01*
X89934Y126181D01*
X89683Y126122D01*
X89433Y126056D01*
X89184Y125985D01*
X88938Y125907D01*
X88693Y125824D01*
X88450Y125735D01*
X88210Y125639D01*
X87972Y125538D01*
X87737Y125431D01*
X87504Y125319D01*
X87274Y125201D01*
X87047Y125077D01*
X86823Y124948D01*
X86603Y124813D01*
X86386Y124673D01*
X86172Y124528D01*
X85961Y124377D01*
X85755Y124222D01*
X85552Y124061D01*
X85354Y123896D01*
X85159Y123726D01*
X84969Y123551D01*
X84783Y123372D01*
X84601Y123188D01*
X84424Y123000D01*
X84251Y122807D01*
X84084Y122610D01*
X83921Y122410D01*
X83763Y122205D01*
X83610Y121997D01*
X83462Y121785D01*
X83319Y121569D01*
X83182Y121350D01*
X83050Y121128D01*
X82924Y120903D01*
X82803Y120674D01*
X82687Y120443D01*
X82577Y120209D01*
X82473Y119972D01*
X82375Y119733D01*
X82283Y119492D01*
X82196Y119248D01*
X82116Y119002D01*
X82042Y118755D01*
X81973Y118506D01*
X81911Y118255D01*
X81855Y118002D01*
X81805Y117749D01*
X81761Y117494D01*
X81723Y117238D01*
X81692Y116982D01*
X81667Y116725D01*
X81648Y116467D01*
X81635Y116209D01*
X81629Y115950D01*
X81629Y115692D01*
X81635Y115433D01*
X81648Y115175D01*
X81667Y114917D01*
X81692Y114660D01*
X81723Y114404D01*
X81761Y114148D01*
X81805Y113893D01*
X81855Y113640D01*
X81911Y113387D01*
X81973Y113136D01*
X82042Y112887D01*
X82116Y112640D01*
X82196Y112394D01*
X82283Y112150D01*
X82375Y111909D01*
X82473Y111670D01*
X82577Y111433D01*
X82687Y111199D01*
X82803Y110968D01*
X82924Y110739D01*
X83050Y110514D01*
X83182Y110292D01*
X83319Y110073D01*
X83462Y109857D01*
X83610Y109645D01*
X83763Y109437D01*
X83921Y109232D01*
X84084Y109032D01*
X84251Y108835D01*
X84424Y108642D01*
X84601Y108454D01*
X84783Y108270D01*
X84969Y108091D01*
X85159Y107916D01*
X85354Y107746D01*
X85552Y107581D01*
X85755Y107420D01*
X85961Y107265D01*
X86172Y107114D01*
X86386Y106969D01*
X86603Y106829D01*
X86823Y106694D01*
X87047Y106565D01*
X87274Y106441D01*
X87504Y106323D01*
X87737Y106211D01*
X87972Y106104D01*
X88210Y106003D01*
X88450Y105907D01*
X88693Y105818D01*
X88938Y105735D01*
X89184Y105657D01*
X89433Y105586D01*
X89683Y105520D01*
X89934Y105461D01*
X90187Y105408D01*
X90441Y105361D01*
X90697Y105320D01*
X90953Y105286D01*
X91210Y105257D01*
X91467Y105235D01*
X91725Y105220D01*
X91984Y105210D01*
X92242Y105207D01*
X105888Y105207D01*
X105888Y132500D01*
X105889Y132500D02*
X105886Y132720D01*
X105878Y132940D01*
X105865Y133159D01*
X105847Y133378D01*
X105823Y133597D01*
X105794Y133815D01*
X105759Y134032D01*
X105720Y134248D01*
X105675Y134463D01*
X105625Y134677D01*
X105569Y134890D01*
X105509Y135102D01*
X105444Y135311D01*
X105373Y135520D01*
X105298Y135726D01*
X105217Y135931D01*
X105132Y136133D01*
X105042Y136334D01*
X104947Y136532D01*
X104847Y136728D01*
X104742Y136921D01*
X104633Y137112D01*
X104519Y137300D01*
X104401Y137486D01*
X104279Y137668D01*
X104151Y137848D01*
X104020Y138024D01*
X103884Y138197D01*
X103745Y138367D01*
X103601Y138533D01*
X103453Y138696D01*
X103302Y138855D01*
X103146Y139011D01*
X102987Y139162D01*
X102824Y139310D01*
X102658Y139454D01*
X102488Y139593D01*
X102315Y139729D01*
X102139Y139860D01*
X101959Y139988D01*
X101777Y140110D01*
X101591Y140228D01*
X101403Y140342D01*
X101212Y140451D01*
X101019Y140556D01*
X100823Y140656D01*
X100625Y140751D01*
X100424Y140841D01*
X100222Y140926D01*
X100017Y141007D01*
X99811Y141082D01*
X99602Y141153D01*
X99393Y141218D01*
X99181Y141278D01*
X98968Y141334D01*
X98754Y141384D01*
X98539Y141429D01*
X98323Y141468D01*
X98106Y141503D01*
X97888Y141532D01*
X97669Y141556D01*
X97450Y141574D01*
X97231Y141587D01*
X97011Y141595D01*
X96791Y141598D01*
X84660Y141598D01*
X127252Y141598D02*
X127252Y114305D01*
X127255Y114085D01*
X127263Y113865D01*
X127276Y113646D01*
X127294Y113427D01*
X127318Y113208D01*
X127347Y112990D01*
X127382Y112773D01*
X127421Y112557D01*
X127466Y112342D01*
X127516Y112128D01*
X127572Y111915D01*
X127632Y111703D01*
X127697Y111494D01*
X127768Y111285D01*
X127843Y111079D01*
X127924Y110874D01*
X128009Y110672D01*
X128099Y110471D01*
X128194Y110273D01*
X128294Y110077D01*
X128399Y109884D01*
X128508Y109693D01*
X128622Y109505D01*
X128740Y109319D01*
X128862Y109137D01*
X128990Y108957D01*
X129121Y108781D01*
X129257Y108608D01*
X129396Y108438D01*
X129540Y108272D01*
X129688Y108109D01*
X129839Y107950D01*
X129995Y107794D01*
X130154Y107643D01*
X130317Y107495D01*
X130483Y107351D01*
X130653Y107212D01*
X130826Y107076D01*
X131002Y106945D01*
X131182Y106817D01*
X131364Y106695D01*
X131550Y106577D01*
X131738Y106463D01*
X131929Y106354D01*
X132122Y106249D01*
X132318Y106149D01*
X132516Y106054D01*
X132717Y105964D01*
X132919Y105879D01*
X133124Y105798D01*
X133330Y105723D01*
X133539Y105652D01*
X133748Y105587D01*
X133960Y105527D01*
X134173Y105471D01*
X134387Y105421D01*
X134602Y105376D01*
X134818Y105337D01*
X135035Y105302D01*
X135253Y105273D01*
X135472Y105249D01*
X135691Y105231D01*
X135910Y105218D01*
X136130Y105210D01*
X136350Y105207D01*
X151513Y105207D01*
X151513Y141598D01*
X172317Y159793D02*
X172317Y114305D01*
X172320Y114085D01*
X172328Y113865D01*
X172341Y113646D01*
X172359Y113427D01*
X172383Y113208D01*
X172412Y112990D01*
X172447Y112773D01*
X172486Y112557D01*
X172531Y112342D01*
X172581Y112128D01*
X172637Y111915D01*
X172697Y111703D01*
X172762Y111494D01*
X172833Y111285D01*
X172908Y111079D01*
X172989Y110874D01*
X173074Y110672D01*
X173164Y110471D01*
X173259Y110273D01*
X173359Y110077D01*
X173464Y109884D01*
X173573Y109693D01*
X173687Y109505D01*
X173805Y109319D01*
X173927Y109137D01*
X174055Y108957D01*
X174186Y108781D01*
X174322Y108608D01*
X174461Y108438D01*
X174605Y108272D01*
X174753Y108109D01*
X174904Y107950D01*
X175060Y107794D01*
X175219Y107643D01*
X175382Y107495D01*
X175548Y107351D01*
X175718Y107212D01*
X175891Y107076D01*
X176067Y106945D01*
X176247Y106817D01*
X176429Y106695D01*
X176615Y106577D01*
X176803Y106463D01*
X176994Y106354D01*
X177187Y106249D01*
X177383Y106149D01*
X177581Y106054D01*
X177782Y105964D01*
X177984Y105879D01*
X178189Y105798D01*
X178395Y105723D01*
X178604Y105652D01*
X178813Y105587D01*
X179025Y105527D01*
X179238Y105471D01*
X179452Y105421D01*
X179667Y105376D01*
X179883Y105337D01*
X180100Y105302D01*
X180318Y105273D01*
X180537Y105249D01*
X180756Y105231D01*
X180975Y105218D01*
X181195Y105210D01*
X181415Y105207D01*
X225332Y105207D02*
X225332Y159793D01*
X255657Y159793D02*
X225332Y126435D01*
X237462Y138565D02*
X255657Y105207D01*
X273067Y114305D02*
X273067Y159793D01*
X273067Y114305D02*
X273070Y114085D01*
X273078Y113865D01*
X273091Y113646D01*
X273109Y113427D01*
X273133Y113208D01*
X273162Y112990D01*
X273197Y112773D01*
X273236Y112557D01*
X273281Y112342D01*
X273331Y112128D01*
X273387Y111915D01*
X273447Y111703D01*
X273512Y111494D01*
X273583Y111285D01*
X273658Y111079D01*
X273739Y110874D01*
X273824Y110672D01*
X273914Y110471D01*
X274009Y110273D01*
X274109Y110077D01*
X274214Y109884D01*
X274323Y109693D01*
X274437Y109505D01*
X274555Y109319D01*
X274677Y109137D01*
X274805Y108957D01*
X274936Y108781D01*
X275072Y108608D01*
X275211Y108438D01*
X275355Y108272D01*
X275503Y108109D01*
X275654Y107950D01*
X275810Y107794D01*
X275969Y107643D01*
X276132Y107495D01*
X276298Y107351D01*
X276468Y107212D01*
X276641Y107076D01*
X276817Y106945D01*
X276997Y106817D01*
X277179Y106695D01*
X277365Y106577D01*
X277553Y106463D01*
X277744Y106354D01*
X277937Y106249D01*
X278133Y106149D01*
X278331Y106054D01*
X278532Y105964D01*
X278734Y105879D01*
X278939Y105798D01*
X279145Y105723D01*
X279354Y105652D01*
X279563Y105587D01*
X279775Y105527D01*
X279988Y105471D01*
X280202Y105421D01*
X280417Y105376D01*
X280633Y105337D01*
X280850Y105302D01*
X281068Y105273D01*
X281287Y105249D01*
X281506Y105231D01*
X281725Y105218D01*
X281945Y105210D01*
X282165Y105207D01*
X298632Y105207D02*
X298632Y141598D01*
X297116Y156760D02*
X297116Y159793D01*
X300148Y159793D01*
X300148Y156760D01*
X297116Y156760D01*
X319002Y141598D02*
X319002Y105207D01*
X319002Y141598D02*
X334165Y141598D01*
X334388Y141595D01*
X334611Y141587D01*
X334834Y141573D01*
X335057Y141554D01*
X335279Y141530D01*
X335500Y141500D01*
X335720Y141464D01*
X335940Y141423D01*
X336158Y141377D01*
X336376Y141325D01*
X336592Y141268D01*
X336806Y141206D01*
X337019Y141139D01*
X337230Y141066D01*
X337439Y140988D01*
X337647Y140905D01*
X337852Y140817D01*
X338055Y140725D01*
X338256Y140627D01*
X338454Y140524D01*
X338649Y140416D01*
X338842Y140304D01*
X339032Y140186D01*
X339220Y140065D01*
X339404Y139938D01*
X339585Y139808D01*
X339762Y139672D01*
X339937Y139533D01*
X340108Y139389D01*
X340275Y139241D01*
X340438Y139089D01*
X340598Y138933D01*
X340754Y138773D01*
X340906Y138610D01*
X341054Y138443D01*
X341198Y138272D01*
X341337Y138097D01*
X341473Y137920D01*
X341603Y137739D01*
X341730Y137555D01*
X341851Y137367D01*
X341969Y137177D01*
X342081Y136984D01*
X342189Y136789D01*
X342292Y136591D01*
X342389Y136390D01*
X342482Y136187D01*
X342570Y135982D01*
X342653Y135774D01*
X342731Y135565D01*
X342804Y135354D01*
X342871Y135141D01*
X342933Y134927D01*
X342990Y134711D01*
X343042Y134493D01*
X343088Y134275D01*
X343129Y134055D01*
X343165Y133835D01*
X343195Y133614D01*
X343219Y133392D01*
X343238Y133169D01*
X343252Y132946D01*
X343260Y132723D01*
X343263Y132500D01*
X343262Y132500D02*
X343262Y105207D01*
X371850Y105207D02*
X387013Y105207D01*
X371850Y105207D02*
X371630Y105210D01*
X371410Y105218D01*
X371191Y105231D01*
X370972Y105249D01*
X370753Y105273D01*
X370535Y105302D01*
X370318Y105337D01*
X370102Y105376D01*
X369887Y105421D01*
X369673Y105471D01*
X369460Y105527D01*
X369248Y105587D01*
X369039Y105652D01*
X368830Y105723D01*
X368624Y105798D01*
X368419Y105879D01*
X368217Y105964D01*
X368016Y106054D01*
X367818Y106149D01*
X367622Y106249D01*
X367429Y106354D01*
X367238Y106463D01*
X367050Y106577D01*
X366864Y106695D01*
X366682Y106817D01*
X366502Y106945D01*
X366326Y107076D01*
X366153Y107212D01*
X365983Y107351D01*
X365817Y107495D01*
X365654Y107643D01*
X365495Y107794D01*
X365339Y107950D01*
X365188Y108109D01*
X365040Y108272D01*
X364896Y108438D01*
X364757Y108608D01*
X364621Y108781D01*
X364490Y108957D01*
X364362Y109137D01*
X364240Y109319D01*
X364122Y109505D01*
X364008Y109693D01*
X363899Y109884D01*
X363794Y110077D01*
X363694Y110273D01*
X363599Y110471D01*
X363509Y110672D01*
X363424Y110874D01*
X363343Y111079D01*
X363268Y111285D01*
X363197Y111494D01*
X363132Y111703D01*
X363072Y111915D01*
X363016Y112128D01*
X362966Y112342D01*
X362921Y112557D01*
X362882Y112773D01*
X362847Y112990D01*
X362818Y113208D01*
X362794Y113427D01*
X362776Y113646D01*
X362763Y113865D01*
X362755Y114085D01*
X362752Y114305D01*
X362753Y114305D02*
X362753Y132500D01*
X362752Y132500D02*
X362755Y132720D01*
X362763Y132940D01*
X362776Y133159D01*
X362794Y133378D01*
X362818Y133597D01*
X362847Y133815D01*
X362882Y134032D01*
X362921Y134248D01*
X362966Y134463D01*
X363016Y134677D01*
X363072Y134890D01*
X363132Y135102D01*
X363197Y135311D01*
X363268Y135520D01*
X363343Y135726D01*
X363424Y135931D01*
X363509Y136133D01*
X363599Y136334D01*
X363694Y136532D01*
X363794Y136728D01*
X363899Y136921D01*
X364008Y137112D01*
X364122Y137300D01*
X364240Y137486D01*
X364362Y137668D01*
X364490Y137848D01*
X364621Y138024D01*
X364757Y138197D01*
X364896Y138367D01*
X365040Y138533D01*
X365188Y138696D01*
X365339Y138855D01*
X365495Y139011D01*
X365654Y139162D01*
X365817Y139310D01*
X365983Y139454D01*
X366153Y139593D01*
X366326Y139729D01*
X366502Y139860D01*
X366682Y139988D01*
X366864Y140110D01*
X367050Y140228D01*
X367238Y140342D01*
X367429Y140451D01*
X367622Y140556D01*
X367818Y140656D01*
X368016Y140751D01*
X368217Y140841D01*
X368419Y140926D01*
X368624Y141007D01*
X368830Y141082D01*
X369039Y141153D01*
X369248Y141218D01*
X369460Y141278D01*
X369673Y141334D01*
X369887Y141384D01*
X370102Y141429D01*
X370318Y141468D01*
X370535Y141503D01*
X370753Y141532D01*
X370972Y141556D01*
X371191Y141574D01*
X371410Y141587D01*
X371630Y141595D01*
X371850Y141598D01*
X387013Y141598D01*
X387013Y96109D01*
X387010Y95889D01*
X387002Y95669D01*
X386989Y95450D01*
X386971Y95231D01*
X386947Y95012D01*
X386918Y94794D01*
X386883Y94577D01*
X386844Y94361D01*
X386799Y94146D01*
X386749Y93932D01*
X386693Y93719D01*
X386633Y93507D01*
X386568Y93298D01*
X386497Y93089D01*
X386422Y92883D01*
X386341Y92678D01*
X386256Y92476D01*
X386166Y92275D01*
X386071Y92077D01*
X385971Y91881D01*
X385866Y91688D01*
X385757Y91497D01*
X385643Y91309D01*
X385525Y91123D01*
X385403Y90941D01*
X385275Y90761D01*
X385144Y90585D01*
X385008Y90412D01*
X384869Y90242D01*
X384725Y90076D01*
X384577Y89913D01*
X384426Y89754D01*
X384270Y89598D01*
X384111Y89447D01*
X383948Y89299D01*
X383782Y89155D01*
X383612Y89016D01*
X383439Y88880D01*
X383263Y88749D01*
X383083Y88621D01*
X382901Y88499D01*
X382715Y88381D01*
X382527Y88267D01*
X382336Y88158D01*
X382143Y88053D01*
X381947Y87953D01*
X381749Y87858D01*
X381548Y87768D01*
X381346Y87683D01*
X381141Y87602D01*
X380935Y87527D01*
X380726Y87456D01*
X380517Y87391D01*
X380305Y87331D01*
X380092Y87275D01*
X379878Y87225D01*
X379663Y87180D01*
X379447Y87141D01*
X379230Y87106D01*
X379012Y87077D01*
X378793Y87053D01*
X378574Y87035D01*
X378355Y87022D01*
X378135Y87014D01*
X377915Y87011D01*
X377915Y87012D02*
X365785Y87012D01*
X415850Y105207D02*
X431012Y105207D01*
X415850Y105207D02*
X415630Y105210D01*
X415410Y105218D01*
X415191Y105231D01*
X414972Y105249D01*
X414753Y105273D01*
X414535Y105302D01*
X414318Y105337D01*
X414102Y105376D01*
X413887Y105421D01*
X413673Y105471D01*
X413460Y105527D01*
X413248Y105587D01*
X413039Y105652D01*
X412830Y105723D01*
X412624Y105798D01*
X412419Y105879D01*
X412217Y105964D01*
X412016Y106054D01*
X411818Y106149D01*
X411622Y106249D01*
X411429Y106354D01*
X411238Y106463D01*
X411050Y106577D01*
X410864Y106695D01*
X410682Y106817D01*
X410502Y106945D01*
X410326Y107076D01*
X410153Y107212D01*
X409983Y107351D01*
X409817Y107495D01*
X409654Y107643D01*
X409495Y107794D01*
X409339Y107950D01*
X409188Y108109D01*
X409040Y108272D01*
X408896Y108438D01*
X408757Y108608D01*
X408621Y108781D01*
X408490Y108957D01*
X408362Y109137D01*
X408240Y109319D01*
X408122Y109505D01*
X408008Y109693D01*
X407899Y109884D01*
X407794Y110077D01*
X407694Y110273D01*
X407599Y110471D01*
X407509Y110672D01*
X407424Y110874D01*
X407343Y111079D01*
X407268Y111285D01*
X407197Y111494D01*
X407132Y111703D01*
X407072Y111915D01*
X407016Y112128D01*
X406966Y112342D01*
X406921Y112557D01*
X406882Y112773D01*
X406847Y112990D01*
X406818Y113208D01*
X406794Y113427D01*
X406776Y113646D01*
X406763Y113865D01*
X406755Y114085D01*
X406752Y114305D01*
X406752Y129467D01*
X406756Y129762D01*
X406766Y130058D01*
X406784Y130352D01*
X406810Y130647D01*
X406842Y130940D01*
X406881Y131233D01*
X406928Y131525D01*
X406981Y131815D01*
X407042Y132104D01*
X407110Y132392D01*
X407185Y132678D01*
X407266Y132962D01*
X407355Y133243D01*
X407450Y133523D01*
X407552Y133800D01*
X407661Y134075D01*
X407777Y134347D01*
X407899Y134616D01*
X408028Y134882D01*
X408163Y135144D01*
X408304Y135404D01*
X408452Y135659D01*
X408606Y135912D01*
X408766Y136160D01*
X408932Y136404D01*
X409103Y136645D01*
X409281Y136881D01*
X409465Y137112D01*
X409653Y137339D01*
X409848Y137562D01*
X410048Y137779D01*
X410253Y137992D01*
X410463Y138199D01*
X410678Y138402D01*
X410898Y138599D01*
X411123Y138791D01*
X411352Y138977D01*
X411586Y139157D01*
X411824Y139332D01*
X412066Y139501D01*
X412313Y139664D01*
X412563Y139821D01*
X412817Y139972D01*
X413075Y140116D01*
X413336Y140255D01*
X413600Y140387D01*
X413867Y140512D01*
X414138Y140631D01*
X414411Y140743D01*
X414687Y140849D01*
X414965Y140947D01*
X415246Y141039D01*
X415529Y141124D01*
X415814Y141203D01*
X416101Y141274D01*
X416389Y141338D01*
X416679Y141395D01*
X416970Y141445D01*
X417262Y141488D01*
X417555Y141524D01*
X417849Y141553D01*
X418144Y141575D01*
X418439Y141589D01*
X418734Y141596D01*
X419030Y141596D01*
X419325Y141589D01*
X419620Y141575D01*
X419915Y141553D01*
X420209Y141524D01*
X420502Y141488D01*
X420794Y141445D01*
X421085Y141395D01*
X421375Y141338D01*
X421663Y141274D01*
X421950Y141203D01*
X422235Y141124D01*
X422518Y141039D01*
X422799Y140947D01*
X423077Y140849D01*
X423353Y140743D01*
X423626Y140631D01*
X423897Y140512D01*
X424164Y140387D01*
X424428Y140255D01*
X424689Y140116D01*
X424947Y139972D01*
X425201Y139821D01*
X425451Y139664D01*
X425698Y139501D01*
X425940Y139332D01*
X426178Y139157D01*
X426412Y138977D01*
X426641Y138791D01*
X426866Y138599D01*
X427086Y138402D01*
X427301Y138199D01*
X427511Y137992D01*
X427716Y137779D01*
X427916Y137562D01*
X428111Y137339D01*
X428299Y137112D01*
X428483Y136881D01*
X428661Y136645D01*
X428832Y136404D01*
X428998Y136160D01*
X429158Y135912D01*
X429312Y135659D01*
X429460Y135404D01*
X429601Y135144D01*
X429736Y134882D01*
X429865Y134616D01*
X429987Y134347D01*
X430103Y134075D01*
X430212Y133800D01*
X430314Y133523D01*
X430409Y133243D01*
X430498Y132962D01*
X430579Y132678D01*
X430654Y132392D01*
X430722Y132104D01*
X430783Y131815D01*
X430836Y131525D01*
X430883Y131233D01*
X430922Y130940D01*
X430954Y130647D01*
X430980Y130352D01*
X430998Y130058D01*
X431008Y129762D01*
X431012Y129467D01*
X431012Y123402D01*
X406752Y123402D01*
X450801Y105207D02*
X450801Y141598D01*
X468996Y141598D01*
X468996Y135533D01*
D11*
X492286Y56171D02*
X492286Y35343D01*
X492286Y56171D02*
X498072Y56171D01*
X498188Y56169D01*
X498304Y56163D01*
X498419Y56154D01*
X498535Y56140D01*
X498649Y56123D01*
X498763Y56101D01*
X498877Y56076D01*
X498989Y56048D01*
X499100Y56015D01*
X499211Y55979D01*
X499319Y55939D01*
X499427Y55896D01*
X499533Y55849D01*
X499637Y55798D01*
X499740Y55744D01*
X499841Y55686D01*
X499940Y55626D01*
X500036Y55562D01*
X500131Y55494D01*
X500223Y55424D01*
X500313Y55351D01*
X500400Y55274D01*
X500485Y55195D01*
X500567Y55113D01*
X500646Y55028D01*
X500723Y54941D01*
X500796Y54851D01*
X500866Y54759D01*
X500934Y54664D01*
X500998Y54568D01*
X501058Y54469D01*
X501116Y54368D01*
X501170Y54265D01*
X501221Y54161D01*
X501268Y54055D01*
X501311Y53948D01*
X501351Y53839D01*
X501387Y53728D01*
X501420Y53617D01*
X501448Y53505D01*
X501473Y53391D01*
X501495Y53277D01*
X501512Y53163D01*
X501526Y53047D01*
X501535Y52932D01*
X501541Y52816D01*
X501543Y52700D01*
X501543Y45757D01*
X501541Y45641D01*
X501535Y45525D01*
X501526Y45410D01*
X501512Y45294D01*
X501495Y45180D01*
X501473Y45066D01*
X501448Y44952D01*
X501420Y44840D01*
X501387Y44729D01*
X501351Y44618D01*
X501311Y44509D01*
X501268Y44402D01*
X501221Y44296D01*
X501170Y44192D01*
X501116Y44089D01*
X501058Y43988D01*
X500998Y43889D01*
X500934Y43793D01*
X500866Y43698D01*
X500796Y43606D01*
X500723Y43516D01*
X500646Y43429D01*
X500567Y43344D01*
X500485Y43262D01*
X500400Y43183D01*
X500313Y43106D01*
X500223Y43033D01*
X500131Y42963D01*
X500036Y42895D01*
X499940Y42831D01*
X499841Y42771D01*
X499740Y42713D01*
X499637Y42659D01*
X499533Y42608D01*
X499427Y42561D01*
X499320Y42518D01*
X499211Y42478D01*
X499100Y42442D01*
X498989Y42409D01*
X498877Y42381D01*
X498763Y42356D01*
X498649Y42334D01*
X498535Y42317D01*
X498419Y42303D01*
X498304Y42294D01*
X498188Y42288D01*
X498072Y42286D01*
X492286Y42286D01*
X514175Y50386D02*
X519382Y50386D01*
X514175Y50386D02*
X514049Y50384D01*
X513923Y50378D01*
X513798Y50368D01*
X513672Y50355D01*
X513548Y50337D01*
X513424Y50316D01*
X513300Y50290D01*
X513178Y50261D01*
X513056Y50228D01*
X512935Y50192D01*
X512816Y50151D01*
X512698Y50107D01*
X512582Y50059D01*
X512467Y50008D01*
X512353Y49953D01*
X512242Y49895D01*
X512132Y49833D01*
X512024Y49768D01*
X511918Y49699D01*
X511815Y49627D01*
X511714Y49552D01*
X511615Y49474D01*
X511518Y49393D01*
X511425Y49309D01*
X511334Y49222D01*
X511245Y49132D01*
X511160Y49040D01*
X511077Y48945D01*
X510997Y48847D01*
X510921Y48747D01*
X510847Y48645D01*
X510777Y48540D01*
X510710Y48433D01*
X510647Y48325D01*
X510587Y48214D01*
X510530Y48101D01*
X510477Y47987D01*
X510427Y47871D01*
X510381Y47754D01*
X510339Y47635D01*
X510301Y47515D01*
X510266Y47394D01*
X510235Y47272D01*
X510207Y47149D01*
X510184Y47025D01*
X510165Y46901D01*
X510149Y46776D01*
X510137Y46651D01*
X510129Y46525D01*
X510125Y46399D01*
X510125Y46273D01*
X510129Y46147D01*
X510137Y46021D01*
X510149Y45896D01*
X510165Y45771D01*
X510184Y45647D01*
X510207Y45523D01*
X510235Y45400D01*
X510266Y45278D01*
X510301Y45157D01*
X510339Y45037D01*
X510381Y44918D01*
X510427Y44801D01*
X510477Y44685D01*
X510530Y44571D01*
X510587Y44458D01*
X510647Y44347D01*
X510710Y44239D01*
X510777Y44132D01*
X510847Y44027D01*
X510921Y43925D01*
X510997Y43825D01*
X511077Y43727D01*
X511160Y43632D01*
X511245Y43540D01*
X511334Y43450D01*
X511425Y43363D01*
X511518Y43279D01*
X511615Y43198D01*
X511714Y43120D01*
X511815Y43045D01*
X511918Y42973D01*
X512024Y42904D01*
X512132Y42839D01*
X512242Y42777D01*
X512353Y42719D01*
X512467Y42664D01*
X512582Y42613D01*
X512698Y42565D01*
X512816Y42521D01*
X512935Y42480D01*
X513056Y42444D01*
X513178Y42411D01*
X513300Y42382D01*
X513424Y42356D01*
X513548Y42335D01*
X513672Y42317D01*
X513798Y42304D01*
X513923Y42294D01*
X514049Y42288D01*
X514175Y42286D01*
X519382Y42286D01*
X519382Y52700D01*
X519380Y52816D01*
X519374Y52932D01*
X519365Y53047D01*
X519351Y53163D01*
X519334Y53277D01*
X519312Y53391D01*
X519287Y53505D01*
X519259Y53617D01*
X519226Y53728D01*
X519190Y53839D01*
X519150Y53948D01*
X519107Y54055D01*
X519060Y54161D01*
X519009Y54265D01*
X518955Y54368D01*
X518897Y54469D01*
X518837Y54568D01*
X518773Y54664D01*
X518705Y54759D01*
X518635Y54851D01*
X518562Y54941D01*
X518485Y55028D01*
X518406Y55113D01*
X518324Y55195D01*
X518239Y55274D01*
X518152Y55351D01*
X518062Y55424D01*
X517970Y55494D01*
X517875Y55562D01*
X517779Y55626D01*
X517680Y55686D01*
X517579Y55744D01*
X517476Y55798D01*
X517372Y55849D01*
X517266Y55896D01*
X517159Y55939D01*
X517050Y55979D01*
X516939Y56015D01*
X516828Y56048D01*
X516716Y56076D01*
X516602Y56101D01*
X516488Y56123D01*
X516374Y56140D01*
X516258Y56154D01*
X516143Y56163D01*
X516027Y56169D01*
X515911Y56171D01*
X511282Y56171D01*
X529740Y56171D02*
X529740Y45757D01*
X529742Y45641D01*
X529748Y45525D01*
X529757Y45410D01*
X529771Y45294D01*
X529788Y45180D01*
X529810Y45066D01*
X529835Y44952D01*
X529863Y44840D01*
X529896Y44729D01*
X529932Y44618D01*
X529972Y44509D01*
X530015Y44402D01*
X530062Y44296D01*
X530113Y44192D01*
X530167Y44089D01*
X530225Y43988D01*
X530285Y43889D01*
X530349Y43793D01*
X530417Y43698D01*
X530487Y43606D01*
X530560Y43516D01*
X530637Y43429D01*
X530716Y43344D01*
X530798Y43262D01*
X530883Y43183D01*
X530970Y43106D01*
X531060Y43033D01*
X531152Y42963D01*
X531247Y42895D01*
X531343Y42831D01*
X531442Y42771D01*
X531543Y42713D01*
X531646Y42659D01*
X531750Y42608D01*
X531856Y42561D01*
X531963Y42518D01*
X532072Y42478D01*
X532183Y42442D01*
X532294Y42409D01*
X532406Y42381D01*
X532520Y42356D01*
X532634Y42334D01*
X532748Y42317D01*
X532864Y42303D01*
X532979Y42294D01*
X533095Y42288D01*
X533211Y42286D01*
X538997Y42286D01*
X538997Y56171D01*
X548751Y63114D02*
X548751Y45757D01*
X548753Y45641D01*
X548759Y45525D01*
X548768Y45410D01*
X548782Y45294D01*
X548799Y45180D01*
X548821Y45066D01*
X548846Y44952D01*
X548874Y44840D01*
X548907Y44729D01*
X548943Y44618D01*
X548983Y44509D01*
X549026Y44402D01*
X549073Y44296D01*
X549124Y44192D01*
X549178Y44089D01*
X549236Y43988D01*
X549296Y43889D01*
X549360Y43793D01*
X549428Y43698D01*
X549498Y43606D01*
X549571Y43516D01*
X549648Y43429D01*
X549727Y43344D01*
X549809Y43262D01*
X549894Y43183D01*
X549981Y43106D01*
X550071Y43033D01*
X550163Y42963D01*
X550258Y42895D01*
X550354Y42831D01*
X550453Y42771D01*
X550554Y42713D01*
X550657Y42659D01*
X550761Y42608D01*
X550867Y42561D01*
X550974Y42518D01*
X551083Y42478D01*
X551194Y42442D01*
X551305Y42409D01*
X551417Y42381D01*
X551531Y42356D01*
X551645Y42334D01*
X551759Y42317D01*
X551875Y42303D01*
X551990Y42294D01*
X552106Y42288D01*
X552222Y42286D01*
X560658Y42286D02*
X560658Y63114D01*
X569915Y56171D02*
X560658Y49229D01*
X564708Y52121D02*
X569915Y42286D01*
X577981Y45757D02*
X577981Y63114D01*
X577981Y45757D02*
X577983Y45641D01*
X577989Y45525D01*
X577998Y45410D01*
X578012Y45294D01*
X578029Y45180D01*
X578051Y45066D01*
X578076Y44952D01*
X578104Y44840D01*
X578137Y44729D01*
X578173Y44618D01*
X578213Y44509D01*
X578256Y44402D01*
X578303Y44296D01*
X578354Y44192D01*
X578408Y44089D01*
X578466Y43988D01*
X578526Y43889D01*
X578590Y43793D01*
X578658Y43698D01*
X578728Y43606D01*
X578801Y43516D01*
X578878Y43429D01*
X578957Y43344D01*
X579039Y43262D01*
X579124Y43183D01*
X579211Y43106D01*
X579301Y43033D01*
X579393Y42963D01*
X579488Y42895D01*
X579584Y42831D01*
X579683Y42771D01*
X579784Y42713D01*
X579887Y42659D01*
X579991Y42608D01*
X580097Y42561D01*
X580204Y42518D01*
X580313Y42478D01*
X580424Y42442D01*
X580535Y42409D01*
X580647Y42381D01*
X580761Y42356D01*
X580875Y42334D01*
X580989Y42317D01*
X581105Y42303D01*
X581220Y42294D01*
X581336Y42288D01*
X581452Y42286D01*
X588653Y42286D02*
X588653Y56171D01*
X588075Y61957D02*
X588075Y63114D01*
X589232Y63114D01*
X589232Y61957D01*
X588075Y61957D01*
X597944Y56171D02*
X597944Y42286D01*
X597944Y56171D02*
X603729Y56171D01*
X603845Y56169D01*
X603961Y56163D01*
X604076Y56154D01*
X604192Y56140D01*
X604306Y56123D01*
X604420Y56101D01*
X604534Y56076D01*
X604646Y56048D01*
X604757Y56015D01*
X604868Y55979D01*
X604976Y55939D01*
X605084Y55896D01*
X605190Y55849D01*
X605294Y55798D01*
X605397Y55744D01*
X605498Y55686D01*
X605597Y55626D01*
X605693Y55562D01*
X605788Y55494D01*
X605880Y55424D01*
X605970Y55351D01*
X606057Y55274D01*
X606142Y55195D01*
X606224Y55113D01*
X606303Y55028D01*
X606380Y54941D01*
X606453Y54851D01*
X606523Y54759D01*
X606591Y54664D01*
X606655Y54568D01*
X606715Y54469D01*
X606773Y54368D01*
X606827Y54265D01*
X606878Y54161D01*
X606925Y54055D01*
X606968Y53948D01*
X607008Y53839D01*
X607044Y53728D01*
X607077Y53617D01*
X607105Y53505D01*
X607130Y53391D01*
X607152Y53277D01*
X607169Y53163D01*
X607183Y53047D01*
X607192Y52932D01*
X607198Y52816D01*
X607200Y52700D01*
X607201Y52700D02*
X607201Y42286D01*
X620078Y42286D02*
X625864Y42286D01*
X620078Y42286D02*
X619962Y42288D01*
X619846Y42294D01*
X619731Y42303D01*
X619615Y42317D01*
X619501Y42334D01*
X619387Y42356D01*
X619273Y42381D01*
X619161Y42409D01*
X619050Y42442D01*
X618939Y42478D01*
X618830Y42518D01*
X618723Y42561D01*
X618617Y42608D01*
X618513Y42659D01*
X618410Y42713D01*
X618309Y42771D01*
X618210Y42831D01*
X618114Y42895D01*
X618019Y42963D01*
X617927Y43033D01*
X617837Y43106D01*
X617750Y43183D01*
X617665Y43262D01*
X617583Y43344D01*
X617504Y43429D01*
X617427Y43516D01*
X617354Y43606D01*
X617284Y43698D01*
X617216Y43793D01*
X617152Y43889D01*
X617092Y43988D01*
X617034Y44089D01*
X616980Y44192D01*
X616929Y44296D01*
X616882Y44402D01*
X616839Y44509D01*
X616799Y44618D01*
X616763Y44729D01*
X616730Y44840D01*
X616702Y44952D01*
X616677Y45066D01*
X616655Y45180D01*
X616638Y45294D01*
X616624Y45410D01*
X616615Y45525D01*
X616609Y45641D01*
X616607Y45757D01*
X616607Y52700D01*
X616609Y52816D01*
X616615Y52932D01*
X616624Y53047D01*
X616638Y53163D01*
X616655Y53277D01*
X616677Y53391D01*
X616702Y53505D01*
X616730Y53617D01*
X616763Y53728D01*
X616799Y53839D01*
X616839Y53948D01*
X616882Y54055D01*
X616929Y54161D01*
X616980Y54265D01*
X617034Y54368D01*
X617092Y54469D01*
X617152Y54568D01*
X617216Y54664D01*
X617284Y54759D01*
X617354Y54851D01*
X617427Y54941D01*
X617504Y55028D01*
X617583Y55113D01*
X617665Y55195D01*
X617750Y55274D01*
X617837Y55351D01*
X617927Y55424D01*
X618019Y55494D01*
X618114Y55562D01*
X618210Y55626D01*
X618309Y55686D01*
X618410Y55744D01*
X618513Y55798D01*
X618617Y55849D01*
X618723Y55896D01*
X618830Y55939D01*
X618939Y55979D01*
X619050Y56015D01*
X619161Y56048D01*
X619273Y56076D01*
X619387Y56101D01*
X619501Y56123D01*
X619615Y56140D01*
X619731Y56154D01*
X619846Y56163D01*
X619962Y56169D01*
X620078Y56171D01*
X625864Y56171D01*
X625864Y38815D01*
X625863Y38815D02*
X625861Y38699D01*
X625855Y38583D01*
X625846Y38468D01*
X625832Y38352D01*
X625815Y38238D01*
X625793Y38124D01*
X625768Y38010D01*
X625740Y37898D01*
X625707Y37787D01*
X625671Y37676D01*
X625631Y37568D01*
X625588Y37460D01*
X625541Y37354D01*
X625490Y37250D01*
X625436Y37147D01*
X625378Y37046D01*
X625318Y36947D01*
X625254Y36851D01*
X625186Y36756D01*
X625116Y36664D01*
X625043Y36574D01*
X624966Y36487D01*
X624887Y36402D01*
X624805Y36320D01*
X624720Y36241D01*
X624633Y36164D01*
X624543Y36091D01*
X624451Y36021D01*
X624356Y35953D01*
X624260Y35889D01*
X624161Y35829D01*
X624060Y35771D01*
X623957Y35717D01*
X623853Y35666D01*
X623747Y35619D01*
X623640Y35576D01*
X623531Y35536D01*
X623420Y35500D01*
X623309Y35467D01*
X623197Y35439D01*
X623083Y35414D01*
X622969Y35392D01*
X622855Y35375D01*
X622739Y35361D01*
X622624Y35352D01*
X622508Y35346D01*
X622392Y35344D01*
X622392Y35343D02*
X617764Y35343D01*
X638997Y42286D02*
X644782Y42286D01*
X638997Y42286D02*
X638881Y42288D01*
X638765Y42294D01*
X638650Y42303D01*
X638534Y42317D01*
X638420Y42334D01*
X638306Y42356D01*
X638192Y42381D01*
X638080Y42409D01*
X637969Y42442D01*
X637858Y42478D01*
X637749Y42518D01*
X637642Y42561D01*
X637536Y42608D01*
X637432Y42659D01*
X637329Y42713D01*
X637228Y42771D01*
X637129Y42831D01*
X637033Y42895D01*
X636938Y42963D01*
X636846Y43033D01*
X636756Y43106D01*
X636669Y43183D01*
X636584Y43262D01*
X636502Y43344D01*
X636423Y43429D01*
X636346Y43516D01*
X636273Y43606D01*
X636203Y43698D01*
X636135Y43793D01*
X636071Y43889D01*
X636011Y43988D01*
X635953Y44089D01*
X635899Y44192D01*
X635848Y44296D01*
X635801Y44402D01*
X635758Y44509D01*
X635718Y44618D01*
X635682Y44729D01*
X635649Y44840D01*
X635621Y44952D01*
X635596Y45066D01*
X635574Y45180D01*
X635557Y45294D01*
X635543Y45410D01*
X635534Y45525D01*
X635528Y45641D01*
X635526Y45757D01*
X635526Y51543D01*
X635528Y51678D01*
X635534Y51812D01*
X635544Y51946D01*
X635557Y52080D01*
X635575Y52214D01*
X635596Y52347D01*
X635622Y52479D01*
X635651Y52610D01*
X635684Y52741D01*
X635720Y52870D01*
X635761Y52999D01*
X635805Y53126D01*
X635853Y53252D01*
X635904Y53376D01*
X635960Y53499D01*
X636018Y53620D01*
X636080Y53739D01*
X636146Y53857D01*
X636215Y53973D01*
X636287Y54086D01*
X636363Y54198D01*
X636442Y54307D01*
X636524Y54413D01*
X636609Y54518D01*
X636697Y54620D01*
X636788Y54719D01*
X636882Y54815D01*
X636978Y54909D01*
X637077Y55000D01*
X637179Y55088D01*
X637284Y55173D01*
X637390Y55255D01*
X637499Y55334D01*
X637611Y55410D01*
X637724Y55482D01*
X637840Y55551D01*
X637958Y55617D01*
X638077Y55679D01*
X638198Y55737D01*
X638321Y55793D01*
X638445Y55844D01*
X638571Y55892D01*
X638698Y55936D01*
X638827Y55977D01*
X638956Y56013D01*
X639087Y56046D01*
X639218Y56075D01*
X639350Y56101D01*
X639483Y56122D01*
X639617Y56140D01*
X639751Y56153D01*
X639885Y56163D01*
X640019Y56169D01*
X640154Y56171D01*
X640289Y56169D01*
X640423Y56163D01*
X640557Y56153D01*
X640691Y56140D01*
X640825Y56122D01*
X640958Y56101D01*
X641090Y56075D01*
X641221Y56046D01*
X641352Y56013D01*
X641481Y55977D01*
X641610Y55936D01*
X641737Y55892D01*
X641863Y55844D01*
X641987Y55793D01*
X642110Y55737D01*
X642231Y55679D01*
X642350Y55617D01*
X642468Y55551D01*
X642584Y55482D01*
X642697Y55410D01*
X642809Y55334D01*
X642918Y55255D01*
X643024Y55173D01*
X643129Y55088D01*
X643231Y55000D01*
X643330Y54909D01*
X643426Y54815D01*
X643520Y54719D01*
X643611Y54620D01*
X643699Y54518D01*
X643784Y54413D01*
X643866Y54307D01*
X643945Y54198D01*
X644021Y54086D01*
X644093Y53973D01*
X644162Y53857D01*
X644228Y53739D01*
X644290Y53620D01*
X644348Y53499D01*
X644404Y53376D01*
X644455Y53252D01*
X644503Y53126D01*
X644547Y52999D01*
X644588Y52870D01*
X644624Y52741D01*
X644657Y52610D01*
X644686Y52479D01*
X644712Y52347D01*
X644733Y52214D01*
X644751Y52080D01*
X644764Y51946D01*
X644774Y51812D01*
X644780Y51678D01*
X644782Y51543D01*
X644782Y49229D01*
X635526Y49229D01*
X654477Y42286D02*
X654477Y56171D01*
X661419Y56171D01*
X661419Y53857D01*
X667414Y43443D02*
X667414Y42286D01*
X667414Y43443D02*
X668571Y43443D01*
X668571Y42286D01*
X667414Y42286D01*
X680095Y42286D02*
X684723Y42286D01*
X680095Y42286D02*
X679979Y42288D01*
X679863Y42294D01*
X679748Y42303D01*
X679632Y42317D01*
X679518Y42334D01*
X679404Y42356D01*
X679290Y42381D01*
X679178Y42409D01*
X679067Y42442D01*
X678956Y42478D01*
X678847Y42518D01*
X678740Y42561D01*
X678634Y42608D01*
X678530Y42659D01*
X678427Y42713D01*
X678326Y42771D01*
X678227Y42831D01*
X678131Y42895D01*
X678036Y42963D01*
X677944Y43033D01*
X677854Y43106D01*
X677767Y43183D01*
X677682Y43262D01*
X677600Y43344D01*
X677521Y43429D01*
X677444Y43516D01*
X677371Y43606D01*
X677301Y43698D01*
X677233Y43793D01*
X677169Y43889D01*
X677109Y43988D01*
X677051Y44089D01*
X676997Y44192D01*
X676946Y44296D01*
X676899Y44402D01*
X676856Y44509D01*
X676816Y44618D01*
X676780Y44729D01*
X676747Y44840D01*
X676719Y44952D01*
X676694Y45066D01*
X676672Y45180D01*
X676655Y45294D01*
X676641Y45410D01*
X676632Y45525D01*
X676626Y45641D01*
X676624Y45757D01*
X676623Y45757D02*
X676623Y52700D01*
X676624Y52700D02*
X676626Y52816D01*
X676632Y52932D01*
X676641Y53047D01*
X676655Y53163D01*
X676672Y53277D01*
X676694Y53391D01*
X676719Y53505D01*
X676747Y53617D01*
X676780Y53728D01*
X676816Y53839D01*
X676856Y53948D01*
X676899Y54055D01*
X676946Y54161D01*
X676997Y54265D01*
X677051Y54368D01*
X677109Y54469D01*
X677169Y54568D01*
X677233Y54664D01*
X677301Y54759D01*
X677371Y54851D01*
X677444Y54941D01*
X677521Y55028D01*
X677600Y55113D01*
X677682Y55195D01*
X677767Y55274D01*
X677854Y55351D01*
X677944Y55424D01*
X678036Y55494D01*
X678131Y55562D01*
X678227Y55626D01*
X678326Y55686D01*
X678427Y55744D01*
X678530Y55798D01*
X678634Y55849D01*
X678740Y55896D01*
X678847Y55939D01*
X678956Y55979D01*
X679067Y56015D01*
X679178Y56048D01*
X679290Y56076D01*
X679404Y56101D01*
X679518Y56123D01*
X679632Y56140D01*
X679748Y56154D01*
X679863Y56163D01*
X679979Y56169D01*
X680095Y56171D01*
X684723Y56171D01*
X692594Y51543D02*
X692594Y46914D01*
X692595Y51543D02*
X692597Y51678D01*
X692603Y51812D01*
X692613Y51946D01*
X692626Y52080D01*
X692644Y52214D01*
X692665Y52347D01*
X692691Y52479D01*
X692720Y52610D01*
X692753Y52741D01*
X692789Y52870D01*
X692830Y52999D01*
X692874Y53126D01*
X692922Y53252D01*
X692973Y53376D01*
X693029Y53499D01*
X693087Y53620D01*
X693149Y53739D01*
X693215Y53857D01*
X693284Y53973D01*
X693356Y54086D01*
X693432Y54198D01*
X693511Y54307D01*
X693593Y54413D01*
X693678Y54518D01*
X693766Y54620D01*
X693857Y54719D01*
X693951Y54815D01*
X694047Y54909D01*
X694146Y55000D01*
X694248Y55088D01*
X694353Y55173D01*
X694459Y55255D01*
X694568Y55334D01*
X694680Y55410D01*
X694793Y55482D01*
X694909Y55551D01*
X695027Y55617D01*
X695146Y55679D01*
X695267Y55737D01*
X695390Y55793D01*
X695514Y55844D01*
X695640Y55892D01*
X695767Y55936D01*
X695896Y55977D01*
X696025Y56013D01*
X696156Y56046D01*
X696287Y56075D01*
X696419Y56101D01*
X696552Y56122D01*
X696686Y56140D01*
X696820Y56153D01*
X696954Y56163D01*
X697088Y56169D01*
X697223Y56171D01*
X697358Y56169D01*
X697492Y56163D01*
X697626Y56153D01*
X697760Y56140D01*
X697894Y56122D01*
X698027Y56101D01*
X698159Y56075D01*
X698290Y56046D01*
X698421Y56013D01*
X698550Y55977D01*
X698679Y55936D01*
X698806Y55892D01*
X698932Y55844D01*
X699056Y55793D01*
X699179Y55737D01*
X699300Y55679D01*
X699419Y55617D01*
X699537Y55551D01*
X699653Y55482D01*
X699766Y55410D01*
X699878Y55334D01*
X699987Y55255D01*
X700093Y55173D01*
X700198Y55088D01*
X700300Y55000D01*
X700399Y54909D01*
X700495Y54815D01*
X700589Y54719D01*
X700680Y54620D01*
X700768Y54518D01*
X700853Y54413D01*
X700935Y54307D01*
X701014Y54198D01*
X701090Y54086D01*
X701162Y53973D01*
X701231Y53857D01*
X701297Y53739D01*
X701359Y53620D01*
X701417Y53499D01*
X701473Y53376D01*
X701524Y53252D01*
X701572Y53126D01*
X701616Y52999D01*
X701657Y52870D01*
X701693Y52741D01*
X701726Y52610D01*
X701755Y52479D01*
X701781Y52347D01*
X701802Y52214D01*
X701820Y52080D01*
X701833Y51946D01*
X701843Y51812D01*
X701849Y51678D01*
X701851Y51543D01*
X701851Y46914D01*
X701849Y46779D01*
X701843Y46645D01*
X701833Y46511D01*
X701820Y46377D01*
X701802Y46243D01*
X701781Y46110D01*
X701755Y45978D01*
X701726Y45847D01*
X701693Y45716D01*
X701657Y45587D01*
X701616Y45458D01*
X701572Y45331D01*
X701524Y45205D01*
X701473Y45081D01*
X701417Y44958D01*
X701359Y44837D01*
X701297Y44718D01*
X701231Y44600D01*
X701162Y44484D01*
X701090Y44371D01*
X701014Y44259D01*
X700935Y44150D01*
X700853Y44044D01*
X700768Y43939D01*
X700680Y43837D01*
X700589Y43738D01*
X700495Y43642D01*
X700399Y43548D01*
X700300Y43457D01*
X700198Y43369D01*
X700093Y43284D01*
X699987Y43202D01*
X699878Y43123D01*
X699766Y43047D01*
X699653Y42975D01*
X699537Y42906D01*
X699419Y42840D01*
X699300Y42778D01*
X699179Y42720D01*
X699056Y42664D01*
X698932Y42613D01*
X698806Y42565D01*
X698679Y42521D01*
X698550Y42480D01*
X698421Y42444D01*
X698290Y42411D01*
X698159Y42382D01*
X698027Y42356D01*
X697894Y42335D01*
X697760Y42317D01*
X697626Y42304D01*
X697492Y42294D01*
X697358Y42288D01*
X697223Y42286D01*
X697088Y42288D01*
X696954Y42294D01*
X696820Y42304D01*
X696686Y42317D01*
X696552Y42335D01*
X696419Y42356D01*
X696287Y42382D01*
X696156Y42411D01*
X696025Y42444D01*
X695896Y42480D01*
X695767Y42521D01*
X695640Y42565D01*
X695514Y42613D01*
X695390Y42664D01*
X695267Y42720D01*
X695146Y42778D01*
X695027Y42840D01*
X694909Y42906D01*
X694793Y42975D01*
X694680Y43047D01*
X694568Y43123D01*
X694459Y43202D01*
X694353Y43284D01*
X694248Y43369D01*
X694146Y43457D01*
X694047Y43548D01*
X693951Y43642D01*
X693857Y43738D01*
X693766Y43837D01*
X693678Y43939D01*
X693593Y44044D01*
X693511Y44150D01*
X693432Y44259D01*
X693356Y44371D01*
X693284Y44484D01*
X693215Y44600D01*
X693149Y44718D01*
X693087Y44837D01*
X693029Y44958D01*
X692973Y45081D01*
X692922Y45205D01*
X692874Y45331D01*
X692830Y45458D01*
X692789Y45587D01*
X692753Y45716D01*
X692720Y45847D01*
X692691Y45978D01*
X692665Y46110D01*
X692644Y46243D01*
X692626Y46377D01*
X692613Y46511D01*
X692603Y46645D01*
X692597Y46779D01*
X692595Y46914D01*
X711855Y42286D02*
X711855Y56171D01*
X722269Y56171D01*
X722385Y56169D01*
X722501Y56163D01*
X722616Y56154D01*
X722732Y56140D01*
X722846Y56123D01*
X722960Y56101D01*
X723074Y56076D01*
X723186Y56048D01*
X723297Y56015D01*
X723408Y55979D01*
X723517Y55939D01*
X723624Y55896D01*
X723730Y55849D01*
X723834Y55798D01*
X723937Y55744D01*
X724038Y55686D01*
X724137Y55626D01*
X724233Y55562D01*
X724328Y55494D01*
X724420Y55424D01*
X724510Y55351D01*
X724597Y55274D01*
X724682Y55195D01*
X724764Y55113D01*
X724843Y55028D01*
X724920Y54941D01*
X724993Y54851D01*
X725063Y54759D01*
X725131Y54664D01*
X725195Y54568D01*
X725255Y54469D01*
X725313Y54368D01*
X725367Y54265D01*
X725418Y54161D01*
X725465Y54055D01*
X725508Y53948D01*
X725548Y53839D01*
X725584Y53728D01*
X725617Y53617D01*
X725645Y53505D01*
X725670Y53391D01*
X725692Y53277D01*
X725709Y53163D01*
X725723Y53047D01*
X725732Y52932D01*
X725738Y52816D01*
X725740Y52700D01*
X725740Y42286D01*
X718797Y42286D02*
X718797Y56171D01*
X32286Y63114D02*
X32286Y42286D01*
X32286Y63114D02*
X38072Y63114D01*
X38223Y63112D01*
X38375Y63106D01*
X38526Y63096D01*
X38677Y63082D01*
X38827Y63064D01*
X38977Y63043D01*
X39126Y63017D01*
X39275Y62988D01*
X39423Y62954D01*
X39570Y62917D01*
X39715Y62876D01*
X39860Y62831D01*
X40003Y62782D01*
X40146Y62730D01*
X40286Y62674D01*
X40425Y62614D01*
X40563Y62550D01*
X40699Y62483D01*
X40833Y62413D01*
X40965Y62339D01*
X41095Y62261D01*
X41223Y62181D01*
X41349Y62096D01*
X41473Y62009D01*
X41594Y61918D01*
X41713Y61825D01*
X41830Y61728D01*
X41944Y61628D01*
X42055Y61525D01*
X42163Y61419D01*
X42269Y61311D01*
X42372Y61200D01*
X42472Y61086D01*
X42569Y60969D01*
X42662Y60850D01*
X42753Y60729D01*
X42840Y60605D01*
X42925Y60479D01*
X43005Y60351D01*
X43083Y60221D01*
X43157Y60089D01*
X43227Y59955D01*
X43294Y59819D01*
X43358Y59681D01*
X43418Y59542D01*
X43474Y59402D01*
X43526Y59259D01*
X43575Y59116D01*
X43620Y58971D01*
X43661Y58826D01*
X43698Y58679D01*
X43732Y58531D01*
X43761Y58382D01*
X43787Y58233D01*
X43808Y58083D01*
X43826Y57933D01*
X43840Y57782D01*
X43850Y57631D01*
X43856Y57479D01*
X43858Y57328D01*
X43857Y57328D02*
X43857Y48072D01*
X43858Y48072D02*
X43856Y47921D01*
X43850Y47769D01*
X43840Y47618D01*
X43826Y47467D01*
X43808Y47317D01*
X43787Y47167D01*
X43761Y47018D01*
X43732Y46869D01*
X43698Y46721D01*
X43661Y46574D01*
X43620Y46429D01*
X43575Y46284D01*
X43526Y46141D01*
X43474Y45998D01*
X43418Y45858D01*
X43358Y45719D01*
X43294Y45581D01*
X43227Y45445D01*
X43157Y45311D01*
X43083Y45179D01*
X43005Y45049D01*
X42925Y44921D01*
X42840Y44795D01*
X42753Y44671D01*
X42662Y44550D01*
X42569Y44431D01*
X42472Y44314D01*
X42372Y44200D01*
X42269Y44089D01*
X42163Y43981D01*
X42055Y43875D01*
X41944Y43772D01*
X41830Y43672D01*
X41713Y43575D01*
X41594Y43482D01*
X41473Y43391D01*
X41349Y43304D01*
X41223Y43219D01*
X41095Y43139D01*
X40965Y43061D01*
X40833Y42987D01*
X40699Y42917D01*
X40563Y42850D01*
X40425Y42786D01*
X40286Y42726D01*
X40145Y42670D01*
X40003Y42618D01*
X39860Y42569D01*
X39715Y42524D01*
X39570Y42483D01*
X39423Y42446D01*
X39275Y42412D01*
X39126Y42383D01*
X38977Y42357D01*
X38827Y42335D01*
X38677Y42318D01*
X38526Y42304D01*
X38375Y42294D01*
X38223Y42288D01*
X38072Y42286D01*
X32286Y42286D01*
X57548Y50386D02*
X62755Y50386D01*
X57548Y50386D02*
X57422Y50384D01*
X57296Y50378D01*
X57171Y50368D01*
X57045Y50355D01*
X56921Y50337D01*
X56797Y50316D01*
X56673Y50290D01*
X56551Y50261D01*
X56429Y50228D01*
X56308Y50192D01*
X56189Y50151D01*
X56071Y50107D01*
X55955Y50059D01*
X55840Y50008D01*
X55726Y49953D01*
X55615Y49895D01*
X55505Y49833D01*
X55397Y49768D01*
X55291Y49699D01*
X55188Y49627D01*
X55087Y49552D01*
X54988Y49474D01*
X54891Y49393D01*
X54798Y49309D01*
X54707Y49222D01*
X54618Y49132D01*
X54533Y49040D01*
X54450Y48945D01*
X54370Y48847D01*
X54294Y48747D01*
X54220Y48645D01*
X54150Y48540D01*
X54083Y48433D01*
X54020Y48325D01*
X53960Y48214D01*
X53903Y48101D01*
X53850Y47987D01*
X53800Y47871D01*
X53754Y47754D01*
X53712Y47635D01*
X53674Y47515D01*
X53639Y47394D01*
X53608Y47272D01*
X53580Y47149D01*
X53557Y47025D01*
X53538Y46901D01*
X53522Y46776D01*
X53510Y46651D01*
X53502Y46525D01*
X53498Y46399D01*
X53498Y46273D01*
X53502Y46147D01*
X53510Y46021D01*
X53522Y45896D01*
X53538Y45771D01*
X53557Y45647D01*
X53580Y45523D01*
X53608Y45400D01*
X53639Y45278D01*
X53674Y45157D01*
X53712Y45037D01*
X53754Y44918D01*
X53800Y44801D01*
X53850Y44685D01*
X53903Y44571D01*
X53960Y44458D01*
X54020Y44347D01*
X54083Y44239D01*
X54150Y44132D01*
X54220Y44027D01*
X54294Y43925D01*
X54370Y43825D01*
X54450Y43727D01*
X54533Y43632D01*
X54618Y43540D01*
X54707Y43450D01*
X54798Y43363D01*
X54891Y43279D01*
X54988Y43198D01*
X55087Y43120D01*
X55188Y43045D01*
X55291Y42973D01*
X55397Y42904D01*
X55505Y42839D01*
X55615Y42777D01*
X55726Y42719D01*
X55840Y42664D01*
X55955Y42613D01*
X56071Y42565D01*
X56189Y42521D01*
X56308Y42480D01*
X56429Y42444D01*
X56551Y42411D01*
X56673Y42382D01*
X56797Y42356D01*
X56921Y42335D01*
X57045Y42317D01*
X57171Y42304D01*
X57296Y42294D01*
X57422Y42288D01*
X57548Y42286D01*
X62755Y42286D01*
X62755Y52700D01*
X62753Y52816D01*
X62747Y52932D01*
X62738Y53047D01*
X62724Y53163D01*
X62707Y53277D01*
X62685Y53391D01*
X62660Y53505D01*
X62632Y53617D01*
X62599Y53728D01*
X62563Y53839D01*
X62523Y53948D01*
X62480Y54055D01*
X62433Y54161D01*
X62382Y54265D01*
X62328Y54368D01*
X62270Y54469D01*
X62210Y54568D01*
X62146Y54664D01*
X62078Y54759D01*
X62008Y54851D01*
X61935Y54941D01*
X61858Y55028D01*
X61779Y55113D01*
X61697Y55195D01*
X61612Y55274D01*
X61525Y55351D01*
X61435Y55424D01*
X61343Y55494D01*
X61248Y55562D01*
X61152Y55626D01*
X61053Y55686D01*
X60952Y55744D01*
X60849Y55798D01*
X60745Y55849D01*
X60639Y55896D01*
X60532Y55939D01*
X60423Y55979D01*
X60312Y56015D01*
X60201Y56048D01*
X60089Y56076D01*
X59975Y56101D01*
X59861Y56123D01*
X59747Y56140D01*
X59631Y56154D01*
X59516Y56163D01*
X59400Y56169D01*
X59284Y56171D01*
X54655Y56171D01*
X70580Y56171D02*
X77522Y56171D01*
X72894Y63114D02*
X72894Y45757D01*
X72896Y45641D01*
X72902Y45525D01*
X72911Y45410D01*
X72925Y45294D01*
X72942Y45180D01*
X72964Y45066D01*
X72989Y44952D01*
X73017Y44840D01*
X73050Y44729D01*
X73086Y44618D01*
X73126Y44509D01*
X73169Y44402D01*
X73216Y44296D01*
X73267Y44192D01*
X73321Y44089D01*
X73379Y43988D01*
X73439Y43889D01*
X73503Y43793D01*
X73571Y43698D01*
X73641Y43606D01*
X73714Y43516D01*
X73791Y43429D01*
X73870Y43344D01*
X73952Y43262D01*
X74037Y43183D01*
X74124Y43106D01*
X74214Y43033D01*
X74306Y42963D01*
X74401Y42895D01*
X74497Y42831D01*
X74596Y42771D01*
X74697Y42713D01*
X74800Y42659D01*
X74904Y42608D01*
X75010Y42561D01*
X75117Y42518D01*
X75226Y42478D01*
X75337Y42442D01*
X75448Y42409D01*
X75560Y42381D01*
X75674Y42356D01*
X75788Y42334D01*
X75902Y42317D01*
X76018Y42303D01*
X76133Y42294D01*
X76249Y42288D01*
X76365Y42286D01*
X77522Y42286D01*
X89562Y50386D02*
X94769Y50386D01*
X89562Y50386D02*
X89436Y50384D01*
X89310Y50378D01*
X89185Y50368D01*
X89059Y50355D01*
X88935Y50337D01*
X88811Y50316D01*
X88687Y50290D01*
X88565Y50261D01*
X88443Y50228D01*
X88322Y50192D01*
X88203Y50151D01*
X88085Y50107D01*
X87969Y50059D01*
X87854Y50008D01*
X87740Y49953D01*
X87629Y49895D01*
X87519Y49833D01*
X87411Y49768D01*
X87305Y49699D01*
X87202Y49627D01*
X87101Y49552D01*
X87002Y49474D01*
X86905Y49393D01*
X86812Y49309D01*
X86721Y49222D01*
X86632Y49132D01*
X86547Y49040D01*
X86464Y48945D01*
X86384Y48847D01*
X86308Y48747D01*
X86234Y48645D01*
X86164Y48540D01*
X86097Y48433D01*
X86034Y48325D01*
X85974Y48214D01*
X85917Y48101D01*
X85864Y47987D01*
X85814Y47871D01*
X85768Y47754D01*
X85726Y47635D01*
X85688Y47515D01*
X85653Y47394D01*
X85622Y47272D01*
X85594Y47149D01*
X85571Y47025D01*
X85552Y46901D01*
X85536Y46776D01*
X85524Y46651D01*
X85516Y46525D01*
X85512Y46399D01*
X85512Y46273D01*
X85516Y46147D01*
X85524Y46021D01*
X85536Y45896D01*
X85552Y45771D01*
X85571Y45647D01*
X85594Y45523D01*
X85622Y45400D01*
X85653Y45278D01*
X85688Y45157D01*
X85726Y45037D01*
X85768Y44918D01*
X85814Y44801D01*
X85864Y44685D01*
X85917Y44571D01*
X85974Y44458D01*
X86034Y44347D01*
X86097Y44239D01*
X86164Y44132D01*
X86234Y44027D01*
X86308Y43925D01*
X86384Y43825D01*
X86464Y43727D01*
X86547Y43632D01*
X86632Y43540D01*
X86721Y43450D01*
X86812Y43363D01*
X86905Y43279D01*
X87002Y43198D01*
X87101Y43120D01*
X87202Y43045D01*
X87305Y42973D01*
X87411Y42904D01*
X87519Y42839D01*
X87629Y42777D01*
X87740Y42719D01*
X87854Y42664D01*
X87969Y42613D01*
X88085Y42565D01*
X88203Y42521D01*
X88322Y42480D01*
X88443Y42444D01*
X88565Y42411D01*
X88687Y42382D01*
X88811Y42356D01*
X88935Y42335D01*
X89059Y42317D01*
X89185Y42304D01*
X89310Y42294D01*
X89436Y42288D01*
X89562Y42286D01*
X94769Y42286D01*
X94769Y52700D01*
X94767Y52816D01*
X94761Y52932D01*
X94752Y53047D01*
X94738Y53163D01*
X94721Y53277D01*
X94699Y53391D01*
X94674Y53505D01*
X94646Y53617D01*
X94613Y53728D01*
X94577Y53839D01*
X94537Y53948D01*
X94494Y54055D01*
X94447Y54161D01*
X94396Y54265D01*
X94342Y54368D01*
X94284Y54469D01*
X94224Y54568D01*
X94160Y54664D01*
X94092Y54759D01*
X94022Y54851D01*
X93949Y54941D01*
X93872Y55028D01*
X93793Y55113D01*
X93711Y55195D01*
X93626Y55274D01*
X93539Y55351D01*
X93449Y55424D01*
X93357Y55494D01*
X93262Y55562D01*
X93166Y55626D01*
X93067Y55686D01*
X92966Y55744D01*
X92863Y55798D01*
X92759Y55849D01*
X92653Y55896D01*
X92546Y55939D01*
X92437Y55979D01*
X92326Y56015D01*
X92215Y56048D01*
X92103Y56076D01*
X91989Y56101D01*
X91875Y56123D01*
X91761Y56140D01*
X91645Y56154D01*
X91530Y56163D01*
X91414Y56169D01*
X91298Y56171D01*
X86669Y56171D01*
X122048Y42286D02*
X122183Y42288D01*
X122317Y42294D01*
X122451Y42304D01*
X122585Y42317D01*
X122719Y42335D01*
X122852Y42356D01*
X122984Y42382D01*
X123115Y42411D01*
X123246Y42444D01*
X123375Y42480D01*
X123504Y42521D01*
X123631Y42565D01*
X123757Y42613D01*
X123881Y42664D01*
X124004Y42720D01*
X124125Y42778D01*
X124244Y42840D01*
X124362Y42906D01*
X124478Y42975D01*
X124591Y43047D01*
X124703Y43123D01*
X124812Y43202D01*
X124918Y43284D01*
X125023Y43369D01*
X125125Y43457D01*
X125224Y43548D01*
X125320Y43642D01*
X125414Y43738D01*
X125505Y43837D01*
X125593Y43939D01*
X125678Y44044D01*
X125760Y44150D01*
X125839Y44259D01*
X125915Y44371D01*
X125987Y44484D01*
X126056Y44600D01*
X126122Y44718D01*
X126184Y44837D01*
X126242Y44958D01*
X126298Y45081D01*
X126349Y45205D01*
X126397Y45331D01*
X126441Y45458D01*
X126482Y45587D01*
X126518Y45716D01*
X126551Y45847D01*
X126580Y45978D01*
X126606Y46110D01*
X126627Y46243D01*
X126645Y46377D01*
X126658Y46511D01*
X126668Y46645D01*
X126674Y46779D01*
X126676Y46914D01*
X122048Y42286D02*
X121814Y42289D01*
X121580Y42297D01*
X121347Y42311D01*
X121114Y42331D01*
X120881Y42356D01*
X120649Y42387D01*
X120418Y42423D01*
X120188Y42465D01*
X119959Y42512D01*
X119731Y42565D01*
X119504Y42623D01*
X119279Y42686D01*
X119055Y42755D01*
X118834Y42829D01*
X118614Y42909D01*
X118396Y42994D01*
X118180Y43084D01*
X117966Y43179D01*
X117754Y43279D01*
X117545Y43384D01*
X117339Y43495D01*
X117135Y43610D01*
X116935Y43730D01*
X116737Y43854D01*
X116542Y43984D01*
X116350Y44118D01*
X116162Y44256D01*
X115976Y44399D01*
X115795Y44547D01*
X115617Y44699D01*
X115442Y44855D01*
X115272Y45015D01*
X115105Y45179D01*
X115684Y58486D02*
X115686Y58621D01*
X115692Y58755D01*
X115702Y58889D01*
X115715Y59023D01*
X115733Y59157D01*
X115754Y59290D01*
X115780Y59422D01*
X115809Y59553D01*
X115842Y59684D01*
X115878Y59813D01*
X115919Y59942D01*
X115963Y60069D01*
X116011Y60195D01*
X116062Y60319D01*
X116118Y60442D01*
X116176Y60563D01*
X116238Y60682D01*
X116304Y60800D01*
X116373Y60916D01*
X116445Y61029D01*
X116521Y61141D01*
X116600Y61250D01*
X116682Y61356D01*
X116767Y61461D01*
X116855Y61563D01*
X116946Y61662D01*
X117040Y61759D01*
X117136Y61852D01*
X117235Y61943D01*
X117337Y62031D01*
X117442Y62116D01*
X117548Y62198D01*
X117658Y62277D01*
X117769Y62353D01*
X117882Y62425D01*
X117998Y62494D01*
X118116Y62560D01*
X118235Y62622D01*
X118356Y62680D01*
X118479Y62736D01*
X118603Y62787D01*
X118729Y62835D01*
X118856Y62879D01*
X118985Y62920D01*
X119114Y62956D01*
X119245Y62989D01*
X119376Y63018D01*
X119508Y63044D01*
X119641Y63065D01*
X119775Y63083D01*
X119909Y63096D01*
X120043Y63106D01*
X120177Y63112D01*
X120312Y63114D01*
X120519Y63112D01*
X120726Y63104D01*
X120932Y63092D01*
X121138Y63075D01*
X121344Y63052D01*
X121549Y63025D01*
X121753Y62994D01*
X121957Y62957D01*
X122159Y62915D01*
X122361Y62869D01*
X122561Y62817D01*
X122760Y62761D01*
X122958Y62701D01*
X123154Y62635D01*
X123349Y62565D01*
X123542Y62491D01*
X123733Y62411D01*
X123922Y62328D01*
X124109Y62239D01*
X124294Y62147D01*
X124476Y62050D01*
X124657Y61948D01*
X124834Y61843D01*
X125010Y61733D01*
X125182Y61619D01*
X125352Y61501D01*
X125519Y61378D01*
X117997Y54436D02*
X117882Y54506D01*
X117768Y54580D01*
X117656Y54657D01*
X117547Y54738D01*
X117440Y54821D01*
X117336Y54907D01*
X117234Y54997D01*
X117134Y55089D01*
X117038Y55184D01*
X116944Y55282D01*
X116853Y55383D01*
X116765Y55486D01*
X116680Y55591D01*
X116598Y55699D01*
X116519Y55810D01*
X116444Y55922D01*
X116371Y56037D01*
X116302Y56154D01*
X116237Y56272D01*
X116175Y56393D01*
X116116Y56515D01*
X116061Y56639D01*
X116010Y56764D01*
X115962Y56891D01*
X115918Y57019D01*
X115877Y57149D01*
X115840Y57279D01*
X115808Y57411D01*
X115778Y57543D01*
X115753Y57677D01*
X115732Y57810D01*
X115714Y57945D01*
X115701Y58080D01*
X115691Y58215D01*
X115685Y58350D01*
X115683Y58486D01*
X124362Y50964D02*
X124477Y50894D01*
X124591Y50820D01*
X124703Y50743D01*
X124812Y50662D01*
X124919Y50579D01*
X125023Y50493D01*
X125125Y50403D01*
X125225Y50311D01*
X125321Y50216D01*
X125415Y50118D01*
X125506Y50017D01*
X125594Y49914D01*
X125679Y49809D01*
X125761Y49701D01*
X125840Y49590D01*
X125915Y49478D01*
X125988Y49363D01*
X126057Y49246D01*
X126122Y49128D01*
X126184Y49007D01*
X126243Y48885D01*
X126298Y48761D01*
X126349Y48636D01*
X126397Y48509D01*
X126441Y48381D01*
X126482Y48251D01*
X126519Y48121D01*
X126551Y47989D01*
X126581Y47857D01*
X126606Y47723D01*
X126627Y47590D01*
X126645Y47455D01*
X126658Y47320D01*
X126668Y47185D01*
X126674Y47050D01*
X126676Y46914D01*
X124362Y50964D02*
X117998Y54436D01*
X138561Y42286D02*
X143189Y42286D01*
X138561Y42286D02*
X138445Y42288D01*
X138329Y42294D01*
X138214Y42303D01*
X138098Y42317D01*
X137984Y42334D01*
X137870Y42356D01*
X137756Y42381D01*
X137644Y42409D01*
X137533Y42442D01*
X137422Y42478D01*
X137313Y42518D01*
X137206Y42561D01*
X137100Y42608D01*
X136996Y42659D01*
X136893Y42713D01*
X136792Y42771D01*
X136693Y42831D01*
X136597Y42895D01*
X136502Y42963D01*
X136410Y43033D01*
X136320Y43106D01*
X136233Y43183D01*
X136148Y43262D01*
X136066Y43344D01*
X135987Y43429D01*
X135910Y43516D01*
X135837Y43606D01*
X135767Y43698D01*
X135699Y43793D01*
X135635Y43889D01*
X135575Y43988D01*
X135517Y44089D01*
X135463Y44192D01*
X135412Y44296D01*
X135365Y44402D01*
X135322Y44509D01*
X135282Y44618D01*
X135246Y44729D01*
X135213Y44840D01*
X135185Y44952D01*
X135160Y45066D01*
X135138Y45180D01*
X135121Y45294D01*
X135107Y45410D01*
X135098Y45525D01*
X135092Y45641D01*
X135090Y45757D01*
X135089Y45757D02*
X135089Y52700D01*
X135090Y52700D02*
X135092Y52816D01*
X135098Y52932D01*
X135107Y53047D01*
X135121Y53163D01*
X135138Y53277D01*
X135160Y53391D01*
X135185Y53505D01*
X135213Y53617D01*
X135246Y53728D01*
X135282Y53839D01*
X135322Y53948D01*
X135365Y54055D01*
X135412Y54161D01*
X135463Y54265D01*
X135517Y54368D01*
X135575Y54469D01*
X135635Y54568D01*
X135699Y54664D01*
X135767Y54759D01*
X135837Y54851D01*
X135910Y54941D01*
X135987Y55028D01*
X136066Y55113D01*
X136148Y55195D01*
X136233Y55274D01*
X136320Y55351D01*
X136410Y55424D01*
X136502Y55494D01*
X136597Y55562D01*
X136693Y55626D01*
X136792Y55686D01*
X136893Y55744D01*
X136996Y55798D01*
X137100Y55849D01*
X137206Y55896D01*
X137313Y55939D01*
X137422Y55979D01*
X137533Y56015D01*
X137644Y56048D01*
X137756Y56076D01*
X137870Y56101D01*
X137984Y56123D01*
X138098Y56140D01*
X138214Y56154D01*
X138329Y56163D01*
X138445Y56169D01*
X138561Y56171D01*
X143189Y56171D01*
X150817Y56171D02*
X150817Y42286D01*
X150238Y61957D02*
X150238Y63114D01*
X151395Y63114D01*
X151395Y61957D01*
X150238Y61957D01*
X162883Y42286D02*
X168668Y42286D01*
X162883Y42286D02*
X162767Y42288D01*
X162651Y42294D01*
X162536Y42303D01*
X162420Y42317D01*
X162306Y42334D01*
X162192Y42356D01*
X162078Y42381D01*
X161966Y42409D01*
X161855Y42442D01*
X161744Y42478D01*
X161635Y42518D01*
X161528Y42561D01*
X161422Y42608D01*
X161318Y42659D01*
X161215Y42713D01*
X161114Y42771D01*
X161015Y42831D01*
X160919Y42895D01*
X160824Y42963D01*
X160732Y43033D01*
X160642Y43106D01*
X160555Y43183D01*
X160470Y43262D01*
X160388Y43344D01*
X160309Y43429D01*
X160232Y43516D01*
X160159Y43606D01*
X160089Y43698D01*
X160021Y43793D01*
X159957Y43889D01*
X159897Y43988D01*
X159839Y44089D01*
X159785Y44192D01*
X159734Y44296D01*
X159687Y44402D01*
X159644Y44509D01*
X159604Y44618D01*
X159568Y44729D01*
X159535Y44840D01*
X159507Y44952D01*
X159482Y45066D01*
X159460Y45180D01*
X159443Y45294D01*
X159429Y45410D01*
X159420Y45525D01*
X159414Y45641D01*
X159412Y45757D01*
X159412Y51543D01*
X159414Y51678D01*
X159420Y51812D01*
X159430Y51946D01*
X159443Y52080D01*
X159461Y52214D01*
X159482Y52347D01*
X159508Y52479D01*
X159537Y52610D01*
X159570Y52741D01*
X159606Y52870D01*
X159647Y52999D01*
X159691Y53126D01*
X159739Y53252D01*
X159790Y53376D01*
X159846Y53499D01*
X159904Y53620D01*
X159966Y53739D01*
X160032Y53857D01*
X160101Y53973D01*
X160173Y54086D01*
X160249Y54198D01*
X160328Y54307D01*
X160410Y54413D01*
X160495Y54518D01*
X160583Y54620D01*
X160674Y54719D01*
X160768Y54815D01*
X160864Y54909D01*
X160963Y55000D01*
X161065Y55088D01*
X161170Y55173D01*
X161276Y55255D01*
X161385Y55334D01*
X161497Y55410D01*
X161610Y55482D01*
X161726Y55551D01*
X161844Y55617D01*
X161963Y55679D01*
X162084Y55737D01*
X162207Y55793D01*
X162331Y55844D01*
X162457Y55892D01*
X162584Y55936D01*
X162713Y55977D01*
X162842Y56013D01*
X162973Y56046D01*
X163104Y56075D01*
X163236Y56101D01*
X163369Y56122D01*
X163503Y56140D01*
X163637Y56153D01*
X163771Y56163D01*
X163905Y56169D01*
X164040Y56171D01*
X164175Y56169D01*
X164309Y56163D01*
X164443Y56153D01*
X164577Y56140D01*
X164711Y56122D01*
X164844Y56101D01*
X164976Y56075D01*
X165107Y56046D01*
X165238Y56013D01*
X165367Y55977D01*
X165496Y55936D01*
X165623Y55892D01*
X165749Y55844D01*
X165873Y55793D01*
X165996Y55737D01*
X166117Y55679D01*
X166236Y55617D01*
X166354Y55551D01*
X166470Y55482D01*
X166583Y55410D01*
X166695Y55334D01*
X166804Y55255D01*
X166910Y55173D01*
X167015Y55088D01*
X167117Y55000D01*
X167216Y54909D01*
X167312Y54815D01*
X167406Y54719D01*
X167497Y54620D01*
X167585Y54518D01*
X167670Y54413D01*
X167752Y54307D01*
X167831Y54198D01*
X167907Y54086D01*
X167979Y53973D01*
X168048Y53857D01*
X168114Y53739D01*
X168176Y53620D01*
X168234Y53499D01*
X168290Y53376D01*
X168341Y53252D01*
X168389Y53126D01*
X168433Y52999D01*
X168474Y52870D01*
X168510Y52741D01*
X168543Y52610D01*
X168572Y52479D01*
X168598Y52347D01*
X168619Y52214D01*
X168637Y52080D01*
X168650Y51946D01*
X168660Y51812D01*
X168666Y51678D01*
X168668Y51543D01*
X168668Y49229D01*
X159412Y49229D01*
X178202Y42286D02*
X178202Y56171D01*
X183988Y56171D01*
X184104Y56169D01*
X184220Y56163D01*
X184335Y56154D01*
X184451Y56140D01*
X184565Y56123D01*
X184679Y56101D01*
X184793Y56076D01*
X184905Y56048D01*
X185016Y56015D01*
X185127Y55979D01*
X185235Y55939D01*
X185343Y55896D01*
X185449Y55849D01*
X185553Y55798D01*
X185656Y55744D01*
X185757Y55686D01*
X185856Y55626D01*
X185952Y55562D01*
X186047Y55494D01*
X186139Y55424D01*
X186229Y55351D01*
X186316Y55274D01*
X186401Y55195D01*
X186483Y55113D01*
X186562Y55028D01*
X186639Y54941D01*
X186712Y54851D01*
X186782Y54759D01*
X186850Y54664D01*
X186914Y54568D01*
X186974Y54469D01*
X187032Y54368D01*
X187086Y54265D01*
X187137Y54161D01*
X187184Y54055D01*
X187227Y53948D01*
X187267Y53839D01*
X187303Y53728D01*
X187336Y53617D01*
X187364Y53505D01*
X187389Y53391D01*
X187411Y53277D01*
X187428Y53163D01*
X187442Y53047D01*
X187451Y52932D01*
X187457Y52816D01*
X187459Y52700D01*
X187459Y42286D01*
X195156Y56171D02*
X202099Y56171D01*
X197471Y63114D02*
X197471Y45757D01*
X197473Y45641D01*
X197479Y45525D01*
X197488Y45410D01*
X197502Y45294D01*
X197519Y45180D01*
X197541Y45066D01*
X197566Y44952D01*
X197594Y44840D01*
X197627Y44729D01*
X197663Y44618D01*
X197703Y44509D01*
X197746Y44402D01*
X197793Y44296D01*
X197844Y44192D01*
X197898Y44089D01*
X197956Y43988D01*
X198016Y43889D01*
X198080Y43793D01*
X198148Y43698D01*
X198218Y43606D01*
X198291Y43516D01*
X198368Y43429D01*
X198447Y43344D01*
X198529Y43262D01*
X198614Y43183D01*
X198701Y43106D01*
X198791Y43033D01*
X198883Y42963D01*
X198978Y42895D01*
X199074Y42831D01*
X199173Y42771D01*
X199274Y42713D01*
X199377Y42659D01*
X199481Y42608D01*
X199587Y42561D01*
X199694Y42518D01*
X199803Y42478D01*
X199914Y42442D01*
X200025Y42409D01*
X200137Y42381D01*
X200251Y42356D01*
X200365Y42334D01*
X200479Y42317D01*
X200595Y42303D01*
X200710Y42294D01*
X200826Y42288D01*
X200942Y42286D01*
X202099Y42286D01*
X209973Y42286D02*
X209973Y56171D01*
X209395Y61957D02*
X209395Y63114D01*
X210552Y63114D01*
X210552Y61957D01*
X209395Y61957D01*
X220304Y50386D02*
X226089Y48072D01*
X220304Y50386D02*
X220204Y50428D01*
X220106Y50473D01*
X220010Y50522D01*
X219915Y50575D01*
X219823Y50630D01*
X219732Y50690D01*
X219644Y50752D01*
X219558Y50817D01*
X219474Y50886D01*
X219393Y50958D01*
X219315Y51032D01*
X219239Y51109D01*
X219166Y51189D01*
X219096Y51271D01*
X219029Y51356D01*
X218965Y51444D01*
X218905Y51533D01*
X218847Y51625D01*
X218793Y51718D01*
X218743Y51814D01*
X218695Y51911D01*
X218652Y52010D01*
X218612Y52111D01*
X218575Y52212D01*
X218543Y52315D01*
X218514Y52420D01*
X218488Y52525D01*
X218467Y52631D01*
X218449Y52737D01*
X218436Y52845D01*
X218426Y52952D01*
X218420Y53060D01*
X218418Y53168D01*
X218420Y53277D01*
X218426Y53385D01*
X218435Y53492D01*
X218449Y53600D01*
X218466Y53706D01*
X218487Y53812D01*
X218512Y53917D01*
X218541Y54022D01*
X218574Y54125D01*
X218610Y54227D01*
X218650Y54327D01*
X218693Y54426D01*
X218740Y54524D01*
X218791Y54619D01*
X218845Y54713D01*
X218902Y54805D01*
X218962Y54894D01*
X219026Y54982D01*
X219093Y55067D01*
X219163Y55149D01*
X219235Y55229D01*
X219311Y55307D01*
X219389Y55381D01*
X219470Y55453D01*
X219554Y55521D01*
X219640Y55587D01*
X219728Y55650D01*
X219818Y55709D01*
X219911Y55765D01*
X220005Y55818D01*
X220102Y55867D01*
X220200Y55912D01*
X220299Y55955D01*
X220400Y55993D01*
X220503Y56028D01*
X220606Y56059D01*
X220711Y56086D01*
X220816Y56110D01*
X220922Y56130D01*
X221029Y56146D01*
X221137Y56158D01*
X221245Y56166D01*
X221353Y56170D01*
X221461Y56171D01*
X221776Y56162D01*
X222092Y56146D01*
X222407Y56123D01*
X222722Y56092D01*
X223035Y56053D01*
X223348Y56007D01*
X223659Y55954D01*
X223969Y55892D01*
X224277Y55824D01*
X224584Y55748D01*
X224889Y55665D01*
X225192Y55574D01*
X225492Y55476D01*
X225790Y55371D01*
X226085Y55259D01*
X226378Y55140D01*
X226668Y55014D01*
X226089Y48071D02*
X226189Y48029D01*
X226287Y47984D01*
X226383Y47935D01*
X226478Y47882D01*
X226570Y47827D01*
X226661Y47767D01*
X226749Y47705D01*
X226835Y47640D01*
X226919Y47571D01*
X227000Y47500D01*
X227078Y47425D01*
X227154Y47348D01*
X227227Y47268D01*
X227297Y47186D01*
X227364Y47101D01*
X227428Y47013D01*
X227488Y46924D01*
X227546Y46832D01*
X227600Y46739D01*
X227650Y46643D01*
X227698Y46546D01*
X227741Y46447D01*
X227781Y46346D01*
X227818Y46245D01*
X227850Y46142D01*
X227879Y46037D01*
X227905Y45932D01*
X227926Y45826D01*
X227944Y45720D01*
X227957Y45612D01*
X227967Y45505D01*
X227973Y45397D01*
X227975Y45289D01*
X227973Y45180D01*
X227967Y45072D01*
X227958Y44965D01*
X227944Y44857D01*
X227927Y44751D01*
X227906Y44645D01*
X227881Y44540D01*
X227852Y44435D01*
X227819Y44332D01*
X227783Y44230D01*
X227743Y44130D01*
X227700Y44031D01*
X227653Y43933D01*
X227602Y43838D01*
X227548Y43744D01*
X227491Y43652D01*
X227431Y43563D01*
X227367Y43475D01*
X227300Y43390D01*
X227230Y43308D01*
X227158Y43228D01*
X227082Y43150D01*
X227004Y43076D01*
X226923Y43004D01*
X226839Y42936D01*
X226753Y42870D01*
X226665Y42807D01*
X226575Y42748D01*
X226482Y42692D01*
X226388Y42639D01*
X226291Y42590D01*
X226193Y42545D01*
X226094Y42502D01*
X225993Y42464D01*
X225890Y42429D01*
X225787Y42398D01*
X225682Y42371D01*
X225577Y42347D01*
X225471Y42327D01*
X225364Y42311D01*
X225256Y42299D01*
X225148Y42291D01*
X225040Y42287D01*
X224932Y42286D01*
X224468Y42298D01*
X224004Y42321D01*
X223541Y42355D01*
X223079Y42400D01*
X222619Y42456D01*
X222159Y42523D01*
X221702Y42601D01*
X221246Y42689D01*
X220793Y42788D01*
X220342Y42898D01*
X219894Y43018D01*
X219448Y43150D01*
X219006Y43291D01*
X218568Y43443D01*
X234826Y56171D02*
X241768Y56171D01*
X237140Y63114D02*
X237140Y45757D01*
X237142Y45641D01*
X237148Y45525D01*
X237157Y45410D01*
X237171Y45294D01*
X237188Y45180D01*
X237210Y45066D01*
X237235Y44952D01*
X237263Y44840D01*
X237296Y44729D01*
X237332Y44618D01*
X237372Y44509D01*
X237415Y44402D01*
X237462Y44296D01*
X237513Y44192D01*
X237567Y44089D01*
X237625Y43988D01*
X237685Y43889D01*
X237749Y43793D01*
X237817Y43698D01*
X237887Y43606D01*
X237960Y43516D01*
X238037Y43429D01*
X238116Y43344D01*
X238198Y43262D01*
X238283Y43183D01*
X238370Y43106D01*
X238460Y43033D01*
X238552Y42963D01*
X238647Y42895D01*
X238743Y42831D01*
X238842Y42771D01*
X238943Y42713D01*
X239046Y42659D01*
X239150Y42608D01*
X239256Y42561D01*
X239363Y42518D01*
X239472Y42478D01*
X239583Y42442D01*
X239694Y42409D01*
X239806Y42381D01*
X239920Y42356D01*
X240034Y42334D01*
X240148Y42317D01*
X240264Y42303D01*
X240379Y42294D01*
X240495Y42288D01*
X240611Y42286D01*
X241768Y42286D01*
D12*
X44429Y484776D02*
X37791Y484776D01*
X37791Y495224D01*
X44429Y495224D01*
X44429Y484776D01*
X44429Y487882D02*
X37791Y487882D01*
X37791Y490988D02*
X44429Y490988D01*
X44429Y494094D02*
X37791Y494094D01*
X55571Y484776D02*
X62209Y484776D01*
X55571Y484776D02*
X55571Y495224D01*
X62209Y495224D01*
X62209Y484776D01*
X62209Y487882D02*
X55571Y487882D01*
X55571Y490988D02*
X62209Y490988D01*
X62209Y494094D02*
X55571Y494094D01*
D13*
X27975Y460000D03*
X72025Y460000D03*
X27975Y400000D03*
X72025Y400000D03*
X27975Y340000D03*
X72025Y340000D03*
X27975Y280000D03*
X72025Y280000D03*
X27975Y220000D03*
X72025Y220000D03*
X87975Y460000D03*
X132025Y460000D03*
X87975Y400000D03*
X132025Y400000D03*
X87975Y340000D03*
X132025Y340000D03*
X87975Y280000D03*
X132025Y280000D03*
X87975Y220000D03*
X132025Y220000D03*
X147975Y460000D03*
X192025Y460000D03*
X147975Y400000D03*
X192025Y400000D03*
X147975Y340000D03*
X192025Y340000D03*
X147975Y280000D03*
X192025Y280000D03*
X147975Y220000D03*
X192025Y220000D03*
X207975Y460000D03*
X252025Y460000D03*
X207975Y400000D03*
X252025Y400000D03*
X207975Y340000D03*
X252025Y340000D03*
X207975Y280000D03*
X252025Y280000D03*
X207975Y220000D03*
X252025Y220000D03*
X267975Y460000D03*
X312025Y460000D03*
X267975Y400000D03*
X312025Y400000D03*
X267975Y340000D03*
X312025Y340000D03*
X267975Y280000D03*
X312025Y280000D03*
X267975Y220000D03*
X312025Y220000D03*
D12*
X44429Y424776D02*
X37791Y424776D01*
X37791Y435224D01*
X44429Y435224D01*
X44429Y424776D01*
X44429Y427882D02*
X37791Y427882D01*
X37791Y430988D02*
X44429Y430988D01*
X44429Y434094D02*
X37791Y434094D01*
X55571Y424776D02*
X62209Y424776D01*
X55571Y424776D02*
X55571Y435224D01*
X62209Y435224D01*
X62209Y424776D01*
X62209Y427882D02*
X55571Y427882D01*
X55571Y430988D02*
X62209Y430988D01*
X62209Y434094D02*
X55571Y434094D01*
X44429Y364776D02*
X37791Y364776D01*
X37791Y375224D01*
X44429Y375224D01*
X44429Y364776D01*
X44429Y367882D02*
X37791Y367882D01*
X37791Y370988D02*
X44429Y370988D01*
X44429Y374094D02*
X37791Y374094D01*
X55571Y364776D02*
X62209Y364776D01*
X55571Y364776D02*
X55571Y375224D01*
X62209Y375224D01*
X62209Y364776D01*
X62209Y367882D02*
X55571Y367882D01*
X55571Y370988D02*
X62209Y370988D01*
X62209Y374094D02*
X55571Y374094D01*
X44429Y304776D02*
X37791Y304776D01*
X37791Y315224D01*
X44429Y315224D01*
X44429Y304776D01*
X44429Y307882D02*
X37791Y307882D01*
X37791Y310988D02*
X44429Y310988D01*
X44429Y314094D02*
X37791Y314094D01*
X55571Y304776D02*
X62209Y304776D01*
X55571Y304776D02*
X55571Y315224D01*
X62209Y315224D01*
X62209Y304776D01*
X62209Y307882D02*
X55571Y307882D01*
X55571Y310988D02*
X62209Y310988D01*
X62209Y314094D02*
X55571Y314094D01*
X44429Y244776D02*
X37791Y244776D01*
X37791Y255224D01*
X44429Y255224D01*
X44429Y244776D01*
X44429Y247882D02*
X37791Y247882D01*
X37791Y250988D02*
X44429Y250988D01*
X44429Y254094D02*
X37791Y254094D01*
X55571Y244776D02*
X62209Y244776D01*
X55571Y244776D02*
X55571Y255224D01*
X62209Y255224D01*
X62209Y244776D01*
X62209Y247882D02*
X55571Y247882D01*
X55571Y250988D02*
X62209Y250988D01*
X62209Y254094D02*
X55571Y254094D01*
X97791Y484776D02*
X104429Y484776D01*
X97791Y484776D02*
X97791Y495224D01*
X104429Y495224D01*
X104429Y484776D01*
X104429Y487882D02*
X97791Y487882D01*
X97791Y490988D02*
X104429Y490988D01*
X104429Y494094D02*
X97791Y494094D01*
X115571Y484776D02*
X122209Y484776D01*
X115571Y484776D02*
X115571Y495224D01*
X122209Y495224D01*
X122209Y484776D01*
X122209Y487882D02*
X115571Y487882D01*
X115571Y490988D02*
X122209Y490988D01*
X122209Y494094D02*
X115571Y494094D01*
X104429Y424776D02*
X97791Y424776D01*
X97791Y435224D01*
X104429Y435224D01*
X104429Y424776D01*
X104429Y427882D02*
X97791Y427882D01*
X97791Y430988D02*
X104429Y430988D01*
X104429Y434094D02*
X97791Y434094D01*
X115571Y424776D02*
X122209Y424776D01*
X115571Y424776D02*
X115571Y435224D01*
X122209Y435224D01*
X122209Y424776D01*
X122209Y427882D02*
X115571Y427882D01*
X115571Y430988D02*
X122209Y430988D01*
X122209Y434094D02*
X115571Y434094D01*
X104429Y364776D02*
X97791Y364776D01*
X97791Y375224D01*
X104429Y375224D01*
X104429Y364776D01*
X104429Y367882D02*
X97791Y367882D01*
X97791Y370988D02*
X104429Y370988D01*
X104429Y374094D02*
X97791Y374094D01*
X115571Y364776D02*
X122209Y364776D01*
X115571Y364776D02*
X115571Y375224D01*
X122209Y375224D01*
X122209Y364776D01*
X122209Y367882D02*
X115571Y367882D01*
X115571Y370988D02*
X122209Y370988D01*
X122209Y374094D02*
X115571Y374094D01*
X104429Y304776D02*
X97791Y304776D01*
X97791Y315224D01*
X104429Y315224D01*
X104429Y304776D01*
X104429Y307882D02*
X97791Y307882D01*
X97791Y310988D02*
X104429Y310988D01*
X104429Y314094D02*
X97791Y314094D01*
X115571Y304776D02*
X122209Y304776D01*
X115571Y304776D02*
X115571Y315224D01*
X122209Y315224D01*
X122209Y304776D01*
X122209Y307882D02*
X115571Y307882D01*
X115571Y310988D02*
X122209Y310988D01*
X122209Y314094D02*
X115571Y314094D01*
X104429Y244776D02*
X97791Y244776D01*
X97791Y255224D01*
X104429Y255224D01*
X104429Y244776D01*
X104429Y247882D02*
X97791Y247882D01*
X97791Y250988D02*
X104429Y250988D01*
X104429Y254094D02*
X97791Y254094D01*
X115571Y244776D02*
X122209Y244776D01*
X115571Y244776D02*
X115571Y255224D01*
X122209Y255224D01*
X122209Y244776D01*
X122209Y247882D02*
X115571Y247882D01*
X115571Y250988D02*
X122209Y250988D01*
X122209Y254094D02*
X115571Y254094D01*
X157791Y484776D02*
X164429Y484776D01*
X157791Y484776D02*
X157791Y495224D01*
X164429Y495224D01*
X164429Y484776D01*
X164429Y487882D02*
X157791Y487882D01*
X157791Y490988D02*
X164429Y490988D01*
X164429Y494094D02*
X157791Y494094D01*
X175571Y484776D02*
X182209Y484776D01*
X175571Y484776D02*
X175571Y495224D01*
X182209Y495224D01*
X182209Y484776D01*
X182209Y487882D02*
X175571Y487882D01*
X175571Y490988D02*
X182209Y490988D01*
X182209Y494094D02*
X175571Y494094D01*
X164429Y424776D02*
X157791Y424776D01*
X157791Y435224D01*
X164429Y435224D01*
X164429Y424776D01*
X164429Y427882D02*
X157791Y427882D01*
X157791Y430988D02*
X164429Y430988D01*
X164429Y434094D02*
X157791Y434094D01*
X175571Y424776D02*
X182209Y424776D01*
X175571Y424776D02*
X175571Y435224D01*
X182209Y435224D01*
X182209Y424776D01*
X182209Y427882D02*
X175571Y427882D01*
X175571Y430988D02*
X182209Y430988D01*
X182209Y434094D02*
X175571Y434094D01*
X164429Y364776D02*
X157791Y364776D01*
X157791Y375224D01*
X164429Y375224D01*
X164429Y364776D01*
X164429Y367882D02*
X157791Y367882D01*
X157791Y370988D02*
X164429Y370988D01*
X164429Y374094D02*
X157791Y374094D01*
X175571Y364776D02*
X182209Y364776D01*
X175571Y364776D02*
X175571Y375224D01*
X182209Y375224D01*
X182209Y364776D01*
X182209Y367882D02*
X175571Y367882D01*
X175571Y370988D02*
X182209Y370988D01*
X182209Y374094D02*
X175571Y374094D01*
X164429Y304776D02*
X157791Y304776D01*
X157791Y315224D01*
X164429Y315224D01*
X164429Y304776D01*
X164429Y307882D02*
X157791Y307882D01*
X157791Y310988D02*
X164429Y310988D01*
X164429Y314094D02*
X157791Y314094D01*
X175571Y304776D02*
X182209Y304776D01*
X175571Y304776D02*
X175571Y315224D01*
X182209Y315224D01*
X182209Y304776D01*
X182209Y307882D02*
X175571Y307882D01*
X175571Y310988D02*
X182209Y310988D01*
X182209Y314094D02*
X175571Y314094D01*
X164429Y244776D02*
X157791Y244776D01*
X157791Y255224D01*
X164429Y255224D01*
X164429Y244776D01*
X164429Y247882D02*
X157791Y247882D01*
X157791Y250988D02*
X164429Y250988D01*
X164429Y254094D02*
X157791Y254094D01*
X175571Y244776D02*
X182209Y244776D01*
X175571Y244776D02*
X175571Y255224D01*
X182209Y255224D01*
X182209Y244776D01*
X182209Y247882D02*
X175571Y247882D01*
X175571Y250988D02*
X182209Y250988D01*
X182209Y254094D02*
X175571Y254094D01*
X217791Y484776D02*
X224429Y484776D01*
X217791Y484776D02*
X217791Y495224D01*
X224429Y495224D01*
X224429Y484776D01*
X224429Y487882D02*
X217791Y487882D01*
X217791Y490988D02*
X224429Y490988D01*
X224429Y494094D02*
X217791Y494094D01*
X235571Y484776D02*
X242209Y484776D01*
X235571Y484776D02*
X235571Y495224D01*
X242209Y495224D01*
X242209Y484776D01*
X242209Y487882D02*
X235571Y487882D01*
X235571Y490988D02*
X242209Y490988D01*
X242209Y494094D02*
X235571Y494094D01*
X224429Y424776D02*
X217791Y424776D01*
X217791Y435224D01*
X224429Y435224D01*
X224429Y424776D01*
X224429Y427882D02*
X217791Y427882D01*
X217791Y430988D02*
X224429Y430988D01*
X224429Y434094D02*
X217791Y434094D01*
X235571Y424776D02*
X242209Y424776D01*
X235571Y424776D02*
X235571Y435224D01*
X242209Y435224D01*
X242209Y424776D01*
X242209Y427882D02*
X235571Y427882D01*
X235571Y430988D02*
X242209Y430988D01*
X242209Y434094D02*
X235571Y434094D01*
X224429Y364776D02*
X217791Y364776D01*
X217791Y375224D01*
X224429Y375224D01*
X224429Y364776D01*
X224429Y367882D02*
X217791Y367882D01*
X217791Y370988D02*
X224429Y370988D01*
X224429Y374094D02*
X217791Y374094D01*
X235571Y364776D02*
X242209Y364776D01*
X235571Y364776D02*
X235571Y375224D01*
X242209Y375224D01*
X242209Y364776D01*
X242209Y367882D02*
X235571Y367882D01*
X235571Y370988D02*
X242209Y370988D01*
X242209Y374094D02*
X235571Y374094D01*
X224429Y304776D02*
X217791Y304776D01*
X217791Y315224D01*
X224429Y315224D01*
X224429Y304776D01*
X224429Y307882D02*
X217791Y307882D01*
X217791Y310988D02*
X224429Y310988D01*
X224429Y314094D02*
X217791Y314094D01*
X235571Y304776D02*
X242209Y304776D01*
X235571Y304776D02*
X235571Y315224D01*
X242209Y315224D01*
X242209Y304776D01*
X242209Y307882D02*
X235571Y307882D01*
X235571Y310988D02*
X242209Y310988D01*
X242209Y314094D02*
X235571Y314094D01*
X224429Y244776D02*
X217791Y244776D01*
X217791Y255224D01*
X224429Y255224D01*
X224429Y244776D01*
X224429Y247882D02*
X217791Y247882D01*
X217791Y250988D02*
X224429Y250988D01*
X224429Y254094D02*
X217791Y254094D01*
X235571Y244776D02*
X242209Y244776D01*
X235571Y244776D02*
X235571Y255224D01*
X242209Y255224D01*
X242209Y244776D01*
X242209Y247882D02*
X235571Y247882D01*
X235571Y250988D02*
X242209Y250988D01*
X242209Y254094D02*
X235571Y254094D01*
X277791Y484776D02*
X284429Y484776D01*
X277791Y484776D02*
X277791Y495224D01*
X284429Y495224D01*
X284429Y484776D01*
X284429Y487882D02*
X277791Y487882D01*
X277791Y490988D02*
X284429Y490988D01*
X284429Y494094D02*
X277791Y494094D01*
X295571Y484776D02*
X302209Y484776D01*
X295571Y484776D02*
X295571Y495224D01*
X302209Y495224D01*
X302209Y484776D01*
X302209Y487882D02*
X295571Y487882D01*
X295571Y490988D02*
X302209Y490988D01*
X302209Y494094D02*
X295571Y494094D01*
X284429Y424776D02*
X277791Y424776D01*
X277791Y435224D01*
X284429Y435224D01*
X284429Y424776D01*
X284429Y427882D02*
X277791Y427882D01*
X277791Y430988D02*
X284429Y430988D01*
X284429Y434094D02*
X277791Y434094D01*
X295571Y424776D02*
X302209Y424776D01*
X295571Y424776D02*
X295571Y435224D01*
X302209Y435224D01*
X302209Y424776D01*
X302209Y427882D02*
X295571Y427882D01*
X295571Y430988D02*
X302209Y430988D01*
X302209Y434094D02*
X295571Y434094D01*
X284429Y364776D02*
X277791Y364776D01*
X277791Y375224D01*
X284429Y375224D01*
X284429Y364776D01*
X284429Y367882D02*
X277791Y367882D01*
X277791Y370988D02*
X284429Y370988D01*
X284429Y374094D02*
X277791Y374094D01*
X295571Y364776D02*
X302209Y364776D01*
X295571Y364776D02*
X295571Y375224D01*
X302209Y375224D01*
X302209Y364776D01*
X302209Y367882D02*
X295571Y367882D01*
X295571Y370988D02*
X302209Y370988D01*
X302209Y374094D02*
X295571Y374094D01*
X284429Y304776D02*
X277791Y304776D01*
X277791Y315224D01*
X284429Y315224D01*
X284429Y304776D01*
X284429Y307882D02*
X277791Y307882D01*
X277791Y310988D02*
X284429Y310988D01*
X284429Y314094D02*
X277791Y314094D01*
X295571Y304776D02*
X302209Y304776D01*
X295571Y304776D02*
X295571Y315224D01*
X302209Y315224D01*
X302209Y304776D01*
X302209Y307882D02*
X295571Y307882D01*
X295571Y310988D02*
X302209Y310988D01*
X302209Y314094D02*
X295571Y314094D01*
X284429Y244776D02*
X277791Y244776D01*
X277791Y255224D01*
X284429Y255224D01*
X284429Y244776D01*
X284429Y247882D02*
X277791Y247882D01*
X277791Y250988D02*
X284429Y250988D01*
X284429Y254094D02*
X277791Y254094D01*
X295571Y244776D02*
X302209Y244776D01*
X295571Y244776D02*
X295571Y255224D01*
X302209Y255224D01*
X302209Y244776D01*
X302209Y247882D02*
X295571Y247882D01*
X295571Y250988D02*
X302209Y250988D01*
X302209Y254094D02*
X295571Y254094D01*
X377791Y434776D02*
X384429Y434776D01*
X377791Y434776D02*
X377791Y445224D01*
X384429Y445224D01*
X384429Y434776D01*
X384429Y437882D02*
X377791Y437882D01*
X377791Y440988D02*
X384429Y440988D01*
X384429Y444094D02*
X377791Y444094D01*
X395571Y434776D02*
X402209Y434776D01*
X395571Y434776D02*
X395571Y445224D01*
X402209Y445224D01*
X402209Y434776D01*
X402209Y437882D02*
X395571Y437882D01*
X395571Y440988D02*
X402209Y440988D01*
X402209Y444094D02*
X395571Y444094D01*
X384429Y394776D02*
X377791Y394776D01*
X377791Y405224D01*
X384429Y405224D01*
X384429Y394776D01*
X384429Y397882D02*
X377791Y397882D01*
X377791Y400988D02*
X384429Y400988D01*
X384429Y404094D02*
X377791Y404094D01*
X395571Y394776D02*
X402209Y394776D01*
X395571Y394776D02*
X395571Y405224D01*
X402209Y405224D01*
X402209Y394776D01*
X402209Y397882D02*
X395571Y397882D01*
X395571Y400988D02*
X402209Y400988D01*
X402209Y404094D02*
X395571Y404094D01*
X384429Y354776D02*
X377791Y354776D01*
X377791Y365224D01*
X384429Y365224D01*
X384429Y354776D01*
X384429Y357882D02*
X377791Y357882D01*
X377791Y360988D02*
X384429Y360988D01*
X384429Y364094D02*
X377791Y364094D01*
X395571Y354776D02*
X402209Y354776D01*
X395571Y354776D02*
X395571Y365224D01*
X402209Y365224D01*
X402209Y354776D01*
X402209Y357882D02*
X395571Y357882D01*
X395571Y360988D02*
X402209Y360988D01*
X402209Y364094D02*
X395571Y364094D01*
X384429Y314776D02*
X377791Y314776D01*
X377791Y325224D01*
X384429Y325224D01*
X384429Y314776D01*
X384429Y317882D02*
X377791Y317882D01*
X377791Y320988D02*
X384429Y320988D01*
X384429Y324094D02*
X377791Y324094D01*
X395571Y314776D02*
X402209Y314776D01*
X395571Y314776D02*
X395571Y325224D01*
X402209Y325224D01*
X402209Y314776D01*
X402209Y317882D02*
X395571Y317882D01*
X395571Y320988D02*
X402209Y320988D01*
X402209Y324094D02*
X395571Y324094D01*
X417791Y434776D02*
X424429Y434776D01*
X417791Y434776D02*
X417791Y445224D01*
X424429Y445224D01*
X424429Y434776D01*
X424429Y437882D02*
X417791Y437882D01*
X417791Y440988D02*
X424429Y440988D01*
X424429Y444094D02*
X417791Y444094D01*
X435571Y434776D02*
X442209Y434776D01*
X435571Y434776D02*
X435571Y445224D01*
X442209Y445224D01*
X442209Y434776D01*
X442209Y437882D02*
X435571Y437882D01*
X435571Y440988D02*
X442209Y440988D01*
X442209Y444094D02*
X435571Y444094D01*
X424429Y394776D02*
X417791Y394776D01*
X417791Y405224D01*
X424429Y405224D01*
X424429Y394776D01*
X424429Y397882D02*
X417791Y397882D01*
X417791Y400988D02*
X424429Y400988D01*
X424429Y404094D02*
X417791Y404094D01*
X435571Y394776D02*
X442209Y394776D01*
X435571Y394776D02*
X435571Y405224D01*
X442209Y405224D01*
X442209Y394776D01*
X442209Y397882D02*
X435571Y397882D01*
X435571Y400988D02*
X442209Y400988D01*
X442209Y404094D02*
X435571Y404094D01*
X424429Y354776D02*
X417791Y354776D01*
X417791Y365224D01*
X424429Y365224D01*
X424429Y354776D01*
X424429Y357882D02*
X417791Y357882D01*
X417791Y360988D02*
X424429Y360988D01*
X424429Y364094D02*
X417791Y364094D01*
X435571Y354776D02*
X442209Y354776D01*
X435571Y354776D02*
X435571Y365224D01*
X442209Y365224D01*
X442209Y354776D01*
X442209Y357882D02*
X435571Y357882D01*
X435571Y360988D02*
X442209Y360988D01*
X442209Y364094D02*
X435571Y364094D01*
X424429Y314776D02*
X417791Y314776D01*
X417791Y325224D01*
X424429Y325224D01*
X424429Y314776D01*
X424429Y317882D02*
X417791Y317882D01*
X417791Y320988D02*
X424429Y320988D01*
X424429Y324094D02*
X417791Y324094D01*
X435571Y314776D02*
X442209Y314776D01*
X435571Y314776D02*
X435571Y325224D01*
X442209Y325224D01*
X442209Y314776D01*
X442209Y317882D02*
X435571Y317882D01*
X435571Y320988D02*
X442209Y320988D01*
X442209Y324094D02*
X435571Y324094D01*
X457791Y434776D02*
X464429Y434776D01*
X457791Y434776D02*
X457791Y445224D01*
X464429Y445224D01*
X464429Y434776D01*
X464429Y437882D02*
X457791Y437882D01*
X457791Y440988D02*
X464429Y440988D01*
X464429Y444094D02*
X457791Y444094D01*
X475571Y434776D02*
X482209Y434776D01*
X475571Y434776D02*
X475571Y445224D01*
X482209Y445224D01*
X482209Y434776D01*
X482209Y437882D02*
X475571Y437882D01*
X475571Y440988D02*
X482209Y440988D01*
X482209Y444094D02*
X475571Y444094D01*
X464429Y394776D02*
X457791Y394776D01*
X457791Y405224D01*
X464429Y405224D01*
X464429Y394776D01*
X464429Y397882D02*
X457791Y397882D01*
X457791Y400988D02*
X464429Y400988D01*
X464429Y404094D02*
X457791Y404094D01*
X475571Y394776D02*
X482209Y394776D01*
X475571Y394776D02*
X475571Y405224D01*
X482209Y405224D01*
X482209Y394776D01*
X482209Y397882D02*
X475571Y397882D01*
X475571Y400988D02*
X482209Y400988D01*
X482209Y404094D02*
X475571Y404094D01*
X464429Y354776D02*
X457791Y354776D01*
X457791Y365224D01*
X464429Y365224D01*
X464429Y354776D01*
X464429Y357882D02*
X457791Y357882D01*
X457791Y360988D02*
X464429Y360988D01*
X464429Y364094D02*
X457791Y364094D01*
X475571Y354776D02*
X482209Y354776D01*
X475571Y354776D02*
X475571Y365224D01*
X482209Y365224D01*
X482209Y354776D01*
X482209Y357882D02*
X475571Y357882D01*
X475571Y360988D02*
X482209Y360988D01*
X482209Y364094D02*
X475571Y364094D01*
X464429Y314776D02*
X457791Y314776D01*
X457791Y325224D01*
X464429Y325224D01*
X464429Y314776D01*
X464429Y317882D02*
X457791Y317882D01*
X457791Y320988D02*
X464429Y320988D01*
X464429Y324094D02*
X457791Y324094D01*
X475571Y314776D02*
X482209Y314776D01*
X475571Y314776D02*
X475571Y325224D01*
X482209Y325224D01*
X482209Y314776D01*
X482209Y317882D02*
X475571Y317882D01*
X475571Y320988D02*
X482209Y320988D01*
X482209Y324094D02*
X475571Y324094D01*
X497791Y434776D02*
X504429Y434776D01*
X497791Y434776D02*
X497791Y445224D01*
X504429Y445224D01*
X504429Y434776D01*
X504429Y437882D02*
X497791Y437882D01*
X497791Y440988D02*
X504429Y440988D01*
X504429Y444094D02*
X497791Y444094D01*
X515571Y434776D02*
X522209Y434776D01*
X515571Y434776D02*
X515571Y445224D01*
X522209Y445224D01*
X522209Y434776D01*
X522209Y437882D02*
X515571Y437882D01*
X515571Y440988D02*
X522209Y440988D01*
X522209Y444094D02*
X515571Y444094D01*
X504429Y394776D02*
X497791Y394776D01*
X497791Y405224D01*
X504429Y405224D01*
X504429Y394776D01*
X504429Y397882D02*
X497791Y397882D01*
X497791Y400988D02*
X504429Y400988D01*
X504429Y404094D02*
X497791Y404094D01*
X515571Y394776D02*
X522209Y394776D01*
X515571Y394776D02*
X515571Y405224D01*
X522209Y405224D01*
X522209Y394776D01*
X522209Y397882D02*
X515571Y397882D01*
X515571Y400988D02*
X522209Y400988D01*
X522209Y404094D02*
X515571Y404094D01*
X504429Y354776D02*
X497791Y354776D01*
X497791Y365224D01*
X504429Y365224D01*
X504429Y354776D01*
X504429Y357882D02*
X497791Y357882D01*
X497791Y360988D02*
X504429Y360988D01*
X504429Y364094D02*
X497791Y364094D01*
X515571Y354776D02*
X522209Y354776D01*
X515571Y354776D02*
X515571Y365224D01*
X522209Y365224D01*
X522209Y354776D01*
X522209Y357882D02*
X515571Y357882D01*
X515571Y360988D02*
X522209Y360988D01*
X522209Y364094D02*
X515571Y364094D01*
X504429Y314776D02*
X497791Y314776D01*
X497791Y325224D01*
X504429Y325224D01*
X504429Y314776D01*
X504429Y317882D02*
X497791Y317882D01*
X497791Y320988D02*
X504429Y320988D01*
X504429Y324094D02*
X497791Y324094D01*
X515571Y314776D02*
X522209Y314776D01*
X515571Y314776D02*
X515571Y325224D01*
X522209Y325224D01*
X522209Y314776D01*
X522209Y317882D02*
X515571Y317882D01*
X515571Y320988D02*
X522209Y320988D01*
X522209Y324094D02*
X515571Y324094D01*
X587791Y394776D02*
X594429Y394776D01*
X587791Y394776D02*
X587791Y405224D01*
X594429Y405224D01*
X594429Y394776D01*
X594429Y397882D02*
X587791Y397882D01*
X587791Y400988D02*
X594429Y400988D01*
X594429Y404094D02*
X587791Y404094D01*
X605571Y394776D02*
X612209Y394776D01*
X605571Y394776D02*
X605571Y405224D01*
X612209Y405224D01*
X612209Y394776D01*
X612209Y397882D02*
X605571Y397882D01*
X605571Y400988D02*
X612209Y400988D01*
X612209Y404094D02*
X605571Y404094D01*
X594429Y354776D02*
X587791Y354776D01*
X587791Y365224D01*
X594429Y365224D01*
X594429Y354776D01*
X594429Y357882D02*
X587791Y357882D01*
X587791Y360988D02*
X594429Y360988D01*
X594429Y364094D02*
X587791Y364094D01*
X605571Y354776D02*
X612209Y354776D01*
X605571Y354776D02*
X605571Y365224D01*
X612209Y365224D01*
X612209Y354776D01*
X612209Y357882D02*
X605571Y357882D01*
X605571Y360988D02*
X612209Y360988D01*
X612209Y364094D02*
X605571Y364094D01*
X594429Y314776D02*
X587791Y314776D01*
X587791Y325224D01*
X594429Y325224D01*
X594429Y314776D01*
X594429Y317882D02*
X587791Y317882D01*
X587791Y320988D02*
X594429Y320988D01*
X594429Y324094D02*
X587791Y324094D01*
X605571Y314776D02*
X612209Y314776D01*
X605571Y314776D02*
X605571Y325224D01*
X612209Y325224D01*
X612209Y314776D01*
X612209Y317882D02*
X605571Y317882D01*
X605571Y320988D02*
X612209Y320988D01*
X612209Y324094D02*
X605571Y324094D01*
X627791Y394776D02*
X634429Y394776D01*
X627791Y394776D02*
X627791Y405224D01*
X634429Y405224D01*
X634429Y394776D01*
X634429Y397882D02*
X627791Y397882D01*
X627791Y400988D02*
X634429Y400988D01*
X634429Y404094D02*
X627791Y404094D01*
X645571Y394776D02*
X652209Y394776D01*
X645571Y394776D02*
X645571Y405224D01*
X652209Y405224D01*
X652209Y394776D01*
X652209Y397882D02*
X645571Y397882D01*
X645571Y400988D02*
X652209Y400988D01*
X652209Y404094D02*
X645571Y404094D01*
X634429Y354776D02*
X627791Y354776D01*
X627791Y365224D01*
X634429Y365224D01*
X634429Y354776D01*
X634429Y357882D02*
X627791Y357882D01*
X627791Y360988D02*
X634429Y360988D01*
X634429Y364094D02*
X627791Y364094D01*
X645571Y354776D02*
X652209Y354776D01*
X645571Y354776D02*
X645571Y365224D01*
X652209Y365224D01*
X652209Y354776D01*
X652209Y357882D02*
X645571Y357882D01*
X645571Y360988D02*
X652209Y360988D01*
X652209Y364094D02*
X645571Y364094D01*
X634429Y314776D02*
X627791Y314776D01*
X627791Y325224D01*
X634429Y325224D01*
X634429Y314776D01*
X634429Y317882D02*
X627791Y317882D01*
X627791Y320988D02*
X634429Y320988D01*
X634429Y324094D02*
X627791Y324094D01*
X645571Y314776D02*
X652209Y314776D01*
X645571Y314776D02*
X645571Y325224D01*
X652209Y325224D01*
X652209Y314776D01*
X652209Y317882D02*
X645571Y317882D01*
X645571Y320988D02*
X652209Y320988D01*
X652209Y324094D02*
X645571Y324094D01*
X667791Y394776D02*
X674429Y394776D01*
X667791Y394776D02*
X667791Y405224D01*
X674429Y405224D01*
X674429Y394776D01*
X674429Y397882D02*
X667791Y397882D01*
X667791Y400988D02*
X674429Y400988D01*
X674429Y404094D02*
X667791Y404094D01*
X685571Y394776D02*
X692209Y394776D01*
X685571Y394776D02*
X685571Y405224D01*
X692209Y405224D01*
X692209Y394776D01*
X692209Y397882D02*
X685571Y397882D01*
X685571Y400988D02*
X692209Y400988D01*
X692209Y404094D02*
X685571Y404094D01*
X674429Y354776D02*
X667791Y354776D01*
X667791Y365224D01*
X674429Y365224D01*
X674429Y354776D01*
X674429Y357882D02*
X667791Y357882D01*
X667791Y360988D02*
X674429Y360988D01*
X674429Y364094D02*
X667791Y364094D01*
X685571Y354776D02*
X692209Y354776D01*
X685571Y354776D02*
X685571Y365224D01*
X692209Y365224D01*
X692209Y354776D01*
X692209Y357882D02*
X685571Y357882D01*
X685571Y360988D02*
X692209Y360988D01*
X692209Y364094D02*
X685571Y364094D01*
X674429Y314776D02*
X667791Y314776D01*
X667791Y325224D01*
X674429Y325224D01*
X674429Y314776D01*
X674429Y317882D02*
X667791Y317882D01*
X667791Y320988D02*
X674429Y320988D01*
X674429Y324094D02*
X667791Y324094D01*
X685571Y314776D02*
X692209Y314776D01*
X685571Y314776D02*
X685571Y325224D01*
X692209Y325224D01*
X692209Y314776D01*
X692209Y317882D02*
X685571Y317882D01*
X685571Y320988D02*
X692209Y320988D01*
X692209Y324094D02*
X685571Y324094D01*
X747791Y354776D02*
X754429Y354776D01*
X747791Y354776D02*
X747791Y365224D01*
X754429Y365224D01*
X754429Y354776D01*
X754429Y357882D02*
X747791Y357882D01*
X747791Y360988D02*
X754429Y360988D01*
X754429Y364094D02*
X747791Y364094D01*
X765571Y354776D02*
X772209Y354776D01*
X765571Y354776D02*
X765571Y365224D01*
X772209Y365224D01*
X772209Y354776D01*
X772209Y357882D02*
X765571Y357882D01*
X765571Y360988D02*
X772209Y360988D01*
X772209Y364094D02*
X765571Y364094D01*
X754429Y314776D02*
X747791Y314776D01*
X747791Y325224D01*
X754429Y325224D01*
X754429Y314776D01*
X754429Y317882D02*
X747791Y317882D01*
X747791Y320988D02*
X754429Y320988D01*
X754429Y324094D02*
X747791Y324094D01*
X765571Y314776D02*
X772209Y314776D01*
X765571Y314776D02*
X765571Y325224D01*
X772209Y325224D01*
X772209Y314776D01*
X772209Y317882D02*
X765571Y317882D01*
X765571Y320988D02*
X772209Y320988D01*
X772209Y324094D02*
X765571Y324094D01*
X787791Y354776D02*
X794429Y354776D01*
X787791Y354776D02*
X787791Y365224D01*
X794429Y365224D01*
X794429Y354776D01*
X794429Y357882D02*
X787791Y357882D01*
X787791Y360988D02*
X794429Y360988D01*
X794429Y364094D02*
X787791Y364094D01*
X805571Y354776D02*
X812209Y354776D01*
X805571Y354776D02*
X805571Y365224D01*
X812209Y365224D01*
X812209Y354776D01*
X812209Y357882D02*
X805571Y357882D01*
X805571Y360988D02*
X812209Y360988D01*
X812209Y364094D02*
X805571Y364094D01*
X794429Y314776D02*
X787791Y314776D01*
X787791Y325224D01*
X794429Y325224D01*
X794429Y314776D01*
X794429Y317882D02*
X787791Y317882D01*
X787791Y320988D02*
X794429Y320988D01*
X794429Y324094D02*
X787791Y324094D01*
X805571Y314776D02*
X812209Y314776D01*
X805571Y314776D02*
X805571Y325224D01*
X812209Y325224D01*
X812209Y314776D01*
X812209Y317882D02*
X805571Y317882D01*
X805571Y320988D02*
X812209Y320988D01*
X812209Y324094D02*
X805571Y324094D01*
X635224Y214429D02*
X635224Y207791D01*
X624776Y207791D01*
X624776Y214429D01*
X635224Y214429D01*
X635224Y210897D02*
X624776Y210897D01*
X624776Y214003D02*
X635224Y214003D01*
X635224Y225571D02*
X635224Y232209D01*
X635224Y225571D02*
X624776Y225571D01*
X624776Y232209D01*
X635224Y232209D01*
X635224Y228677D02*
X624776Y228677D01*
X624776Y231783D02*
X635224Y231783D01*
X655224Y214429D02*
X655224Y207791D01*
X644776Y207791D01*
X644776Y214429D01*
X655224Y214429D01*
X655224Y210897D02*
X644776Y210897D01*
X644776Y214003D02*
X655224Y214003D01*
X655224Y225571D02*
X655224Y232209D01*
X655224Y225571D02*
X644776Y225571D01*
X644776Y232209D01*
X655224Y232209D01*
X655224Y228677D02*
X644776Y228677D01*
X644776Y231783D02*
X655224Y231783D01*
X675224Y214429D02*
X675224Y207791D01*
X664776Y207791D01*
X664776Y214429D01*
X675224Y214429D01*
X675224Y210897D02*
X664776Y210897D01*
X664776Y214003D02*
X675224Y214003D01*
X675224Y225571D02*
X675224Y232209D01*
X675224Y225571D02*
X664776Y225571D01*
X664776Y232209D01*
X675224Y232209D01*
X675224Y228677D02*
X664776Y228677D01*
X664776Y231783D02*
X675224Y231783D01*
X695224Y214429D02*
X695224Y207791D01*
X684776Y207791D01*
X684776Y214429D01*
X695224Y214429D01*
X695224Y210897D02*
X684776Y210897D01*
X684776Y214003D02*
X695224Y214003D01*
X695224Y225571D02*
X695224Y232209D01*
X695224Y225571D02*
X684776Y225571D01*
X684776Y232209D01*
X695224Y232209D01*
X695224Y228677D02*
X684776Y228677D01*
X684776Y231783D02*
X695224Y231783D01*
X715224Y214429D02*
X715224Y207791D01*
X704776Y207791D01*
X704776Y214429D01*
X715224Y214429D01*
X715224Y210897D02*
X704776Y210897D01*
X704776Y214003D02*
X715224Y214003D01*
X715224Y225571D02*
X715224Y232209D01*
X715224Y225571D02*
X704776Y225571D01*
X704776Y232209D01*
X715224Y232209D01*
X715224Y228677D02*
X704776Y228677D01*
X704776Y231783D02*
X715224Y231783D01*
X735224Y214429D02*
X735224Y207791D01*
X724776Y207791D01*
X724776Y214429D01*
X735224Y214429D01*
X735224Y210897D02*
X724776Y210897D01*
X724776Y214003D02*
X735224Y214003D01*
X735224Y225571D02*
X735224Y232209D01*
X735224Y225571D02*
X724776Y225571D01*
X724776Y232209D01*
X735224Y232209D01*
X735224Y228677D02*
X724776Y228677D01*
X724776Y231783D02*
X735224Y231783D01*
X755224Y214429D02*
X755224Y207791D01*
X744776Y207791D01*
X744776Y214429D01*
X755224Y214429D01*
X755224Y210897D02*
X744776Y210897D01*
X744776Y214003D02*
X755224Y214003D01*
X755224Y225571D02*
X755224Y232209D01*
X755224Y225571D02*
X744776Y225571D01*
X744776Y232209D01*
X755224Y232209D01*
X755224Y228677D02*
X744776Y228677D01*
X744776Y231783D02*
X755224Y231783D01*
X775224Y214429D02*
X775224Y207791D01*
X764776Y207791D01*
X764776Y214429D01*
X775224Y214429D01*
X775224Y210897D02*
X764776Y210897D01*
X764776Y214003D02*
X775224Y214003D01*
X775224Y225571D02*
X775224Y232209D01*
X775224Y225571D02*
X764776Y225571D01*
X764776Y232209D01*
X775224Y232209D01*
X775224Y228677D02*
X764776Y228677D01*
X764776Y231783D02*
X775224Y231783D01*
X795224Y214429D02*
X795224Y207791D01*
X784776Y207791D01*
X784776Y214429D01*
X795224Y214429D01*
X795224Y210897D02*
X784776Y210897D01*
X784776Y214003D02*
X795224Y214003D01*
X795224Y225571D02*
X795224Y232209D01*
X795224Y225571D02*
X784776Y225571D01*
X784776Y232209D01*
X795224Y232209D01*
X795224Y228677D02*
X784776Y228677D01*
X784776Y231783D02*
X795224Y231783D01*
X549776Y142209D02*
X549776Y135571D01*
X549776Y142209D02*
X560224Y142209D01*
X560224Y135571D01*
X549776Y135571D01*
X549776Y138677D02*
X560224Y138677D01*
X560224Y141783D02*
X549776Y141783D01*
X549776Y124429D02*
X549776Y117791D01*
X549776Y124429D02*
X560224Y124429D01*
X560224Y117791D01*
X549776Y117791D01*
X549776Y120897D02*
X560224Y120897D01*
X560224Y124003D02*
X549776Y124003D01*
X579776Y135571D02*
X579776Y142209D01*
X590224Y142209D01*
X590224Y135571D01*
X579776Y135571D01*
X579776Y138677D02*
X590224Y138677D01*
X590224Y141783D02*
X579776Y141783D01*
X579776Y124429D02*
X579776Y117791D01*
X579776Y124429D02*
X590224Y124429D01*
X590224Y117791D01*
X579776Y117791D01*
X579776Y120897D02*
X590224Y120897D01*
X590224Y124003D02*
X579776Y124003D01*
X609776Y135571D02*
X609776Y142209D01*
X620224Y142209D01*
X620224Y135571D01*
X609776Y135571D01*
X609776Y138677D02*
X620224Y138677D01*
X620224Y141783D02*
X609776Y141783D01*
X609776Y124429D02*
X609776Y117791D01*
X609776Y124429D02*
X620224Y124429D01*
X620224Y117791D01*
X609776Y117791D01*
X609776Y120897D02*
X620224Y120897D01*
X620224Y124003D02*
X609776Y124003D01*
X639776Y135571D02*
X639776Y142209D01*
X650224Y142209D01*
X650224Y135571D01*
X639776Y135571D01*
X639776Y138677D02*
X650224Y138677D01*
X650224Y141783D02*
X639776Y141783D01*
X639776Y124429D02*
X639776Y117791D01*
X639776Y124429D02*
X650224Y124429D01*
X650224Y117791D01*
X639776Y117791D01*
X639776Y120897D02*
X650224Y120897D01*
X650224Y124003D02*
X639776Y124003D01*
X669776Y135571D02*
X669776Y142209D01*
X680224Y142209D01*
X680224Y135571D01*
X669776Y135571D01*
X669776Y138677D02*
X680224Y138677D01*
X680224Y141783D02*
X669776Y141783D01*
X669776Y124429D02*
X669776Y117791D01*
X669776Y124429D02*
X680224Y124429D01*
X680224Y117791D01*
X669776Y117791D01*
X669776Y120897D02*
X680224Y120897D01*
X680224Y124003D02*
X669776Y124003D01*
X699776Y135571D02*
X699776Y142209D01*
X710224Y142209D01*
X710224Y135571D01*
X699776Y135571D01*
X699776Y138677D02*
X710224Y138677D01*
X710224Y141783D02*
X699776Y141783D01*
X699776Y124429D02*
X699776Y117791D01*
X699776Y124429D02*
X710224Y124429D01*
X710224Y117791D01*
X699776Y117791D01*
X699776Y120897D02*
X710224Y120897D01*
X710224Y124003D02*
X699776Y124003D01*
X729776Y135571D02*
X729776Y142209D01*
X740224Y142209D01*
X740224Y135571D01*
X729776Y135571D01*
X729776Y138677D02*
X740224Y138677D01*
X740224Y141783D02*
X729776Y141783D01*
X729776Y124429D02*
X729776Y117791D01*
X729776Y124429D02*
X740224Y124429D01*
X740224Y117791D01*
X729776Y117791D01*
X729776Y120897D02*
X740224Y120897D01*
X740224Y124003D02*
X729776Y124003D01*
X759776Y135571D02*
X759776Y142209D01*
X770224Y142209D01*
X770224Y135571D01*
X759776Y135571D01*
X759776Y138677D02*
X770224Y138677D01*
X770224Y141783D02*
X759776Y141783D01*
X759776Y124429D02*
X759776Y117791D01*
X759776Y124429D02*
X770224Y124429D01*
X770224Y117791D01*
X759776Y117791D01*
X759776Y120897D02*
X770224Y120897D01*
X770224Y124003D02*
X759776Y124003D01*
X789776Y135571D02*
X789776Y142209D01*
X800224Y142209D01*
X800224Y135571D01*
X789776Y135571D01*
X789776Y138677D02*
X800224Y138677D01*
X800224Y141783D02*
X789776Y141783D01*
X789776Y124429D02*
X789776Y117791D01*
X789776Y124429D02*
X800224Y124429D01*
X800224Y117791D01*
X789776Y117791D01*
X789776Y120897D02*
X800224Y120897D01*
X800224Y124003D02*
X789776Y124003D01*
X675224Y474791D02*
X675224Y481429D01*
X675224Y474791D02*
X664776Y474791D01*
X664776Y481429D01*
X675224Y481429D01*
X675224Y477897D02*
X664776Y477897D01*
X664776Y481003D02*
X675224Y481003D01*
X675224Y492571D02*
X675224Y499209D01*
X675224Y492571D02*
X664776Y492571D01*
X664776Y499209D01*
X675224Y499209D01*
X675224Y495677D02*
X664776Y495677D01*
X664776Y498783D02*
X675224Y498783D01*
X519776Y142209D02*
X519776Y135571D01*
X519776Y142209D02*
X530224Y142209D01*
X530224Y135571D01*
X519776Y135571D01*
X519776Y138677D02*
X530224Y138677D01*
X530224Y141783D02*
X519776Y141783D01*
X519776Y124429D02*
X519776Y117791D01*
X519776Y124429D02*
X530224Y124429D01*
X530224Y117791D01*
X519776Y117791D01*
X519776Y120897D02*
X530224Y120897D01*
X530224Y124003D02*
X519776Y124003D01*
X815224Y207791D02*
X815224Y214429D01*
X815224Y207791D02*
X804776Y207791D01*
X804776Y214429D01*
X815224Y214429D01*
X815224Y210897D02*
X804776Y210897D01*
X804776Y214003D02*
X815224Y214003D01*
X815224Y225571D02*
X815224Y232209D01*
X815224Y225571D02*
X804776Y225571D01*
X804776Y232209D01*
X815224Y232209D01*
X815224Y228677D02*
X804776Y228677D01*
X804776Y231783D02*
X815224Y231783D01*
X515224Y214429D02*
X515224Y207791D01*
X504776Y207791D01*
X504776Y214429D01*
X515224Y214429D01*
X515224Y210897D02*
X504776Y210897D01*
X504776Y214003D02*
X515224Y214003D01*
X515224Y225571D02*
X515224Y232209D01*
X515224Y225571D02*
X504776Y225571D01*
X504776Y232209D01*
X515224Y232209D01*
X515224Y228677D02*
X504776Y228677D01*
X504776Y231783D02*
X515224Y231783D01*
X535224Y214429D02*
X535224Y207791D01*
X524776Y207791D01*
X524776Y214429D01*
X535224Y214429D01*
X535224Y210897D02*
X524776Y210897D01*
X524776Y214003D02*
X535224Y214003D01*
X535224Y225571D02*
X535224Y232209D01*
X535224Y225571D02*
X524776Y225571D01*
X524776Y232209D01*
X535224Y232209D01*
X535224Y228677D02*
X524776Y228677D01*
X524776Y231783D02*
X535224Y231783D01*
X555224Y214429D02*
X555224Y207791D01*
X544776Y207791D01*
X544776Y214429D01*
X555224Y214429D01*
X555224Y210897D02*
X544776Y210897D01*
X544776Y214003D02*
X555224Y214003D01*
X555224Y225571D02*
X555224Y232209D01*
X555224Y225571D02*
X544776Y225571D01*
X544776Y232209D01*
X555224Y232209D01*
X555224Y228677D02*
X544776Y228677D01*
X544776Y231783D02*
X555224Y231783D01*
X575224Y214429D02*
X575224Y207791D01*
X564776Y207791D01*
X564776Y214429D01*
X575224Y214429D01*
X575224Y210897D02*
X564776Y210897D01*
X564776Y214003D02*
X575224Y214003D01*
X575224Y225571D02*
X575224Y232209D01*
X575224Y225571D02*
X564776Y225571D01*
X564776Y232209D01*
X575224Y232209D01*
X575224Y228677D02*
X564776Y228677D01*
X564776Y231783D02*
X575224Y231783D01*
X595224Y214429D02*
X595224Y207791D01*
X584776Y207791D01*
X584776Y214429D01*
X595224Y214429D01*
X595224Y210897D02*
X584776Y210897D01*
X584776Y214003D02*
X595224Y214003D01*
X595224Y225571D02*
X595224Y232209D01*
X595224Y225571D02*
X584776Y225571D01*
X584776Y232209D01*
X595224Y232209D01*
X595224Y228677D02*
X584776Y228677D01*
X584776Y231783D02*
X595224Y231783D01*
X615224Y214429D02*
X615224Y207791D01*
X604776Y207791D01*
X604776Y214429D01*
X615224Y214429D01*
X615224Y210897D02*
X604776Y210897D01*
X604776Y214003D02*
X615224Y214003D01*
X615224Y225571D02*
X615224Y232209D01*
X615224Y225571D02*
X604776Y225571D01*
X604776Y232209D01*
X615224Y232209D01*
X615224Y228677D02*
X604776Y228677D01*
X604776Y231783D02*
X615224Y231783D01*
D13*
X834025Y43000D03*
X789975Y43000D03*
X777975Y487000D03*
X822025Y487000D03*
D12*
X735224Y481429D02*
X735224Y474791D01*
X724776Y474791D01*
X724776Y481429D01*
X735224Y481429D01*
X735224Y477897D02*
X724776Y477897D01*
X724776Y481003D02*
X735224Y481003D01*
X735224Y492571D02*
X735224Y499209D01*
X735224Y492571D02*
X724776Y492571D01*
X724776Y499209D01*
X735224Y499209D01*
X735224Y495677D02*
X724776Y495677D01*
X724776Y498783D02*
X735224Y498783D01*
X705224Y481429D02*
X705224Y474791D01*
X694776Y474791D01*
X694776Y481429D01*
X705224Y481429D01*
X705224Y477897D02*
X694776Y477897D01*
X694776Y481003D02*
X705224Y481003D01*
X705224Y492571D02*
X705224Y499209D01*
X705224Y492571D02*
X694776Y492571D01*
X694776Y499209D01*
X705224Y499209D01*
X705224Y495677D02*
X694776Y495677D01*
X694776Y498783D02*
X705224Y498783D01*
X765224Y481429D02*
X765224Y474791D01*
X754776Y474791D01*
X754776Y481429D01*
X765224Y481429D01*
X765224Y477897D02*
X754776Y477897D01*
X754776Y481003D02*
X765224Y481003D01*
X765224Y492571D02*
X765224Y499209D01*
X765224Y492571D02*
X754776Y492571D01*
X754776Y499209D01*
X765224Y499209D01*
X765224Y495677D02*
X754776Y495677D01*
X754776Y498783D02*
X765224Y498783D01*
D14*
X719757Y154593D03*
X741757Y154593D03*
X694757Y154593D03*
X708757Y384593D03*
X728757Y384593D03*
M02*
