G04 EAGLE Gerber RS-274X export*
G75*
%MOMM*%
%FSLAX34Y34*%
%LPD*%
%INBottom Solder Mask*%
%IPPOS*%
%AMOC8*
5,1,8,0,0,1.08239X$1,22.5*%
G01*
%ADD10C,0.279400*%
%ADD11C,0.166334*%
%ADD12R,2.701600X2.701600*%
%ADD13R,1.401600X1.601600*%
%ADD14R,0.762000X2.133600*%
%ADD15R,1.601600X1.401600*%
%ADD16R,4.101600X3.601600*%
%ADD17C,1.601600*%
%ADD18C,2.101600*%
D10*
X665603Y44388D02*
X662273Y34397D01*
X658943Y44388D01*
X652367Y46053D02*
X648205Y49383D01*
X648205Y34397D01*
X652367Y34397D02*
X644042Y34397D01*
X637679Y34397D02*
X637679Y35230D01*
X636847Y35230D01*
X636847Y34397D01*
X637679Y34397D01*
X630484Y41890D02*
X630480Y42185D01*
X630470Y42479D01*
X630452Y42774D01*
X630428Y43068D01*
X630396Y43361D01*
X630358Y43653D01*
X630312Y43944D01*
X630259Y44234D01*
X630200Y44523D01*
X630134Y44810D01*
X630061Y45096D01*
X629981Y45380D01*
X629894Y45662D01*
X629801Y45941D01*
X629701Y46219D01*
X629594Y46493D01*
X629481Y46766D01*
X629361Y47035D01*
X629235Y47302D01*
X629197Y47405D01*
X629156Y47506D01*
X629112Y47605D01*
X629064Y47704D01*
X629013Y47800D01*
X628958Y47894D01*
X628900Y47987D01*
X628839Y48077D01*
X628774Y48165D01*
X628707Y48251D01*
X628636Y48334D01*
X628563Y48415D01*
X628487Y48493D01*
X628408Y48569D01*
X628326Y48641D01*
X628242Y48711D01*
X628155Y48777D01*
X628067Y48841D01*
X627976Y48901D01*
X627882Y48958D01*
X627787Y49012D01*
X627690Y49062D01*
X627592Y49109D01*
X627492Y49152D01*
X627390Y49192D01*
X627287Y49228D01*
X627183Y49260D01*
X627077Y49289D01*
X626971Y49314D01*
X626864Y49335D01*
X626756Y49352D01*
X626648Y49366D01*
X626539Y49375D01*
X626430Y49381D01*
X626321Y49383D01*
X626212Y49381D01*
X626103Y49375D01*
X625994Y49366D01*
X625886Y49352D01*
X625778Y49335D01*
X625671Y49314D01*
X625564Y49289D01*
X625459Y49260D01*
X625355Y49228D01*
X625252Y49192D01*
X625150Y49152D01*
X625050Y49109D01*
X624951Y49062D01*
X624854Y49011D01*
X624759Y48958D01*
X624666Y48901D01*
X624575Y48840D01*
X624486Y48777D01*
X624400Y48710D01*
X624315Y48641D01*
X624234Y48568D01*
X624155Y48493D01*
X624079Y48415D01*
X624005Y48334D01*
X623935Y48251D01*
X623867Y48165D01*
X623802Y48077D01*
X623741Y47986D01*
X623683Y47894D01*
X623628Y47799D01*
X623577Y47703D01*
X623529Y47605D01*
X623485Y47505D01*
X623444Y47404D01*
X623407Y47301D01*
X623407Y47302D02*
X623281Y47035D01*
X623161Y46766D01*
X623048Y46493D01*
X622941Y46219D01*
X622841Y45941D01*
X622748Y45662D01*
X622661Y45380D01*
X622581Y45096D01*
X622508Y44810D01*
X622442Y44523D01*
X622383Y44234D01*
X622330Y43944D01*
X622284Y43653D01*
X622246Y43361D01*
X622214Y43068D01*
X622190Y42774D01*
X622172Y42479D01*
X622162Y42185D01*
X622158Y41890D01*
X630484Y41890D02*
X630480Y41595D01*
X630470Y41301D01*
X630452Y41006D01*
X630428Y40712D01*
X630396Y40419D01*
X630358Y40127D01*
X630312Y39836D01*
X630259Y39546D01*
X630200Y39257D01*
X630134Y38970D01*
X630061Y38684D01*
X629981Y38400D01*
X629894Y38118D01*
X629801Y37839D01*
X629701Y37561D01*
X629594Y37287D01*
X629481Y37014D01*
X629361Y36745D01*
X629235Y36478D01*
X629197Y36375D01*
X629156Y36274D01*
X629112Y36175D01*
X629064Y36076D01*
X629013Y35980D01*
X628958Y35886D01*
X628900Y35793D01*
X628839Y35703D01*
X628774Y35615D01*
X628707Y35529D01*
X628636Y35446D01*
X628563Y35365D01*
X628487Y35287D01*
X628408Y35211D01*
X628326Y35139D01*
X628242Y35069D01*
X628155Y35003D01*
X628067Y34939D01*
X627976Y34879D01*
X627882Y34822D01*
X627787Y34768D01*
X627690Y34718D01*
X627592Y34671D01*
X627492Y34628D01*
X627390Y34588D01*
X627287Y34552D01*
X627183Y34520D01*
X627077Y34491D01*
X626971Y34466D01*
X626864Y34445D01*
X626756Y34428D01*
X626648Y34414D01*
X626539Y34405D01*
X626430Y34399D01*
X626321Y34397D01*
X623407Y36478D02*
X623281Y36745D01*
X623161Y37014D01*
X623048Y37287D01*
X622941Y37561D01*
X622841Y37839D01*
X622748Y38118D01*
X622661Y38400D01*
X622581Y38684D01*
X622508Y38970D01*
X622442Y39257D01*
X622383Y39546D01*
X622330Y39836D01*
X622284Y40127D01*
X622246Y40419D01*
X622214Y40712D01*
X622190Y41006D01*
X622172Y41301D01*
X622162Y41595D01*
X622158Y41890D01*
X623407Y36479D02*
X623444Y36376D01*
X623485Y36275D01*
X623529Y36175D01*
X623577Y36077D01*
X623628Y35981D01*
X623683Y35886D01*
X623741Y35794D01*
X623802Y35703D01*
X623867Y35615D01*
X623935Y35529D01*
X624005Y35446D01*
X624079Y35365D01*
X624155Y35287D01*
X624234Y35212D01*
X624315Y35139D01*
X624400Y35070D01*
X624486Y35003D01*
X624575Y34940D01*
X624666Y34879D01*
X624759Y34822D01*
X624854Y34769D01*
X624951Y34718D01*
X625050Y34671D01*
X625150Y34628D01*
X625252Y34588D01*
X625355Y34552D01*
X625459Y34520D01*
X625564Y34491D01*
X625671Y34466D01*
X625778Y34445D01*
X625886Y34428D01*
X625994Y34414D01*
X626103Y34405D01*
X626212Y34399D01*
X626321Y34397D01*
X629651Y37727D02*
X622991Y46053D01*
X601937Y49384D02*
X601817Y49382D01*
X601697Y49376D01*
X601577Y49367D01*
X601458Y49353D01*
X601339Y49336D01*
X601221Y49315D01*
X601103Y49290D01*
X600987Y49261D01*
X600871Y49229D01*
X600756Y49193D01*
X600643Y49153D01*
X600531Y49110D01*
X600420Y49063D01*
X600311Y49013D01*
X600204Y48959D01*
X600098Y48902D01*
X599995Y48841D01*
X599893Y48777D01*
X599793Y48710D01*
X599696Y48640D01*
X599601Y48567D01*
X599508Y48490D01*
X599418Y48411D01*
X599330Y48329D01*
X599245Y48244D01*
X599163Y48156D01*
X599084Y48066D01*
X599007Y47973D01*
X598934Y47878D01*
X598864Y47781D01*
X598797Y47681D01*
X598733Y47579D01*
X598672Y47476D01*
X598615Y47370D01*
X598561Y47263D01*
X598511Y47154D01*
X598464Y47043D01*
X598421Y46931D01*
X598381Y46818D01*
X598345Y46703D01*
X598313Y46587D01*
X598284Y46471D01*
X598259Y46353D01*
X598238Y46235D01*
X598221Y46116D01*
X598207Y45997D01*
X598198Y45877D01*
X598192Y45757D01*
X598190Y45637D01*
X601937Y49383D02*
X602075Y49381D01*
X602212Y49375D01*
X602349Y49365D01*
X602486Y49352D01*
X602622Y49334D01*
X602758Y49312D01*
X602894Y49287D01*
X603028Y49258D01*
X603161Y49225D01*
X603294Y49188D01*
X603425Y49147D01*
X603556Y49103D01*
X603684Y49055D01*
X603812Y49003D01*
X603938Y48947D01*
X604062Y48888D01*
X604185Y48826D01*
X604305Y48760D01*
X604424Y48691D01*
X604541Y48618D01*
X604656Y48542D01*
X604768Y48462D01*
X604878Y48380D01*
X604986Y48294D01*
X605091Y48206D01*
X605193Y48114D01*
X605293Y48020D01*
X605391Y47922D01*
X605485Y47822D01*
X605577Y47719D01*
X605665Y47614D01*
X605750Y47506D01*
X605833Y47396D01*
X605912Y47284D01*
X605988Y47169D01*
X606061Y47052D01*
X606130Y46933D01*
X606196Y46813D01*
X606258Y46690D01*
X606317Y46566D01*
X606372Y46440D01*
X606424Y46312D01*
X606472Y46183D01*
X606516Y46053D01*
X599440Y42723D02*
X599350Y42811D01*
X599264Y42902D01*
X599180Y42995D01*
X599099Y43091D01*
X599021Y43189D01*
X598947Y43289D01*
X598875Y43392D01*
X598807Y43497D01*
X598742Y43605D01*
X598680Y43714D01*
X598622Y43825D01*
X598567Y43938D01*
X598516Y44052D01*
X598469Y44168D01*
X598425Y44285D01*
X598385Y44404D01*
X598348Y44524D01*
X598315Y44645D01*
X598286Y44767D01*
X598261Y44889D01*
X598240Y45013D01*
X598222Y45137D01*
X598209Y45262D01*
X598199Y45387D01*
X598193Y45512D01*
X598191Y45637D01*
X599439Y42723D02*
X606516Y34397D01*
X598190Y34397D01*
X590885Y41890D02*
X590881Y42185D01*
X590871Y42479D01*
X590853Y42774D01*
X590829Y43068D01*
X590797Y43361D01*
X590759Y43653D01*
X590713Y43944D01*
X590660Y44234D01*
X590601Y44523D01*
X590535Y44810D01*
X590462Y45096D01*
X590382Y45380D01*
X590295Y45662D01*
X590202Y45941D01*
X590102Y46219D01*
X589995Y46493D01*
X589882Y46766D01*
X589762Y47035D01*
X589636Y47302D01*
X589598Y47405D01*
X589557Y47506D01*
X589513Y47605D01*
X589465Y47704D01*
X589414Y47800D01*
X589359Y47894D01*
X589301Y47987D01*
X589240Y48077D01*
X589175Y48165D01*
X589108Y48251D01*
X589037Y48334D01*
X588964Y48415D01*
X588888Y48493D01*
X588809Y48569D01*
X588727Y48641D01*
X588643Y48711D01*
X588556Y48777D01*
X588468Y48841D01*
X588377Y48901D01*
X588283Y48958D01*
X588188Y49012D01*
X588091Y49062D01*
X587993Y49109D01*
X587893Y49152D01*
X587791Y49192D01*
X587688Y49228D01*
X587584Y49260D01*
X587478Y49289D01*
X587372Y49314D01*
X587265Y49335D01*
X587157Y49352D01*
X587049Y49366D01*
X586940Y49375D01*
X586831Y49381D01*
X586722Y49383D01*
X586613Y49381D01*
X586504Y49375D01*
X586395Y49366D01*
X586287Y49352D01*
X586179Y49335D01*
X586072Y49314D01*
X585965Y49289D01*
X585860Y49260D01*
X585756Y49228D01*
X585653Y49192D01*
X585551Y49152D01*
X585451Y49109D01*
X585352Y49062D01*
X585255Y49011D01*
X585160Y48958D01*
X585067Y48901D01*
X584976Y48840D01*
X584887Y48777D01*
X584801Y48710D01*
X584716Y48641D01*
X584635Y48568D01*
X584556Y48493D01*
X584480Y48415D01*
X584406Y48334D01*
X584336Y48251D01*
X584268Y48165D01*
X584203Y48077D01*
X584142Y47986D01*
X584084Y47894D01*
X584029Y47799D01*
X583978Y47703D01*
X583930Y47605D01*
X583886Y47505D01*
X583845Y47404D01*
X583808Y47301D01*
X583808Y47302D02*
X583682Y47035D01*
X583562Y46766D01*
X583449Y46493D01*
X583342Y46219D01*
X583242Y45941D01*
X583149Y45662D01*
X583062Y45380D01*
X582982Y45096D01*
X582909Y44810D01*
X582843Y44523D01*
X582784Y44234D01*
X582731Y43944D01*
X582685Y43653D01*
X582647Y43361D01*
X582615Y43068D01*
X582591Y42774D01*
X582573Y42479D01*
X582563Y42185D01*
X582559Y41890D01*
X590885Y41890D02*
X590881Y41595D01*
X590871Y41301D01*
X590853Y41006D01*
X590829Y40712D01*
X590797Y40419D01*
X590759Y40127D01*
X590713Y39836D01*
X590660Y39546D01*
X590601Y39257D01*
X590535Y38970D01*
X590462Y38684D01*
X590382Y38400D01*
X590295Y38118D01*
X590202Y37839D01*
X590102Y37561D01*
X589995Y37287D01*
X589882Y37014D01*
X589762Y36745D01*
X589636Y36478D01*
X589598Y36375D01*
X589557Y36274D01*
X589513Y36175D01*
X589465Y36076D01*
X589414Y35980D01*
X589359Y35886D01*
X589301Y35793D01*
X589240Y35703D01*
X589175Y35615D01*
X589108Y35529D01*
X589037Y35446D01*
X588964Y35365D01*
X588888Y35287D01*
X588809Y35211D01*
X588727Y35139D01*
X588643Y35069D01*
X588556Y35003D01*
X588468Y34939D01*
X588377Y34879D01*
X588283Y34822D01*
X588188Y34768D01*
X588091Y34718D01*
X587993Y34671D01*
X587893Y34628D01*
X587791Y34588D01*
X587688Y34552D01*
X587584Y34520D01*
X587478Y34491D01*
X587372Y34466D01*
X587265Y34445D01*
X587157Y34428D01*
X587049Y34414D01*
X586940Y34405D01*
X586831Y34399D01*
X586722Y34397D01*
X583808Y36478D02*
X583682Y36745D01*
X583562Y37014D01*
X583449Y37287D01*
X583342Y37561D01*
X583242Y37839D01*
X583149Y38118D01*
X583062Y38400D01*
X582982Y38684D01*
X582909Y38970D01*
X582843Y39257D01*
X582784Y39546D01*
X582731Y39836D01*
X582685Y40127D01*
X582647Y40419D01*
X582615Y40712D01*
X582591Y41006D01*
X582573Y41301D01*
X582563Y41595D01*
X582559Y41890D01*
X583808Y36479D02*
X583845Y36376D01*
X583886Y36275D01*
X583930Y36175D01*
X583978Y36077D01*
X584029Y35981D01*
X584084Y35886D01*
X584142Y35794D01*
X584203Y35703D01*
X584268Y35615D01*
X584336Y35529D01*
X584406Y35446D01*
X584480Y35365D01*
X584556Y35287D01*
X584635Y35212D01*
X584716Y35139D01*
X584801Y35070D01*
X584887Y35003D01*
X584976Y34940D01*
X585067Y34879D01*
X585160Y34822D01*
X585255Y34769D01*
X585352Y34718D01*
X585451Y34671D01*
X585551Y34628D01*
X585653Y34588D01*
X585756Y34552D01*
X585860Y34520D01*
X585965Y34491D01*
X586072Y34466D01*
X586179Y34445D01*
X586287Y34428D01*
X586395Y34414D01*
X586504Y34405D01*
X586613Y34399D01*
X586722Y34397D01*
X590052Y37727D02*
X583392Y46053D01*
X570674Y49384D02*
X570554Y49382D01*
X570434Y49376D01*
X570314Y49367D01*
X570195Y49353D01*
X570076Y49336D01*
X569958Y49315D01*
X569840Y49290D01*
X569724Y49261D01*
X569608Y49229D01*
X569493Y49193D01*
X569380Y49153D01*
X569268Y49110D01*
X569157Y49063D01*
X569048Y49013D01*
X568941Y48959D01*
X568835Y48902D01*
X568732Y48841D01*
X568630Y48777D01*
X568530Y48710D01*
X568433Y48640D01*
X568338Y48567D01*
X568245Y48490D01*
X568155Y48411D01*
X568067Y48329D01*
X567982Y48244D01*
X567900Y48156D01*
X567821Y48066D01*
X567744Y47973D01*
X567671Y47878D01*
X567601Y47781D01*
X567534Y47681D01*
X567470Y47579D01*
X567409Y47476D01*
X567352Y47370D01*
X567298Y47263D01*
X567248Y47154D01*
X567201Y47043D01*
X567158Y46931D01*
X567118Y46818D01*
X567082Y46703D01*
X567050Y46587D01*
X567021Y46471D01*
X566996Y46353D01*
X566975Y46235D01*
X566958Y46116D01*
X566944Y45997D01*
X566935Y45877D01*
X566929Y45757D01*
X566927Y45637D01*
X570674Y49383D02*
X570812Y49381D01*
X570949Y49375D01*
X571086Y49365D01*
X571223Y49352D01*
X571359Y49334D01*
X571495Y49312D01*
X571631Y49287D01*
X571765Y49258D01*
X571898Y49225D01*
X572031Y49188D01*
X572162Y49147D01*
X572293Y49103D01*
X572421Y49055D01*
X572549Y49003D01*
X572675Y48947D01*
X572799Y48888D01*
X572922Y48826D01*
X573042Y48760D01*
X573161Y48691D01*
X573278Y48618D01*
X573393Y48542D01*
X573505Y48462D01*
X573615Y48380D01*
X573723Y48294D01*
X573828Y48206D01*
X573930Y48114D01*
X574030Y48020D01*
X574128Y47922D01*
X574222Y47822D01*
X574314Y47719D01*
X574402Y47614D01*
X574487Y47506D01*
X574570Y47396D01*
X574649Y47284D01*
X574725Y47169D01*
X574798Y47052D01*
X574867Y46933D01*
X574933Y46813D01*
X574995Y46690D01*
X575054Y46566D01*
X575109Y46440D01*
X575161Y46312D01*
X575209Y46183D01*
X575253Y46053D01*
X568177Y42723D02*
X568087Y42811D01*
X568001Y42902D01*
X567917Y42995D01*
X567836Y43091D01*
X567758Y43189D01*
X567684Y43289D01*
X567612Y43392D01*
X567544Y43497D01*
X567479Y43605D01*
X567417Y43714D01*
X567359Y43825D01*
X567304Y43938D01*
X567253Y44052D01*
X567206Y44168D01*
X567162Y44285D01*
X567122Y44404D01*
X567085Y44524D01*
X567052Y44645D01*
X567023Y44767D01*
X566998Y44889D01*
X566977Y45013D01*
X566959Y45137D01*
X566946Y45262D01*
X566936Y45387D01*
X566930Y45512D01*
X566928Y45637D01*
X568177Y42723D02*
X575254Y34397D01*
X566928Y34397D01*
X559623Y41890D02*
X559619Y42185D01*
X559609Y42479D01*
X559591Y42774D01*
X559567Y43068D01*
X559535Y43361D01*
X559497Y43653D01*
X559451Y43944D01*
X559398Y44234D01*
X559339Y44523D01*
X559273Y44810D01*
X559200Y45096D01*
X559120Y45380D01*
X559033Y45662D01*
X558940Y45941D01*
X558840Y46219D01*
X558733Y46493D01*
X558620Y46766D01*
X558500Y47035D01*
X558374Y47302D01*
X558336Y47405D01*
X558295Y47506D01*
X558251Y47605D01*
X558203Y47704D01*
X558152Y47800D01*
X558097Y47894D01*
X558039Y47987D01*
X557978Y48077D01*
X557913Y48165D01*
X557846Y48251D01*
X557775Y48334D01*
X557702Y48415D01*
X557626Y48493D01*
X557547Y48569D01*
X557465Y48641D01*
X557381Y48711D01*
X557294Y48777D01*
X557206Y48841D01*
X557115Y48901D01*
X557021Y48958D01*
X556926Y49012D01*
X556829Y49062D01*
X556731Y49109D01*
X556631Y49152D01*
X556529Y49192D01*
X556426Y49228D01*
X556322Y49260D01*
X556216Y49289D01*
X556110Y49314D01*
X556003Y49335D01*
X555895Y49352D01*
X555787Y49366D01*
X555678Y49375D01*
X555569Y49381D01*
X555460Y49383D01*
X555351Y49381D01*
X555242Y49375D01*
X555133Y49366D01*
X555025Y49352D01*
X554917Y49335D01*
X554810Y49314D01*
X554703Y49289D01*
X554598Y49260D01*
X554494Y49228D01*
X554391Y49192D01*
X554289Y49152D01*
X554189Y49109D01*
X554090Y49062D01*
X553993Y49011D01*
X553898Y48958D01*
X553805Y48901D01*
X553714Y48840D01*
X553625Y48777D01*
X553539Y48710D01*
X553454Y48641D01*
X553373Y48568D01*
X553294Y48493D01*
X553218Y48415D01*
X553144Y48334D01*
X553074Y48251D01*
X553006Y48165D01*
X552941Y48077D01*
X552880Y47986D01*
X552822Y47894D01*
X552767Y47799D01*
X552716Y47703D01*
X552668Y47605D01*
X552624Y47505D01*
X552583Y47404D01*
X552546Y47301D01*
X552545Y47302D02*
X552419Y47035D01*
X552299Y46766D01*
X552186Y46493D01*
X552079Y46219D01*
X551979Y45941D01*
X551886Y45662D01*
X551799Y45380D01*
X551719Y45096D01*
X551646Y44810D01*
X551580Y44523D01*
X551521Y44234D01*
X551468Y43944D01*
X551422Y43653D01*
X551384Y43361D01*
X551352Y43068D01*
X551328Y42774D01*
X551310Y42479D01*
X551300Y42185D01*
X551296Y41890D01*
X559622Y41890D02*
X559618Y41595D01*
X559608Y41301D01*
X559590Y41006D01*
X559566Y40712D01*
X559534Y40419D01*
X559496Y40127D01*
X559450Y39836D01*
X559397Y39546D01*
X559338Y39257D01*
X559272Y38970D01*
X559199Y38684D01*
X559119Y38400D01*
X559032Y38118D01*
X558939Y37839D01*
X558839Y37561D01*
X558732Y37287D01*
X558619Y37014D01*
X558499Y36745D01*
X558373Y36478D01*
X558374Y36478D02*
X558336Y36375D01*
X558295Y36274D01*
X558251Y36175D01*
X558203Y36076D01*
X558152Y35980D01*
X558097Y35886D01*
X558039Y35793D01*
X557978Y35703D01*
X557913Y35615D01*
X557846Y35529D01*
X557775Y35446D01*
X557702Y35365D01*
X557626Y35287D01*
X557547Y35211D01*
X557465Y35139D01*
X557381Y35069D01*
X557294Y35003D01*
X557206Y34939D01*
X557115Y34879D01*
X557021Y34822D01*
X556926Y34768D01*
X556829Y34718D01*
X556731Y34671D01*
X556631Y34628D01*
X556529Y34588D01*
X556426Y34552D01*
X556322Y34520D01*
X556216Y34491D01*
X556110Y34466D01*
X556003Y34445D01*
X555895Y34428D01*
X555787Y34414D01*
X555678Y34405D01*
X555569Y34399D01*
X555460Y34397D01*
X552546Y36478D02*
X552420Y36745D01*
X552300Y37014D01*
X552187Y37287D01*
X552080Y37561D01*
X551980Y37839D01*
X551887Y38118D01*
X551800Y38400D01*
X551720Y38684D01*
X551647Y38970D01*
X551581Y39257D01*
X551522Y39546D01*
X551469Y39836D01*
X551423Y40127D01*
X551385Y40419D01*
X551353Y40712D01*
X551329Y41006D01*
X551311Y41301D01*
X551301Y41595D01*
X551297Y41890D01*
X552546Y36479D02*
X552583Y36376D01*
X552624Y36275D01*
X552668Y36175D01*
X552716Y36077D01*
X552767Y35981D01*
X552822Y35886D01*
X552880Y35794D01*
X552941Y35703D01*
X553006Y35615D01*
X553074Y35529D01*
X553144Y35446D01*
X553218Y35365D01*
X553294Y35287D01*
X553373Y35212D01*
X553454Y35139D01*
X553539Y35070D01*
X553625Y35003D01*
X553714Y34940D01*
X553805Y34879D01*
X553898Y34822D01*
X553993Y34769D01*
X554090Y34718D01*
X554189Y34671D01*
X554289Y34628D01*
X554391Y34588D01*
X554494Y34552D01*
X554598Y34520D01*
X554703Y34491D01*
X554810Y34466D01*
X554917Y34445D01*
X555025Y34428D01*
X555133Y34414D01*
X555242Y34405D01*
X555351Y34399D01*
X555460Y34397D01*
X558790Y37727D02*
X552129Y46053D01*
X543782Y40225D02*
X533791Y40225D01*
X526276Y41890D02*
X526272Y42185D01*
X526262Y42479D01*
X526244Y42774D01*
X526220Y43068D01*
X526188Y43361D01*
X526150Y43653D01*
X526104Y43944D01*
X526051Y44234D01*
X525992Y44523D01*
X525926Y44810D01*
X525853Y45096D01*
X525773Y45380D01*
X525686Y45662D01*
X525593Y45941D01*
X525493Y46219D01*
X525386Y46493D01*
X525273Y46766D01*
X525153Y47035D01*
X525027Y47302D01*
X524989Y47405D01*
X524948Y47506D01*
X524904Y47605D01*
X524856Y47704D01*
X524805Y47800D01*
X524750Y47894D01*
X524692Y47987D01*
X524631Y48077D01*
X524566Y48165D01*
X524499Y48251D01*
X524428Y48334D01*
X524355Y48415D01*
X524279Y48493D01*
X524200Y48569D01*
X524118Y48641D01*
X524034Y48711D01*
X523947Y48777D01*
X523859Y48841D01*
X523768Y48901D01*
X523674Y48958D01*
X523579Y49012D01*
X523482Y49062D01*
X523384Y49109D01*
X523284Y49152D01*
X523182Y49192D01*
X523079Y49228D01*
X522975Y49260D01*
X522869Y49289D01*
X522763Y49314D01*
X522656Y49335D01*
X522548Y49352D01*
X522440Y49366D01*
X522331Y49375D01*
X522222Y49381D01*
X522113Y49383D01*
X522004Y49381D01*
X521895Y49375D01*
X521786Y49366D01*
X521678Y49352D01*
X521570Y49335D01*
X521463Y49314D01*
X521356Y49289D01*
X521251Y49260D01*
X521147Y49228D01*
X521044Y49192D01*
X520942Y49152D01*
X520842Y49109D01*
X520743Y49062D01*
X520646Y49011D01*
X520551Y48958D01*
X520458Y48901D01*
X520367Y48840D01*
X520278Y48777D01*
X520192Y48710D01*
X520107Y48641D01*
X520026Y48568D01*
X519947Y48493D01*
X519871Y48415D01*
X519797Y48334D01*
X519727Y48251D01*
X519659Y48165D01*
X519594Y48077D01*
X519533Y47986D01*
X519475Y47894D01*
X519420Y47799D01*
X519369Y47703D01*
X519321Y47605D01*
X519277Y47505D01*
X519236Y47404D01*
X519199Y47301D01*
X519199Y47302D02*
X519073Y47035D01*
X518953Y46766D01*
X518840Y46493D01*
X518733Y46219D01*
X518633Y45941D01*
X518540Y45662D01*
X518453Y45380D01*
X518373Y45096D01*
X518300Y44810D01*
X518234Y44523D01*
X518175Y44234D01*
X518122Y43944D01*
X518076Y43653D01*
X518038Y43361D01*
X518006Y43068D01*
X517982Y42774D01*
X517964Y42479D01*
X517954Y42185D01*
X517950Y41890D01*
X526276Y41890D02*
X526272Y41595D01*
X526262Y41301D01*
X526244Y41006D01*
X526220Y40712D01*
X526188Y40419D01*
X526150Y40127D01*
X526104Y39836D01*
X526051Y39546D01*
X525992Y39257D01*
X525926Y38970D01*
X525853Y38684D01*
X525773Y38400D01*
X525686Y38118D01*
X525593Y37839D01*
X525493Y37561D01*
X525386Y37287D01*
X525273Y37014D01*
X525153Y36745D01*
X525027Y36478D01*
X524989Y36375D01*
X524948Y36274D01*
X524904Y36175D01*
X524856Y36076D01*
X524805Y35980D01*
X524750Y35886D01*
X524692Y35793D01*
X524631Y35703D01*
X524566Y35615D01*
X524499Y35529D01*
X524428Y35446D01*
X524355Y35365D01*
X524279Y35287D01*
X524200Y35211D01*
X524118Y35139D01*
X524034Y35069D01*
X523947Y35003D01*
X523859Y34939D01*
X523768Y34879D01*
X523674Y34822D01*
X523579Y34768D01*
X523482Y34718D01*
X523384Y34671D01*
X523284Y34628D01*
X523182Y34588D01*
X523079Y34552D01*
X522975Y34520D01*
X522869Y34491D01*
X522763Y34466D01*
X522656Y34445D01*
X522548Y34428D01*
X522440Y34414D01*
X522331Y34405D01*
X522222Y34399D01*
X522113Y34397D01*
X519199Y36478D02*
X519073Y36745D01*
X518953Y37014D01*
X518840Y37287D01*
X518733Y37561D01*
X518633Y37839D01*
X518540Y38118D01*
X518453Y38400D01*
X518373Y38684D01*
X518300Y38970D01*
X518234Y39257D01*
X518175Y39546D01*
X518122Y39836D01*
X518076Y40127D01*
X518038Y40419D01*
X518006Y40712D01*
X517982Y41006D01*
X517964Y41301D01*
X517954Y41595D01*
X517950Y41890D01*
X519199Y36479D02*
X519236Y36376D01*
X519277Y36275D01*
X519321Y36175D01*
X519369Y36077D01*
X519420Y35981D01*
X519475Y35886D01*
X519533Y35794D01*
X519594Y35703D01*
X519659Y35615D01*
X519727Y35529D01*
X519797Y35446D01*
X519871Y35365D01*
X519947Y35287D01*
X520026Y35212D01*
X520107Y35139D01*
X520192Y35070D01*
X520278Y35003D01*
X520367Y34940D01*
X520458Y34879D01*
X520551Y34822D01*
X520646Y34769D01*
X520743Y34718D01*
X520842Y34671D01*
X520942Y34628D01*
X521044Y34588D01*
X521147Y34552D01*
X521251Y34520D01*
X521356Y34491D01*
X521463Y34466D01*
X521570Y34445D01*
X521678Y34428D01*
X521786Y34414D01*
X521895Y34405D01*
X522004Y34399D01*
X522113Y34397D01*
X525443Y37727D02*
X518783Y46053D01*
X507314Y41057D02*
X502319Y41057D01*
X507314Y41058D02*
X507428Y41060D01*
X507541Y41066D01*
X507655Y41075D01*
X507767Y41089D01*
X507880Y41106D01*
X507992Y41128D01*
X508102Y41153D01*
X508212Y41181D01*
X508321Y41214D01*
X508429Y41250D01*
X508536Y41290D01*
X508641Y41334D01*
X508744Y41381D01*
X508846Y41431D01*
X508946Y41485D01*
X509044Y41543D01*
X509140Y41604D01*
X509234Y41667D01*
X509326Y41735D01*
X509416Y41805D01*
X509502Y41878D01*
X509587Y41954D01*
X509669Y42033D01*
X509748Y42115D01*
X509824Y42200D01*
X509897Y42286D01*
X509967Y42376D01*
X510035Y42468D01*
X510098Y42562D01*
X510159Y42658D01*
X510217Y42756D01*
X510271Y42856D01*
X510321Y42958D01*
X510368Y43061D01*
X510412Y43166D01*
X510452Y43273D01*
X510488Y43381D01*
X510521Y43490D01*
X510549Y43600D01*
X510574Y43711D01*
X510596Y43822D01*
X510613Y43935D01*
X510627Y44047D01*
X510636Y44161D01*
X510642Y44274D01*
X510644Y44388D01*
X510644Y45220D01*
X510645Y45220D02*
X510643Y45348D01*
X510637Y45476D01*
X510627Y45604D01*
X510613Y45732D01*
X510596Y45859D01*
X510574Y45985D01*
X510549Y46111D01*
X510519Y46235D01*
X510486Y46359D01*
X510449Y46482D01*
X510408Y46604D01*
X510364Y46724D01*
X510316Y46843D01*
X510264Y46960D01*
X510209Y47076D01*
X510150Y47189D01*
X510087Y47302D01*
X510021Y47412D01*
X509952Y47519D01*
X509880Y47625D01*
X509804Y47729D01*
X509725Y47830D01*
X509643Y47929D01*
X509558Y48025D01*
X509471Y48118D01*
X509380Y48209D01*
X509287Y48296D01*
X509191Y48381D01*
X509092Y48463D01*
X508991Y48542D01*
X508887Y48618D01*
X508781Y48690D01*
X508674Y48759D01*
X508564Y48825D01*
X508451Y48888D01*
X508338Y48947D01*
X508222Y49002D01*
X508105Y49054D01*
X507986Y49102D01*
X507866Y49146D01*
X507744Y49187D01*
X507621Y49224D01*
X507497Y49257D01*
X507373Y49287D01*
X507247Y49312D01*
X507121Y49334D01*
X506994Y49351D01*
X506866Y49365D01*
X506738Y49375D01*
X506610Y49381D01*
X506482Y49383D01*
X506354Y49381D01*
X506226Y49375D01*
X506098Y49365D01*
X505970Y49351D01*
X505843Y49334D01*
X505717Y49312D01*
X505591Y49287D01*
X505467Y49257D01*
X505343Y49224D01*
X505220Y49187D01*
X505098Y49146D01*
X504978Y49102D01*
X504859Y49054D01*
X504742Y49002D01*
X504626Y48947D01*
X504513Y48888D01*
X504401Y48825D01*
X504290Y48759D01*
X504183Y48690D01*
X504077Y48618D01*
X503973Y48542D01*
X503872Y48463D01*
X503773Y48381D01*
X503677Y48296D01*
X503584Y48209D01*
X503493Y48118D01*
X503406Y48025D01*
X503321Y47929D01*
X503239Y47830D01*
X503160Y47729D01*
X503084Y47625D01*
X503012Y47519D01*
X502943Y47412D01*
X502877Y47302D01*
X502814Y47189D01*
X502755Y47076D01*
X502700Y46960D01*
X502648Y46843D01*
X502600Y46724D01*
X502556Y46604D01*
X502515Y46482D01*
X502478Y46359D01*
X502445Y46235D01*
X502415Y46111D01*
X502390Y45985D01*
X502368Y45859D01*
X502351Y45732D01*
X502337Y45604D01*
X502327Y45476D01*
X502321Y45348D01*
X502319Y45220D01*
X502319Y41057D01*
X502321Y40896D01*
X502327Y40735D01*
X502336Y40575D01*
X502350Y40414D01*
X502368Y40254D01*
X502389Y40095D01*
X502414Y39936D01*
X502443Y39777D01*
X502476Y39620D01*
X502513Y39463D01*
X502553Y39307D01*
X502597Y39153D01*
X502645Y38999D01*
X502697Y38846D01*
X502752Y38695D01*
X502811Y38546D01*
X502873Y38397D01*
X502939Y38250D01*
X503009Y38105D01*
X503082Y37962D01*
X503158Y37820D01*
X503238Y37681D01*
X503322Y37543D01*
X503408Y37407D01*
X503498Y37274D01*
X503591Y37142D01*
X503687Y37013D01*
X503786Y36887D01*
X503889Y36762D01*
X503994Y36641D01*
X504102Y36521D01*
X504213Y36405D01*
X504327Y36291D01*
X504443Y36180D01*
X504563Y36072D01*
X504684Y35967D01*
X504809Y35864D01*
X504935Y35765D01*
X505064Y35669D01*
X505196Y35576D01*
X505329Y35486D01*
X505465Y35400D01*
X505603Y35316D01*
X505742Y35236D01*
X505884Y35160D01*
X506027Y35087D01*
X506172Y35017D01*
X506319Y34951D01*
X506468Y34889D01*
X506617Y34830D01*
X506768Y34775D01*
X506921Y34723D01*
X507075Y34675D01*
X507229Y34631D01*
X507385Y34591D01*
X507542Y34554D01*
X507699Y34521D01*
X507858Y34492D01*
X508017Y34467D01*
X508176Y34446D01*
X508336Y34428D01*
X508497Y34414D01*
X508657Y34405D01*
X508818Y34399D01*
X508979Y34397D01*
D11*
X433477Y246773D02*
X433477Y254227D01*
X433477Y246773D02*
X431523Y246773D01*
X431523Y254227D01*
X433477Y254227D01*
X433477Y248353D02*
X431523Y248353D01*
X431523Y249933D02*
X433477Y249933D01*
X433477Y251513D02*
X431523Y251513D01*
X431523Y253093D02*
X433477Y253093D01*
X428477Y254227D02*
X428477Y246773D01*
X426523Y246773D01*
X426523Y254227D01*
X428477Y254227D01*
X428477Y248353D02*
X426523Y248353D01*
X426523Y249933D02*
X428477Y249933D01*
X428477Y251513D02*
X426523Y251513D01*
X426523Y253093D02*
X428477Y253093D01*
X423477Y254227D02*
X423477Y246773D01*
X421523Y246773D01*
X421523Y254227D01*
X423477Y254227D01*
X423477Y248353D02*
X421523Y248353D01*
X421523Y249933D02*
X423477Y249933D01*
X423477Y251513D02*
X421523Y251513D01*
X421523Y253093D02*
X423477Y253093D01*
X418477Y254227D02*
X418477Y246773D01*
X416523Y246773D01*
X416523Y254227D01*
X418477Y254227D01*
X418477Y248353D02*
X416523Y248353D01*
X416523Y249933D02*
X418477Y249933D01*
X418477Y251513D02*
X416523Y251513D01*
X416523Y253093D02*
X418477Y253093D01*
X413477Y254227D02*
X413477Y246773D01*
X411523Y246773D01*
X411523Y254227D01*
X413477Y254227D01*
X413477Y248353D02*
X411523Y248353D01*
X411523Y249933D02*
X413477Y249933D01*
X413477Y251513D02*
X411523Y251513D01*
X411523Y253093D02*
X413477Y253093D01*
X408477Y254227D02*
X408477Y246773D01*
X406523Y246773D01*
X406523Y254227D01*
X408477Y254227D01*
X408477Y248353D02*
X406523Y248353D01*
X406523Y249933D02*
X408477Y249933D01*
X408477Y251513D02*
X406523Y251513D01*
X406523Y253093D02*
X408477Y253093D01*
X408477Y285773D02*
X408477Y293227D01*
X408477Y285773D02*
X406523Y285773D01*
X406523Y293227D01*
X408477Y293227D01*
X408477Y287353D02*
X406523Y287353D01*
X406523Y288933D02*
X408477Y288933D01*
X408477Y290513D02*
X406523Y290513D01*
X406523Y292093D02*
X408477Y292093D01*
X413477Y293227D02*
X413477Y285773D01*
X411523Y285773D01*
X411523Y293227D01*
X413477Y293227D01*
X413477Y287353D02*
X411523Y287353D01*
X411523Y288933D02*
X413477Y288933D01*
X413477Y290513D02*
X411523Y290513D01*
X411523Y292093D02*
X413477Y292093D01*
X418477Y293227D02*
X418477Y285773D01*
X416523Y285773D01*
X416523Y293227D01*
X418477Y293227D01*
X418477Y287353D02*
X416523Y287353D01*
X416523Y288933D02*
X418477Y288933D01*
X418477Y290513D02*
X416523Y290513D01*
X416523Y292093D02*
X418477Y292093D01*
X423477Y293227D02*
X423477Y285773D01*
X421523Y285773D01*
X421523Y293227D01*
X423477Y293227D01*
X423477Y287353D02*
X421523Y287353D01*
X421523Y288933D02*
X423477Y288933D01*
X423477Y290513D02*
X421523Y290513D01*
X421523Y292093D02*
X423477Y292093D01*
X428477Y293227D02*
X428477Y285773D01*
X426523Y285773D01*
X426523Y293227D01*
X428477Y293227D01*
X428477Y287353D02*
X426523Y287353D01*
X426523Y288933D02*
X428477Y288933D01*
X428477Y290513D02*
X426523Y290513D01*
X426523Y292093D02*
X428477Y292093D01*
X433477Y293227D02*
X433477Y285773D01*
X431523Y285773D01*
X431523Y293227D01*
X433477Y293227D01*
X433477Y287353D02*
X431523Y287353D01*
X431523Y288933D02*
X433477Y288933D01*
X433477Y290513D02*
X431523Y290513D01*
X431523Y292093D02*
X433477Y292093D01*
X435773Y283477D02*
X443227Y283477D01*
X443227Y281523D01*
X435773Y281523D01*
X435773Y283477D01*
X435773Y283103D02*
X443227Y283103D01*
X443227Y278477D02*
X435773Y278477D01*
X443227Y278477D02*
X443227Y276523D01*
X435773Y276523D01*
X435773Y278477D01*
X435773Y278103D02*
X443227Y278103D01*
X443227Y273477D02*
X435773Y273477D01*
X443227Y273477D02*
X443227Y271523D01*
X435773Y271523D01*
X435773Y273477D01*
X435773Y273103D02*
X443227Y273103D01*
X443227Y268477D02*
X435773Y268477D01*
X443227Y268477D02*
X443227Y266523D01*
X435773Y266523D01*
X435773Y268477D01*
X435773Y268103D02*
X443227Y268103D01*
X443227Y263477D02*
X435773Y263477D01*
X443227Y263477D02*
X443227Y261523D01*
X435773Y261523D01*
X435773Y263477D01*
X435773Y263103D02*
X443227Y263103D01*
X443227Y258477D02*
X435773Y258477D01*
X443227Y258477D02*
X443227Y256523D01*
X435773Y256523D01*
X435773Y258477D01*
X435773Y258103D02*
X443227Y258103D01*
X404227Y258477D02*
X396773Y258477D01*
X404227Y258477D02*
X404227Y256523D01*
X396773Y256523D01*
X396773Y258477D01*
X396773Y258103D02*
X404227Y258103D01*
X404227Y263477D02*
X396773Y263477D01*
X404227Y263477D02*
X404227Y261523D01*
X396773Y261523D01*
X396773Y263477D01*
X396773Y263103D02*
X404227Y263103D01*
X404227Y268477D02*
X396773Y268477D01*
X404227Y268477D02*
X404227Y266523D01*
X396773Y266523D01*
X396773Y268477D01*
X396773Y268103D02*
X404227Y268103D01*
X404227Y273477D02*
X396773Y273477D01*
X404227Y273477D02*
X404227Y271523D01*
X396773Y271523D01*
X396773Y273477D01*
X396773Y273103D02*
X404227Y273103D01*
X404227Y278477D02*
X396773Y278477D01*
X404227Y278477D02*
X404227Y276523D01*
X396773Y276523D01*
X396773Y278477D01*
X396773Y278103D02*
X404227Y278103D01*
X404227Y283477D02*
X396773Y283477D01*
X404227Y283477D02*
X404227Y281523D01*
X396773Y281523D01*
X396773Y283477D01*
X396773Y283103D02*
X404227Y283103D01*
D12*
X420000Y270000D03*
D13*
X349500Y477500D03*
X330500Y477500D03*
X349500Y417500D03*
X330500Y417500D03*
X349500Y370000D03*
X330500Y370000D03*
X349500Y320000D03*
X330500Y320000D03*
X349500Y270000D03*
X330500Y270000D03*
D14*
X325550Y162750D03*
X325550Y101282D03*
X338250Y162750D03*
X350950Y162750D03*
X338250Y101282D03*
X350950Y101282D03*
X363650Y162750D03*
X363650Y101282D03*
X376350Y162750D03*
X376350Y101282D03*
X389050Y162750D03*
X401750Y162750D03*
X389050Y101282D03*
X401750Y101282D03*
X414450Y162750D03*
X414450Y101282D03*
X35550Y160734D03*
X35550Y99266D03*
X48250Y160734D03*
X60950Y160734D03*
X48250Y99266D03*
X60950Y99266D03*
X73650Y160734D03*
X73650Y99266D03*
X86350Y160734D03*
X86350Y99266D03*
X99050Y160734D03*
X111750Y160734D03*
X99050Y99266D03*
X111750Y99266D03*
X124450Y160734D03*
X124450Y99266D03*
D13*
X569500Y320000D03*
X550500Y320000D03*
X578852Y255683D03*
X597852Y255683D03*
D15*
X560000Y90500D03*
X560000Y109500D03*
X640000Y477500D03*
X640000Y496500D03*
D16*
X720000Y421000D03*
X720000Y119000D03*
D17*
X404000Y30000D03*
X387000Y30000D03*
X370000Y30000D03*
D15*
X730000Y477500D03*
X730000Y496500D03*
X700000Y478500D03*
X700000Y497500D03*
X760297Y476146D03*
X760297Y495146D03*
X150640Y120431D03*
X150640Y139431D03*
X304000Y99500D03*
X304000Y80500D03*
X470000Y270500D03*
X470000Y289500D03*
D18*
X719944Y385223D03*
X720000Y179000D03*
M02*
