G04 EAGLE Gerber RS-274X export*
G75*
%MOMM*%
%FSLAX34Y34*%
%LPD*%
%INTop Solder Mask*%
%IPPOS*%
%AMOC8*
5,1,8,0,0,1.08239X$1,22.5*%
G01*
%ADD10C,1.168400*%
%ADD11C,0.457200*%
%ADD12C,0.326897*%
%ADD13R,1.101600X1.801600*%
%ADD14C,2.101600*%
D10*
X35842Y105842D02*
X35842Y159158D01*
X50652Y159158D01*
X51013Y159154D01*
X51373Y159140D01*
X51733Y159118D01*
X52092Y159088D01*
X52451Y159048D01*
X52808Y159000D01*
X53165Y158943D01*
X53519Y158878D01*
X53872Y158804D01*
X54223Y158721D01*
X54572Y158630D01*
X54919Y158530D01*
X55263Y158422D01*
X55604Y158306D01*
X55943Y158181D01*
X56278Y158048D01*
X56610Y157907D01*
X56938Y157758D01*
X57263Y157601D01*
X57584Y157436D01*
X57900Y157263D01*
X58213Y157083D01*
X58520Y156895D01*
X58824Y156700D01*
X59122Y156497D01*
X59415Y156287D01*
X59703Y156070D01*
X59986Y155846D01*
X60263Y155615D01*
X60535Y155378D01*
X60801Y155134D01*
X61060Y154884D01*
X61314Y154627D01*
X61561Y154365D01*
X61802Y154096D01*
X62036Y153822D01*
X62263Y153542D01*
X62483Y153256D01*
X62697Y152965D01*
X62903Y152669D01*
X63102Y152369D01*
X63294Y152063D01*
X63478Y151753D01*
X63654Y151438D01*
X63823Y151120D01*
X63984Y150797D01*
X64137Y150470D01*
X64282Y150140D01*
X64419Y149807D01*
X64548Y149470D01*
X64669Y149130D01*
X64781Y148787D01*
X64885Y148442D01*
X64980Y148094D01*
X65067Y147744D01*
X65146Y147392D01*
X65216Y147038D01*
X65277Y146683D01*
X65329Y146326D01*
X65373Y145968D01*
X65408Y145609D01*
X65435Y145249D01*
X65452Y144889D01*
X65461Y144528D01*
X65461Y144168D01*
X65452Y143807D01*
X65435Y143447D01*
X65408Y143087D01*
X65373Y142728D01*
X65329Y142370D01*
X65277Y142013D01*
X65216Y141658D01*
X65146Y141304D01*
X65067Y140952D01*
X64980Y140602D01*
X64885Y140254D01*
X64781Y139909D01*
X64669Y139566D01*
X64548Y139226D01*
X64419Y138889D01*
X64282Y138556D01*
X64137Y138226D01*
X63984Y137899D01*
X63823Y137576D01*
X63654Y137258D01*
X63478Y136943D01*
X63294Y136633D01*
X63102Y136327D01*
X62903Y136027D01*
X62697Y135731D01*
X62483Y135440D01*
X62263Y135154D01*
X62036Y134874D01*
X61802Y134600D01*
X61561Y134331D01*
X61314Y134069D01*
X61060Y133812D01*
X60801Y133562D01*
X60535Y133318D01*
X60263Y133081D01*
X59986Y132850D01*
X59703Y132626D01*
X59415Y132409D01*
X59122Y132199D01*
X58824Y131996D01*
X58520Y131801D01*
X58213Y131613D01*
X57900Y131433D01*
X57584Y131260D01*
X57263Y131095D01*
X56938Y130938D01*
X56610Y130789D01*
X56278Y130648D01*
X55943Y130515D01*
X55604Y130390D01*
X55263Y130274D01*
X54919Y130166D01*
X54572Y130066D01*
X54223Y129975D01*
X53872Y129892D01*
X53519Y129818D01*
X53165Y129753D01*
X52808Y129696D01*
X52451Y129648D01*
X52092Y129608D01*
X51733Y129578D01*
X51373Y129556D01*
X51013Y129542D01*
X50652Y129538D01*
X35842Y129538D01*
X92401Y126576D02*
X105730Y126576D01*
X92401Y126576D02*
X92149Y126573D01*
X91896Y126564D01*
X91644Y126548D01*
X91393Y126527D01*
X91142Y126499D01*
X90892Y126466D01*
X90642Y126426D01*
X90394Y126380D01*
X90147Y126328D01*
X89901Y126270D01*
X89657Y126206D01*
X89414Y126136D01*
X89173Y126061D01*
X88934Y125979D01*
X88698Y125892D01*
X88463Y125799D01*
X88231Y125700D01*
X88001Y125596D01*
X87773Y125486D01*
X87549Y125370D01*
X87327Y125250D01*
X87109Y125123D01*
X86893Y124992D01*
X86681Y124855D01*
X86472Y124713D01*
X86267Y124566D01*
X86065Y124414D01*
X85867Y124258D01*
X85673Y124096D01*
X85483Y123930D01*
X85297Y123759D01*
X85115Y123584D01*
X84938Y123404D01*
X84765Y123221D01*
X84596Y123033D01*
X84432Y122840D01*
X84273Y122644D01*
X84119Y122445D01*
X83970Y122241D01*
X83825Y122034D01*
X83686Y121823D01*
X83552Y121610D01*
X83423Y121392D01*
X83299Y121172D01*
X83181Y120949D01*
X83068Y120723D01*
X82961Y120495D01*
X82860Y120264D01*
X82764Y120030D01*
X82674Y119794D01*
X82589Y119556D01*
X82511Y119316D01*
X82438Y119075D01*
X82371Y118831D01*
X82310Y118586D01*
X82255Y118340D01*
X82206Y118092D01*
X82164Y117843D01*
X82127Y117593D01*
X82096Y117343D01*
X82072Y117092D01*
X82053Y116840D01*
X82041Y116588D01*
X82035Y116335D01*
X82035Y116083D01*
X82041Y115830D01*
X82053Y115578D01*
X82072Y115326D01*
X82096Y115075D01*
X82127Y114825D01*
X82164Y114575D01*
X82206Y114326D01*
X82255Y114078D01*
X82310Y113832D01*
X82371Y113587D01*
X82438Y113343D01*
X82511Y113102D01*
X82589Y112862D01*
X82674Y112624D01*
X82764Y112388D01*
X82860Y112154D01*
X82961Y111923D01*
X83068Y111695D01*
X83181Y111469D01*
X83299Y111246D01*
X83423Y111025D01*
X83552Y110808D01*
X83686Y110595D01*
X83825Y110384D01*
X83970Y110177D01*
X84119Y109973D01*
X84273Y109774D01*
X84432Y109578D01*
X84596Y109385D01*
X84765Y109197D01*
X84938Y109014D01*
X85115Y108834D01*
X85297Y108659D01*
X85483Y108488D01*
X85673Y108322D01*
X85867Y108160D01*
X86065Y108004D01*
X86267Y107852D01*
X86472Y107705D01*
X86681Y107563D01*
X86893Y107426D01*
X87109Y107295D01*
X87327Y107168D01*
X87549Y107048D01*
X87773Y106932D01*
X88001Y106822D01*
X88231Y106718D01*
X88463Y106619D01*
X88698Y106526D01*
X88934Y106439D01*
X89173Y106357D01*
X89414Y106282D01*
X89657Y106212D01*
X89901Y106148D01*
X90147Y106090D01*
X90394Y106038D01*
X90642Y105992D01*
X90892Y105952D01*
X91142Y105919D01*
X91393Y105891D01*
X91644Y105870D01*
X91896Y105854D01*
X92149Y105845D01*
X92401Y105842D01*
X105730Y105842D01*
X105730Y132500D01*
X105727Y132715D01*
X105720Y132929D01*
X105707Y133144D01*
X105689Y133358D01*
X105665Y133571D01*
X105637Y133784D01*
X105603Y133996D01*
X105564Y134207D01*
X105521Y134417D01*
X105472Y134627D01*
X105418Y134834D01*
X105359Y135041D01*
X105295Y135246D01*
X105226Y135449D01*
X105153Y135651D01*
X105074Y135851D01*
X104991Y136049D01*
X104902Y136245D01*
X104810Y136438D01*
X104712Y136630D01*
X104610Y136818D01*
X104503Y137005D01*
X104392Y137189D01*
X104277Y137370D01*
X104157Y137548D01*
X104033Y137723D01*
X103905Y137895D01*
X103772Y138064D01*
X103636Y138230D01*
X103495Y138393D01*
X103351Y138552D01*
X103203Y138707D01*
X103051Y138859D01*
X102896Y139007D01*
X102737Y139151D01*
X102574Y139292D01*
X102408Y139428D01*
X102239Y139561D01*
X102067Y139689D01*
X101892Y139813D01*
X101714Y139933D01*
X101533Y140048D01*
X101349Y140159D01*
X101162Y140266D01*
X100974Y140368D01*
X100782Y140466D01*
X100589Y140558D01*
X100393Y140647D01*
X100195Y140730D01*
X99995Y140809D01*
X99793Y140882D01*
X99590Y140951D01*
X99385Y141015D01*
X99178Y141074D01*
X98971Y141128D01*
X98761Y141177D01*
X98551Y141220D01*
X98340Y141259D01*
X98128Y141293D01*
X97915Y141321D01*
X97702Y141345D01*
X97488Y141363D01*
X97273Y141376D01*
X97059Y141383D01*
X96844Y141386D01*
X84996Y141386D01*
X127699Y141386D02*
X127699Y114728D01*
X127702Y114513D01*
X127709Y114299D01*
X127722Y114084D01*
X127740Y113870D01*
X127764Y113657D01*
X127792Y113444D01*
X127826Y113232D01*
X127865Y113021D01*
X127908Y112811D01*
X127957Y112601D01*
X128011Y112394D01*
X128070Y112187D01*
X128134Y111982D01*
X128203Y111779D01*
X128276Y111577D01*
X128355Y111377D01*
X128438Y111179D01*
X128527Y110983D01*
X128619Y110790D01*
X128717Y110598D01*
X128819Y110410D01*
X128926Y110223D01*
X129037Y110039D01*
X129152Y109858D01*
X129272Y109680D01*
X129396Y109505D01*
X129524Y109333D01*
X129657Y109164D01*
X129793Y108998D01*
X129934Y108835D01*
X130078Y108676D01*
X130226Y108521D01*
X130378Y108369D01*
X130533Y108221D01*
X130692Y108077D01*
X130855Y107936D01*
X131021Y107800D01*
X131190Y107667D01*
X131362Y107539D01*
X131537Y107415D01*
X131715Y107295D01*
X131896Y107180D01*
X132080Y107069D01*
X132267Y106962D01*
X132455Y106860D01*
X132647Y106762D01*
X132840Y106670D01*
X133036Y106581D01*
X133234Y106498D01*
X133434Y106419D01*
X133636Y106346D01*
X133839Y106277D01*
X134044Y106213D01*
X134251Y106154D01*
X134458Y106100D01*
X134668Y106051D01*
X134878Y106008D01*
X135089Y105969D01*
X135301Y105935D01*
X135514Y105907D01*
X135727Y105883D01*
X135941Y105865D01*
X136156Y105852D01*
X136370Y105845D01*
X136585Y105842D01*
X151395Y105842D01*
X151395Y141386D01*
X172623Y159158D02*
X172623Y114728D01*
X172626Y114513D01*
X172633Y114299D01*
X172646Y114084D01*
X172664Y113870D01*
X172688Y113657D01*
X172716Y113444D01*
X172750Y113232D01*
X172789Y113021D01*
X172832Y112811D01*
X172881Y112601D01*
X172935Y112394D01*
X172994Y112187D01*
X173058Y111982D01*
X173127Y111779D01*
X173200Y111577D01*
X173279Y111377D01*
X173362Y111179D01*
X173451Y110983D01*
X173543Y110790D01*
X173641Y110598D01*
X173743Y110410D01*
X173850Y110223D01*
X173961Y110039D01*
X174076Y109858D01*
X174196Y109680D01*
X174320Y109505D01*
X174448Y109333D01*
X174581Y109164D01*
X174717Y108998D01*
X174858Y108835D01*
X175002Y108676D01*
X175150Y108521D01*
X175302Y108369D01*
X175457Y108221D01*
X175616Y108077D01*
X175779Y107936D01*
X175945Y107800D01*
X176114Y107667D01*
X176286Y107539D01*
X176461Y107415D01*
X176639Y107295D01*
X176820Y107180D01*
X177004Y107069D01*
X177191Y106962D01*
X177379Y106860D01*
X177571Y106762D01*
X177764Y106670D01*
X177960Y106581D01*
X178158Y106498D01*
X178358Y106419D01*
X178560Y106346D01*
X178763Y106277D01*
X178968Y106213D01*
X179175Y106154D01*
X179382Y106100D01*
X179592Y106051D01*
X179802Y106008D01*
X180013Y105969D01*
X180225Y105935D01*
X180438Y105907D01*
X180651Y105883D01*
X180865Y105865D01*
X181080Y105852D01*
X181294Y105845D01*
X181509Y105842D01*
X225967Y105842D02*
X225967Y159158D01*
X255587Y159158D02*
X225967Y126576D01*
X237815Y138424D02*
X255587Y105842D01*
X273373Y114728D02*
X273373Y159158D01*
X273373Y114728D02*
X273376Y114513D01*
X273383Y114299D01*
X273396Y114084D01*
X273414Y113870D01*
X273438Y113657D01*
X273466Y113444D01*
X273500Y113232D01*
X273539Y113021D01*
X273582Y112811D01*
X273631Y112601D01*
X273685Y112394D01*
X273744Y112187D01*
X273808Y111982D01*
X273877Y111779D01*
X273950Y111577D01*
X274029Y111377D01*
X274112Y111179D01*
X274201Y110983D01*
X274293Y110790D01*
X274391Y110598D01*
X274493Y110410D01*
X274600Y110223D01*
X274711Y110039D01*
X274826Y109858D01*
X274946Y109680D01*
X275070Y109505D01*
X275198Y109333D01*
X275331Y109164D01*
X275467Y108998D01*
X275608Y108835D01*
X275752Y108676D01*
X275900Y108521D01*
X276052Y108369D01*
X276207Y108221D01*
X276366Y108077D01*
X276529Y107936D01*
X276695Y107800D01*
X276864Y107667D01*
X277036Y107539D01*
X277211Y107415D01*
X277389Y107295D01*
X277570Y107180D01*
X277754Y107069D01*
X277941Y106962D01*
X278129Y106860D01*
X278321Y106762D01*
X278514Y106670D01*
X278710Y106581D01*
X278908Y106498D01*
X279108Y106419D01*
X279310Y106346D01*
X279513Y106277D01*
X279718Y106213D01*
X279925Y106154D01*
X280132Y106100D01*
X280342Y106051D01*
X280552Y106008D01*
X280763Y105969D01*
X280975Y105935D01*
X281188Y105907D01*
X281401Y105883D01*
X281615Y105865D01*
X281830Y105852D01*
X282044Y105845D01*
X282259Y105842D01*
X298797Y105842D02*
X298797Y141386D01*
X297316Y156196D02*
X297316Y159158D01*
X300278Y159158D01*
X300278Y156196D01*
X297316Y156196D01*
X319449Y141386D02*
X319449Y105842D01*
X319449Y141386D02*
X334259Y141386D01*
X334474Y141383D01*
X334688Y141376D01*
X334903Y141363D01*
X335117Y141345D01*
X335330Y141321D01*
X335543Y141293D01*
X335755Y141259D01*
X335966Y141220D01*
X336176Y141177D01*
X336386Y141128D01*
X336593Y141074D01*
X336800Y141015D01*
X337005Y140951D01*
X337208Y140882D01*
X337410Y140809D01*
X337610Y140730D01*
X337808Y140647D01*
X338004Y140558D01*
X338197Y140466D01*
X338389Y140368D01*
X338577Y140266D01*
X338764Y140159D01*
X338948Y140048D01*
X339129Y139933D01*
X339307Y139813D01*
X339482Y139689D01*
X339654Y139561D01*
X339823Y139428D01*
X339989Y139292D01*
X340152Y139151D01*
X340311Y139007D01*
X340466Y138859D01*
X340618Y138707D01*
X340766Y138552D01*
X340910Y138393D01*
X341051Y138230D01*
X341187Y138064D01*
X341320Y137895D01*
X341448Y137723D01*
X341572Y137548D01*
X341692Y137370D01*
X341807Y137189D01*
X341918Y137005D01*
X342025Y136818D01*
X342127Y136630D01*
X342225Y136438D01*
X342317Y136245D01*
X342406Y136049D01*
X342489Y135851D01*
X342568Y135651D01*
X342641Y135449D01*
X342710Y135246D01*
X342774Y135041D01*
X342833Y134834D01*
X342887Y134627D01*
X342936Y134417D01*
X342979Y134207D01*
X343018Y133996D01*
X343052Y133784D01*
X343080Y133571D01*
X343104Y133358D01*
X343122Y133144D01*
X343135Y132929D01*
X343142Y132715D01*
X343145Y132500D01*
X343145Y105842D01*
X372045Y105842D02*
X386855Y105842D01*
X372045Y105842D02*
X371830Y105845D01*
X371616Y105852D01*
X371401Y105865D01*
X371187Y105883D01*
X370974Y105907D01*
X370761Y105935D01*
X370549Y105969D01*
X370338Y106008D01*
X370128Y106051D01*
X369918Y106100D01*
X369711Y106154D01*
X369504Y106213D01*
X369299Y106277D01*
X369096Y106346D01*
X368894Y106419D01*
X368694Y106498D01*
X368496Y106581D01*
X368300Y106670D01*
X368107Y106762D01*
X367915Y106860D01*
X367727Y106962D01*
X367540Y107069D01*
X367356Y107180D01*
X367175Y107295D01*
X366997Y107415D01*
X366822Y107539D01*
X366650Y107667D01*
X366481Y107800D01*
X366315Y107936D01*
X366152Y108077D01*
X365993Y108221D01*
X365838Y108369D01*
X365686Y108521D01*
X365538Y108676D01*
X365394Y108835D01*
X365253Y108998D01*
X365117Y109164D01*
X364984Y109333D01*
X364856Y109505D01*
X364732Y109680D01*
X364612Y109858D01*
X364497Y110039D01*
X364386Y110223D01*
X364279Y110410D01*
X364177Y110598D01*
X364079Y110790D01*
X363987Y110983D01*
X363898Y111179D01*
X363815Y111377D01*
X363736Y111577D01*
X363663Y111779D01*
X363594Y111982D01*
X363530Y112187D01*
X363471Y112394D01*
X363417Y112601D01*
X363368Y112811D01*
X363325Y113021D01*
X363286Y113232D01*
X363252Y113444D01*
X363224Y113657D01*
X363200Y113870D01*
X363182Y114084D01*
X363169Y114299D01*
X363162Y114513D01*
X363159Y114728D01*
X363159Y132500D01*
X363162Y132715D01*
X363169Y132929D01*
X363182Y133144D01*
X363200Y133358D01*
X363224Y133571D01*
X363252Y133784D01*
X363286Y133996D01*
X363325Y134207D01*
X363368Y134417D01*
X363417Y134627D01*
X363471Y134834D01*
X363530Y135041D01*
X363594Y135246D01*
X363663Y135449D01*
X363736Y135651D01*
X363815Y135851D01*
X363898Y136049D01*
X363987Y136245D01*
X364079Y136438D01*
X364177Y136630D01*
X364279Y136818D01*
X364386Y137005D01*
X364497Y137189D01*
X364612Y137370D01*
X364732Y137548D01*
X364856Y137723D01*
X364984Y137895D01*
X365117Y138064D01*
X365253Y138230D01*
X365394Y138393D01*
X365538Y138552D01*
X365686Y138707D01*
X365838Y138859D01*
X365993Y139007D01*
X366152Y139151D01*
X366315Y139292D01*
X366481Y139428D01*
X366650Y139561D01*
X366822Y139689D01*
X366997Y139813D01*
X367175Y139933D01*
X367356Y140048D01*
X367540Y140159D01*
X367727Y140266D01*
X367915Y140368D01*
X368107Y140466D01*
X368300Y140558D01*
X368496Y140647D01*
X368694Y140730D01*
X368894Y140809D01*
X369096Y140882D01*
X369299Y140951D01*
X369504Y141015D01*
X369711Y141074D01*
X369918Y141128D01*
X370128Y141177D01*
X370338Y141220D01*
X370549Y141259D01*
X370761Y141293D01*
X370974Y141321D01*
X371187Y141345D01*
X371401Y141363D01*
X371616Y141376D01*
X371830Y141383D01*
X372045Y141386D01*
X386855Y141386D01*
X386855Y96956D01*
X386852Y96741D01*
X386845Y96527D01*
X386832Y96312D01*
X386814Y96098D01*
X386790Y95885D01*
X386762Y95672D01*
X386728Y95460D01*
X386689Y95249D01*
X386646Y95039D01*
X386597Y94829D01*
X386543Y94622D01*
X386484Y94415D01*
X386420Y94210D01*
X386351Y94007D01*
X386278Y93805D01*
X386199Y93605D01*
X386116Y93407D01*
X386027Y93211D01*
X385935Y93018D01*
X385837Y92826D01*
X385735Y92638D01*
X385628Y92451D01*
X385517Y92267D01*
X385402Y92086D01*
X385282Y91908D01*
X385158Y91733D01*
X385030Y91561D01*
X384897Y91392D01*
X384761Y91226D01*
X384620Y91063D01*
X384476Y90904D01*
X384328Y90749D01*
X384176Y90597D01*
X384021Y90449D01*
X383862Y90305D01*
X383699Y90164D01*
X383533Y90028D01*
X383364Y89895D01*
X383192Y89767D01*
X383017Y89643D01*
X382839Y89523D01*
X382658Y89408D01*
X382474Y89297D01*
X382287Y89190D01*
X382099Y89088D01*
X381907Y88990D01*
X381714Y88898D01*
X381518Y88809D01*
X381320Y88726D01*
X381120Y88647D01*
X380918Y88574D01*
X380715Y88505D01*
X380510Y88441D01*
X380303Y88382D01*
X380096Y88328D01*
X379886Y88279D01*
X379676Y88236D01*
X379465Y88197D01*
X379253Y88163D01*
X379040Y88135D01*
X378827Y88111D01*
X378613Y88093D01*
X378398Y88080D01*
X378184Y88073D01*
X377969Y88070D01*
X366121Y88070D01*
X416085Y105842D02*
X430895Y105842D01*
X416085Y105842D02*
X415870Y105845D01*
X415656Y105852D01*
X415441Y105865D01*
X415227Y105883D01*
X415014Y105907D01*
X414801Y105935D01*
X414589Y105969D01*
X414378Y106008D01*
X414168Y106051D01*
X413958Y106100D01*
X413751Y106154D01*
X413544Y106213D01*
X413339Y106277D01*
X413136Y106346D01*
X412934Y106419D01*
X412734Y106498D01*
X412536Y106581D01*
X412340Y106670D01*
X412147Y106762D01*
X411955Y106860D01*
X411767Y106962D01*
X411580Y107069D01*
X411396Y107180D01*
X411215Y107295D01*
X411037Y107415D01*
X410862Y107539D01*
X410690Y107667D01*
X410521Y107800D01*
X410355Y107936D01*
X410192Y108077D01*
X410033Y108221D01*
X409878Y108369D01*
X409726Y108521D01*
X409578Y108676D01*
X409434Y108835D01*
X409293Y108998D01*
X409157Y109164D01*
X409024Y109333D01*
X408896Y109505D01*
X408772Y109680D01*
X408652Y109858D01*
X408537Y110039D01*
X408426Y110223D01*
X408319Y110410D01*
X408217Y110598D01*
X408119Y110790D01*
X408027Y110983D01*
X407938Y111179D01*
X407855Y111377D01*
X407776Y111577D01*
X407703Y111779D01*
X407634Y111982D01*
X407570Y112187D01*
X407511Y112394D01*
X407457Y112601D01*
X407408Y112811D01*
X407365Y113021D01*
X407326Y113232D01*
X407292Y113444D01*
X407264Y113657D01*
X407240Y113870D01*
X407222Y114084D01*
X407209Y114299D01*
X407202Y114513D01*
X407199Y114728D01*
X407199Y129538D01*
X407203Y129827D01*
X407213Y130115D01*
X407231Y130403D01*
X407255Y130690D01*
X407287Y130977D01*
X407325Y131263D01*
X407371Y131548D01*
X407423Y131832D01*
X407482Y132114D01*
X407549Y132395D01*
X407622Y132674D01*
X407701Y132951D01*
X407788Y133227D01*
X407881Y133500D01*
X407981Y133770D01*
X408087Y134039D01*
X408200Y134304D01*
X408319Y134567D01*
X408445Y134827D01*
X408577Y135083D01*
X408715Y135337D01*
X408859Y135586D01*
X409010Y135833D01*
X409166Y136075D01*
X409328Y136314D01*
X409496Y136549D01*
X409669Y136779D01*
X409848Y137005D01*
X410033Y137227D01*
X410223Y137444D01*
X410418Y137657D01*
X410618Y137865D01*
X410824Y138067D01*
X411034Y138265D01*
X411249Y138458D01*
X411468Y138645D01*
X411692Y138827D01*
X411921Y139003D01*
X412153Y139174D01*
X412390Y139339D01*
X412630Y139498D01*
X412875Y139651D01*
X413123Y139799D01*
X413375Y139940D01*
X413630Y140075D01*
X413888Y140204D01*
X414149Y140326D01*
X414413Y140442D01*
X414680Y140552D01*
X414950Y140655D01*
X415222Y140751D01*
X415496Y140841D01*
X415772Y140924D01*
X416050Y141001D01*
X416330Y141070D01*
X416612Y141133D01*
X416895Y141189D01*
X417179Y141238D01*
X417465Y141280D01*
X417751Y141315D01*
X418038Y141343D01*
X418326Y141364D01*
X418614Y141378D01*
X418903Y141385D01*
X419191Y141385D01*
X419480Y141378D01*
X419768Y141364D01*
X420056Y141343D01*
X420343Y141315D01*
X420629Y141280D01*
X420915Y141238D01*
X421199Y141189D01*
X421482Y141133D01*
X421764Y141070D01*
X422044Y141001D01*
X422322Y140924D01*
X422598Y140841D01*
X422872Y140751D01*
X423144Y140655D01*
X423414Y140552D01*
X423681Y140442D01*
X423945Y140326D01*
X424206Y140204D01*
X424464Y140075D01*
X424719Y139940D01*
X424971Y139799D01*
X425219Y139651D01*
X425464Y139498D01*
X425704Y139339D01*
X425941Y139174D01*
X426173Y139003D01*
X426402Y138827D01*
X426626Y138645D01*
X426845Y138458D01*
X427060Y138265D01*
X427270Y138067D01*
X427476Y137865D01*
X427676Y137657D01*
X427871Y137444D01*
X428061Y137227D01*
X428246Y137005D01*
X428425Y136779D01*
X428598Y136549D01*
X428766Y136314D01*
X428928Y136075D01*
X429084Y135833D01*
X429235Y135586D01*
X429379Y135337D01*
X429517Y135083D01*
X429649Y134827D01*
X429775Y134567D01*
X429894Y134304D01*
X430007Y134039D01*
X430113Y133770D01*
X430213Y133500D01*
X430306Y133227D01*
X430393Y132951D01*
X430472Y132674D01*
X430545Y132395D01*
X430612Y132114D01*
X430671Y131832D01*
X430723Y131548D01*
X430769Y131263D01*
X430807Y130977D01*
X430839Y130690D01*
X430863Y130403D01*
X430881Y130115D01*
X430891Y129827D01*
X430895Y129538D01*
X430895Y123614D01*
X407199Y123614D01*
X451304Y105842D02*
X451304Y141386D01*
X469076Y141386D01*
X469076Y135462D01*
D11*
X492286Y56171D02*
X492286Y35343D01*
X492286Y56171D02*
X498072Y56171D01*
X498188Y56169D01*
X498304Y56163D01*
X498419Y56154D01*
X498535Y56140D01*
X498649Y56123D01*
X498763Y56101D01*
X498877Y56076D01*
X498989Y56048D01*
X499100Y56015D01*
X499211Y55979D01*
X499319Y55939D01*
X499427Y55896D01*
X499533Y55849D01*
X499637Y55798D01*
X499740Y55744D01*
X499841Y55686D01*
X499940Y55626D01*
X500036Y55562D01*
X500131Y55494D01*
X500223Y55424D01*
X500313Y55351D01*
X500400Y55274D01*
X500485Y55195D01*
X500567Y55113D01*
X500646Y55028D01*
X500723Y54941D01*
X500796Y54851D01*
X500866Y54759D01*
X500934Y54664D01*
X500998Y54568D01*
X501058Y54469D01*
X501116Y54368D01*
X501170Y54265D01*
X501221Y54161D01*
X501268Y54055D01*
X501311Y53948D01*
X501351Y53839D01*
X501387Y53728D01*
X501420Y53617D01*
X501448Y53505D01*
X501473Y53391D01*
X501495Y53277D01*
X501512Y53163D01*
X501526Y53047D01*
X501535Y52932D01*
X501541Y52816D01*
X501543Y52700D01*
X501543Y45757D01*
X501541Y45641D01*
X501535Y45525D01*
X501526Y45410D01*
X501512Y45294D01*
X501495Y45180D01*
X501473Y45066D01*
X501448Y44952D01*
X501420Y44840D01*
X501387Y44729D01*
X501351Y44618D01*
X501311Y44509D01*
X501268Y44402D01*
X501221Y44296D01*
X501170Y44192D01*
X501116Y44089D01*
X501058Y43988D01*
X500998Y43889D01*
X500934Y43793D01*
X500866Y43698D01*
X500796Y43606D01*
X500723Y43516D01*
X500646Y43429D01*
X500567Y43344D01*
X500485Y43262D01*
X500400Y43183D01*
X500313Y43106D01*
X500223Y43033D01*
X500131Y42963D01*
X500036Y42895D01*
X499940Y42831D01*
X499841Y42771D01*
X499740Y42713D01*
X499637Y42659D01*
X499533Y42608D01*
X499427Y42561D01*
X499320Y42518D01*
X499211Y42478D01*
X499100Y42442D01*
X498989Y42409D01*
X498877Y42381D01*
X498763Y42356D01*
X498649Y42334D01*
X498535Y42317D01*
X498419Y42303D01*
X498304Y42294D01*
X498188Y42288D01*
X498072Y42286D01*
X492286Y42286D01*
X514175Y50386D02*
X519382Y50386D01*
X514175Y50386D02*
X514049Y50384D01*
X513923Y50378D01*
X513798Y50368D01*
X513672Y50355D01*
X513548Y50337D01*
X513424Y50316D01*
X513300Y50290D01*
X513178Y50261D01*
X513056Y50228D01*
X512935Y50192D01*
X512816Y50151D01*
X512698Y50107D01*
X512582Y50059D01*
X512467Y50008D01*
X512353Y49953D01*
X512242Y49895D01*
X512132Y49833D01*
X512024Y49768D01*
X511918Y49699D01*
X511815Y49627D01*
X511714Y49552D01*
X511615Y49474D01*
X511518Y49393D01*
X511425Y49309D01*
X511334Y49222D01*
X511245Y49132D01*
X511160Y49040D01*
X511077Y48945D01*
X510997Y48847D01*
X510921Y48747D01*
X510847Y48645D01*
X510777Y48540D01*
X510710Y48433D01*
X510647Y48325D01*
X510587Y48214D01*
X510530Y48101D01*
X510477Y47987D01*
X510427Y47871D01*
X510381Y47754D01*
X510339Y47635D01*
X510301Y47515D01*
X510266Y47394D01*
X510235Y47272D01*
X510207Y47149D01*
X510184Y47025D01*
X510165Y46901D01*
X510149Y46776D01*
X510137Y46651D01*
X510129Y46525D01*
X510125Y46399D01*
X510125Y46273D01*
X510129Y46147D01*
X510137Y46021D01*
X510149Y45896D01*
X510165Y45771D01*
X510184Y45647D01*
X510207Y45523D01*
X510235Y45400D01*
X510266Y45278D01*
X510301Y45157D01*
X510339Y45037D01*
X510381Y44918D01*
X510427Y44801D01*
X510477Y44685D01*
X510530Y44571D01*
X510587Y44458D01*
X510647Y44347D01*
X510710Y44239D01*
X510777Y44132D01*
X510847Y44027D01*
X510921Y43925D01*
X510997Y43825D01*
X511077Y43727D01*
X511160Y43632D01*
X511245Y43540D01*
X511334Y43450D01*
X511425Y43363D01*
X511518Y43279D01*
X511615Y43198D01*
X511714Y43120D01*
X511815Y43045D01*
X511918Y42973D01*
X512024Y42904D01*
X512132Y42839D01*
X512242Y42777D01*
X512353Y42719D01*
X512467Y42664D01*
X512582Y42613D01*
X512698Y42565D01*
X512816Y42521D01*
X512935Y42480D01*
X513056Y42444D01*
X513178Y42411D01*
X513300Y42382D01*
X513424Y42356D01*
X513548Y42335D01*
X513672Y42317D01*
X513798Y42304D01*
X513923Y42294D01*
X514049Y42288D01*
X514175Y42286D01*
X519382Y42286D01*
X519382Y52700D01*
X519380Y52816D01*
X519374Y52932D01*
X519365Y53047D01*
X519351Y53163D01*
X519334Y53277D01*
X519312Y53391D01*
X519287Y53505D01*
X519259Y53617D01*
X519226Y53728D01*
X519190Y53839D01*
X519150Y53948D01*
X519107Y54055D01*
X519060Y54161D01*
X519009Y54265D01*
X518955Y54368D01*
X518897Y54469D01*
X518837Y54568D01*
X518773Y54664D01*
X518705Y54759D01*
X518635Y54851D01*
X518562Y54941D01*
X518485Y55028D01*
X518406Y55113D01*
X518324Y55195D01*
X518239Y55274D01*
X518152Y55351D01*
X518062Y55424D01*
X517970Y55494D01*
X517875Y55562D01*
X517779Y55626D01*
X517680Y55686D01*
X517579Y55744D01*
X517476Y55798D01*
X517372Y55849D01*
X517266Y55896D01*
X517159Y55939D01*
X517050Y55979D01*
X516939Y56015D01*
X516828Y56048D01*
X516716Y56076D01*
X516602Y56101D01*
X516488Y56123D01*
X516374Y56140D01*
X516258Y56154D01*
X516143Y56163D01*
X516027Y56169D01*
X515911Y56171D01*
X511282Y56171D01*
X529740Y56171D02*
X529740Y45757D01*
X529742Y45641D01*
X529748Y45525D01*
X529757Y45410D01*
X529771Y45294D01*
X529788Y45180D01*
X529810Y45066D01*
X529835Y44952D01*
X529863Y44840D01*
X529896Y44729D01*
X529932Y44618D01*
X529972Y44509D01*
X530015Y44402D01*
X530062Y44296D01*
X530113Y44192D01*
X530167Y44089D01*
X530225Y43988D01*
X530285Y43889D01*
X530349Y43793D01*
X530417Y43698D01*
X530487Y43606D01*
X530560Y43516D01*
X530637Y43429D01*
X530716Y43344D01*
X530798Y43262D01*
X530883Y43183D01*
X530970Y43106D01*
X531060Y43033D01*
X531152Y42963D01*
X531247Y42895D01*
X531343Y42831D01*
X531442Y42771D01*
X531543Y42713D01*
X531646Y42659D01*
X531750Y42608D01*
X531856Y42561D01*
X531963Y42518D01*
X532072Y42478D01*
X532183Y42442D01*
X532294Y42409D01*
X532406Y42381D01*
X532520Y42356D01*
X532634Y42334D01*
X532748Y42317D01*
X532864Y42303D01*
X532979Y42294D01*
X533095Y42288D01*
X533211Y42286D01*
X538997Y42286D01*
X538997Y56171D01*
X548751Y63114D02*
X548751Y45757D01*
X548753Y45641D01*
X548759Y45525D01*
X548768Y45410D01*
X548782Y45294D01*
X548799Y45180D01*
X548821Y45066D01*
X548846Y44952D01*
X548874Y44840D01*
X548907Y44729D01*
X548943Y44618D01*
X548983Y44509D01*
X549026Y44402D01*
X549073Y44296D01*
X549124Y44192D01*
X549178Y44089D01*
X549236Y43988D01*
X549296Y43889D01*
X549360Y43793D01*
X549428Y43698D01*
X549498Y43606D01*
X549571Y43516D01*
X549648Y43429D01*
X549727Y43344D01*
X549809Y43262D01*
X549894Y43183D01*
X549981Y43106D01*
X550071Y43033D01*
X550163Y42963D01*
X550258Y42895D01*
X550354Y42831D01*
X550453Y42771D01*
X550554Y42713D01*
X550657Y42659D01*
X550761Y42608D01*
X550867Y42561D01*
X550974Y42518D01*
X551083Y42478D01*
X551194Y42442D01*
X551305Y42409D01*
X551417Y42381D01*
X551531Y42356D01*
X551645Y42334D01*
X551759Y42317D01*
X551875Y42303D01*
X551990Y42294D01*
X552106Y42288D01*
X552222Y42286D01*
X560658Y42286D02*
X560658Y63114D01*
X569915Y56171D02*
X560658Y49229D01*
X564708Y52121D02*
X569915Y42286D01*
X577981Y45757D02*
X577981Y63114D01*
X577981Y45757D02*
X577983Y45641D01*
X577989Y45525D01*
X577998Y45410D01*
X578012Y45294D01*
X578029Y45180D01*
X578051Y45066D01*
X578076Y44952D01*
X578104Y44840D01*
X578137Y44729D01*
X578173Y44618D01*
X578213Y44509D01*
X578256Y44402D01*
X578303Y44296D01*
X578354Y44192D01*
X578408Y44089D01*
X578466Y43988D01*
X578526Y43889D01*
X578590Y43793D01*
X578658Y43698D01*
X578728Y43606D01*
X578801Y43516D01*
X578878Y43429D01*
X578957Y43344D01*
X579039Y43262D01*
X579124Y43183D01*
X579211Y43106D01*
X579301Y43033D01*
X579393Y42963D01*
X579488Y42895D01*
X579584Y42831D01*
X579683Y42771D01*
X579784Y42713D01*
X579887Y42659D01*
X579991Y42608D01*
X580097Y42561D01*
X580204Y42518D01*
X580313Y42478D01*
X580424Y42442D01*
X580535Y42409D01*
X580647Y42381D01*
X580761Y42356D01*
X580875Y42334D01*
X580989Y42317D01*
X581105Y42303D01*
X581220Y42294D01*
X581336Y42288D01*
X581452Y42286D01*
X588653Y42286D02*
X588653Y56171D01*
X588075Y61957D02*
X588075Y63114D01*
X589232Y63114D01*
X589232Y61957D01*
X588075Y61957D01*
X597944Y56171D02*
X597944Y42286D01*
X597944Y56171D02*
X603729Y56171D01*
X603845Y56169D01*
X603961Y56163D01*
X604076Y56154D01*
X604192Y56140D01*
X604306Y56123D01*
X604420Y56101D01*
X604534Y56076D01*
X604646Y56048D01*
X604757Y56015D01*
X604868Y55979D01*
X604976Y55939D01*
X605084Y55896D01*
X605190Y55849D01*
X605294Y55798D01*
X605397Y55744D01*
X605498Y55686D01*
X605597Y55626D01*
X605693Y55562D01*
X605788Y55494D01*
X605880Y55424D01*
X605970Y55351D01*
X606057Y55274D01*
X606142Y55195D01*
X606224Y55113D01*
X606303Y55028D01*
X606380Y54941D01*
X606453Y54851D01*
X606523Y54759D01*
X606591Y54664D01*
X606655Y54568D01*
X606715Y54469D01*
X606773Y54368D01*
X606827Y54265D01*
X606878Y54161D01*
X606925Y54055D01*
X606968Y53948D01*
X607008Y53839D01*
X607044Y53728D01*
X607077Y53617D01*
X607105Y53505D01*
X607130Y53391D01*
X607152Y53277D01*
X607169Y53163D01*
X607183Y53047D01*
X607192Y52932D01*
X607198Y52816D01*
X607200Y52700D01*
X607201Y52700D02*
X607201Y42286D01*
X620078Y42286D02*
X625864Y42286D01*
X620078Y42286D02*
X619962Y42288D01*
X619846Y42294D01*
X619731Y42303D01*
X619615Y42317D01*
X619501Y42334D01*
X619387Y42356D01*
X619273Y42381D01*
X619161Y42409D01*
X619050Y42442D01*
X618939Y42478D01*
X618830Y42518D01*
X618723Y42561D01*
X618617Y42608D01*
X618513Y42659D01*
X618410Y42713D01*
X618309Y42771D01*
X618210Y42831D01*
X618114Y42895D01*
X618019Y42963D01*
X617927Y43033D01*
X617837Y43106D01*
X617750Y43183D01*
X617665Y43262D01*
X617583Y43344D01*
X617504Y43429D01*
X617427Y43516D01*
X617354Y43606D01*
X617284Y43698D01*
X617216Y43793D01*
X617152Y43889D01*
X617092Y43988D01*
X617034Y44089D01*
X616980Y44192D01*
X616929Y44296D01*
X616882Y44402D01*
X616839Y44509D01*
X616799Y44618D01*
X616763Y44729D01*
X616730Y44840D01*
X616702Y44952D01*
X616677Y45066D01*
X616655Y45180D01*
X616638Y45294D01*
X616624Y45410D01*
X616615Y45525D01*
X616609Y45641D01*
X616607Y45757D01*
X616607Y52700D01*
X616609Y52816D01*
X616615Y52932D01*
X616624Y53047D01*
X616638Y53163D01*
X616655Y53277D01*
X616677Y53391D01*
X616702Y53505D01*
X616730Y53617D01*
X616763Y53728D01*
X616799Y53839D01*
X616839Y53948D01*
X616882Y54055D01*
X616929Y54161D01*
X616980Y54265D01*
X617034Y54368D01*
X617092Y54469D01*
X617152Y54568D01*
X617216Y54664D01*
X617284Y54759D01*
X617354Y54851D01*
X617427Y54941D01*
X617504Y55028D01*
X617583Y55113D01*
X617665Y55195D01*
X617750Y55274D01*
X617837Y55351D01*
X617927Y55424D01*
X618019Y55494D01*
X618114Y55562D01*
X618210Y55626D01*
X618309Y55686D01*
X618410Y55744D01*
X618513Y55798D01*
X618617Y55849D01*
X618723Y55896D01*
X618830Y55939D01*
X618939Y55979D01*
X619050Y56015D01*
X619161Y56048D01*
X619273Y56076D01*
X619387Y56101D01*
X619501Y56123D01*
X619615Y56140D01*
X619731Y56154D01*
X619846Y56163D01*
X619962Y56169D01*
X620078Y56171D01*
X625864Y56171D01*
X625864Y38815D01*
X625863Y38815D02*
X625861Y38699D01*
X625855Y38583D01*
X625846Y38468D01*
X625832Y38352D01*
X625815Y38238D01*
X625793Y38124D01*
X625768Y38010D01*
X625740Y37898D01*
X625707Y37787D01*
X625671Y37676D01*
X625631Y37568D01*
X625588Y37460D01*
X625541Y37354D01*
X625490Y37250D01*
X625436Y37147D01*
X625378Y37046D01*
X625318Y36947D01*
X625254Y36851D01*
X625186Y36756D01*
X625116Y36664D01*
X625043Y36574D01*
X624966Y36487D01*
X624887Y36402D01*
X624805Y36320D01*
X624720Y36241D01*
X624633Y36164D01*
X624543Y36091D01*
X624451Y36021D01*
X624356Y35953D01*
X624260Y35889D01*
X624161Y35829D01*
X624060Y35771D01*
X623957Y35717D01*
X623853Y35666D01*
X623747Y35619D01*
X623640Y35576D01*
X623531Y35536D01*
X623420Y35500D01*
X623309Y35467D01*
X623197Y35439D01*
X623083Y35414D01*
X622969Y35392D01*
X622855Y35375D01*
X622739Y35361D01*
X622624Y35352D01*
X622508Y35346D01*
X622392Y35344D01*
X622392Y35343D02*
X617764Y35343D01*
X638997Y42286D02*
X644782Y42286D01*
X638997Y42286D02*
X638881Y42288D01*
X638765Y42294D01*
X638650Y42303D01*
X638534Y42317D01*
X638420Y42334D01*
X638306Y42356D01*
X638192Y42381D01*
X638080Y42409D01*
X637969Y42442D01*
X637858Y42478D01*
X637749Y42518D01*
X637642Y42561D01*
X637536Y42608D01*
X637432Y42659D01*
X637329Y42713D01*
X637228Y42771D01*
X637129Y42831D01*
X637033Y42895D01*
X636938Y42963D01*
X636846Y43033D01*
X636756Y43106D01*
X636669Y43183D01*
X636584Y43262D01*
X636502Y43344D01*
X636423Y43429D01*
X636346Y43516D01*
X636273Y43606D01*
X636203Y43698D01*
X636135Y43793D01*
X636071Y43889D01*
X636011Y43988D01*
X635953Y44089D01*
X635899Y44192D01*
X635848Y44296D01*
X635801Y44402D01*
X635758Y44509D01*
X635718Y44618D01*
X635682Y44729D01*
X635649Y44840D01*
X635621Y44952D01*
X635596Y45066D01*
X635574Y45180D01*
X635557Y45294D01*
X635543Y45410D01*
X635534Y45525D01*
X635528Y45641D01*
X635526Y45757D01*
X635526Y51543D01*
X635528Y51678D01*
X635534Y51812D01*
X635544Y51946D01*
X635557Y52080D01*
X635575Y52214D01*
X635596Y52347D01*
X635622Y52479D01*
X635651Y52610D01*
X635684Y52741D01*
X635720Y52870D01*
X635761Y52999D01*
X635805Y53126D01*
X635853Y53252D01*
X635904Y53376D01*
X635960Y53499D01*
X636018Y53620D01*
X636080Y53739D01*
X636146Y53857D01*
X636215Y53973D01*
X636287Y54086D01*
X636363Y54198D01*
X636442Y54307D01*
X636524Y54413D01*
X636609Y54518D01*
X636697Y54620D01*
X636788Y54719D01*
X636882Y54815D01*
X636978Y54909D01*
X637077Y55000D01*
X637179Y55088D01*
X637284Y55173D01*
X637390Y55255D01*
X637499Y55334D01*
X637611Y55410D01*
X637724Y55482D01*
X637840Y55551D01*
X637958Y55617D01*
X638077Y55679D01*
X638198Y55737D01*
X638321Y55793D01*
X638445Y55844D01*
X638571Y55892D01*
X638698Y55936D01*
X638827Y55977D01*
X638956Y56013D01*
X639087Y56046D01*
X639218Y56075D01*
X639350Y56101D01*
X639483Y56122D01*
X639617Y56140D01*
X639751Y56153D01*
X639885Y56163D01*
X640019Y56169D01*
X640154Y56171D01*
X640289Y56169D01*
X640423Y56163D01*
X640557Y56153D01*
X640691Y56140D01*
X640825Y56122D01*
X640958Y56101D01*
X641090Y56075D01*
X641221Y56046D01*
X641352Y56013D01*
X641481Y55977D01*
X641610Y55936D01*
X641737Y55892D01*
X641863Y55844D01*
X641987Y55793D01*
X642110Y55737D01*
X642231Y55679D01*
X642350Y55617D01*
X642468Y55551D01*
X642584Y55482D01*
X642697Y55410D01*
X642809Y55334D01*
X642918Y55255D01*
X643024Y55173D01*
X643129Y55088D01*
X643231Y55000D01*
X643330Y54909D01*
X643426Y54815D01*
X643520Y54719D01*
X643611Y54620D01*
X643699Y54518D01*
X643784Y54413D01*
X643866Y54307D01*
X643945Y54198D01*
X644021Y54086D01*
X644093Y53973D01*
X644162Y53857D01*
X644228Y53739D01*
X644290Y53620D01*
X644348Y53499D01*
X644404Y53376D01*
X644455Y53252D01*
X644503Y53126D01*
X644547Y52999D01*
X644588Y52870D01*
X644624Y52741D01*
X644657Y52610D01*
X644686Y52479D01*
X644712Y52347D01*
X644733Y52214D01*
X644751Y52080D01*
X644764Y51946D01*
X644774Y51812D01*
X644780Y51678D01*
X644782Y51543D01*
X644782Y49229D01*
X635526Y49229D01*
X654477Y42286D02*
X654477Y56171D01*
X661419Y56171D01*
X661419Y53857D01*
X667414Y43443D02*
X667414Y42286D01*
X667414Y43443D02*
X668571Y43443D01*
X668571Y42286D01*
X667414Y42286D01*
X680095Y42286D02*
X684723Y42286D01*
X680095Y42286D02*
X679979Y42288D01*
X679863Y42294D01*
X679748Y42303D01*
X679632Y42317D01*
X679518Y42334D01*
X679404Y42356D01*
X679290Y42381D01*
X679178Y42409D01*
X679067Y42442D01*
X678956Y42478D01*
X678847Y42518D01*
X678740Y42561D01*
X678634Y42608D01*
X678530Y42659D01*
X678427Y42713D01*
X678326Y42771D01*
X678227Y42831D01*
X678131Y42895D01*
X678036Y42963D01*
X677944Y43033D01*
X677854Y43106D01*
X677767Y43183D01*
X677682Y43262D01*
X677600Y43344D01*
X677521Y43429D01*
X677444Y43516D01*
X677371Y43606D01*
X677301Y43698D01*
X677233Y43793D01*
X677169Y43889D01*
X677109Y43988D01*
X677051Y44089D01*
X676997Y44192D01*
X676946Y44296D01*
X676899Y44402D01*
X676856Y44509D01*
X676816Y44618D01*
X676780Y44729D01*
X676747Y44840D01*
X676719Y44952D01*
X676694Y45066D01*
X676672Y45180D01*
X676655Y45294D01*
X676641Y45410D01*
X676632Y45525D01*
X676626Y45641D01*
X676624Y45757D01*
X676623Y45757D02*
X676623Y52700D01*
X676624Y52700D02*
X676626Y52816D01*
X676632Y52932D01*
X676641Y53047D01*
X676655Y53163D01*
X676672Y53277D01*
X676694Y53391D01*
X676719Y53505D01*
X676747Y53617D01*
X676780Y53728D01*
X676816Y53839D01*
X676856Y53948D01*
X676899Y54055D01*
X676946Y54161D01*
X676997Y54265D01*
X677051Y54368D01*
X677109Y54469D01*
X677169Y54568D01*
X677233Y54664D01*
X677301Y54759D01*
X677371Y54851D01*
X677444Y54941D01*
X677521Y55028D01*
X677600Y55113D01*
X677682Y55195D01*
X677767Y55274D01*
X677854Y55351D01*
X677944Y55424D01*
X678036Y55494D01*
X678131Y55562D01*
X678227Y55626D01*
X678326Y55686D01*
X678427Y55744D01*
X678530Y55798D01*
X678634Y55849D01*
X678740Y55896D01*
X678847Y55939D01*
X678956Y55979D01*
X679067Y56015D01*
X679178Y56048D01*
X679290Y56076D01*
X679404Y56101D01*
X679518Y56123D01*
X679632Y56140D01*
X679748Y56154D01*
X679863Y56163D01*
X679979Y56169D01*
X680095Y56171D01*
X684723Y56171D01*
X692594Y51543D02*
X692594Y46914D01*
X692595Y51543D02*
X692597Y51678D01*
X692603Y51812D01*
X692613Y51946D01*
X692626Y52080D01*
X692644Y52214D01*
X692665Y52347D01*
X692691Y52479D01*
X692720Y52610D01*
X692753Y52741D01*
X692789Y52870D01*
X692830Y52999D01*
X692874Y53126D01*
X692922Y53252D01*
X692973Y53376D01*
X693029Y53499D01*
X693087Y53620D01*
X693149Y53739D01*
X693215Y53857D01*
X693284Y53973D01*
X693356Y54086D01*
X693432Y54198D01*
X693511Y54307D01*
X693593Y54413D01*
X693678Y54518D01*
X693766Y54620D01*
X693857Y54719D01*
X693951Y54815D01*
X694047Y54909D01*
X694146Y55000D01*
X694248Y55088D01*
X694353Y55173D01*
X694459Y55255D01*
X694568Y55334D01*
X694680Y55410D01*
X694793Y55482D01*
X694909Y55551D01*
X695027Y55617D01*
X695146Y55679D01*
X695267Y55737D01*
X695390Y55793D01*
X695514Y55844D01*
X695640Y55892D01*
X695767Y55936D01*
X695896Y55977D01*
X696025Y56013D01*
X696156Y56046D01*
X696287Y56075D01*
X696419Y56101D01*
X696552Y56122D01*
X696686Y56140D01*
X696820Y56153D01*
X696954Y56163D01*
X697088Y56169D01*
X697223Y56171D01*
X697358Y56169D01*
X697492Y56163D01*
X697626Y56153D01*
X697760Y56140D01*
X697894Y56122D01*
X698027Y56101D01*
X698159Y56075D01*
X698290Y56046D01*
X698421Y56013D01*
X698550Y55977D01*
X698679Y55936D01*
X698806Y55892D01*
X698932Y55844D01*
X699056Y55793D01*
X699179Y55737D01*
X699300Y55679D01*
X699419Y55617D01*
X699537Y55551D01*
X699653Y55482D01*
X699766Y55410D01*
X699878Y55334D01*
X699987Y55255D01*
X700093Y55173D01*
X700198Y55088D01*
X700300Y55000D01*
X700399Y54909D01*
X700495Y54815D01*
X700589Y54719D01*
X700680Y54620D01*
X700768Y54518D01*
X700853Y54413D01*
X700935Y54307D01*
X701014Y54198D01*
X701090Y54086D01*
X701162Y53973D01*
X701231Y53857D01*
X701297Y53739D01*
X701359Y53620D01*
X701417Y53499D01*
X701473Y53376D01*
X701524Y53252D01*
X701572Y53126D01*
X701616Y52999D01*
X701657Y52870D01*
X701693Y52741D01*
X701726Y52610D01*
X701755Y52479D01*
X701781Y52347D01*
X701802Y52214D01*
X701820Y52080D01*
X701833Y51946D01*
X701843Y51812D01*
X701849Y51678D01*
X701851Y51543D01*
X701851Y46914D01*
X701849Y46779D01*
X701843Y46645D01*
X701833Y46511D01*
X701820Y46377D01*
X701802Y46243D01*
X701781Y46110D01*
X701755Y45978D01*
X701726Y45847D01*
X701693Y45716D01*
X701657Y45587D01*
X701616Y45458D01*
X701572Y45331D01*
X701524Y45205D01*
X701473Y45081D01*
X701417Y44958D01*
X701359Y44837D01*
X701297Y44718D01*
X701231Y44600D01*
X701162Y44484D01*
X701090Y44371D01*
X701014Y44259D01*
X700935Y44150D01*
X700853Y44044D01*
X700768Y43939D01*
X700680Y43837D01*
X700589Y43738D01*
X700495Y43642D01*
X700399Y43548D01*
X700300Y43457D01*
X700198Y43369D01*
X700093Y43284D01*
X699987Y43202D01*
X699878Y43123D01*
X699766Y43047D01*
X699653Y42975D01*
X699537Y42906D01*
X699419Y42840D01*
X699300Y42778D01*
X699179Y42720D01*
X699056Y42664D01*
X698932Y42613D01*
X698806Y42565D01*
X698679Y42521D01*
X698550Y42480D01*
X698421Y42444D01*
X698290Y42411D01*
X698159Y42382D01*
X698027Y42356D01*
X697894Y42335D01*
X697760Y42317D01*
X697626Y42304D01*
X697492Y42294D01*
X697358Y42288D01*
X697223Y42286D01*
X697088Y42288D01*
X696954Y42294D01*
X696820Y42304D01*
X696686Y42317D01*
X696552Y42335D01*
X696419Y42356D01*
X696287Y42382D01*
X696156Y42411D01*
X696025Y42444D01*
X695896Y42480D01*
X695767Y42521D01*
X695640Y42565D01*
X695514Y42613D01*
X695390Y42664D01*
X695267Y42720D01*
X695146Y42778D01*
X695027Y42840D01*
X694909Y42906D01*
X694793Y42975D01*
X694680Y43047D01*
X694568Y43123D01*
X694459Y43202D01*
X694353Y43284D01*
X694248Y43369D01*
X694146Y43457D01*
X694047Y43548D01*
X693951Y43642D01*
X693857Y43738D01*
X693766Y43837D01*
X693678Y43939D01*
X693593Y44044D01*
X693511Y44150D01*
X693432Y44259D01*
X693356Y44371D01*
X693284Y44484D01*
X693215Y44600D01*
X693149Y44718D01*
X693087Y44837D01*
X693029Y44958D01*
X692973Y45081D01*
X692922Y45205D01*
X692874Y45331D01*
X692830Y45458D01*
X692789Y45587D01*
X692753Y45716D01*
X692720Y45847D01*
X692691Y45978D01*
X692665Y46110D01*
X692644Y46243D01*
X692626Y46377D01*
X692613Y46511D01*
X692603Y46645D01*
X692597Y46779D01*
X692595Y46914D01*
X711855Y42286D02*
X711855Y56171D01*
X722269Y56171D01*
X722385Y56169D01*
X722501Y56163D01*
X722616Y56154D01*
X722732Y56140D01*
X722846Y56123D01*
X722960Y56101D01*
X723074Y56076D01*
X723186Y56048D01*
X723297Y56015D01*
X723408Y55979D01*
X723517Y55939D01*
X723624Y55896D01*
X723730Y55849D01*
X723834Y55798D01*
X723937Y55744D01*
X724038Y55686D01*
X724137Y55626D01*
X724233Y55562D01*
X724328Y55494D01*
X724420Y55424D01*
X724510Y55351D01*
X724597Y55274D01*
X724682Y55195D01*
X724764Y55113D01*
X724843Y55028D01*
X724920Y54941D01*
X724993Y54851D01*
X725063Y54759D01*
X725131Y54664D01*
X725195Y54568D01*
X725255Y54469D01*
X725313Y54368D01*
X725367Y54265D01*
X725418Y54161D01*
X725465Y54055D01*
X725508Y53948D01*
X725548Y53839D01*
X725584Y53728D01*
X725617Y53617D01*
X725645Y53505D01*
X725670Y53391D01*
X725692Y53277D01*
X725709Y53163D01*
X725723Y53047D01*
X725732Y52932D01*
X725738Y52816D01*
X725740Y52700D01*
X725740Y42286D01*
X718797Y42286D02*
X718797Y56171D01*
X32286Y63114D02*
X32286Y42286D01*
X32286Y63114D02*
X38072Y63114D01*
X38223Y63112D01*
X38375Y63106D01*
X38526Y63096D01*
X38677Y63082D01*
X38827Y63064D01*
X38977Y63043D01*
X39126Y63017D01*
X39275Y62988D01*
X39423Y62954D01*
X39570Y62917D01*
X39715Y62876D01*
X39860Y62831D01*
X40003Y62782D01*
X40146Y62730D01*
X40286Y62674D01*
X40425Y62614D01*
X40563Y62550D01*
X40699Y62483D01*
X40833Y62413D01*
X40965Y62339D01*
X41095Y62261D01*
X41223Y62181D01*
X41349Y62096D01*
X41473Y62009D01*
X41594Y61918D01*
X41713Y61825D01*
X41830Y61728D01*
X41944Y61628D01*
X42055Y61525D01*
X42163Y61419D01*
X42269Y61311D01*
X42372Y61200D01*
X42472Y61086D01*
X42569Y60969D01*
X42662Y60850D01*
X42753Y60729D01*
X42840Y60605D01*
X42925Y60479D01*
X43005Y60351D01*
X43083Y60221D01*
X43157Y60089D01*
X43227Y59955D01*
X43294Y59819D01*
X43358Y59681D01*
X43418Y59542D01*
X43474Y59402D01*
X43526Y59259D01*
X43575Y59116D01*
X43620Y58971D01*
X43661Y58826D01*
X43698Y58679D01*
X43732Y58531D01*
X43761Y58382D01*
X43787Y58233D01*
X43808Y58083D01*
X43826Y57933D01*
X43840Y57782D01*
X43850Y57631D01*
X43856Y57479D01*
X43858Y57328D01*
X43857Y57328D02*
X43857Y48072D01*
X43858Y48072D02*
X43856Y47921D01*
X43850Y47769D01*
X43840Y47618D01*
X43826Y47467D01*
X43808Y47317D01*
X43787Y47167D01*
X43761Y47018D01*
X43732Y46869D01*
X43698Y46721D01*
X43661Y46574D01*
X43620Y46429D01*
X43575Y46284D01*
X43526Y46141D01*
X43474Y45998D01*
X43418Y45858D01*
X43358Y45719D01*
X43294Y45581D01*
X43227Y45445D01*
X43157Y45311D01*
X43083Y45179D01*
X43005Y45049D01*
X42925Y44921D01*
X42840Y44795D01*
X42753Y44671D01*
X42662Y44550D01*
X42569Y44431D01*
X42472Y44314D01*
X42372Y44200D01*
X42269Y44089D01*
X42163Y43981D01*
X42055Y43875D01*
X41944Y43772D01*
X41830Y43672D01*
X41713Y43575D01*
X41594Y43482D01*
X41473Y43391D01*
X41349Y43304D01*
X41223Y43219D01*
X41095Y43139D01*
X40965Y43061D01*
X40833Y42987D01*
X40699Y42917D01*
X40563Y42850D01*
X40425Y42786D01*
X40286Y42726D01*
X40145Y42670D01*
X40003Y42618D01*
X39860Y42569D01*
X39715Y42524D01*
X39570Y42483D01*
X39423Y42446D01*
X39275Y42412D01*
X39126Y42383D01*
X38977Y42357D01*
X38827Y42335D01*
X38677Y42318D01*
X38526Y42304D01*
X38375Y42294D01*
X38223Y42288D01*
X38072Y42286D01*
X32286Y42286D01*
X57548Y50386D02*
X62755Y50386D01*
X57548Y50386D02*
X57422Y50384D01*
X57296Y50378D01*
X57171Y50368D01*
X57045Y50355D01*
X56921Y50337D01*
X56797Y50316D01*
X56673Y50290D01*
X56551Y50261D01*
X56429Y50228D01*
X56308Y50192D01*
X56189Y50151D01*
X56071Y50107D01*
X55955Y50059D01*
X55840Y50008D01*
X55726Y49953D01*
X55615Y49895D01*
X55505Y49833D01*
X55397Y49768D01*
X55291Y49699D01*
X55188Y49627D01*
X55087Y49552D01*
X54988Y49474D01*
X54891Y49393D01*
X54798Y49309D01*
X54707Y49222D01*
X54618Y49132D01*
X54533Y49040D01*
X54450Y48945D01*
X54370Y48847D01*
X54294Y48747D01*
X54220Y48645D01*
X54150Y48540D01*
X54083Y48433D01*
X54020Y48325D01*
X53960Y48214D01*
X53903Y48101D01*
X53850Y47987D01*
X53800Y47871D01*
X53754Y47754D01*
X53712Y47635D01*
X53674Y47515D01*
X53639Y47394D01*
X53608Y47272D01*
X53580Y47149D01*
X53557Y47025D01*
X53538Y46901D01*
X53522Y46776D01*
X53510Y46651D01*
X53502Y46525D01*
X53498Y46399D01*
X53498Y46273D01*
X53502Y46147D01*
X53510Y46021D01*
X53522Y45896D01*
X53538Y45771D01*
X53557Y45647D01*
X53580Y45523D01*
X53608Y45400D01*
X53639Y45278D01*
X53674Y45157D01*
X53712Y45037D01*
X53754Y44918D01*
X53800Y44801D01*
X53850Y44685D01*
X53903Y44571D01*
X53960Y44458D01*
X54020Y44347D01*
X54083Y44239D01*
X54150Y44132D01*
X54220Y44027D01*
X54294Y43925D01*
X54370Y43825D01*
X54450Y43727D01*
X54533Y43632D01*
X54618Y43540D01*
X54707Y43450D01*
X54798Y43363D01*
X54891Y43279D01*
X54988Y43198D01*
X55087Y43120D01*
X55188Y43045D01*
X55291Y42973D01*
X55397Y42904D01*
X55505Y42839D01*
X55615Y42777D01*
X55726Y42719D01*
X55840Y42664D01*
X55955Y42613D01*
X56071Y42565D01*
X56189Y42521D01*
X56308Y42480D01*
X56429Y42444D01*
X56551Y42411D01*
X56673Y42382D01*
X56797Y42356D01*
X56921Y42335D01*
X57045Y42317D01*
X57171Y42304D01*
X57296Y42294D01*
X57422Y42288D01*
X57548Y42286D01*
X62755Y42286D01*
X62755Y52700D01*
X62753Y52816D01*
X62747Y52932D01*
X62738Y53047D01*
X62724Y53163D01*
X62707Y53277D01*
X62685Y53391D01*
X62660Y53505D01*
X62632Y53617D01*
X62599Y53728D01*
X62563Y53839D01*
X62523Y53948D01*
X62480Y54055D01*
X62433Y54161D01*
X62382Y54265D01*
X62328Y54368D01*
X62270Y54469D01*
X62210Y54568D01*
X62146Y54664D01*
X62078Y54759D01*
X62008Y54851D01*
X61935Y54941D01*
X61858Y55028D01*
X61779Y55113D01*
X61697Y55195D01*
X61612Y55274D01*
X61525Y55351D01*
X61435Y55424D01*
X61343Y55494D01*
X61248Y55562D01*
X61152Y55626D01*
X61053Y55686D01*
X60952Y55744D01*
X60849Y55798D01*
X60745Y55849D01*
X60639Y55896D01*
X60532Y55939D01*
X60423Y55979D01*
X60312Y56015D01*
X60201Y56048D01*
X60089Y56076D01*
X59975Y56101D01*
X59861Y56123D01*
X59747Y56140D01*
X59631Y56154D01*
X59516Y56163D01*
X59400Y56169D01*
X59284Y56171D01*
X54655Y56171D01*
X70580Y56171D02*
X77522Y56171D01*
X72894Y63114D02*
X72894Y45757D01*
X72896Y45641D01*
X72902Y45525D01*
X72911Y45410D01*
X72925Y45294D01*
X72942Y45180D01*
X72964Y45066D01*
X72989Y44952D01*
X73017Y44840D01*
X73050Y44729D01*
X73086Y44618D01*
X73126Y44509D01*
X73169Y44402D01*
X73216Y44296D01*
X73267Y44192D01*
X73321Y44089D01*
X73379Y43988D01*
X73439Y43889D01*
X73503Y43793D01*
X73571Y43698D01*
X73641Y43606D01*
X73714Y43516D01*
X73791Y43429D01*
X73870Y43344D01*
X73952Y43262D01*
X74037Y43183D01*
X74124Y43106D01*
X74214Y43033D01*
X74306Y42963D01*
X74401Y42895D01*
X74497Y42831D01*
X74596Y42771D01*
X74697Y42713D01*
X74800Y42659D01*
X74904Y42608D01*
X75010Y42561D01*
X75117Y42518D01*
X75226Y42478D01*
X75337Y42442D01*
X75448Y42409D01*
X75560Y42381D01*
X75674Y42356D01*
X75788Y42334D01*
X75902Y42317D01*
X76018Y42303D01*
X76133Y42294D01*
X76249Y42288D01*
X76365Y42286D01*
X77522Y42286D01*
X89562Y50386D02*
X94769Y50386D01*
X89562Y50386D02*
X89436Y50384D01*
X89310Y50378D01*
X89185Y50368D01*
X89059Y50355D01*
X88935Y50337D01*
X88811Y50316D01*
X88687Y50290D01*
X88565Y50261D01*
X88443Y50228D01*
X88322Y50192D01*
X88203Y50151D01*
X88085Y50107D01*
X87969Y50059D01*
X87854Y50008D01*
X87740Y49953D01*
X87629Y49895D01*
X87519Y49833D01*
X87411Y49768D01*
X87305Y49699D01*
X87202Y49627D01*
X87101Y49552D01*
X87002Y49474D01*
X86905Y49393D01*
X86812Y49309D01*
X86721Y49222D01*
X86632Y49132D01*
X86547Y49040D01*
X86464Y48945D01*
X86384Y48847D01*
X86308Y48747D01*
X86234Y48645D01*
X86164Y48540D01*
X86097Y48433D01*
X86034Y48325D01*
X85974Y48214D01*
X85917Y48101D01*
X85864Y47987D01*
X85814Y47871D01*
X85768Y47754D01*
X85726Y47635D01*
X85688Y47515D01*
X85653Y47394D01*
X85622Y47272D01*
X85594Y47149D01*
X85571Y47025D01*
X85552Y46901D01*
X85536Y46776D01*
X85524Y46651D01*
X85516Y46525D01*
X85512Y46399D01*
X85512Y46273D01*
X85516Y46147D01*
X85524Y46021D01*
X85536Y45896D01*
X85552Y45771D01*
X85571Y45647D01*
X85594Y45523D01*
X85622Y45400D01*
X85653Y45278D01*
X85688Y45157D01*
X85726Y45037D01*
X85768Y44918D01*
X85814Y44801D01*
X85864Y44685D01*
X85917Y44571D01*
X85974Y44458D01*
X86034Y44347D01*
X86097Y44239D01*
X86164Y44132D01*
X86234Y44027D01*
X86308Y43925D01*
X86384Y43825D01*
X86464Y43727D01*
X86547Y43632D01*
X86632Y43540D01*
X86721Y43450D01*
X86812Y43363D01*
X86905Y43279D01*
X87002Y43198D01*
X87101Y43120D01*
X87202Y43045D01*
X87305Y42973D01*
X87411Y42904D01*
X87519Y42839D01*
X87629Y42777D01*
X87740Y42719D01*
X87854Y42664D01*
X87969Y42613D01*
X88085Y42565D01*
X88203Y42521D01*
X88322Y42480D01*
X88443Y42444D01*
X88565Y42411D01*
X88687Y42382D01*
X88811Y42356D01*
X88935Y42335D01*
X89059Y42317D01*
X89185Y42304D01*
X89310Y42294D01*
X89436Y42288D01*
X89562Y42286D01*
X94769Y42286D01*
X94769Y52700D01*
X94767Y52816D01*
X94761Y52932D01*
X94752Y53047D01*
X94738Y53163D01*
X94721Y53277D01*
X94699Y53391D01*
X94674Y53505D01*
X94646Y53617D01*
X94613Y53728D01*
X94577Y53839D01*
X94537Y53948D01*
X94494Y54055D01*
X94447Y54161D01*
X94396Y54265D01*
X94342Y54368D01*
X94284Y54469D01*
X94224Y54568D01*
X94160Y54664D01*
X94092Y54759D01*
X94022Y54851D01*
X93949Y54941D01*
X93872Y55028D01*
X93793Y55113D01*
X93711Y55195D01*
X93626Y55274D01*
X93539Y55351D01*
X93449Y55424D01*
X93357Y55494D01*
X93262Y55562D01*
X93166Y55626D01*
X93067Y55686D01*
X92966Y55744D01*
X92863Y55798D01*
X92759Y55849D01*
X92653Y55896D01*
X92546Y55939D01*
X92437Y55979D01*
X92326Y56015D01*
X92215Y56048D01*
X92103Y56076D01*
X91989Y56101D01*
X91875Y56123D01*
X91761Y56140D01*
X91645Y56154D01*
X91530Y56163D01*
X91414Y56169D01*
X91298Y56171D01*
X86669Y56171D01*
X122048Y42286D02*
X122183Y42288D01*
X122317Y42294D01*
X122451Y42304D01*
X122585Y42317D01*
X122719Y42335D01*
X122852Y42356D01*
X122984Y42382D01*
X123115Y42411D01*
X123246Y42444D01*
X123375Y42480D01*
X123504Y42521D01*
X123631Y42565D01*
X123757Y42613D01*
X123881Y42664D01*
X124004Y42720D01*
X124125Y42778D01*
X124244Y42840D01*
X124362Y42906D01*
X124478Y42975D01*
X124591Y43047D01*
X124703Y43123D01*
X124812Y43202D01*
X124918Y43284D01*
X125023Y43369D01*
X125125Y43457D01*
X125224Y43548D01*
X125320Y43642D01*
X125414Y43738D01*
X125505Y43837D01*
X125593Y43939D01*
X125678Y44044D01*
X125760Y44150D01*
X125839Y44259D01*
X125915Y44371D01*
X125987Y44484D01*
X126056Y44600D01*
X126122Y44718D01*
X126184Y44837D01*
X126242Y44958D01*
X126298Y45081D01*
X126349Y45205D01*
X126397Y45331D01*
X126441Y45458D01*
X126482Y45587D01*
X126518Y45716D01*
X126551Y45847D01*
X126580Y45978D01*
X126606Y46110D01*
X126627Y46243D01*
X126645Y46377D01*
X126658Y46511D01*
X126668Y46645D01*
X126674Y46779D01*
X126676Y46914D01*
X122048Y42286D02*
X121814Y42289D01*
X121580Y42297D01*
X121347Y42311D01*
X121114Y42331D01*
X120881Y42356D01*
X120649Y42387D01*
X120418Y42423D01*
X120188Y42465D01*
X119959Y42512D01*
X119731Y42565D01*
X119504Y42623D01*
X119279Y42686D01*
X119055Y42755D01*
X118834Y42829D01*
X118614Y42909D01*
X118396Y42994D01*
X118180Y43084D01*
X117966Y43179D01*
X117754Y43279D01*
X117545Y43384D01*
X117339Y43495D01*
X117135Y43610D01*
X116935Y43730D01*
X116737Y43854D01*
X116542Y43984D01*
X116350Y44118D01*
X116162Y44256D01*
X115976Y44399D01*
X115795Y44547D01*
X115617Y44699D01*
X115442Y44855D01*
X115272Y45015D01*
X115105Y45179D01*
X115684Y58486D02*
X115686Y58621D01*
X115692Y58755D01*
X115702Y58889D01*
X115715Y59023D01*
X115733Y59157D01*
X115754Y59290D01*
X115780Y59422D01*
X115809Y59553D01*
X115842Y59684D01*
X115878Y59813D01*
X115919Y59942D01*
X115963Y60069D01*
X116011Y60195D01*
X116062Y60319D01*
X116118Y60442D01*
X116176Y60563D01*
X116238Y60682D01*
X116304Y60800D01*
X116373Y60916D01*
X116445Y61029D01*
X116521Y61141D01*
X116600Y61250D01*
X116682Y61356D01*
X116767Y61461D01*
X116855Y61563D01*
X116946Y61662D01*
X117040Y61759D01*
X117136Y61852D01*
X117235Y61943D01*
X117337Y62031D01*
X117442Y62116D01*
X117548Y62198D01*
X117658Y62277D01*
X117769Y62353D01*
X117882Y62425D01*
X117998Y62494D01*
X118116Y62560D01*
X118235Y62622D01*
X118356Y62680D01*
X118479Y62736D01*
X118603Y62787D01*
X118729Y62835D01*
X118856Y62879D01*
X118985Y62920D01*
X119114Y62956D01*
X119245Y62989D01*
X119376Y63018D01*
X119508Y63044D01*
X119641Y63065D01*
X119775Y63083D01*
X119909Y63096D01*
X120043Y63106D01*
X120177Y63112D01*
X120312Y63114D01*
X120519Y63112D01*
X120726Y63104D01*
X120932Y63092D01*
X121138Y63075D01*
X121344Y63052D01*
X121549Y63025D01*
X121753Y62994D01*
X121957Y62957D01*
X122159Y62915D01*
X122361Y62869D01*
X122561Y62817D01*
X122760Y62761D01*
X122958Y62701D01*
X123154Y62635D01*
X123349Y62565D01*
X123542Y62491D01*
X123733Y62411D01*
X123922Y62328D01*
X124109Y62239D01*
X124294Y62147D01*
X124476Y62050D01*
X124657Y61948D01*
X124834Y61843D01*
X125010Y61733D01*
X125182Y61619D01*
X125352Y61501D01*
X125519Y61378D01*
X117997Y54436D02*
X117882Y54506D01*
X117768Y54580D01*
X117656Y54657D01*
X117547Y54738D01*
X117440Y54821D01*
X117336Y54907D01*
X117234Y54997D01*
X117134Y55089D01*
X117038Y55184D01*
X116944Y55282D01*
X116853Y55383D01*
X116765Y55486D01*
X116680Y55591D01*
X116598Y55699D01*
X116519Y55810D01*
X116444Y55922D01*
X116371Y56037D01*
X116302Y56154D01*
X116237Y56272D01*
X116175Y56393D01*
X116116Y56515D01*
X116061Y56639D01*
X116010Y56764D01*
X115962Y56891D01*
X115918Y57019D01*
X115877Y57149D01*
X115840Y57279D01*
X115808Y57411D01*
X115778Y57543D01*
X115753Y57677D01*
X115732Y57810D01*
X115714Y57945D01*
X115701Y58080D01*
X115691Y58215D01*
X115685Y58350D01*
X115683Y58486D01*
X124362Y50964D02*
X124477Y50894D01*
X124591Y50820D01*
X124703Y50743D01*
X124812Y50662D01*
X124919Y50579D01*
X125023Y50493D01*
X125125Y50403D01*
X125225Y50311D01*
X125321Y50216D01*
X125415Y50118D01*
X125506Y50017D01*
X125594Y49914D01*
X125679Y49809D01*
X125761Y49701D01*
X125840Y49590D01*
X125915Y49478D01*
X125988Y49363D01*
X126057Y49246D01*
X126122Y49128D01*
X126184Y49007D01*
X126243Y48885D01*
X126298Y48761D01*
X126349Y48636D01*
X126397Y48509D01*
X126441Y48381D01*
X126482Y48251D01*
X126519Y48121D01*
X126551Y47989D01*
X126581Y47857D01*
X126606Y47723D01*
X126627Y47590D01*
X126645Y47455D01*
X126658Y47320D01*
X126668Y47185D01*
X126674Y47050D01*
X126676Y46914D01*
X124362Y50964D02*
X117998Y54436D01*
X138561Y42286D02*
X143189Y42286D01*
X138561Y42286D02*
X138445Y42288D01*
X138329Y42294D01*
X138214Y42303D01*
X138098Y42317D01*
X137984Y42334D01*
X137870Y42356D01*
X137756Y42381D01*
X137644Y42409D01*
X137533Y42442D01*
X137422Y42478D01*
X137313Y42518D01*
X137206Y42561D01*
X137100Y42608D01*
X136996Y42659D01*
X136893Y42713D01*
X136792Y42771D01*
X136693Y42831D01*
X136597Y42895D01*
X136502Y42963D01*
X136410Y43033D01*
X136320Y43106D01*
X136233Y43183D01*
X136148Y43262D01*
X136066Y43344D01*
X135987Y43429D01*
X135910Y43516D01*
X135837Y43606D01*
X135767Y43698D01*
X135699Y43793D01*
X135635Y43889D01*
X135575Y43988D01*
X135517Y44089D01*
X135463Y44192D01*
X135412Y44296D01*
X135365Y44402D01*
X135322Y44509D01*
X135282Y44618D01*
X135246Y44729D01*
X135213Y44840D01*
X135185Y44952D01*
X135160Y45066D01*
X135138Y45180D01*
X135121Y45294D01*
X135107Y45410D01*
X135098Y45525D01*
X135092Y45641D01*
X135090Y45757D01*
X135089Y45757D02*
X135089Y52700D01*
X135090Y52700D02*
X135092Y52816D01*
X135098Y52932D01*
X135107Y53047D01*
X135121Y53163D01*
X135138Y53277D01*
X135160Y53391D01*
X135185Y53505D01*
X135213Y53617D01*
X135246Y53728D01*
X135282Y53839D01*
X135322Y53948D01*
X135365Y54055D01*
X135412Y54161D01*
X135463Y54265D01*
X135517Y54368D01*
X135575Y54469D01*
X135635Y54568D01*
X135699Y54664D01*
X135767Y54759D01*
X135837Y54851D01*
X135910Y54941D01*
X135987Y55028D01*
X136066Y55113D01*
X136148Y55195D01*
X136233Y55274D01*
X136320Y55351D01*
X136410Y55424D01*
X136502Y55494D01*
X136597Y55562D01*
X136693Y55626D01*
X136792Y55686D01*
X136893Y55744D01*
X136996Y55798D01*
X137100Y55849D01*
X137206Y55896D01*
X137313Y55939D01*
X137422Y55979D01*
X137533Y56015D01*
X137644Y56048D01*
X137756Y56076D01*
X137870Y56101D01*
X137984Y56123D01*
X138098Y56140D01*
X138214Y56154D01*
X138329Y56163D01*
X138445Y56169D01*
X138561Y56171D01*
X143189Y56171D01*
X150817Y56171D02*
X150817Y42286D01*
X150238Y61957D02*
X150238Y63114D01*
X151395Y63114D01*
X151395Y61957D01*
X150238Y61957D01*
X162883Y42286D02*
X168668Y42286D01*
X162883Y42286D02*
X162767Y42288D01*
X162651Y42294D01*
X162536Y42303D01*
X162420Y42317D01*
X162306Y42334D01*
X162192Y42356D01*
X162078Y42381D01*
X161966Y42409D01*
X161855Y42442D01*
X161744Y42478D01*
X161635Y42518D01*
X161528Y42561D01*
X161422Y42608D01*
X161318Y42659D01*
X161215Y42713D01*
X161114Y42771D01*
X161015Y42831D01*
X160919Y42895D01*
X160824Y42963D01*
X160732Y43033D01*
X160642Y43106D01*
X160555Y43183D01*
X160470Y43262D01*
X160388Y43344D01*
X160309Y43429D01*
X160232Y43516D01*
X160159Y43606D01*
X160089Y43698D01*
X160021Y43793D01*
X159957Y43889D01*
X159897Y43988D01*
X159839Y44089D01*
X159785Y44192D01*
X159734Y44296D01*
X159687Y44402D01*
X159644Y44509D01*
X159604Y44618D01*
X159568Y44729D01*
X159535Y44840D01*
X159507Y44952D01*
X159482Y45066D01*
X159460Y45180D01*
X159443Y45294D01*
X159429Y45410D01*
X159420Y45525D01*
X159414Y45641D01*
X159412Y45757D01*
X159412Y51543D01*
X159414Y51678D01*
X159420Y51812D01*
X159430Y51946D01*
X159443Y52080D01*
X159461Y52214D01*
X159482Y52347D01*
X159508Y52479D01*
X159537Y52610D01*
X159570Y52741D01*
X159606Y52870D01*
X159647Y52999D01*
X159691Y53126D01*
X159739Y53252D01*
X159790Y53376D01*
X159846Y53499D01*
X159904Y53620D01*
X159966Y53739D01*
X160032Y53857D01*
X160101Y53973D01*
X160173Y54086D01*
X160249Y54198D01*
X160328Y54307D01*
X160410Y54413D01*
X160495Y54518D01*
X160583Y54620D01*
X160674Y54719D01*
X160768Y54815D01*
X160864Y54909D01*
X160963Y55000D01*
X161065Y55088D01*
X161170Y55173D01*
X161276Y55255D01*
X161385Y55334D01*
X161497Y55410D01*
X161610Y55482D01*
X161726Y55551D01*
X161844Y55617D01*
X161963Y55679D01*
X162084Y55737D01*
X162207Y55793D01*
X162331Y55844D01*
X162457Y55892D01*
X162584Y55936D01*
X162713Y55977D01*
X162842Y56013D01*
X162973Y56046D01*
X163104Y56075D01*
X163236Y56101D01*
X163369Y56122D01*
X163503Y56140D01*
X163637Y56153D01*
X163771Y56163D01*
X163905Y56169D01*
X164040Y56171D01*
X164175Y56169D01*
X164309Y56163D01*
X164443Y56153D01*
X164577Y56140D01*
X164711Y56122D01*
X164844Y56101D01*
X164976Y56075D01*
X165107Y56046D01*
X165238Y56013D01*
X165367Y55977D01*
X165496Y55936D01*
X165623Y55892D01*
X165749Y55844D01*
X165873Y55793D01*
X165996Y55737D01*
X166117Y55679D01*
X166236Y55617D01*
X166354Y55551D01*
X166470Y55482D01*
X166583Y55410D01*
X166695Y55334D01*
X166804Y55255D01*
X166910Y55173D01*
X167015Y55088D01*
X167117Y55000D01*
X167216Y54909D01*
X167312Y54815D01*
X167406Y54719D01*
X167497Y54620D01*
X167585Y54518D01*
X167670Y54413D01*
X167752Y54307D01*
X167831Y54198D01*
X167907Y54086D01*
X167979Y53973D01*
X168048Y53857D01*
X168114Y53739D01*
X168176Y53620D01*
X168234Y53499D01*
X168290Y53376D01*
X168341Y53252D01*
X168389Y53126D01*
X168433Y52999D01*
X168474Y52870D01*
X168510Y52741D01*
X168543Y52610D01*
X168572Y52479D01*
X168598Y52347D01*
X168619Y52214D01*
X168637Y52080D01*
X168650Y51946D01*
X168660Y51812D01*
X168666Y51678D01*
X168668Y51543D01*
X168668Y49229D01*
X159412Y49229D01*
X178202Y42286D02*
X178202Y56171D01*
X183988Y56171D01*
X184104Y56169D01*
X184220Y56163D01*
X184335Y56154D01*
X184451Y56140D01*
X184565Y56123D01*
X184679Y56101D01*
X184793Y56076D01*
X184905Y56048D01*
X185016Y56015D01*
X185127Y55979D01*
X185235Y55939D01*
X185343Y55896D01*
X185449Y55849D01*
X185553Y55798D01*
X185656Y55744D01*
X185757Y55686D01*
X185856Y55626D01*
X185952Y55562D01*
X186047Y55494D01*
X186139Y55424D01*
X186229Y55351D01*
X186316Y55274D01*
X186401Y55195D01*
X186483Y55113D01*
X186562Y55028D01*
X186639Y54941D01*
X186712Y54851D01*
X186782Y54759D01*
X186850Y54664D01*
X186914Y54568D01*
X186974Y54469D01*
X187032Y54368D01*
X187086Y54265D01*
X187137Y54161D01*
X187184Y54055D01*
X187227Y53948D01*
X187267Y53839D01*
X187303Y53728D01*
X187336Y53617D01*
X187364Y53505D01*
X187389Y53391D01*
X187411Y53277D01*
X187428Y53163D01*
X187442Y53047D01*
X187451Y52932D01*
X187457Y52816D01*
X187459Y52700D01*
X187459Y42286D01*
X195156Y56171D02*
X202099Y56171D01*
X197471Y63114D02*
X197471Y45757D01*
X197473Y45641D01*
X197479Y45525D01*
X197488Y45410D01*
X197502Y45294D01*
X197519Y45180D01*
X197541Y45066D01*
X197566Y44952D01*
X197594Y44840D01*
X197627Y44729D01*
X197663Y44618D01*
X197703Y44509D01*
X197746Y44402D01*
X197793Y44296D01*
X197844Y44192D01*
X197898Y44089D01*
X197956Y43988D01*
X198016Y43889D01*
X198080Y43793D01*
X198148Y43698D01*
X198218Y43606D01*
X198291Y43516D01*
X198368Y43429D01*
X198447Y43344D01*
X198529Y43262D01*
X198614Y43183D01*
X198701Y43106D01*
X198791Y43033D01*
X198883Y42963D01*
X198978Y42895D01*
X199074Y42831D01*
X199173Y42771D01*
X199274Y42713D01*
X199377Y42659D01*
X199481Y42608D01*
X199587Y42561D01*
X199694Y42518D01*
X199803Y42478D01*
X199914Y42442D01*
X200025Y42409D01*
X200137Y42381D01*
X200251Y42356D01*
X200365Y42334D01*
X200479Y42317D01*
X200595Y42303D01*
X200710Y42294D01*
X200826Y42288D01*
X200942Y42286D01*
X202099Y42286D01*
X209973Y42286D02*
X209973Y56171D01*
X209395Y61957D02*
X209395Y63114D01*
X210552Y63114D01*
X210552Y61957D01*
X209395Y61957D01*
X220304Y50386D02*
X226089Y48072D01*
X220304Y50386D02*
X220204Y50428D01*
X220106Y50473D01*
X220010Y50522D01*
X219915Y50575D01*
X219823Y50630D01*
X219732Y50690D01*
X219644Y50752D01*
X219558Y50817D01*
X219474Y50886D01*
X219393Y50958D01*
X219315Y51032D01*
X219239Y51109D01*
X219166Y51189D01*
X219096Y51271D01*
X219029Y51356D01*
X218965Y51444D01*
X218905Y51533D01*
X218847Y51625D01*
X218793Y51718D01*
X218743Y51814D01*
X218695Y51911D01*
X218652Y52010D01*
X218612Y52111D01*
X218575Y52212D01*
X218543Y52315D01*
X218514Y52420D01*
X218488Y52525D01*
X218467Y52631D01*
X218449Y52737D01*
X218436Y52845D01*
X218426Y52952D01*
X218420Y53060D01*
X218418Y53168D01*
X218420Y53277D01*
X218426Y53385D01*
X218435Y53492D01*
X218449Y53600D01*
X218466Y53706D01*
X218487Y53812D01*
X218512Y53917D01*
X218541Y54022D01*
X218574Y54125D01*
X218610Y54227D01*
X218650Y54327D01*
X218693Y54426D01*
X218740Y54524D01*
X218791Y54619D01*
X218845Y54713D01*
X218902Y54805D01*
X218962Y54894D01*
X219026Y54982D01*
X219093Y55067D01*
X219163Y55149D01*
X219235Y55229D01*
X219311Y55307D01*
X219389Y55381D01*
X219470Y55453D01*
X219554Y55521D01*
X219640Y55587D01*
X219728Y55650D01*
X219818Y55709D01*
X219911Y55765D01*
X220005Y55818D01*
X220102Y55867D01*
X220200Y55912D01*
X220299Y55955D01*
X220400Y55993D01*
X220503Y56028D01*
X220606Y56059D01*
X220711Y56086D01*
X220816Y56110D01*
X220922Y56130D01*
X221029Y56146D01*
X221137Y56158D01*
X221245Y56166D01*
X221353Y56170D01*
X221461Y56171D01*
X221776Y56162D01*
X222092Y56146D01*
X222407Y56123D01*
X222722Y56092D01*
X223035Y56053D01*
X223348Y56007D01*
X223659Y55954D01*
X223969Y55892D01*
X224277Y55824D01*
X224584Y55748D01*
X224889Y55665D01*
X225192Y55574D01*
X225492Y55476D01*
X225790Y55371D01*
X226085Y55259D01*
X226378Y55140D01*
X226668Y55014D01*
X226089Y48071D02*
X226189Y48029D01*
X226287Y47984D01*
X226383Y47935D01*
X226478Y47882D01*
X226570Y47827D01*
X226661Y47767D01*
X226749Y47705D01*
X226835Y47640D01*
X226919Y47571D01*
X227000Y47500D01*
X227078Y47425D01*
X227154Y47348D01*
X227227Y47268D01*
X227297Y47186D01*
X227364Y47101D01*
X227428Y47013D01*
X227488Y46924D01*
X227546Y46832D01*
X227600Y46739D01*
X227650Y46643D01*
X227698Y46546D01*
X227741Y46447D01*
X227781Y46346D01*
X227818Y46245D01*
X227850Y46142D01*
X227879Y46037D01*
X227905Y45932D01*
X227926Y45826D01*
X227944Y45720D01*
X227957Y45612D01*
X227967Y45505D01*
X227973Y45397D01*
X227975Y45289D01*
X227973Y45180D01*
X227967Y45072D01*
X227958Y44965D01*
X227944Y44857D01*
X227927Y44751D01*
X227906Y44645D01*
X227881Y44540D01*
X227852Y44435D01*
X227819Y44332D01*
X227783Y44230D01*
X227743Y44130D01*
X227700Y44031D01*
X227653Y43933D01*
X227602Y43838D01*
X227548Y43744D01*
X227491Y43652D01*
X227431Y43563D01*
X227367Y43475D01*
X227300Y43390D01*
X227230Y43308D01*
X227158Y43228D01*
X227082Y43150D01*
X227004Y43076D01*
X226923Y43004D01*
X226839Y42936D01*
X226753Y42870D01*
X226665Y42807D01*
X226575Y42748D01*
X226482Y42692D01*
X226388Y42639D01*
X226291Y42590D01*
X226193Y42545D01*
X226094Y42502D01*
X225993Y42464D01*
X225890Y42429D01*
X225787Y42398D01*
X225682Y42371D01*
X225577Y42347D01*
X225471Y42327D01*
X225364Y42311D01*
X225256Y42299D01*
X225148Y42291D01*
X225040Y42287D01*
X224932Y42286D01*
X224468Y42298D01*
X224004Y42321D01*
X223541Y42355D01*
X223079Y42400D01*
X222619Y42456D01*
X222159Y42523D01*
X221702Y42601D01*
X221246Y42689D01*
X220793Y42788D01*
X220342Y42898D01*
X219894Y43018D01*
X219448Y43150D01*
X219006Y43291D01*
X218568Y43443D01*
X234826Y56171D02*
X241768Y56171D01*
X237140Y63114D02*
X237140Y45757D01*
X237142Y45641D01*
X237148Y45525D01*
X237157Y45410D01*
X237171Y45294D01*
X237188Y45180D01*
X237210Y45066D01*
X237235Y44952D01*
X237263Y44840D01*
X237296Y44729D01*
X237332Y44618D01*
X237372Y44509D01*
X237415Y44402D01*
X237462Y44296D01*
X237513Y44192D01*
X237567Y44089D01*
X237625Y43988D01*
X237685Y43889D01*
X237749Y43793D01*
X237817Y43698D01*
X237887Y43606D01*
X237960Y43516D01*
X238037Y43429D01*
X238116Y43344D01*
X238198Y43262D01*
X238283Y43183D01*
X238370Y43106D01*
X238460Y43033D01*
X238552Y42963D01*
X238647Y42895D01*
X238743Y42831D01*
X238842Y42771D01*
X238943Y42713D01*
X239046Y42659D01*
X239150Y42608D01*
X239256Y42561D01*
X239363Y42518D01*
X239472Y42478D01*
X239583Y42442D01*
X239694Y42409D01*
X239806Y42381D01*
X239920Y42356D01*
X240034Y42334D01*
X240148Y42317D01*
X240264Y42303D01*
X240379Y42294D01*
X240495Y42288D01*
X240611Y42286D01*
X241768Y42286D01*
D12*
X44429Y484776D02*
X37791Y484776D01*
X37791Y495224D01*
X44429Y495224D01*
X44429Y484776D01*
X44429Y487882D02*
X37791Y487882D01*
X37791Y490988D02*
X44429Y490988D01*
X44429Y494094D02*
X37791Y494094D01*
X55571Y484776D02*
X62209Y484776D01*
X55571Y484776D02*
X55571Y495224D01*
X62209Y495224D01*
X62209Y484776D01*
X62209Y487882D02*
X55571Y487882D01*
X55571Y490988D02*
X62209Y490988D01*
X62209Y494094D02*
X55571Y494094D01*
D13*
X31000Y460000D03*
X69000Y460000D03*
X31000Y400000D03*
X69000Y400000D03*
X31000Y340000D03*
X69000Y340000D03*
X31000Y280000D03*
X69000Y280000D03*
X31000Y220000D03*
X69000Y220000D03*
X91000Y460000D03*
X129000Y460000D03*
X91000Y400000D03*
X129000Y400000D03*
X91000Y340000D03*
X129000Y340000D03*
X91000Y280000D03*
X129000Y280000D03*
X91000Y220000D03*
X129000Y220000D03*
X151000Y460000D03*
X189000Y460000D03*
X151000Y400000D03*
X189000Y400000D03*
X151000Y340000D03*
X189000Y340000D03*
X151000Y280000D03*
X189000Y280000D03*
X151000Y220000D03*
X189000Y220000D03*
X211000Y460000D03*
X249000Y460000D03*
X211000Y400000D03*
X249000Y400000D03*
X211000Y340000D03*
X249000Y340000D03*
X211000Y280000D03*
X249000Y280000D03*
X211000Y220000D03*
X249000Y220000D03*
X271000Y460000D03*
X309000Y460000D03*
X271000Y400000D03*
X309000Y400000D03*
X271000Y340000D03*
X309000Y340000D03*
X271000Y280000D03*
X309000Y280000D03*
X271000Y220000D03*
X309000Y220000D03*
D12*
X44429Y424776D02*
X37791Y424776D01*
X37791Y435224D01*
X44429Y435224D01*
X44429Y424776D01*
X44429Y427882D02*
X37791Y427882D01*
X37791Y430988D02*
X44429Y430988D01*
X44429Y434094D02*
X37791Y434094D01*
X55571Y424776D02*
X62209Y424776D01*
X55571Y424776D02*
X55571Y435224D01*
X62209Y435224D01*
X62209Y424776D01*
X62209Y427882D02*
X55571Y427882D01*
X55571Y430988D02*
X62209Y430988D01*
X62209Y434094D02*
X55571Y434094D01*
X44429Y364776D02*
X37791Y364776D01*
X37791Y375224D01*
X44429Y375224D01*
X44429Y364776D01*
X44429Y367882D02*
X37791Y367882D01*
X37791Y370988D02*
X44429Y370988D01*
X44429Y374094D02*
X37791Y374094D01*
X55571Y364776D02*
X62209Y364776D01*
X55571Y364776D02*
X55571Y375224D01*
X62209Y375224D01*
X62209Y364776D01*
X62209Y367882D02*
X55571Y367882D01*
X55571Y370988D02*
X62209Y370988D01*
X62209Y374094D02*
X55571Y374094D01*
X44429Y304776D02*
X37791Y304776D01*
X37791Y315224D01*
X44429Y315224D01*
X44429Y304776D01*
X44429Y307882D02*
X37791Y307882D01*
X37791Y310988D02*
X44429Y310988D01*
X44429Y314094D02*
X37791Y314094D01*
X55571Y304776D02*
X62209Y304776D01*
X55571Y304776D02*
X55571Y315224D01*
X62209Y315224D01*
X62209Y304776D01*
X62209Y307882D02*
X55571Y307882D01*
X55571Y310988D02*
X62209Y310988D01*
X62209Y314094D02*
X55571Y314094D01*
X44429Y244776D02*
X37791Y244776D01*
X37791Y255224D01*
X44429Y255224D01*
X44429Y244776D01*
X44429Y247882D02*
X37791Y247882D01*
X37791Y250988D02*
X44429Y250988D01*
X44429Y254094D02*
X37791Y254094D01*
X55571Y244776D02*
X62209Y244776D01*
X55571Y244776D02*
X55571Y255224D01*
X62209Y255224D01*
X62209Y244776D01*
X62209Y247882D02*
X55571Y247882D01*
X55571Y250988D02*
X62209Y250988D01*
X62209Y254094D02*
X55571Y254094D01*
X97791Y484776D02*
X104429Y484776D01*
X97791Y484776D02*
X97791Y495224D01*
X104429Y495224D01*
X104429Y484776D01*
X104429Y487882D02*
X97791Y487882D01*
X97791Y490988D02*
X104429Y490988D01*
X104429Y494094D02*
X97791Y494094D01*
X115571Y484776D02*
X122209Y484776D01*
X115571Y484776D02*
X115571Y495224D01*
X122209Y495224D01*
X122209Y484776D01*
X122209Y487882D02*
X115571Y487882D01*
X115571Y490988D02*
X122209Y490988D01*
X122209Y494094D02*
X115571Y494094D01*
X104429Y424776D02*
X97791Y424776D01*
X97791Y435224D01*
X104429Y435224D01*
X104429Y424776D01*
X104429Y427882D02*
X97791Y427882D01*
X97791Y430988D02*
X104429Y430988D01*
X104429Y434094D02*
X97791Y434094D01*
X115571Y424776D02*
X122209Y424776D01*
X115571Y424776D02*
X115571Y435224D01*
X122209Y435224D01*
X122209Y424776D01*
X122209Y427882D02*
X115571Y427882D01*
X115571Y430988D02*
X122209Y430988D01*
X122209Y434094D02*
X115571Y434094D01*
X104429Y364776D02*
X97791Y364776D01*
X97791Y375224D01*
X104429Y375224D01*
X104429Y364776D01*
X104429Y367882D02*
X97791Y367882D01*
X97791Y370988D02*
X104429Y370988D01*
X104429Y374094D02*
X97791Y374094D01*
X115571Y364776D02*
X122209Y364776D01*
X115571Y364776D02*
X115571Y375224D01*
X122209Y375224D01*
X122209Y364776D01*
X122209Y367882D02*
X115571Y367882D01*
X115571Y370988D02*
X122209Y370988D01*
X122209Y374094D02*
X115571Y374094D01*
X104429Y304776D02*
X97791Y304776D01*
X97791Y315224D01*
X104429Y315224D01*
X104429Y304776D01*
X104429Y307882D02*
X97791Y307882D01*
X97791Y310988D02*
X104429Y310988D01*
X104429Y314094D02*
X97791Y314094D01*
X115571Y304776D02*
X122209Y304776D01*
X115571Y304776D02*
X115571Y315224D01*
X122209Y315224D01*
X122209Y304776D01*
X122209Y307882D02*
X115571Y307882D01*
X115571Y310988D02*
X122209Y310988D01*
X122209Y314094D02*
X115571Y314094D01*
X104429Y244776D02*
X97791Y244776D01*
X97791Y255224D01*
X104429Y255224D01*
X104429Y244776D01*
X104429Y247882D02*
X97791Y247882D01*
X97791Y250988D02*
X104429Y250988D01*
X104429Y254094D02*
X97791Y254094D01*
X115571Y244776D02*
X122209Y244776D01*
X115571Y244776D02*
X115571Y255224D01*
X122209Y255224D01*
X122209Y244776D01*
X122209Y247882D02*
X115571Y247882D01*
X115571Y250988D02*
X122209Y250988D01*
X122209Y254094D02*
X115571Y254094D01*
X157791Y484776D02*
X164429Y484776D01*
X157791Y484776D02*
X157791Y495224D01*
X164429Y495224D01*
X164429Y484776D01*
X164429Y487882D02*
X157791Y487882D01*
X157791Y490988D02*
X164429Y490988D01*
X164429Y494094D02*
X157791Y494094D01*
X175571Y484776D02*
X182209Y484776D01*
X175571Y484776D02*
X175571Y495224D01*
X182209Y495224D01*
X182209Y484776D01*
X182209Y487882D02*
X175571Y487882D01*
X175571Y490988D02*
X182209Y490988D01*
X182209Y494094D02*
X175571Y494094D01*
X164429Y424776D02*
X157791Y424776D01*
X157791Y435224D01*
X164429Y435224D01*
X164429Y424776D01*
X164429Y427882D02*
X157791Y427882D01*
X157791Y430988D02*
X164429Y430988D01*
X164429Y434094D02*
X157791Y434094D01*
X175571Y424776D02*
X182209Y424776D01*
X175571Y424776D02*
X175571Y435224D01*
X182209Y435224D01*
X182209Y424776D01*
X182209Y427882D02*
X175571Y427882D01*
X175571Y430988D02*
X182209Y430988D01*
X182209Y434094D02*
X175571Y434094D01*
X164429Y364776D02*
X157791Y364776D01*
X157791Y375224D01*
X164429Y375224D01*
X164429Y364776D01*
X164429Y367882D02*
X157791Y367882D01*
X157791Y370988D02*
X164429Y370988D01*
X164429Y374094D02*
X157791Y374094D01*
X175571Y364776D02*
X182209Y364776D01*
X175571Y364776D02*
X175571Y375224D01*
X182209Y375224D01*
X182209Y364776D01*
X182209Y367882D02*
X175571Y367882D01*
X175571Y370988D02*
X182209Y370988D01*
X182209Y374094D02*
X175571Y374094D01*
X164429Y304776D02*
X157791Y304776D01*
X157791Y315224D01*
X164429Y315224D01*
X164429Y304776D01*
X164429Y307882D02*
X157791Y307882D01*
X157791Y310988D02*
X164429Y310988D01*
X164429Y314094D02*
X157791Y314094D01*
X175571Y304776D02*
X182209Y304776D01*
X175571Y304776D02*
X175571Y315224D01*
X182209Y315224D01*
X182209Y304776D01*
X182209Y307882D02*
X175571Y307882D01*
X175571Y310988D02*
X182209Y310988D01*
X182209Y314094D02*
X175571Y314094D01*
X164429Y244776D02*
X157791Y244776D01*
X157791Y255224D01*
X164429Y255224D01*
X164429Y244776D01*
X164429Y247882D02*
X157791Y247882D01*
X157791Y250988D02*
X164429Y250988D01*
X164429Y254094D02*
X157791Y254094D01*
X175571Y244776D02*
X182209Y244776D01*
X175571Y244776D02*
X175571Y255224D01*
X182209Y255224D01*
X182209Y244776D01*
X182209Y247882D02*
X175571Y247882D01*
X175571Y250988D02*
X182209Y250988D01*
X182209Y254094D02*
X175571Y254094D01*
X217791Y484776D02*
X224429Y484776D01*
X217791Y484776D02*
X217791Y495224D01*
X224429Y495224D01*
X224429Y484776D01*
X224429Y487882D02*
X217791Y487882D01*
X217791Y490988D02*
X224429Y490988D01*
X224429Y494094D02*
X217791Y494094D01*
X235571Y484776D02*
X242209Y484776D01*
X235571Y484776D02*
X235571Y495224D01*
X242209Y495224D01*
X242209Y484776D01*
X242209Y487882D02*
X235571Y487882D01*
X235571Y490988D02*
X242209Y490988D01*
X242209Y494094D02*
X235571Y494094D01*
X224429Y424776D02*
X217791Y424776D01*
X217791Y435224D01*
X224429Y435224D01*
X224429Y424776D01*
X224429Y427882D02*
X217791Y427882D01*
X217791Y430988D02*
X224429Y430988D01*
X224429Y434094D02*
X217791Y434094D01*
X235571Y424776D02*
X242209Y424776D01*
X235571Y424776D02*
X235571Y435224D01*
X242209Y435224D01*
X242209Y424776D01*
X242209Y427882D02*
X235571Y427882D01*
X235571Y430988D02*
X242209Y430988D01*
X242209Y434094D02*
X235571Y434094D01*
X224429Y364776D02*
X217791Y364776D01*
X217791Y375224D01*
X224429Y375224D01*
X224429Y364776D01*
X224429Y367882D02*
X217791Y367882D01*
X217791Y370988D02*
X224429Y370988D01*
X224429Y374094D02*
X217791Y374094D01*
X235571Y364776D02*
X242209Y364776D01*
X235571Y364776D02*
X235571Y375224D01*
X242209Y375224D01*
X242209Y364776D01*
X242209Y367882D02*
X235571Y367882D01*
X235571Y370988D02*
X242209Y370988D01*
X242209Y374094D02*
X235571Y374094D01*
X224429Y304776D02*
X217791Y304776D01*
X217791Y315224D01*
X224429Y315224D01*
X224429Y304776D01*
X224429Y307882D02*
X217791Y307882D01*
X217791Y310988D02*
X224429Y310988D01*
X224429Y314094D02*
X217791Y314094D01*
X235571Y304776D02*
X242209Y304776D01*
X235571Y304776D02*
X235571Y315224D01*
X242209Y315224D01*
X242209Y304776D01*
X242209Y307882D02*
X235571Y307882D01*
X235571Y310988D02*
X242209Y310988D01*
X242209Y314094D02*
X235571Y314094D01*
X224429Y244776D02*
X217791Y244776D01*
X217791Y255224D01*
X224429Y255224D01*
X224429Y244776D01*
X224429Y247882D02*
X217791Y247882D01*
X217791Y250988D02*
X224429Y250988D01*
X224429Y254094D02*
X217791Y254094D01*
X235571Y244776D02*
X242209Y244776D01*
X235571Y244776D02*
X235571Y255224D01*
X242209Y255224D01*
X242209Y244776D01*
X242209Y247882D02*
X235571Y247882D01*
X235571Y250988D02*
X242209Y250988D01*
X242209Y254094D02*
X235571Y254094D01*
X277791Y484776D02*
X284429Y484776D01*
X277791Y484776D02*
X277791Y495224D01*
X284429Y495224D01*
X284429Y484776D01*
X284429Y487882D02*
X277791Y487882D01*
X277791Y490988D02*
X284429Y490988D01*
X284429Y494094D02*
X277791Y494094D01*
X295571Y484776D02*
X302209Y484776D01*
X295571Y484776D02*
X295571Y495224D01*
X302209Y495224D01*
X302209Y484776D01*
X302209Y487882D02*
X295571Y487882D01*
X295571Y490988D02*
X302209Y490988D01*
X302209Y494094D02*
X295571Y494094D01*
X284429Y424776D02*
X277791Y424776D01*
X277791Y435224D01*
X284429Y435224D01*
X284429Y424776D01*
X284429Y427882D02*
X277791Y427882D01*
X277791Y430988D02*
X284429Y430988D01*
X284429Y434094D02*
X277791Y434094D01*
X295571Y424776D02*
X302209Y424776D01*
X295571Y424776D02*
X295571Y435224D01*
X302209Y435224D01*
X302209Y424776D01*
X302209Y427882D02*
X295571Y427882D01*
X295571Y430988D02*
X302209Y430988D01*
X302209Y434094D02*
X295571Y434094D01*
X284429Y364776D02*
X277791Y364776D01*
X277791Y375224D01*
X284429Y375224D01*
X284429Y364776D01*
X284429Y367882D02*
X277791Y367882D01*
X277791Y370988D02*
X284429Y370988D01*
X284429Y374094D02*
X277791Y374094D01*
X295571Y364776D02*
X302209Y364776D01*
X295571Y364776D02*
X295571Y375224D01*
X302209Y375224D01*
X302209Y364776D01*
X302209Y367882D02*
X295571Y367882D01*
X295571Y370988D02*
X302209Y370988D01*
X302209Y374094D02*
X295571Y374094D01*
X284429Y304776D02*
X277791Y304776D01*
X277791Y315224D01*
X284429Y315224D01*
X284429Y304776D01*
X284429Y307882D02*
X277791Y307882D01*
X277791Y310988D02*
X284429Y310988D01*
X284429Y314094D02*
X277791Y314094D01*
X295571Y304776D02*
X302209Y304776D01*
X295571Y304776D02*
X295571Y315224D01*
X302209Y315224D01*
X302209Y304776D01*
X302209Y307882D02*
X295571Y307882D01*
X295571Y310988D02*
X302209Y310988D01*
X302209Y314094D02*
X295571Y314094D01*
X284429Y244776D02*
X277791Y244776D01*
X277791Y255224D01*
X284429Y255224D01*
X284429Y244776D01*
X284429Y247882D02*
X277791Y247882D01*
X277791Y250988D02*
X284429Y250988D01*
X284429Y254094D02*
X277791Y254094D01*
X295571Y244776D02*
X302209Y244776D01*
X295571Y244776D02*
X295571Y255224D01*
X302209Y255224D01*
X302209Y244776D01*
X302209Y247882D02*
X295571Y247882D01*
X295571Y250988D02*
X302209Y250988D01*
X302209Y254094D02*
X295571Y254094D01*
X377791Y434776D02*
X384429Y434776D01*
X377791Y434776D02*
X377791Y445224D01*
X384429Y445224D01*
X384429Y434776D01*
X384429Y437882D02*
X377791Y437882D01*
X377791Y440988D02*
X384429Y440988D01*
X384429Y444094D02*
X377791Y444094D01*
X395571Y434776D02*
X402209Y434776D01*
X395571Y434776D02*
X395571Y445224D01*
X402209Y445224D01*
X402209Y434776D01*
X402209Y437882D02*
X395571Y437882D01*
X395571Y440988D02*
X402209Y440988D01*
X402209Y444094D02*
X395571Y444094D01*
X384429Y394776D02*
X377791Y394776D01*
X377791Y405224D01*
X384429Y405224D01*
X384429Y394776D01*
X384429Y397882D02*
X377791Y397882D01*
X377791Y400988D02*
X384429Y400988D01*
X384429Y404094D02*
X377791Y404094D01*
X395571Y394776D02*
X402209Y394776D01*
X395571Y394776D02*
X395571Y405224D01*
X402209Y405224D01*
X402209Y394776D01*
X402209Y397882D02*
X395571Y397882D01*
X395571Y400988D02*
X402209Y400988D01*
X402209Y404094D02*
X395571Y404094D01*
X384429Y354776D02*
X377791Y354776D01*
X377791Y365224D01*
X384429Y365224D01*
X384429Y354776D01*
X384429Y357882D02*
X377791Y357882D01*
X377791Y360988D02*
X384429Y360988D01*
X384429Y364094D02*
X377791Y364094D01*
X395571Y354776D02*
X402209Y354776D01*
X395571Y354776D02*
X395571Y365224D01*
X402209Y365224D01*
X402209Y354776D01*
X402209Y357882D02*
X395571Y357882D01*
X395571Y360988D02*
X402209Y360988D01*
X402209Y364094D02*
X395571Y364094D01*
X384429Y314776D02*
X377791Y314776D01*
X377791Y325224D01*
X384429Y325224D01*
X384429Y314776D01*
X384429Y317882D02*
X377791Y317882D01*
X377791Y320988D02*
X384429Y320988D01*
X384429Y324094D02*
X377791Y324094D01*
X395571Y314776D02*
X402209Y314776D01*
X395571Y314776D02*
X395571Y325224D01*
X402209Y325224D01*
X402209Y314776D01*
X402209Y317882D02*
X395571Y317882D01*
X395571Y320988D02*
X402209Y320988D01*
X402209Y324094D02*
X395571Y324094D01*
X417791Y434776D02*
X424429Y434776D01*
X417791Y434776D02*
X417791Y445224D01*
X424429Y445224D01*
X424429Y434776D01*
X424429Y437882D02*
X417791Y437882D01*
X417791Y440988D02*
X424429Y440988D01*
X424429Y444094D02*
X417791Y444094D01*
X435571Y434776D02*
X442209Y434776D01*
X435571Y434776D02*
X435571Y445224D01*
X442209Y445224D01*
X442209Y434776D01*
X442209Y437882D02*
X435571Y437882D01*
X435571Y440988D02*
X442209Y440988D01*
X442209Y444094D02*
X435571Y444094D01*
X424429Y394776D02*
X417791Y394776D01*
X417791Y405224D01*
X424429Y405224D01*
X424429Y394776D01*
X424429Y397882D02*
X417791Y397882D01*
X417791Y400988D02*
X424429Y400988D01*
X424429Y404094D02*
X417791Y404094D01*
X435571Y394776D02*
X442209Y394776D01*
X435571Y394776D02*
X435571Y405224D01*
X442209Y405224D01*
X442209Y394776D01*
X442209Y397882D02*
X435571Y397882D01*
X435571Y400988D02*
X442209Y400988D01*
X442209Y404094D02*
X435571Y404094D01*
X424429Y354776D02*
X417791Y354776D01*
X417791Y365224D01*
X424429Y365224D01*
X424429Y354776D01*
X424429Y357882D02*
X417791Y357882D01*
X417791Y360988D02*
X424429Y360988D01*
X424429Y364094D02*
X417791Y364094D01*
X435571Y354776D02*
X442209Y354776D01*
X435571Y354776D02*
X435571Y365224D01*
X442209Y365224D01*
X442209Y354776D01*
X442209Y357882D02*
X435571Y357882D01*
X435571Y360988D02*
X442209Y360988D01*
X442209Y364094D02*
X435571Y364094D01*
X424429Y314776D02*
X417791Y314776D01*
X417791Y325224D01*
X424429Y325224D01*
X424429Y314776D01*
X424429Y317882D02*
X417791Y317882D01*
X417791Y320988D02*
X424429Y320988D01*
X424429Y324094D02*
X417791Y324094D01*
X435571Y314776D02*
X442209Y314776D01*
X435571Y314776D02*
X435571Y325224D01*
X442209Y325224D01*
X442209Y314776D01*
X442209Y317882D02*
X435571Y317882D01*
X435571Y320988D02*
X442209Y320988D01*
X442209Y324094D02*
X435571Y324094D01*
X457791Y434776D02*
X464429Y434776D01*
X457791Y434776D02*
X457791Y445224D01*
X464429Y445224D01*
X464429Y434776D01*
X464429Y437882D02*
X457791Y437882D01*
X457791Y440988D02*
X464429Y440988D01*
X464429Y444094D02*
X457791Y444094D01*
X475571Y434776D02*
X482209Y434776D01*
X475571Y434776D02*
X475571Y445224D01*
X482209Y445224D01*
X482209Y434776D01*
X482209Y437882D02*
X475571Y437882D01*
X475571Y440988D02*
X482209Y440988D01*
X482209Y444094D02*
X475571Y444094D01*
X464429Y394776D02*
X457791Y394776D01*
X457791Y405224D01*
X464429Y405224D01*
X464429Y394776D01*
X464429Y397882D02*
X457791Y397882D01*
X457791Y400988D02*
X464429Y400988D01*
X464429Y404094D02*
X457791Y404094D01*
X475571Y394776D02*
X482209Y394776D01*
X475571Y394776D02*
X475571Y405224D01*
X482209Y405224D01*
X482209Y394776D01*
X482209Y397882D02*
X475571Y397882D01*
X475571Y400988D02*
X482209Y400988D01*
X482209Y404094D02*
X475571Y404094D01*
X464429Y354776D02*
X457791Y354776D01*
X457791Y365224D01*
X464429Y365224D01*
X464429Y354776D01*
X464429Y357882D02*
X457791Y357882D01*
X457791Y360988D02*
X464429Y360988D01*
X464429Y364094D02*
X457791Y364094D01*
X475571Y354776D02*
X482209Y354776D01*
X475571Y354776D02*
X475571Y365224D01*
X482209Y365224D01*
X482209Y354776D01*
X482209Y357882D02*
X475571Y357882D01*
X475571Y360988D02*
X482209Y360988D01*
X482209Y364094D02*
X475571Y364094D01*
X464429Y314776D02*
X457791Y314776D01*
X457791Y325224D01*
X464429Y325224D01*
X464429Y314776D01*
X464429Y317882D02*
X457791Y317882D01*
X457791Y320988D02*
X464429Y320988D01*
X464429Y324094D02*
X457791Y324094D01*
X475571Y314776D02*
X482209Y314776D01*
X475571Y314776D02*
X475571Y325224D01*
X482209Y325224D01*
X482209Y314776D01*
X482209Y317882D02*
X475571Y317882D01*
X475571Y320988D02*
X482209Y320988D01*
X482209Y324094D02*
X475571Y324094D01*
X497791Y434776D02*
X504429Y434776D01*
X497791Y434776D02*
X497791Y445224D01*
X504429Y445224D01*
X504429Y434776D01*
X504429Y437882D02*
X497791Y437882D01*
X497791Y440988D02*
X504429Y440988D01*
X504429Y444094D02*
X497791Y444094D01*
X515571Y434776D02*
X522209Y434776D01*
X515571Y434776D02*
X515571Y445224D01*
X522209Y445224D01*
X522209Y434776D01*
X522209Y437882D02*
X515571Y437882D01*
X515571Y440988D02*
X522209Y440988D01*
X522209Y444094D02*
X515571Y444094D01*
X504429Y394776D02*
X497791Y394776D01*
X497791Y405224D01*
X504429Y405224D01*
X504429Y394776D01*
X504429Y397882D02*
X497791Y397882D01*
X497791Y400988D02*
X504429Y400988D01*
X504429Y404094D02*
X497791Y404094D01*
X515571Y394776D02*
X522209Y394776D01*
X515571Y394776D02*
X515571Y405224D01*
X522209Y405224D01*
X522209Y394776D01*
X522209Y397882D02*
X515571Y397882D01*
X515571Y400988D02*
X522209Y400988D01*
X522209Y404094D02*
X515571Y404094D01*
X504429Y354776D02*
X497791Y354776D01*
X497791Y365224D01*
X504429Y365224D01*
X504429Y354776D01*
X504429Y357882D02*
X497791Y357882D01*
X497791Y360988D02*
X504429Y360988D01*
X504429Y364094D02*
X497791Y364094D01*
X515571Y354776D02*
X522209Y354776D01*
X515571Y354776D02*
X515571Y365224D01*
X522209Y365224D01*
X522209Y354776D01*
X522209Y357882D02*
X515571Y357882D01*
X515571Y360988D02*
X522209Y360988D01*
X522209Y364094D02*
X515571Y364094D01*
X504429Y314776D02*
X497791Y314776D01*
X497791Y325224D01*
X504429Y325224D01*
X504429Y314776D01*
X504429Y317882D02*
X497791Y317882D01*
X497791Y320988D02*
X504429Y320988D01*
X504429Y324094D02*
X497791Y324094D01*
X515571Y314776D02*
X522209Y314776D01*
X515571Y314776D02*
X515571Y325224D01*
X522209Y325224D01*
X522209Y314776D01*
X522209Y317882D02*
X515571Y317882D01*
X515571Y320988D02*
X522209Y320988D01*
X522209Y324094D02*
X515571Y324094D01*
X587791Y394776D02*
X594429Y394776D01*
X587791Y394776D02*
X587791Y405224D01*
X594429Y405224D01*
X594429Y394776D01*
X594429Y397882D02*
X587791Y397882D01*
X587791Y400988D02*
X594429Y400988D01*
X594429Y404094D02*
X587791Y404094D01*
X605571Y394776D02*
X612209Y394776D01*
X605571Y394776D02*
X605571Y405224D01*
X612209Y405224D01*
X612209Y394776D01*
X612209Y397882D02*
X605571Y397882D01*
X605571Y400988D02*
X612209Y400988D01*
X612209Y404094D02*
X605571Y404094D01*
X594429Y354776D02*
X587791Y354776D01*
X587791Y365224D01*
X594429Y365224D01*
X594429Y354776D01*
X594429Y357882D02*
X587791Y357882D01*
X587791Y360988D02*
X594429Y360988D01*
X594429Y364094D02*
X587791Y364094D01*
X605571Y354776D02*
X612209Y354776D01*
X605571Y354776D02*
X605571Y365224D01*
X612209Y365224D01*
X612209Y354776D01*
X612209Y357882D02*
X605571Y357882D01*
X605571Y360988D02*
X612209Y360988D01*
X612209Y364094D02*
X605571Y364094D01*
X594429Y314776D02*
X587791Y314776D01*
X587791Y325224D01*
X594429Y325224D01*
X594429Y314776D01*
X594429Y317882D02*
X587791Y317882D01*
X587791Y320988D02*
X594429Y320988D01*
X594429Y324094D02*
X587791Y324094D01*
X605571Y314776D02*
X612209Y314776D01*
X605571Y314776D02*
X605571Y325224D01*
X612209Y325224D01*
X612209Y314776D01*
X612209Y317882D02*
X605571Y317882D01*
X605571Y320988D02*
X612209Y320988D01*
X612209Y324094D02*
X605571Y324094D01*
X627791Y394776D02*
X634429Y394776D01*
X627791Y394776D02*
X627791Y405224D01*
X634429Y405224D01*
X634429Y394776D01*
X634429Y397882D02*
X627791Y397882D01*
X627791Y400988D02*
X634429Y400988D01*
X634429Y404094D02*
X627791Y404094D01*
X645571Y394776D02*
X652209Y394776D01*
X645571Y394776D02*
X645571Y405224D01*
X652209Y405224D01*
X652209Y394776D01*
X652209Y397882D02*
X645571Y397882D01*
X645571Y400988D02*
X652209Y400988D01*
X652209Y404094D02*
X645571Y404094D01*
X634429Y354776D02*
X627791Y354776D01*
X627791Y365224D01*
X634429Y365224D01*
X634429Y354776D01*
X634429Y357882D02*
X627791Y357882D01*
X627791Y360988D02*
X634429Y360988D01*
X634429Y364094D02*
X627791Y364094D01*
X645571Y354776D02*
X652209Y354776D01*
X645571Y354776D02*
X645571Y365224D01*
X652209Y365224D01*
X652209Y354776D01*
X652209Y357882D02*
X645571Y357882D01*
X645571Y360988D02*
X652209Y360988D01*
X652209Y364094D02*
X645571Y364094D01*
X634429Y314776D02*
X627791Y314776D01*
X627791Y325224D01*
X634429Y325224D01*
X634429Y314776D01*
X634429Y317882D02*
X627791Y317882D01*
X627791Y320988D02*
X634429Y320988D01*
X634429Y324094D02*
X627791Y324094D01*
X645571Y314776D02*
X652209Y314776D01*
X645571Y314776D02*
X645571Y325224D01*
X652209Y325224D01*
X652209Y314776D01*
X652209Y317882D02*
X645571Y317882D01*
X645571Y320988D02*
X652209Y320988D01*
X652209Y324094D02*
X645571Y324094D01*
X667791Y394776D02*
X674429Y394776D01*
X667791Y394776D02*
X667791Y405224D01*
X674429Y405224D01*
X674429Y394776D01*
X674429Y397882D02*
X667791Y397882D01*
X667791Y400988D02*
X674429Y400988D01*
X674429Y404094D02*
X667791Y404094D01*
X685571Y394776D02*
X692209Y394776D01*
X685571Y394776D02*
X685571Y405224D01*
X692209Y405224D01*
X692209Y394776D01*
X692209Y397882D02*
X685571Y397882D01*
X685571Y400988D02*
X692209Y400988D01*
X692209Y404094D02*
X685571Y404094D01*
X674429Y354776D02*
X667791Y354776D01*
X667791Y365224D01*
X674429Y365224D01*
X674429Y354776D01*
X674429Y357882D02*
X667791Y357882D01*
X667791Y360988D02*
X674429Y360988D01*
X674429Y364094D02*
X667791Y364094D01*
X685571Y354776D02*
X692209Y354776D01*
X685571Y354776D02*
X685571Y365224D01*
X692209Y365224D01*
X692209Y354776D01*
X692209Y357882D02*
X685571Y357882D01*
X685571Y360988D02*
X692209Y360988D01*
X692209Y364094D02*
X685571Y364094D01*
X674429Y314776D02*
X667791Y314776D01*
X667791Y325224D01*
X674429Y325224D01*
X674429Y314776D01*
X674429Y317882D02*
X667791Y317882D01*
X667791Y320988D02*
X674429Y320988D01*
X674429Y324094D02*
X667791Y324094D01*
X685571Y314776D02*
X692209Y314776D01*
X685571Y314776D02*
X685571Y325224D01*
X692209Y325224D01*
X692209Y314776D01*
X692209Y317882D02*
X685571Y317882D01*
X685571Y320988D02*
X692209Y320988D01*
X692209Y324094D02*
X685571Y324094D01*
X747791Y354776D02*
X754429Y354776D01*
X747791Y354776D02*
X747791Y365224D01*
X754429Y365224D01*
X754429Y354776D01*
X754429Y357882D02*
X747791Y357882D01*
X747791Y360988D02*
X754429Y360988D01*
X754429Y364094D02*
X747791Y364094D01*
X765571Y354776D02*
X772209Y354776D01*
X765571Y354776D02*
X765571Y365224D01*
X772209Y365224D01*
X772209Y354776D01*
X772209Y357882D02*
X765571Y357882D01*
X765571Y360988D02*
X772209Y360988D01*
X772209Y364094D02*
X765571Y364094D01*
X754429Y314776D02*
X747791Y314776D01*
X747791Y325224D01*
X754429Y325224D01*
X754429Y314776D01*
X754429Y317882D02*
X747791Y317882D01*
X747791Y320988D02*
X754429Y320988D01*
X754429Y324094D02*
X747791Y324094D01*
X765571Y314776D02*
X772209Y314776D01*
X765571Y314776D02*
X765571Y325224D01*
X772209Y325224D01*
X772209Y314776D01*
X772209Y317882D02*
X765571Y317882D01*
X765571Y320988D02*
X772209Y320988D01*
X772209Y324094D02*
X765571Y324094D01*
X787791Y354776D02*
X794429Y354776D01*
X787791Y354776D02*
X787791Y365224D01*
X794429Y365224D01*
X794429Y354776D01*
X794429Y357882D02*
X787791Y357882D01*
X787791Y360988D02*
X794429Y360988D01*
X794429Y364094D02*
X787791Y364094D01*
X805571Y354776D02*
X812209Y354776D01*
X805571Y354776D02*
X805571Y365224D01*
X812209Y365224D01*
X812209Y354776D01*
X812209Y357882D02*
X805571Y357882D01*
X805571Y360988D02*
X812209Y360988D01*
X812209Y364094D02*
X805571Y364094D01*
X794429Y314776D02*
X787791Y314776D01*
X787791Y325224D01*
X794429Y325224D01*
X794429Y314776D01*
X794429Y317882D02*
X787791Y317882D01*
X787791Y320988D02*
X794429Y320988D01*
X794429Y324094D02*
X787791Y324094D01*
X805571Y314776D02*
X812209Y314776D01*
X805571Y314776D02*
X805571Y325224D01*
X812209Y325224D01*
X812209Y314776D01*
X812209Y317882D02*
X805571Y317882D01*
X805571Y320988D02*
X812209Y320988D01*
X812209Y324094D02*
X805571Y324094D01*
X635224Y214429D02*
X635224Y207791D01*
X624776Y207791D01*
X624776Y214429D01*
X635224Y214429D01*
X635224Y210897D02*
X624776Y210897D01*
X624776Y214003D02*
X635224Y214003D01*
X635224Y225571D02*
X635224Y232209D01*
X635224Y225571D02*
X624776Y225571D01*
X624776Y232209D01*
X635224Y232209D01*
X635224Y228677D02*
X624776Y228677D01*
X624776Y231783D02*
X635224Y231783D01*
X655224Y214429D02*
X655224Y207791D01*
X644776Y207791D01*
X644776Y214429D01*
X655224Y214429D01*
X655224Y210897D02*
X644776Y210897D01*
X644776Y214003D02*
X655224Y214003D01*
X655224Y225571D02*
X655224Y232209D01*
X655224Y225571D02*
X644776Y225571D01*
X644776Y232209D01*
X655224Y232209D01*
X655224Y228677D02*
X644776Y228677D01*
X644776Y231783D02*
X655224Y231783D01*
X675224Y214429D02*
X675224Y207791D01*
X664776Y207791D01*
X664776Y214429D01*
X675224Y214429D01*
X675224Y210897D02*
X664776Y210897D01*
X664776Y214003D02*
X675224Y214003D01*
X675224Y225571D02*
X675224Y232209D01*
X675224Y225571D02*
X664776Y225571D01*
X664776Y232209D01*
X675224Y232209D01*
X675224Y228677D02*
X664776Y228677D01*
X664776Y231783D02*
X675224Y231783D01*
X695224Y214429D02*
X695224Y207791D01*
X684776Y207791D01*
X684776Y214429D01*
X695224Y214429D01*
X695224Y210897D02*
X684776Y210897D01*
X684776Y214003D02*
X695224Y214003D01*
X695224Y225571D02*
X695224Y232209D01*
X695224Y225571D02*
X684776Y225571D01*
X684776Y232209D01*
X695224Y232209D01*
X695224Y228677D02*
X684776Y228677D01*
X684776Y231783D02*
X695224Y231783D01*
X715224Y214429D02*
X715224Y207791D01*
X704776Y207791D01*
X704776Y214429D01*
X715224Y214429D01*
X715224Y210897D02*
X704776Y210897D01*
X704776Y214003D02*
X715224Y214003D01*
X715224Y225571D02*
X715224Y232209D01*
X715224Y225571D02*
X704776Y225571D01*
X704776Y232209D01*
X715224Y232209D01*
X715224Y228677D02*
X704776Y228677D01*
X704776Y231783D02*
X715224Y231783D01*
X735224Y214429D02*
X735224Y207791D01*
X724776Y207791D01*
X724776Y214429D01*
X735224Y214429D01*
X735224Y210897D02*
X724776Y210897D01*
X724776Y214003D02*
X735224Y214003D01*
X735224Y225571D02*
X735224Y232209D01*
X735224Y225571D02*
X724776Y225571D01*
X724776Y232209D01*
X735224Y232209D01*
X735224Y228677D02*
X724776Y228677D01*
X724776Y231783D02*
X735224Y231783D01*
X755224Y214429D02*
X755224Y207791D01*
X744776Y207791D01*
X744776Y214429D01*
X755224Y214429D01*
X755224Y210897D02*
X744776Y210897D01*
X744776Y214003D02*
X755224Y214003D01*
X755224Y225571D02*
X755224Y232209D01*
X755224Y225571D02*
X744776Y225571D01*
X744776Y232209D01*
X755224Y232209D01*
X755224Y228677D02*
X744776Y228677D01*
X744776Y231783D02*
X755224Y231783D01*
X775224Y214429D02*
X775224Y207791D01*
X764776Y207791D01*
X764776Y214429D01*
X775224Y214429D01*
X775224Y210897D02*
X764776Y210897D01*
X764776Y214003D02*
X775224Y214003D01*
X775224Y225571D02*
X775224Y232209D01*
X775224Y225571D02*
X764776Y225571D01*
X764776Y232209D01*
X775224Y232209D01*
X775224Y228677D02*
X764776Y228677D01*
X764776Y231783D02*
X775224Y231783D01*
X795224Y214429D02*
X795224Y207791D01*
X784776Y207791D01*
X784776Y214429D01*
X795224Y214429D01*
X795224Y210897D02*
X784776Y210897D01*
X784776Y214003D02*
X795224Y214003D01*
X795224Y225571D02*
X795224Y232209D01*
X795224Y225571D02*
X784776Y225571D01*
X784776Y232209D01*
X795224Y232209D01*
X795224Y228677D02*
X784776Y228677D01*
X784776Y231783D02*
X795224Y231783D01*
X549776Y142209D02*
X549776Y135571D01*
X549776Y142209D02*
X560224Y142209D01*
X560224Y135571D01*
X549776Y135571D01*
X549776Y138677D02*
X560224Y138677D01*
X560224Y141783D02*
X549776Y141783D01*
X549776Y124429D02*
X549776Y117791D01*
X549776Y124429D02*
X560224Y124429D01*
X560224Y117791D01*
X549776Y117791D01*
X549776Y120897D02*
X560224Y120897D01*
X560224Y124003D02*
X549776Y124003D01*
X579776Y135571D02*
X579776Y142209D01*
X590224Y142209D01*
X590224Y135571D01*
X579776Y135571D01*
X579776Y138677D02*
X590224Y138677D01*
X590224Y141783D02*
X579776Y141783D01*
X579776Y124429D02*
X579776Y117791D01*
X579776Y124429D02*
X590224Y124429D01*
X590224Y117791D01*
X579776Y117791D01*
X579776Y120897D02*
X590224Y120897D01*
X590224Y124003D02*
X579776Y124003D01*
X609776Y135571D02*
X609776Y142209D01*
X620224Y142209D01*
X620224Y135571D01*
X609776Y135571D01*
X609776Y138677D02*
X620224Y138677D01*
X620224Y141783D02*
X609776Y141783D01*
X609776Y124429D02*
X609776Y117791D01*
X609776Y124429D02*
X620224Y124429D01*
X620224Y117791D01*
X609776Y117791D01*
X609776Y120897D02*
X620224Y120897D01*
X620224Y124003D02*
X609776Y124003D01*
X639776Y135571D02*
X639776Y142209D01*
X650224Y142209D01*
X650224Y135571D01*
X639776Y135571D01*
X639776Y138677D02*
X650224Y138677D01*
X650224Y141783D02*
X639776Y141783D01*
X639776Y124429D02*
X639776Y117791D01*
X639776Y124429D02*
X650224Y124429D01*
X650224Y117791D01*
X639776Y117791D01*
X639776Y120897D02*
X650224Y120897D01*
X650224Y124003D02*
X639776Y124003D01*
X669776Y135571D02*
X669776Y142209D01*
X680224Y142209D01*
X680224Y135571D01*
X669776Y135571D01*
X669776Y138677D02*
X680224Y138677D01*
X680224Y141783D02*
X669776Y141783D01*
X669776Y124429D02*
X669776Y117791D01*
X669776Y124429D02*
X680224Y124429D01*
X680224Y117791D01*
X669776Y117791D01*
X669776Y120897D02*
X680224Y120897D01*
X680224Y124003D02*
X669776Y124003D01*
X699776Y135571D02*
X699776Y142209D01*
X710224Y142209D01*
X710224Y135571D01*
X699776Y135571D01*
X699776Y138677D02*
X710224Y138677D01*
X710224Y141783D02*
X699776Y141783D01*
X699776Y124429D02*
X699776Y117791D01*
X699776Y124429D02*
X710224Y124429D01*
X710224Y117791D01*
X699776Y117791D01*
X699776Y120897D02*
X710224Y120897D01*
X710224Y124003D02*
X699776Y124003D01*
X729776Y135571D02*
X729776Y142209D01*
X740224Y142209D01*
X740224Y135571D01*
X729776Y135571D01*
X729776Y138677D02*
X740224Y138677D01*
X740224Y141783D02*
X729776Y141783D01*
X729776Y124429D02*
X729776Y117791D01*
X729776Y124429D02*
X740224Y124429D01*
X740224Y117791D01*
X729776Y117791D01*
X729776Y120897D02*
X740224Y120897D01*
X740224Y124003D02*
X729776Y124003D01*
X759776Y135571D02*
X759776Y142209D01*
X770224Y142209D01*
X770224Y135571D01*
X759776Y135571D01*
X759776Y138677D02*
X770224Y138677D01*
X770224Y141783D02*
X759776Y141783D01*
X759776Y124429D02*
X759776Y117791D01*
X759776Y124429D02*
X770224Y124429D01*
X770224Y117791D01*
X759776Y117791D01*
X759776Y120897D02*
X770224Y120897D01*
X770224Y124003D02*
X759776Y124003D01*
X789776Y135571D02*
X789776Y142209D01*
X800224Y142209D01*
X800224Y135571D01*
X789776Y135571D01*
X789776Y138677D02*
X800224Y138677D01*
X800224Y141783D02*
X789776Y141783D01*
X789776Y124429D02*
X789776Y117791D01*
X789776Y124429D02*
X800224Y124429D01*
X800224Y117791D01*
X789776Y117791D01*
X789776Y120897D02*
X800224Y120897D01*
X800224Y124003D02*
X789776Y124003D01*
X675224Y474791D02*
X675224Y481429D01*
X675224Y474791D02*
X664776Y474791D01*
X664776Y481429D01*
X675224Y481429D01*
X675224Y477897D02*
X664776Y477897D01*
X664776Y481003D02*
X675224Y481003D01*
X675224Y492571D02*
X675224Y499209D01*
X675224Y492571D02*
X664776Y492571D01*
X664776Y499209D01*
X675224Y499209D01*
X675224Y495677D02*
X664776Y495677D01*
X664776Y498783D02*
X675224Y498783D01*
X519776Y142209D02*
X519776Y135571D01*
X519776Y142209D02*
X530224Y142209D01*
X530224Y135571D01*
X519776Y135571D01*
X519776Y138677D02*
X530224Y138677D01*
X530224Y141783D02*
X519776Y141783D01*
X519776Y124429D02*
X519776Y117791D01*
X519776Y124429D02*
X530224Y124429D01*
X530224Y117791D01*
X519776Y117791D01*
X519776Y120897D02*
X530224Y120897D01*
X530224Y124003D02*
X519776Y124003D01*
X815224Y207791D02*
X815224Y214429D01*
X815224Y207791D02*
X804776Y207791D01*
X804776Y214429D01*
X815224Y214429D01*
X815224Y210897D02*
X804776Y210897D01*
X804776Y214003D02*
X815224Y214003D01*
X815224Y225571D02*
X815224Y232209D01*
X815224Y225571D02*
X804776Y225571D01*
X804776Y232209D01*
X815224Y232209D01*
X815224Y228677D02*
X804776Y228677D01*
X804776Y231783D02*
X815224Y231783D01*
X515224Y214429D02*
X515224Y207791D01*
X504776Y207791D01*
X504776Y214429D01*
X515224Y214429D01*
X515224Y210897D02*
X504776Y210897D01*
X504776Y214003D02*
X515224Y214003D01*
X515224Y225571D02*
X515224Y232209D01*
X515224Y225571D02*
X504776Y225571D01*
X504776Y232209D01*
X515224Y232209D01*
X515224Y228677D02*
X504776Y228677D01*
X504776Y231783D02*
X515224Y231783D01*
X535224Y214429D02*
X535224Y207791D01*
X524776Y207791D01*
X524776Y214429D01*
X535224Y214429D01*
X535224Y210897D02*
X524776Y210897D01*
X524776Y214003D02*
X535224Y214003D01*
X535224Y225571D02*
X535224Y232209D01*
X535224Y225571D02*
X524776Y225571D01*
X524776Y232209D01*
X535224Y232209D01*
X535224Y228677D02*
X524776Y228677D01*
X524776Y231783D02*
X535224Y231783D01*
X555224Y214429D02*
X555224Y207791D01*
X544776Y207791D01*
X544776Y214429D01*
X555224Y214429D01*
X555224Y210897D02*
X544776Y210897D01*
X544776Y214003D02*
X555224Y214003D01*
X555224Y225571D02*
X555224Y232209D01*
X555224Y225571D02*
X544776Y225571D01*
X544776Y232209D01*
X555224Y232209D01*
X555224Y228677D02*
X544776Y228677D01*
X544776Y231783D02*
X555224Y231783D01*
X575224Y214429D02*
X575224Y207791D01*
X564776Y207791D01*
X564776Y214429D01*
X575224Y214429D01*
X575224Y210897D02*
X564776Y210897D01*
X564776Y214003D02*
X575224Y214003D01*
X575224Y225571D02*
X575224Y232209D01*
X575224Y225571D02*
X564776Y225571D01*
X564776Y232209D01*
X575224Y232209D01*
X575224Y228677D02*
X564776Y228677D01*
X564776Y231783D02*
X575224Y231783D01*
X595224Y214429D02*
X595224Y207791D01*
X584776Y207791D01*
X584776Y214429D01*
X595224Y214429D01*
X595224Y210897D02*
X584776Y210897D01*
X584776Y214003D02*
X595224Y214003D01*
X595224Y225571D02*
X595224Y232209D01*
X595224Y225571D02*
X584776Y225571D01*
X584776Y232209D01*
X595224Y232209D01*
X595224Y228677D02*
X584776Y228677D01*
X584776Y231783D02*
X595224Y231783D01*
X615224Y214429D02*
X615224Y207791D01*
X604776Y207791D01*
X604776Y214429D01*
X615224Y214429D01*
X615224Y210897D02*
X604776Y210897D01*
X604776Y214003D02*
X615224Y214003D01*
X615224Y225571D02*
X615224Y232209D01*
X615224Y225571D02*
X604776Y225571D01*
X604776Y232209D01*
X615224Y232209D01*
X615224Y228677D02*
X604776Y228677D01*
X604776Y231783D02*
X615224Y231783D01*
D13*
X831000Y43000D03*
X793000Y43000D03*
X781000Y487000D03*
X819000Y487000D03*
D12*
X735224Y481429D02*
X735224Y474791D01*
X724776Y474791D01*
X724776Y481429D01*
X735224Y481429D01*
X735224Y477897D02*
X724776Y477897D01*
X724776Y481003D02*
X735224Y481003D01*
X735224Y492571D02*
X735224Y499209D01*
X735224Y492571D02*
X724776Y492571D01*
X724776Y499209D01*
X735224Y499209D01*
X735224Y495677D02*
X724776Y495677D01*
X724776Y498783D02*
X735224Y498783D01*
X705224Y481429D02*
X705224Y474791D01*
X694776Y474791D01*
X694776Y481429D01*
X705224Y481429D01*
X705224Y477897D02*
X694776Y477897D01*
X694776Y481003D02*
X705224Y481003D01*
X705224Y492571D02*
X705224Y499209D01*
X705224Y492571D02*
X694776Y492571D01*
X694776Y499209D01*
X705224Y499209D01*
X705224Y495677D02*
X694776Y495677D01*
X694776Y498783D02*
X705224Y498783D01*
X765224Y481429D02*
X765224Y474791D01*
X754776Y474791D01*
X754776Y481429D01*
X765224Y481429D01*
X765224Y477897D02*
X754776Y477897D01*
X754776Y481003D02*
X765224Y481003D01*
X765224Y492571D02*
X765224Y499209D01*
X765224Y492571D02*
X754776Y492571D01*
X754776Y499209D01*
X765224Y499209D01*
X765224Y495677D02*
X754776Y495677D01*
X754776Y498783D02*
X765224Y498783D01*
D14*
X719944Y385223D03*
X720000Y179000D03*
M02*
