M48
;GenerationSoftware,Autodesk,EAGLE,9.7.0*%
;CreationDate,2020-11-30T00:24:52Z*%
FMAT,2
ICI,OFF
METRIC,TZ,000.000
T3C0.350
T2C0.400
T1C0.850
%
G90
M71
T1
X72876Y38459
X71976Y15459
X74176Y15459
X69476Y15459
X70876Y38459
T2
X78000Y51000
X72000Y10000
X62094Y35045
X54733Y23907
X42000Y27000
X43171Y30859
X60221Y38000
X43153Y33830
X64306Y27306
X51809Y21386
X59611Y30800
X64228Y25428
X33442Y23968
X41451Y30399
X52000Y24000
X49464Y20031
X40218Y33977
X59000Y45900
X68600Y49500
X54272Y30339
X77965Y27571
X73000Y46200
X68900Y46500
X74900Y46600
T3
X42592Y21722
X15750Y29091
X21800Y29400
X28000Y28000
X37998Y27469
X40064Y29531
X7000Y44500
X13000Y44500
X19000Y44500
X25000Y44500
X31000Y44500
X32258Y39335
X24900Y38619
X30900Y38619
X6900Y38619
X18900Y38380
X13000Y38380
X18900Y32631
X6900Y32619
X30900Y32619
X24900Y32631
X13000Y32430
X45296Y29544
X44625Y30971
X12900Y26619
X24900Y26631
X18900Y26631
X30900Y26619
X6900Y26619
X44594Y25128
X7000Y20750
X13000Y20750
X19250Y20750
X25000Y21000
X31793Y21293
X45155Y23459
X32655Y23003
X35000Y7900
X40293Y20443
X39000Y21476
X38724Y19964
X6000Y47750
X12000Y47750
X18000Y47750
X24000Y47750
X30000Y47750
X33000Y46500
X48000Y35000
X44000Y39000
X69000Y34750
X40294Y45100
X53885Y39299
X6000Y29750
X12000Y29750
X18000Y29750
X52968Y39593
X39086Y31319
X24000Y29907
X30000Y29907
X68961Y33521
X6000Y41750
X12000Y41750
X24000Y41750
X30000Y41750
X40000Y39000
X44000Y35000
X47834Y31052
X49658Y30000
X6000Y36000
X12000Y36000
X18000Y36000
X24000Y36000
X30000Y36000
X38000Y42000
X40000Y42000
X34135Y38281
X43937Y33153
X40000Y35571
X38979Y33750
X58312Y46799
X61509Y45893
X6000Y23750
X12000Y23750
X18000Y23750
X24000Y23750
X30000Y23750
X52000Y35000
X48100Y38956
X77000Y34000
X44000Y43051
X18000Y41750
X53870Y37036
X50250Y31000
X1686Y23222
X48616Y51444
X9000Y25000
X63864Y21940
X57364Y33447
X46871Y52107
X58505Y40000
X61029Y27000
X84000Y5100
X17000Y22000
X66069Y21811
X57400Y50800
X59338Y37775
X58000Y30051
X63453Y24954
X65336Y24000
X22000Y20000
X68125Y21831
X35000Y3000
X31700Y8212
X67000Y2000
X66194Y23848
X29000Y22000
X70166Y21389
X54000Y20000
X67400Y15700
X35886Y28636
X48115Y19826
X33900Y45644
X33567Y24851
X69000Y2000
X32653Y40153
X34500Y35500
X34600Y24561
X35574Y30561
X35458Y24393
X69300Y18100
X53193Y46500
X37108Y28295
X63200Y37369
X62000Y33807
X55900Y24492
X62237Y26084
X56036Y20036
X49500Y38500
X58000Y20000
X57885Y21099
X63012Y33688
X45407Y44793
X73300Y17823
X53075Y31732
X64889Y39000
X60889Y39000
X65840Y31123
X67056Y30040
X67000Y38000
X51000Y41000
X76500Y17000
X46891Y30109
X50144Y29018
X59000Y20007
X25900Y2595
X24613Y658
X79500Y17000
X59974Y22099
X42282Y16560
X48443Y27846
X56485Y23864
X53748Y28033
X61000Y20391
X62783Y24411
X54886Y11068
X65699Y50299
X60675Y49394
X60491Y33807
X53991Y25530
X55976Y30008
X29572Y5028
X50000Y15000
X44828Y18680
X41450Y47400
X72000Y44007
X44000Y49888
X42036Y41938
X59768Y48314
X68000Y1000
X77000Y4000
X66095Y1459
X36200Y25000
X40100Y25100
X32170Y3830
X29794Y6123
X48801Y20801
X39206Y29750
X45672Y26269
X44311Y17110
X44417Y21503
X43720Y30159
X42255Y23815
X69543Y45243
X46501Y25382
X46505Y24169
X58707Y44661
X44672Y19893
X42000Y6000
X16000Y9000
X29310Y9110
X50481Y26466
X65375Y28482
X52814Y27410
X39891Y6393
X32773Y8228
X43450Y21686
X39000Y27200
X38000Y6993
X42672Y19538
X40238Y23770
M30